<svg width="558" height="289" viewBox="0 0 558 289" fill="none" xmlns="http://www.w3.org/2000/svg">
<g filter="url(#filter0_d_741_15657)">
<ellipse cx="213.641" cy="141.5" rx="211" ry="141.5" fill="white"/>
<path d="M213.641 0.330078C271.85 0.330078 324.534 16.1535 362.656 41.7188C400.78 67.2854 424.311 102.57 424.311 141.5C424.311 180.43 400.78 215.715 362.656 241.281C324.534 266.847 271.85 282.67 213.641 282.67C155.431 282.67 102.747 266.847 64.625 241.281C26.5008 215.715 2.9707 180.43 2.9707 141.5C2.9707 102.57 26.5008 67.2854 64.625 41.7188C102.747 16.1535 155.431 0.330078 213.641 0.330078Z" stroke="black" stroke-width="0.660521"/>
</g>
<path d="M109.632 164.487L125.633 167.025C123.794 181.003 119.159 191.671 111.729 199.027C104.372 206.384 95.5068 210.062 85.1338 210.062C72.5537 210.062 62.1807 204.913 54.0146 194.613C45.9222 184.24 41.876 168.938 41.876 148.707C41.876 128.329 45.959 113.063 54.125 102.911C62.3646 92.6852 72.9215 87.5723 85.7959 87.5723C95.7275 87.5723 104.077 90.6621 110.846 96.8418C117.688 103.021 122.065 112.291 123.978 124.65L108.197 127.63C106.652 119.685 103.967 113.762 100.142 109.863C96.3161 105.891 91.7181 103.904 86.3477 103.904C78.3288 103.904 71.6709 107.472 66.374 114.608C61.1507 121.671 58.5391 132.927 58.5391 148.376C58.5391 164.34 61.0404 175.89 66.043 183.026C71.1191 190.162 77.5931 193.73 85.4648 193.73C91.6445 193.73 96.9046 191.376 101.245 186.668C105.659 181.886 108.455 174.493 109.632 164.487ZM129.402 90.2207H205.104V207.414H188.882V106.663H145.734V165.039C145.734 178.355 145.367 187.293 144.631 191.854C143.969 196.416 141.946 200.278 138.562 203.441C135.251 206.605 130.506 208.187 124.326 208.187C120.501 208.187 116.197 207.929 111.415 207.414V190.751C119.066 190.677 123.591 190.42 124.988 189.979C126.386 189.537 127.453 188.434 128.189 186.668C128.998 184.829 129.402 178.428 129.402 167.467V90.2207ZM236.571 139.217H270.449C269.567 129.285 266.808 120.935 262.173 114.167C257.612 107.399 251.616 104.015 244.186 104.015C231.532 104.015 223.918 111.997 221.343 127.961L205.452 124.871C206.629 114.13 210.602 105.229 217.37 98.166C224.212 91.1035 233.003 87.5723 243.744 87.5723C257.207 87.5723 267.801 93.0531 275.526 104.015C283.324 114.903 287.223 129.874 287.223 148.928C287.223 167.54 283.397 182.401 275.746 193.51C268.169 204.545 258.016 210.062 245.289 210.062C233.371 210.062 223.881 206.053 216.819 198.034C209.756 190.015 205.416 179.716 203.797 167.136L219.798 164.598C222.226 184.02 230.355 193.73 244.186 193.73C259.708 193.73 268.463 181.003 270.449 155.549H236.571V139.217ZM288.234 90.2207H304.455V179.605L349.699 90.2207H367.245V207.414H351.024V118.581L305.78 207.414H288.234V90.2207ZM342.747 45.8594H353.893C352.936 55.3496 350.067 62.4857 345.285 67.2676C340.503 72.0495 334.434 74.4404 327.077 74.4404C319.721 74.4404 313.651 72.0495 308.869 67.2676C304.161 62.4857 301.329 55.3496 300.372 45.8594H311.518C313.21 55.791 318.249 60.7568 326.636 60.7568C331.344 60.7568 334.986 59.5798 337.561 57.2256C340.136 54.8714 341.864 51.0827 342.747 45.8594Z" fill="#FD229E"/>
<defs>
<filter id="filter0_d_741_15657" x="-0.00145745" y="0" width="427.284" height="288.284" filterUnits="userSpaceOnUse" color-interpolation-filters="sRGB">
<feFlood flood-opacity="0" result="BackgroundImageFix"/>
<feColorMatrix in="SourceAlpha" type="matrix" values="0 0 0 0 0 0 0 0 0 0 0 0 0 0 0 0 0 0 127 0" result="hardAlpha"/>
<feOffset dy="2.64208"/>
<feGaussianBlur stdDeviation="1.32104"/>
<feComposite in2="hardAlpha" operator="out"/>
<feColorMatrix type="matrix" values="0 0 0 0 0 0 0 0 0 0 0 0 0 0 0 0 0 0 0.25 0"/>
<feBlend mode="normal" in2="BackgroundImageFix" result="effect1_dropShadow_741_15657"/>
<feBlend mode="normal" in="SourceGraphic" in2="effect1_dropShadow_741_15657" result="shape"/>
</filter>
</defs>
</svg>
