<svg width="615" height="288" viewBox="0 0 615 288" fill="none" xmlns="http://www.w3.org/2000/svg">
<g filter="url(#filter0_d_741_15658)">
<ellipse cx="307.141" cy="141.351" rx="304.5" ry="141.351" fill="white"/>
<path d="M307.141 0.330078C391.189 0.330078 467.264 16.1451 522.315 41.7002C577.394 67.2681 611.311 102.524 611.311 141.352C611.31 180.179 577.394 215.434 522.315 241.002C467.264 266.557 391.189 282.373 307.141 282.373C223.092 282.373 147.017 266.557 91.9658 241.002C36.8875 215.434 2.97079 180.179 2.9707 141.352C2.9707 102.524 36.8874 67.2681 91.9658 41.7002C147.017 16.1451 223.092 0.330078 307.141 0.330078Z" stroke="black" stroke-width="0.660521"/>
</g>
<path d="M55.9521 82.2012H93.4717C102.006 82.2012 108.516 83.0104 113.004 84.6289C117.565 86.2474 121.611 89.5947 125.143 94.6709C128.747 99.6735 130.55 105.89 130.55 113.32C130.55 124.503 126.724 132.853 119.073 138.37C129.593 143.078 134.854 152.495 134.854 166.62C134.854 175.669 132.168 183.394 126.798 189.794C121.427 196.194 112.268 199.395 99.3203 199.395H55.9521V82.2012ZM72.1738 131.528H89.6094C96.5247 131.528 101.27 131.087 103.845 130.204C106.493 129.321 108.847 127.556 110.907 124.907C112.967 122.185 113.997 118.875 113.997 114.976C113.997 108.796 112.158 104.529 108.479 102.175C104.875 99.8206 98.7686 98.6436 90.1611 98.6436H72.1738V131.528ZM72.1738 183.062H93.6924C102.888 183.062 109.252 181.665 112.783 178.869C116.314 176 118.08 171.586 118.08 165.627C118.08 159.3 116.204 154.776 112.452 152.054C108.774 149.258 101.969 147.86 92.0371 147.86H72.1738V183.062ZM169.87 82.2012H186.092V130.977H231.336V82.2012H247.558V199.395H231.336V147.419H186.092V199.395H169.87V82.2012ZM247.796 140.798C247.796 120.567 252.026 105.301 260.487 95.002C269.02 84.7025 279.798 79.5527 292.82 79.5527C305.62 79.5527 316.324 84.7025 324.932 95.002C333.539 105.301 337.843 120.162 337.843 139.584C337.843 160.624 333.613 176.294 325.153 186.594C316.692 196.893 305.915 202.043 292.82 202.043C279.945 202.043 269.204 196.893 260.597 186.594C252.063 176.221 247.796 160.955 247.796 140.798ZM264.459 140.798C264.459 155.953 267.218 167.245 272.736 174.676C278.253 182.033 285.095 185.711 293.261 185.711C300.912 185.711 307.46 181.996 312.904 174.565C318.421 167.062 321.18 155.806 321.18 140.798C321.18 125.716 318.421 114.497 312.904 107.141C307.386 99.7103 300.544 95.9951 292.378 95.9951C284.654 95.9951 278.069 99.7103 272.625 107.141C267.181 114.571 264.459 125.79 264.459 140.798ZM338.854 244.308V82.2012H353.751V97.4297C357.43 91.1029 361.513 86.5417 366 83.7461C370.488 80.9505 375.638 79.5527 381.45 79.5527C389.027 79.5527 395.869 81.7965 401.975 86.2842C408.081 90.7718 412.973 97.6136 416.652 106.81C420.404 115.932 422.28 126.93 422.28 139.805C422.28 159.742 418.086 175.117 409.7 185.932C401.386 196.673 391.602 202.043 380.346 202.043C375.343 202.043 370.672 200.756 366.331 198.181C361.991 195.606 358.239 191.964 355.076 187.256V244.308H338.854ZM353.531 141.46C353.531 156.615 356.069 167.797 361.145 175.007C366.221 182.143 372.364 185.711 379.574 185.711C386.489 185.711 392.558 181.996 397.782 174.565C403.005 167.135 405.617 155.659 405.617 140.136C405.617 124.834 403.078 113.504 398.002 106.147C392.926 98.7907 386.746 95.1123 379.463 95.1123C372.916 95.1123 366.957 99.085 361.586 107.03C356.216 114.902 353.531 126.379 353.531 141.46ZM424.063 82.2012H440.285V132.853C445.508 132.853 449.149 131.639 451.209 129.211C453.343 126.71 456.433 119.647 460.479 108.023C463.642 98.6803 466.217 92.5374 468.204 89.5947C470.263 86.5785 472.544 84.5921 475.045 83.6357C477.62 82.6794 482.071 82.2012 488.398 82.2012H490.826V98.6436L485.97 98.5332C482.512 98.5332 480.048 99.1585 478.577 100.409C477.105 101.66 475.855 104.014 474.825 107.472C471.146 119.316 468.24 126.93 466.107 130.314C463.973 133.699 460.589 136.678 455.954 139.253C462.943 141.534 469.822 149.479 476.59 163.089L494.467 199.395H476.59L459.155 163.089C455.623 155.732 452.497 150.913 449.775 148.633C447.126 146.352 443.963 145.212 440.285 145.212V199.395H424.063V82.2012ZM552.53 161.654L569.303 164.192C566.508 176.699 561.431 186.152 554.075 192.553C546.791 198.88 537.743 202.043 526.928 202.043C513.318 202.043 502.283 196.893 493.823 186.594C485.436 176.221 481.243 161.286 481.243 141.791C481.243 121.56 485.473 106.147 493.933 95.5537C502.467 84.8864 513.245 79.5527 526.266 79.5527C538.699 79.5527 549.072 84.776 557.385 95.2227C565.698 105.669 569.855 120.787 569.855 140.577L569.745 145.874H498.016C498.678 159.043 501.731 168.974 507.175 175.669C512.619 182.364 519.24 185.711 527.039 185.711C539.251 185.711 547.748 177.692 552.53 161.654ZM499.009 129.542H552.64C551.904 119.39 549.734 111.812 546.129 106.81C540.906 99.5264 534.248 95.8848 526.156 95.8848C518.873 95.8848 512.656 98.9378 507.506 105.044C502.357 111.076 499.524 119.243 499.009 129.542Z" fill="#FD229E"/>
<defs>
<filter id="filter0_d_741_15658" x="-0.00145745" y="0" width="614.284" height="287.987" filterUnits="userSpaceOnUse" color-interpolation-filters="sRGB">
<feFlood flood-opacity="0" result="BackgroundImageFix"/>
<feColorMatrix in="SourceAlpha" type="matrix" values="0 0 0 0 0 0 0 0 0 0 0 0 0 0 0 0 0 0 127 0" result="hardAlpha"/>
<feOffset dy="2.64208"/>
<feGaussianBlur stdDeviation="1.32104"/>
<feComposite in2="hardAlpha" operator="out"/>
<feColorMatrix type="matrix" values="0 0 0 0 0 0 0 0 0 0 0 0 0 0 0 0 0 0 0.25 0"/>
<feBlend mode="normal" in2="BackgroundImageFix" result="effect1_dropShadow_741_15658"/>
<feBlend mode="normal" in="SourceGraphic" in2="effect1_dropShadow_741_15658" result="shape"/>
</filter>
</defs>
</svg>
