<svg width="555" height="289" viewBox="0 0 555 289" fill="none" xmlns="http://www.w3.org/2000/svg">
<g filter="url(#filter0_d_770_29308)">
<ellipse cx="213.641" cy="141.5" rx="211" ry="141.5" fill="white"/>
<path d="M213.641 0.330078C271.85 0.330078 324.534 16.1535 362.656 41.7188C400.78 67.2854 424.311 102.57 424.311 141.5C424.311 180.43 400.78 215.715 362.656 241.281C324.534 266.847 271.85 282.67 213.641 282.67C155.431 282.67 102.747 266.847 64.625 241.281C26.5008 215.715 2.9707 180.43 2.9707 141.5C2.9707 102.57 26.5008 67.2854 64.625 41.7188C102.747 16.1535 155.431 0.330078 213.641 0.330078Z" stroke="black" stroke-width="0.660521"/>
</g>
<path d="M111.107 82.2207V132.872C116.257 132.872 119.862 131.658 121.922 129.23C124.055 126.803 127.145 119.74 131.191 108.043C134.428 98.6999 137.04 92.557 139.026 89.6143C141.086 86.598 143.367 84.6117 145.868 83.6553C148.369 82.6989 152.784 82.2207 159.11 82.2207H161.538V98.6631L156.683 98.5527C153.446 98.5527 151.055 99.1045 149.51 100.208C148.038 101.312 146.714 103.739 145.537 107.491C141.859 119.336 138.953 126.95 136.819 130.334C134.686 133.718 131.302 136.698 126.667 139.272C133.729 141.553 140.608 149.498 147.303 163.108L165.18 199.414H147.303L129.867 163.108C126.262 155.678 123.099 150.859 120.377 148.652C117.729 146.372 114.639 145.231 111.107 145.231V199.414H94.4443V145.231C90.8395 145.231 87.7129 146.335 85.0645 148.542C82.416 150.675 79.2526 155.531 75.5742 163.108L58.1387 199.414H40.2617L58.1387 163.108C64.9069 149.425 71.7855 141.479 78.7744 139.272C74.2868 136.771 70.9762 133.976 68.8428 130.886C66.7829 127.796 63.8034 119.998 59.9043 107.491C58.8008 103.813 57.4766 101.422 55.9316 100.318C54.4603 99.1413 52.0693 98.5527 48.7588 98.5527L43.9033 98.6631V82.2207H46.3311C52.8786 82.2207 57.5133 82.8092 60.2354 83.9863C62.9574 85.1634 65.238 87.3704 67.0771 90.6074C68.9899 93.7708 71.9326 101.164 75.9053 112.788C78.9951 121.69 81.57 127.281 83.6299 129.562C85.6898 131.769 89.2946 132.872 94.4443 132.872V82.2207H111.107ZM158.135 244.548L156.369 225.898C159.974 227.076 163.064 227.664 165.639 227.664C169.096 227.664 171.929 226.965 174.136 225.567C176.416 224.17 178.292 221.999 179.764 219.057C180.279 218.027 182.412 211.553 186.164 199.635L149.638 82.2207H167.184L187.268 150.087C189.769 158.547 192.086 167.596 194.22 177.233C196.059 168.111 198.266 159.209 200.841 150.528L221.366 82.2207H237.698L201.172 201.4C196.39 216.85 192.601 227.149 189.806 232.299C187.084 237.522 183.957 241.274 180.426 243.555C176.968 245.835 173.032 246.976 168.618 246.976C165.528 246.976 162.034 246.166 158.135 244.548ZM233.412 82.2207H249.634V132.872C254.857 132.872 258.499 131.658 260.559 129.23C262.692 126.729 265.782 119.667 269.828 108.043C272.992 98.6999 275.567 92.557 277.553 89.6143C279.613 86.598 281.893 84.6117 284.395 83.6553C286.97 82.6989 291.42 82.2207 297.747 82.2207H300.175V98.6631L295.319 98.5527C291.862 98.5527 289.397 99.1781 287.926 100.429C286.455 101.679 285.204 104.034 284.174 107.491C280.496 119.336 277.59 126.95 275.456 130.334C273.323 133.718 269.939 136.698 265.304 139.272C272.293 141.553 279.171 149.498 285.94 163.108L303.817 199.414H285.94L268.504 163.108C264.973 155.752 261.846 150.933 259.124 148.652C256.476 146.372 253.312 145.231 249.634 145.231V199.414H233.412V82.2207ZM296.441 82.2207H312.662V171.605L357.906 82.2207H375.452V199.414H359.231V110.581L313.987 199.414H296.441V82.2207Z" fill="#FD229E"/>
<defs>
<filter id="filter0_d_770_29308" x="-0.00145745" y="0" width="427.284" height="288.284" filterUnits="userSpaceOnUse" color-interpolation-filters="sRGB">
<feFlood flood-opacity="0" result="BackgroundImageFix"/>
<feColorMatrix in="SourceAlpha" type="matrix" values="0 0 0 0 0 0 0 0 0 0 0 0 0 0 0 0 0 0 127 0" result="hardAlpha"/>
<feOffset dy="2.64208"/>
<feGaussianBlur stdDeviation="1.32104"/>
<feComposite in2="hardAlpha" operator="out"/>
<feColorMatrix type="matrix" values="0 0 0 0 0 0 0 0 0 0 0 0 0 0 0 0 0 0 0.25 0"/>
<feBlend mode="normal" in2="BackgroundImageFix" result="effect1_dropShadow_770_29308"/>
<feBlend mode="normal" in="SourceGraphic" in2="effect1_dropShadow_770_29308" result="shape"/>
</filter>
</defs>
</svg>
