<svg width="705" height="196" viewBox="0 0 705 196" fill="none" xmlns="http://www.w3.org/2000/svg">
<rect width="705" height="196" fill="#F64293"/>
<path d="M180.328 77.0312C180.328 72.9375 180.93 69.5703 182.133 66.9297C183.352 64.2734 184.938 62.2969 186.891 61C188.844 59.7031 191.211 59.0547 193.992 59.0547C198.023 59.0547 201.305 60.5938 203.836 63.6719C206.383 66.75 207.656 71.1328 207.656 76.8203C207.656 82.5703 206.312 87.0625 203.625 90.2969C201.266 93.1562 198.062 94.5859 194.016 94.5859C189.938 94.5859 186.719 93.1719 184.359 90.3438C181.672 87.1094 180.328 82.6719 180.328 77.0312ZM186.188 76.7969C186.188 80.75 186.938 83.7188 188.438 85.7031C189.938 87.6719 191.797 88.6562 194.016 88.6562C196.25 88.6562 198.102 87.6797 199.57 85.7266C201.039 83.7578 201.773 80.7422 201.773 76.6797C201.773 72.6953 201.055 69.75 199.617 67.8438C198.195 65.9375 196.328 64.9844 194.016 64.9844C191.703 64.9844 189.82 65.9453 188.367 67.8672C186.914 69.7891 186.188 72.7656 186.188 76.7969ZM209.672 74.3125V69.1328H228.164V74.3125H221.625V94H216.211V74.3125H209.672ZM237.914 83.7812H236.906V79.5156C239.438 79.5156 240.703 78.4219 240.703 76.2344C240.703 75.3438 240.453 74.5938 239.953 73.9844C239.453 73.375 238.773 73.0703 237.914 73.0703C236.258 73.0703 235.109 74.1406 234.469 76.2812L229.852 75.0859C230.93 70.7422 233.633 68.5703 237.961 68.5703C240.336 68.5703 242.227 69.2344 243.633 70.5625C245.039 71.8906 245.742 73.625 245.742 75.7656C245.742 78.1094 244.531 79.9766 242.109 81.3672C245.109 82.4609 246.609 84.4922 246.609 87.4609C246.609 89.5234 245.828 91.2266 244.266 92.5703C242.719 93.9141 240.617 94.5859 237.961 94.5859C233.195 94.5859 230.219 92.25 229.031 87.5781L233.977 86.5234C234.789 88.9453 236.102 90.1562 237.914 90.1562C238.852 90.1562 239.656 89.8516 240.328 89.2422C241 88.6172 241.336 87.8359 241.336 86.8984C241.336 85.9609 241.016 85.2109 240.375 84.6484C239.734 84.0703 238.914 83.7812 237.914 83.7812ZM251.086 94V69.1328H256.5V79.4453H262.406C265.953 79.4453 268.242 80.2344 269.273 81.8125C270.305 83.375 270.82 85.0234 270.82 86.7578C270.82 91.5859 268.242 94 263.086 94H251.086ZM256.5 83.4766V89.8281H261.984C264.156 89.8281 265.242 88.7734 265.242 86.6641C265.242 85.5703 264.906 84.7656 264.234 84.25C263.562 83.7344 262.312 83.4766 260.484 83.4766H256.5ZM275.18 94V69.1094H280.594V94H275.18ZM299.484 94H286.195V69.1328H298.383C302.93 69.1328 305.203 71.2969 305.203 75.625C305.203 78.5312 304.062 80.4141 301.781 81.2734C304.547 82.2266 305.93 84.2891 305.93 87.4609C305.93 89.4141 305.336 90.9922 304.148 92.1953C302.977 93.3984 301.422 94 299.484 94ZM291.609 73.3047V79.3984H295.594C298.484 79.3984 299.93 78.3438 299.93 76.2344C299.93 74.2812 298.484 73.3047 295.594 73.3047H291.609ZM291.609 83.4297V89.8281H296.32C299.008 89.8281 300.352 88.7734 300.352 86.6641C300.352 85.6172 300.016 84.8203 299.344 84.2734C298.672 83.7109 297.188 83.4297 294.891 83.4297H291.609ZM320.039 81.2031C320.039 78.7656 320.523 76.5469 321.492 74.5469C322.461 72.5469 323.727 71.0469 325.289 70.0469C326.852 69.0469 328.609 68.5469 330.562 68.5469C333.844 68.5469 336.422 69.8359 338.297 72.4141C340.172 74.9766 341.109 77.9766 341.109 81.4141C341.109 83.9766 340.617 86.2891 339.633 88.3516C338.664 90.4141 337.383 91.9688 335.789 93.0156C334.211 94.0469 332.477 94.5625 330.586 94.5625C327.555 94.5625 325.039 93.4062 323.039 91.0938C321.039 88.7812 320.039 85.4844 320.039 81.2031ZM325.57 81.5547C325.57 84.0703 326.062 85.9766 327.047 87.2734C328.031 88.5547 329.219 89.1953 330.609 89.1953C331.969 89.1953 333.133 88.5469 334.102 87.25C335.07 85.9531 335.555 84.0391 335.555 81.5078C335.555 79.0391 335.062 77.1562 334.078 75.8594C333.094 74.5625 331.914 73.9141 330.539 73.9141C329.18 73.9141 328.008 74.5625 327.023 75.8594C326.055 77.1562 325.57 79.0547 325.57 81.5547ZM342.938 74.3125V69.1328H361.43V74.3125H354.891V94H349.477V74.3125H342.938ZM364.477 94V69.1328H382.617V94H377.18V74.3125H369.891V94H364.477ZM388.266 69.1094H393.305V72.7656C393.992 71.4531 394.898 70.4219 396.023 69.6719C397.148 68.9219 398.359 68.5469 399.656 68.5469C401.984 68.5469 403.984 69.6562 405.656 71.875C407.344 74.0938 408.188 77.2422 408.188 81.3203C408.188 85.6016 407.344 88.8828 405.656 91.1641C403.969 93.4297 401.961 94.5625 399.633 94.5625C398.555 94.5625 397.547 94.3047 396.609 93.7891C395.688 93.2578 394.711 92.3047 393.68 90.9297V103.469H388.266V69.1094ZM393.609 81.1328C393.609 83.9453 394.062 86.0156 394.969 87.3438C395.891 88.6719 397 89.3359 398.297 89.3359C399.531 89.3359 400.57 88.7266 401.414 87.5078C402.258 86.2734 402.68 84.2656 402.68 81.4844C402.68 78.8438 402.242 76.8984 401.367 75.6484C400.508 74.3828 399.453 73.75 398.203 73.75C396.891 73.75 395.797 74.3672 394.922 75.6016C394.047 76.8203 393.609 78.6641 393.609 81.1328ZM416.508 76.7031L411.609 75.625C412.203 73.1094 413.18 71.3047 414.539 70.2109C415.914 69.1016 417.883 68.5469 420.445 68.5469C422.727 68.5469 424.469 68.8672 425.672 69.5078C426.875 70.1484 427.734 71.0234 428.25 72.1328C428.766 73.2266 429.023 75.2266 429.023 78.1328L428.977 85.8203C428.977 87.9766 429.062 89.5859 429.234 90.6484C429.406 91.6953 429.727 92.8125 430.195 94H424.852L424.148 91.2812C423.227 92.375 422.234 93.1953 421.172 93.7422C420.125 94.2891 419.008 94.5625 417.82 94.5625C415.836 94.5625 414.211 93.8984 412.945 92.5703C411.68 91.2266 411.047 89.4453 411.047 87.2266C411.047 85.8203 411.305 84.5938 411.82 83.5469C412.336 82.5 413.062 81.6641 414 81.0391C414.938 80.4141 416.438 79.8594 418.5 79.375C421 78.7969 422.742 78.2578 423.727 77.7578C423.727 76.3828 423.625 75.4844 423.422 75.0625C423.234 74.625 422.875 74.2734 422.344 74.0078C421.828 73.7266 421.094 73.5859 420.141 73.5859C419.172 73.5859 418.406 73.8047 417.844 74.2422C417.297 74.6797 416.852 75.5 416.508 76.7031ZM423.727 82.0469C423.039 82.3281 421.969 82.6562 420.516 83.0312C418.844 83.4688 417.75 83.9531 417.234 84.4844C416.719 85.0156 416.461 85.7031 416.461 86.5469C416.461 87.5 416.742 88.3047 417.305 88.9609C417.883 89.6016 418.602 89.9219 419.461 89.9219C420.227 89.9219 420.984 89.6641 421.734 89.1484C422.484 88.6172 423 87.9922 423.281 87.2734C423.578 86.5547 423.727 85.25 423.727 83.3594V82.0469ZM447.703 94H434.414V69.1328H446.602C451.148 69.1328 453.422 71.2969 453.422 75.625C453.422 78.5312 452.281 80.4141 450 81.2734C452.766 82.2266 454.148 84.2891 454.148 87.4609C454.148 89.4141 453.555 90.9922 452.367 92.1953C451.195 93.3984 449.641 94 447.703 94ZM439.828 73.3047V79.3984H443.812C446.703 79.3984 448.148 78.3438 448.148 76.2344C448.148 74.2812 446.703 73.3047 443.812 73.3047H439.828ZM439.828 83.4297V89.8281H444.539C447.227 89.8281 448.57 88.7734 448.57 86.6641C448.57 85.6172 448.234 84.8203 447.562 84.2734C446.891 83.7109 445.406 83.4297 443.109 83.4297H439.828ZM472.711 94V74.3125H465.422V85.6562C465.422 87.4844 465.297 88.9844 465.047 90.1562C464.797 91.3125 464.367 92.2422 463.758 92.9453C463.164 93.6328 462.57 94.0469 461.977 94.1875C461.398 94.3438 460.594 94.4219 459.562 94.4219C458.938 94.4219 457.812 94.2812 456.188 94V89.1484C456.625 89.1797 457.367 89.1953 458.414 89.1953C459.055 89.1953 459.477 88.9766 459.68 88.5391C459.883 88.0859 459.984 87.0781 459.984 85.5156V69.1328H478.125V94H472.711ZM495.422 86.0781L500.789 87.1797C500.07 89.6797 498.953 91.5391 497.438 92.7578C495.922 93.9609 494.078 94.5625 491.906 94.5625C488.891 94.5625 486.562 93.5547 484.922 91.5391C482.984 89.1953 482.016 85.9141 482.016 81.6953C482.016 77.5391 482.992 74.2109 484.945 71.7109C486.602 69.6016 488.742 68.5469 491.367 68.5469C494.289 68.5469 496.578 69.625 498.234 71.7812C500.141 74.25 501.094 77.8906 501.094 82.7031L501.07 83.4531H487.547C487.578 85.4219 488.016 86.9453 488.859 88.0234C489.719 89.1016 490.75 89.6406 491.953 89.6406C493.688 89.6406 494.844 88.4531 495.422 86.0781ZM495.727 79.4219C495.68 77.4844 495.266 76.0312 494.484 75.0625C493.703 74.0781 492.773 73.5859 491.695 73.5859C490.555 73.5859 489.594 74.0938 488.812 75.1094C488.016 76.1406 487.625 77.5781 487.641 79.4219H495.727ZM505.242 94V69.1328H510.656V78.2031H518.391V69.1328H523.805V94H518.391V83.5469H510.656V94H505.242Z" fill="white"/>
<path d="M168.062 130.938L170.547 131.359C169.755 134.047 168.594 136.057 167.062 137.391C165.542 138.724 163.875 139.391 162.062 139.391C159.844 139.391 158.047 138.562 156.672 136.906C155.307 135.25 154.625 132.802 154.625 129.562C154.625 125.781 155.484 122.583 157.203 119.969C159.068 117.125 161.479 115.703 164.438 115.703C166.333 115.703 167.917 116.333 169.188 117.594C170.469 118.854 171.208 120.625 171.406 122.906L169.062 123.172C168.573 119.88 167.062 118.234 164.531 118.234C162.323 118.234 160.536 119.365 159.172 121.625C157.807 123.875 157.125 126.542 157.125 129.625C157.125 132.021 157.609 133.828 158.578 135.047C159.547 136.255 160.771 136.859 162.25 136.859C163.521 136.859 164.635 136.401 165.594 135.484C166.771 134.359 167.594 132.844 168.062 130.938ZM171.547 139L174.484 122.422H177.906L179.188 135.641L185.484 122.422H188.891L185.969 139H183.703L186.062 125.625L179.672 139H177.625L176.281 125.109L173.844 139H171.547ZM190.469 132.703C190.469 129.714 191.141 127.188 192.484 125.125C193.828 123.062 195.63 122.031 197.891 122.031C199.474 122.031 200.781 122.641 201.812 123.859C202.844 125.068 203.359 126.792 203.359 129.031C203.359 131.083 203.005 132.917 202.297 134.531C201.599 136.146 200.688 137.359 199.562 138.172C198.448 138.974 197.276 139.375 196.047 139.375C194.432 139.375 193.099 138.781 192.047 137.594C190.995 136.396 190.469 134.766 190.469 132.703ZM192.797 132.422C192.797 133.995 193.109 135.182 193.734 135.984C194.359 136.786 195.141 137.188 196.078 137.188C196.818 137.188 197.557 136.891 198.297 136.297C199.036 135.693 199.682 134.698 200.234 133.312C200.786 131.927 201.062 130.505 201.062 129.047C201.062 127.464 200.75 126.266 200.125 125.453C199.5 124.63 198.729 124.219 197.812 124.219C197.01 124.219 196.229 124.516 195.469 125.109C194.719 125.703 194.083 126.688 193.562 128.062C193.052 129.427 192.797 130.88 192.797 132.422ZM204.625 139L207.469 122.406H209.781L209.312 125.141C210.208 123.911 210.995 123.089 211.672 122.672C212.349 122.245 213.068 122.031 213.828 122.031C214.661 122.031 215.365 122.297 215.938 122.828C216.51 123.359 216.891 124.13 217.078 125.141C217.766 124.099 218.495 123.323 219.266 122.812C220.036 122.292 220.844 122.031 221.688 122.031C222.76 122.031 223.594 122.349 224.188 122.984C224.792 123.62 225.094 124.542 225.094 125.75C225.094 126.281 224.99 127.135 224.781 128.312L222.953 139H220.641L222.516 128.031C222.672 127.135 222.75 126.49 222.75 126.094C222.75 125.531 222.604 125.104 222.312 124.812C222.021 124.51 221.63 124.359 221.141 124.359C220.495 124.359 219.818 124.599 219.109 125.078C218.401 125.547 217.833 126.198 217.406 127.031C216.99 127.854 216.625 129.161 216.312 130.953L214.938 139H212.609L214.531 127.797C214.667 127.036 214.734 126.49 214.734 126.156C214.734 125.604 214.589 125.167 214.297 124.844C214.016 124.521 213.661 124.359 213.234 124.359C212.203 124.359 211.224 124.885 210.297 125.938C209.38 126.979 208.714 128.719 208.297 131.156L206.938 139H204.625ZM225.391 145.359L229.328 122.406H231.469L231.062 124.719C231.885 123.677 232.609 122.969 233.234 122.594C233.859 122.219 234.516 122.031 235.203 122.031C236.464 122.031 237.526 122.599 238.391 123.734C239.266 124.87 239.703 126.531 239.703 128.719C239.703 130.781 239.349 132.661 238.641 134.359C237.943 136.057 237.016 137.37 235.859 138.297C234.964 139.016 234.026 139.375 233.047 139.375C231.411 139.375 230.146 138.365 229.25 136.344L227.703 145.359H225.391ZM229.953 132.766C229.953 134.161 230.234 135.229 230.797 135.969C231.37 136.698 232.083 137.062 232.938 137.062C233.615 137.062 234.208 136.839 234.719 136.391C235.448 135.745 236.078 134.682 236.609 133.203C237.141 131.714 237.406 130.214 237.406 128.703C237.406 127.286 237.12 126.203 236.547 125.453C235.984 124.693 235.297 124.312 234.484 124.312C233.839 124.312 233.182 124.604 232.516 125.188C231.849 125.76 231.255 126.776 230.734 128.234C230.214 129.693 229.953 131.203 229.953 132.766ZM250.406 136C248.771 138.25 247.099 139.375 245.391 139.375C244.401 139.375 243.568 139.021 242.891 138.312C242.224 137.604 241.891 136.693 241.891 135.578C241.891 134.87 242.036 133.672 242.328 131.984L243.969 122.406H246.281L244.469 133.016C244.312 133.901 244.234 134.583 244.234 135.062C244.234 135.719 244.396 136.219 244.719 136.562C245.042 136.896 245.495 137.062 246.078 137.062C246.901 137.062 247.719 136.734 248.531 136.078C249.354 135.411 249.953 134.583 250.328 133.594C250.714 132.594 251.047 131.255 251.328 129.578L252.562 122.406H254.875L252.031 139H249.891L250.406 136ZM255.688 139L258.531 122.406H260.844L260.375 125.141C261.271 123.911 262.057 123.089 262.734 122.672C263.411 122.245 264.13 122.031 264.891 122.031C265.724 122.031 266.427 122.297 267 122.828C267.573 123.359 267.953 124.13 268.141 125.141C268.828 124.099 269.557 123.323 270.328 122.812C271.099 122.292 271.906 122.031 272.75 122.031C273.823 122.031 274.656 122.349 275.25 122.984C275.854 123.62 276.156 124.542 276.156 125.75C276.156 126.281 276.052 127.135 275.844 128.312L274.016 139H271.703L273.578 128.031C273.734 127.135 273.812 126.49 273.812 126.094C273.812 125.531 273.667 125.104 273.375 124.812C273.083 124.51 272.693 124.359 272.203 124.359C271.557 124.359 270.88 124.599 270.172 125.078C269.464 125.547 268.896 126.198 268.469 127.031C268.052 127.854 267.688 129.161 267.375 130.953L266 139H263.672L265.594 127.797C265.729 127.036 265.797 126.49 265.797 126.156C265.797 125.604 265.651 125.167 265.359 124.844C265.078 124.521 264.724 124.359 264.297 124.359C263.266 124.359 262.286 124.885 261.359 125.938C260.443 126.979 259.776 128.719 259.359 131.156L258 139H255.688ZM287.578 133.359L289.844 133.641C289.469 135.255 288.599 136.661 287.234 137.859C286.099 138.87 284.833 139.375 283.438 139.375C282.448 139.375 281.547 139.109 280.734 138.578C279.922 138.036 279.276 137.234 278.797 136.172C278.318 135.099 278.078 133.823 278.078 132.344C278.078 130.396 278.443 128.578 279.172 126.891C279.911 125.203 280.812 123.974 281.875 123.203C282.938 122.422 284.089 122.031 285.328 122.031C286.901 122.031 288.182 122.63 289.172 123.828C290.172 125.026 290.672 126.719 290.672 128.906C290.672 129.719 290.615 130.552 290.5 131.406H280.469C280.438 131.74 280.422 132.036 280.422 132.297C280.422 133.859 280.719 135.047 281.312 135.859C281.906 136.661 282.62 137.062 283.453 137.062C284.245 137.062 285.021 136.745 285.781 136.109C286.552 135.474 287.151 134.557 287.578 133.359ZM280.844 129.25H288.484V128.672C288.484 127.193 288.193 126.083 287.609 125.344C287.026 124.604 286.281 124.234 285.375 124.234C284.396 124.234 283.495 124.651 282.672 125.484C281.859 126.318 281.25 127.573 280.844 129.25ZM299.5 139L302.344 122.406H304.438L303.953 125.297C304.932 124.068 305.823 123.219 306.625 122.75C307.427 122.271 308.203 122.031 308.953 122.031C310.005 122.031 310.854 122.385 311.5 123.094C312.156 123.802 312.484 124.807 312.484 126.109C312.484 126.693 312.37 127.641 312.141 128.953L310.422 139H308.094L309.906 128.484C310.083 127.453 310.172 126.693 310.172 126.203C310.172 125.63 310.005 125.182 309.672 124.859C309.349 124.526 308.906 124.359 308.344 124.359C307.177 124.359 306.125 124.875 305.188 125.906C304.26 126.938 303.578 128.729 303.141 131.281L301.812 139H299.5ZM314.5 132.703C314.5 129.714 315.172 127.188 316.516 125.125C317.859 123.062 319.661 122.031 321.922 122.031C323.505 122.031 324.812 122.641 325.844 123.859C326.875 125.068 327.391 126.792 327.391 129.031C327.391 131.083 327.036 132.917 326.328 134.531C325.63 136.146 324.719 137.359 323.594 138.172C322.479 138.974 321.307 139.375 320.078 139.375C318.464 139.375 317.13 138.781 316.078 137.594C315.026 136.396 314.5 134.766 314.5 132.703ZM316.828 132.422C316.828 133.995 317.141 135.182 317.766 135.984C318.391 136.786 319.172 137.188 320.109 137.188C320.849 137.188 321.589 136.891 322.328 136.297C323.068 135.693 323.714 134.698 324.266 133.312C324.818 131.927 325.094 130.505 325.094 129.047C325.094 127.464 324.781 126.266 324.156 125.453C323.531 124.63 322.76 124.219 321.844 124.219C321.042 124.219 320.26 124.516 319.5 125.109C318.75 125.703 318.115 126.688 317.594 128.062C317.083 129.427 316.828 130.88 316.828 132.422ZM339.688 124.891V123.953C339.688 121.911 339.318 120.427 338.578 119.5C337.849 118.573 336.531 118.109 334.625 118.109L333.219 118.172L333.641 115.703H335.328C337.516 115.703 339.13 116.391 340.172 117.766C341.214 119.141 341.734 121.281 341.734 124.188C341.734 129.042 341.068 132.792 339.734 135.438C338.401 138.073 336.552 139.391 334.188 139.391C332.51 139.391 331.167 138.776 330.156 137.547C329.146 136.307 328.641 134.615 328.641 132.469C328.641 129.51 329.365 127.036 330.812 125.047C332.271 123.047 333.979 122.047 335.938 122.047C337.635 122.047 338.885 122.995 339.688 124.891ZM335.969 124.344C334.542 124.344 333.354 125.146 332.406 126.75C331.458 128.344 330.984 130.281 330.984 132.562C330.984 133.938 331.276 135.036 331.859 135.859C332.453 136.672 333.25 137.078 334.25 137.078C335.646 137.078 336.823 136.26 337.781 134.625C338.75 132.979 339.234 131.047 339.234 128.828C339.234 127.464 338.932 126.375 338.328 125.562C337.734 124.75 336.948 124.344 335.969 124.344ZM342.047 145.359L345.984 122.406H348.125L347.719 124.719C348.542 123.677 349.266 122.969 349.891 122.594C350.516 122.219 351.172 122.031 351.859 122.031C353.12 122.031 354.182 122.599 355.047 123.734C355.922 124.87 356.359 126.531 356.359 128.719C356.359 130.781 356.005 132.661 355.297 134.359C354.599 136.057 353.672 137.37 352.516 138.297C351.62 139.016 350.682 139.375 349.703 139.375C348.068 139.375 346.802 138.365 345.906 136.344L344.359 145.359H342.047ZM346.609 132.766C346.609 134.161 346.891 135.229 347.453 135.969C348.026 136.698 348.74 137.062 349.594 137.062C350.271 137.062 350.865 136.839 351.375 136.391C352.104 135.745 352.734 134.682 353.266 133.203C353.797 131.714 354.062 130.214 354.062 128.703C354.062 127.286 353.776 126.203 353.203 125.453C352.641 124.693 351.953 124.312 351.141 124.312C350.495 124.312 349.839 124.604 349.172 125.188C348.505 125.76 347.911 126.776 347.391 128.234C346.87 129.693 346.609 131.203 346.609 132.766ZM358.188 132.703C358.188 129.714 358.859 127.188 360.203 125.125C361.547 123.062 363.349 122.031 365.609 122.031C367.193 122.031 368.5 122.641 369.531 123.859C370.562 125.068 371.078 126.792 371.078 129.031C371.078 131.083 370.724 132.917 370.016 134.531C369.318 136.146 368.406 137.359 367.281 138.172C366.167 138.974 364.995 139.375 363.766 139.375C362.151 139.375 360.818 138.781 359.766 137.594C358.714 136.396 358.188 134.766 358.188 132.703ZM360.516 132.422C360.516 133.995 360.828 135.182 361.453 135.984C362.078 136.786 362.859 137.188 363.797 137.188C364.536 137.188 365.276 136.891 366.016 136.297C366.755 135.693 367.401 134.698 367.953 133.312C368.505 131.927 368.781 130.505 368.781 129.047C368.781 127.464 368.469 126.266 367.844 125.453C367.219 124.63 366.448 124.219 365.531 124.219C364.729 124.219 363.948 124.516 363.188 125.109C362.438 125.703 361.802 126.688 361.281 128.062C360.771 129.427 360.516 130.88 360.516 132.422ZM386.672 115.703C386.484 117.036 386.083 117.953 385.469 118.453C384.865 118.943 383.88 119.188 382.516 119.188L380.484 119.125C379.495 119.125 378.708 119.344 378.125 119.781C377.552 120.208 376.807 121.771 375.891 124.469C377.078 123.104 378.474 122.422 380.078 122.422C381.568 122.422 382.823 123.057 383.844 124.328C384.875 125.589 385.391 127.245 385.391 129.297C385.391 132.12 384.682 134.51 383.266 136.469C381.859 138.417 380.115 139.391 378.031 139.391C376.354 139.391 375.021 138.766 374.031 137.516C373.052 136.255 372.562 134.552 372.562 132.406C372.562 130.312 372.99 127.667 373.844 124.469C374.698 121.26 375.661 119.109 376.734 118.016C377.818 116.922 379.328 116.375 381.266 116.375L383.141 116.406C383.859 116.406 384.276 116.172 384.391 115.703H386.672ZM378.062 137.078C379.448 137.078 380.625 136.26 381.594 134.625C382.562 132.979 383.047 131.161 383.047 129.172C383.047 127.776 382.76 126.667 382.188 125.844C381.625 125.01 380.87 124.594 379.922 124.594C378.495 124.594 377.297 125.375 376.328 126.938C375.37 128.49 374.891 130.385 374.891 132.625C374.891 133.906 375.182 134.969 375.766 135.812C376.359 136.656 377.125 137.078 378.062 137.078ZM386.609 139L389.516 122.422H391.812L390.562 129.297H396.906L398.094 122.422H400.359L397.484 139H395.172L396.484 131.578H390.188L388.906 139H386.609ZM411.547 133.359L413.812 133.641C413.438 135.255 412.568 136.661 411.203 137.859C410.068 138.87 408.802 139.375 407.406 139.375C406.417 139.375 405.516 139.109 404.703 138.578C403.891 138.036 403.245 137.234 402.766 136.172C402.286 135.099 402.047 133.823 402.047 132.344C402.047 130.396 402.411 128.578 403.141 126.891C403.88 125.203 404.781 123.974 405.844 123.203C406.906 122.422 408.057 122.031 409.297 122.031C410.87 122.031 412.151 122.63 413.141 123.828C414.141 125.026 414.641 126.719 414.641 128.906C414.641 129.719 414.583 130.552 414.469 131.406H404.438C404.406 131.74 404.391 132.036 404.391 132.297C404.391 133.859 404.688 135.047 405.281 135.859C405.875 136.661 406.589 137.062 407.422 137.062C408.214 137.062 408.99 136.745 409.75 136.109C410.521 135.474 411.12 134.557 411.547 133.359ZM404.812 129.25H412.453V128.672C412.453 127.193 412.161 126.083 411.578 125.344C410.995 124.604 410.25 124.234 409.344 124.234C408.365 124.234 407.464 124.651 406.641 125.484C405.828 126.318 405.219 127.573 404.812 129.25ZM426.141 133.359L428.406 133.641C428.031 135.255 427.161 136.661 425.797 137.859C424.661 138.87 423.396 139.375 422 139.375C421.01 139.375 420.109 139.109 419.297 138.578C418.484 138.036 417.839 137.234 417.359 136.172C416.88 135.099 416.641 133.823 416.641 132.344C416.641 130.396 417.005 128.578 417.734 126.891C418.474 125.203 419.375 123.974 420.438 123.203C421.5 122.422 422.651 122.031 423.891 122.031C425.464 122.031 426.745 122.63 427.734 123.828C428.734 125.026 429.234 126.719 429.234 128.906C429.234 129.719 429.177 130.552 429.062 131.406H419.031C419 131.74 418.984 132.036 418.984 132.297C418.984 133.859 419.281 135.047 419.875 135.859C420.469 136.661 421.182 137.062 422.016 137.062C422.807 137.062 423.583 136.745 424.344 136.109C425.115 135.474 425.714 134.557 426.141 133.359ZM419.406 129.25H427.047V128.672C427.047 127.193 426.755 126.083 426.172 125.344C425.589 124.604 424.844 124.234 423.938 124.234C422.958 124.234 422.057 124.651 421.234 125.484C420.422 126.318 419.812 127.573 419.406 129.25ZM437.547 139L440.453 122.422H442.75L441.5 129.297H447.844L449.031 122.422H451.297L448.422 139H446.109L447.422 131.578H441.125L439.844 139H437.547ZM461.672 136.938C460.818 137.833 460.016 138.464 459.266 138.828C458.516 139.193 457.755 139.375 456.984 139.375C455.776 139.375 454.771 138.943 453.969 138.078C453.177 137.214 452.781 136.036 452.781 134.547C452.781 133.484 453.01 132.557 453.469 131.766C453.927 130.974 454.568 130.37 455.391 129.953C456.224 129.526 457.411 129.276 458.953 129.203C460.255 129.13 461.146 129.052 461.625 128.969C462.115 128.885 462.531 128.76 462.875 128.594C463.062 127.802 463.156 127.156 463.156 126.656C463.156 125.958 462.901 125.401 462.391 124.984C461.891 124.557 461.161 124.344 460.203 124.344C458.276 124.344 457.026 125.354 456.453 127.375L454.109 127.125C455.099 123.729 457.177 122.031 460.344 122.031C461.906 122.031 463.146 122.443 464.062 123.266C464.979 124.078 465.438 125.104 465.438 126.344C465.438 127.219 465.333 128.245 465.125 129.422L464.375 133.547C464.135 134.859 464.016 135.922 464.016 136.734C464.016 137.307 464.104 138.062 464.281 139H461.953C461.818 138.479 461.724 137.792 461.672 136.938ZM462.531 130.594C461.958 130.865 460.99 131.073 459.625 131.219C458.229 131.365 457.271 131.552 456.75 131.781C456.229 132.01 455.823 132.359 455.531 132.828C455.24 133.297 455.094 133.839 455.094 134.453C455.094 135.297 455.328 135.964 455.797 136.453C456.266 136.943 456.891 137.188 457.672 137.188C458.411 137.188 459.125 136.958 459.812 136.5C460.5 136.042 461.057 135.38 461.484 134.516C461.922 133.651 462.271 132.344 462.531 130.594ZM474.406 139L477.25 122.406H479.344L478.859 125.297C479.839 124.068 480.729 123.219 481.531 122.75C482.333 122.271 483.109 122.031 483.859 122.031C484.911 122.031 485.76 122.385 486.406 123.094C487.062 123.802 487.391 124.807 487.391 126.109C487.391 126.693 487.276 127.641 487.047 128.953L485.328 139H483L484.812 128.484C484.99 127.453 485.078 126.693 485.078 126.203C485.078 125.63 484.911 125.182 484.578 124.859C484.255 124.526 483.812 124.359 483.25 124.359C482.083 124.359 481.031 124.875 480.094 125.906C479.167 126.938 478.484 128.729 478.047 131.281L476.719 139H474.406ZM489.406 132.703C489.406 129.714 490.078 127.188 491.422 125.125C492.766 123.062 494.568 122.031 496.828 122.031C498.411 122.031 499.719 122.641 500.75 123.859C501.781 125.068 502.297 126.792 502.297 129.031C502.297 131.083 501.943 132.917 501.234 134.531C500.536 136.146 499.625 137.359 498.5 138.172C497.385 138.974 496.214 139.375 494.984 139.375C493.37 139.375 492.036 138.781 490.984 137.594C489.932 136.396 489.406 134.766 489.406 132.703ZM491.734 132.422C491.734 133.995 492.047 135.182 492.672 135.984C493.297 136.786 494.078 137.188 495.016 137.188C495.755 137.188 496.495 136.891 497.234 136.297C497.974 135.693 498.62 134.698 499.172 133.312C499.724 131.927 500 130.505 500 129.047C500 127.464 499.688 126.266 499.062 125.453C498.438 124.63 497.667 124.219 496.75 124.219C495.948 124.219 495.167 124.516 494.406 125.109C493.656 125.703 493.021 126.688 492.5 128.062C491.99 129.427 491.734 130.88 491.734 132.422ZM504.797 124.594L505.188 122.422H507.453L506.969 125.172C506.677 126.901 506.531 128.141 506.531 128.891C506.531 130.339 507.479 131.062 509.375 131.062C510.354 131.062 511.323 130.839 512.281 130.391L513.656 122.422H516L513.094 139H510.75L511.875 132.625C510.677 133.125 509.599 133.375 508.641 133.375C507.224 133.375 506.125 133.005 505.344 132.266C504.573 131.516 504.188 130.453 504.188 129.078C504.188 128.391 504.391 126.896 504.797 124.594ZM517.125 139L519.969 122.406H522.281L521.812 125.141C522.708 123.911 523.495 123.089 524.172 122.672C524.849 122.245 525.568 122.031 526.328 122.031C527.161 122.031 527.865 122.297 528.438 122.828C529.01 123.359 529.391 124.13 529.578 125.141C530.266 124.099 530.995 123.323 531.766 122.812C532.536 122.292 533.344 122.031 534.188 122.031C535.26 122.031 536.094 122.349 536.688 122.984C537.292 123.62 537.594 124.542 537.594 125.75C537.594 126.281 537.49 127.135 537.281 128.312L535.453 139H533.141L535.016 128.031C535.172 127.135 535.25 126.49 535.25 126.094C535.25 125.531 535.104 125.104 534.812 124.812C534.521 124.51 534.13 124.359 533.641 124.359C532.995 124.359 532.318 124.599 531.609 125.078C530.901 125.547 530.333 126.198 529.906 127.031C529.49 127.854 529.125 129.161 528.812 130.953L527.438 139H525.109L527.031 127.797C527.167 127.036 527.234 126.49 527.234 126.156C527.234 125.604 527.089 125.167 526.797 124.844C526.516 124.521 526.161 124.359 525.734 124.359C524.703 124.359 523.724 124.885 522.797 125.938C521.88 126.979 521.214 128.719 520.797 131.156L519.438 139H517.125ZM549.016 133.359L551.281 133.641C550.906 135.255 550.036 136.661 548.672 137.859C547.536 138.87 546.271 139.375 544.875 139.375C543.885 139.375 542.984 139.109 542.172 138.578C541.359 138.036 540.714 137.234 540.234 136.172C539.755 135.099 539.516 133.823 539.516 132.344C539.516 130.396 539.88 128.578 540.609 126.891C541.349 125.203 542.25 123.974 543.312 123.203C544.375 122.422 545.526 122.031 546.766 122.031C548.339 122.031 549.62 122.63 550.609 123.828C551.609 125.026 552.109 126.719 552.109 128.906C552.109 129.719 552.052 130.552 551.938 131.406H541.906C541.875 131.74 541.859 132.036 541.859 132.297C541.859 133.859 542.156 135.047 542.75 135.859C543.344 136.661 544.057 137.062 544.891 137.062C545.682 137.062 546.458 136.745 547.219 136.109C547.99 135.474 548.589 134.557 549.016 133.359ZM542.281 129.25H549.922V128.672C549.922 127.193 549.63 126.083 549.047 125.344C548.464 124.604 547.719 124.234 546.812 124.234C545.833 124.234 544.932 124.651 544.109 125.484C543.297 126.318 542.688 127.573 542.281 129.25Z" fill="white"/>
</svg>
