<svg width="682" height="196" viewBox="0 0 682 196" fill="none" xmlns="http://www.w3.org/2000/svg">
<rect width="682" height="196" fill="#F64293"/>
<path d="M173.398 81.3672L178.906 83.5C178.047 87.3438 176.617 90.1562 174.617 91.9375C172.617 93.7031 170.156 94.5859 167.234 94.5859C163.562 94.5859 160.586 93.1719 158.305 90.3438C155.68 87.0781 154.367 82.6719 154.367 77.125C154.367 71.2656 155.688 66.6797 158.328 63.3672C160.625 60.4922 163.711 59.0547 167.586 59.0547C170.742 59.0547 173.383 60.1328 175.508 62.2891C177.023 63.8203 178.133 66.0938 178.836 69.1094L173.211 70.75C172.852 68.8906 172.133 67.4688 171.055 66.4844C169.992 65.4844 168.734 64.9844 167.281 64.9844C165.203 64.9844 163.508 65.8906 162.195 67.7031C160.883 69.5156 160.227 72.5078 160.227 76.6797C160.227 81.0078 160.867 84.0859 162.148 85.9141C163.43 87.7422 165.094 88.6562 167.141 88.6562C168.641 88.6562 169.938 88.0781 171.031 86.9219C172.125 85.75 172.914 83.8984 173.398 81.3672ZM183.547 94V69.1328H201.688V94H196.25V74.3125H188.961V94H183.547ZM211.531 76.7031L206.633 75.625C207.227 73.1094 208.203 71.3047 209.562 70.2109C210.938 69.1016 212.906 68.5469 215.469 68.5469C217.75 68.5469 219.492 68.8672 220.695 69.5078C221.898 70.1484 222.758 71.0234 223.273 72.1328C223.789 73.2266 224.047 75.2266 224.047 78.1328L224 85.8203C224 87.9766 224.086 89.5859 224.258 90.6484C224.43 91.6953 224.75 92.8125 225.219 94H219.875L219.172 91.2812C218.25 92.375 217.258 93.1953 216.195 93.7422C215.148 94.2891 214.031 94.5625 212.844 94.5625C210.859 94.5625 209.234 93.8984 207.969 92.5703C206.703 91.2266 206.07 89.4453 206.07 87.2266C206.07 85.8203 206.328 84.5938 206.844 83.5469C207.359 82.5 208.086 81.6641 209.023 81.0391C209.961 80.4141 211.461 79.8594 213.523 79.375C216.023 78.7969 217.766 78.2578 218.75 77.7578C218.75 76.3828 218.648 75.4844 218.445 75.0625C218.258 74.625 217.898 74.2734 217.367 74.0078C216.852 73.7266 216.117 73.5859 215.164 73.5859C214.195 73.5859 213.43 73.8047 212.867 74.2422C212.32 74.6797 211.875 75.5 211.531 76.7031ZM218.75 82.0469C218.062 82.3281 216.992 82.6562 215.539 83.0312C213.867 83.4688 212.773 83.9531 212.258 84.4844C211.742 85.0156 211.484 85.7031 211.484 86.5469C211.484 87.5 211.766 88.3047 212.328 88.9609C212.906 89.6016 213.625 89.9219 214.484 89.9219C215.25 89.9219 216.008 89.6641 216.758 89.1484C217.508 88.6172 218.023 87.9922 218.305 87.2734C218.602 86.5547 218.75 85.25 218.75 83.3594V82.0469ZM247.18 76.4688L241.859 77.6406C241.469 75.0312 240.242 73.7266 238.18 73.7266C236.852 73.7266 235.781 74.2891 234.969 75.4141C234.156 76.5391 233.75 78.4375 233.75 81.1094C233.75 84.0625 234.156 86.1484 234.969 87.3672C235.781 88.5859 236.867 89.1953 238.227 89.1953C239.242 89.1953 240.078 88.8516 240.734 88.1641C241.391 87.4609 241.859 86.2266 242.141 84.4609L247.461 85.5625C246.367 91.5625 243.219 94.5625 238.016 94.5625C234.688 94.5625 232.219 93.2969 230.609 90.7656C229 88.2344 228.195 85.1875 228.195 81.625C228.195 77.3594 229.102 74.1172 230.914 71.8984C232.742 69.6641 235.133 68.5469 238.086 68.5469C240.477 68.5469 242.422 69.1797 243.922 70.4453C245.438 71.7109 246.523 73.7188 247.18 76.4688ZM251.141 94V69.1328H256.32V84.7422L264.617 69.1328H269.961V94H264.758V78.0625L256.32 94H251.141ZM286.695 59.7812H289.25C290.078 59.7812 290.586 59.4766 290.773 58.8672H294.477C294.43 60.6953 294.078 62.0547 293.422 62.9453C292.781 63.8359 292.094 64.3672 291.359 64.5391C290.625 64.6953 289.109 64.8047 286.812 64.8672C284.531 64.9297 283.062 65.0703 282.406 65.2891C281.766 65.5078 281.07 65.9688 280.32 66.6719C279.586 67.375 279.039 68.3438 278.68 69.5781C278.336 70.8125 278.141 72.5078 278.094 74.6641C279.828 71.0078 282.359 69.1797 285.688 69.1797C288.297 69.1797 290.547 70.4297 292.438 72.9297C294.344 75.4297 295.297 78.4062 295.297 81.8594C295.297 85.4531 294.289 88.4688 292.273 90.9062C290.258 93.3281 287.727 94.5391 284.68 94.5391C282.32 94.5391 280.281 93.7891 278.562 92.2891C276.859 90.7891 275.742 88.8594 275.211 86.5C274.68 84.1406 274.414 80.8359 274.414 76.5859C274.414 70.5859 275.305 66.2891 277.086 63.6953C278.883 61.0859 282.086 59.7812 286.695 59.7812ZM284.773 74.4062C283.414 74.4062 282.273 75.0781 281.352 76.4219C280.43 77.7656 279.969 79.5469 279.969 81.7656C279.969 84 280.414 85.7891 281.305 87.1328C282.211 88.4766 283.352 89.1484 284.727 89.1484C286.133 89.1484 287.312 88.4609 288.266 87.0859C289.234 85.6953 289.719 83.9219 289.719 81.7656C289.719 79.6094 289.234 77.8438 288.266 76.4688C287.312 75.0938 286.148 74.4062 284.773 74.4062ZM298.531 81.2031C298.531 78.7656 299.016 76.5469 299.984 74.5469C300.953 72.5469 302.219 71.0469 303.781 70.0469C305.344 69.0469 307.102 68.5469 309.055 68.5469C312.336 68.5469 314.914 69.8359 316.789 72.4141C318.664 74.9766 319.602 77.9766 319.602 81.4141C319.602 83.9766 319.109 86.2891 318.125 88.3516C317.156 90.4141 315.875 91.9688 314.281 93.0156C312.703 94.0469 310.969 94.5625 309.078 94.5625C306.047 94.5625 303.531 93.4062 301.531 91.0938C299.531 88.7812 298.531 85.4844 298.531 81.2031ZM304.062 81.5547C304.062 84.0703 304.555 85.9766 305.539 87.2734C306.523 88.5547 307.711 89.1953 309.102 89.1953C310.461 89.1953 311.625 88.5469 312.594 87.25C313.562 85.9531 314.047 84.0391 314.047 81.5078C314.047 79.0391 313.555 77.1562 312.57 75.8594C311.586 74.5625 310.406 73.9141 309.031 73.9141C307.672 73.9141 306.5 74.5625 305.516 75.8594C304.547 77.1562 304.062 79.0547 304.062 81.5547ZM341.328 83.7812H340.32V79.5156C342.852 79.5156 344.117 78.4219 344.117 76.2344C344.117 75.3438 343.867 74.5938 343.367 73.9844C342.867 73.375 342.188 73.0703 341.328 73.0703C339.672 73.0703 338.523 74.1406 337.883 76.2812L333.266 75.0859C334.344 70.7422 337.047 68.5703 341.375 68.5703C343.75 68.5703 345.641 69.2344 347.047 70.5625C348.453 71.8906 349.156 73.625 349.156 75.7656C349.156 78.1094 347.945 79.9766 345.523 81.3672C348.523 82.4609 350.023 84.4922 350.023 87.4609C350.023 89.5234 349.242 91.2266 347.68 92.5703C346.133 93.9141 344.031 94.5859 341.375 94.5859C336.609 94.5859 333.633 92.25 332.445 87.5781L337.391 86.5234C338.203 88.9453 339.516 90.1562 341.328 90.1562C342.266 90.1562 343.07 89.8516 343.742 89.2422C344.414 88.6172 344.75 87.8359 344.75 86.8984C344.75 85.9609 344.43 85.2109 343.789 84.6484C343.148 84.0703 342.328 83.7812 341.328 83.7812ZM358.438 76.7031L353.539 75.625C354.133 73.1094 355.109 71.3047 356.469 70.2109C357.844 69.1016 359.812 68.5469 362.375 68.5469C364.656 68.5469 366.398 68.8672 367.602 69.5078C368.805 70.1484 369.664 71.0234 370.18 72.1328C370.695 73.2266 370.953 75.2266 370.953 78.1328L370.906 85.8203C370.906 87.9766 370.992 89.5859 371.164 90.6484C371.336 91.6953 371.656 92.8125 372.125 94H366.781L366.078 91.2812C365.156 92.375 364.164 93.1953 363.102 93.7422C362.055 94.2891 360.938 94.5625 359.75 94.5625C357.766 94.5625 356.141 93.8984 354.875 92.5703C353.609 91.2266 352.977 89.4453 352.977 87.2266C352.977 85.8203 353.234 84.5938 353.75 83.5469C354.266 82.5 354.992 81.6641 355.93 81.0391C356.867 80.4141 358.367 79.8594 360.43 79.375C362.93 78.7969 364.672 78.2578 365.656 77.7578C365.656 76.3828 365.555 75.4844 365.352 75.0625C365.164 74.625 364.805 74.2734 364.273 74.0078C363.758 73.7266 363.023 73.5859 362.07 73.5859C361.102 73.5859 360.336 73.8047 359.773 74.2422C359.227 74.6797 358.781 75.5 358.438 76.7031ZM365.656 82.0469C364.969 82.3281 363.898 82.6562 362.445 83.0312C360.773 83.4688 359.68 83.9531 359.164 84.4844C358.648 85.0156 358.391 85.7031 358.391 86.5469C358.391 87.5 358.672 88.3047 359.234 88.9609C359.812 89.6016 360.531 89.9219 361.391 89.9219C362.156 89.9219 362.914 89.6641 363.664 89.1484C364.414 88.6172 364.93 87.9922 365.211 87.2734C365.508 86.5547 365.656 85.25 365.656 83.3594V82.0469ZM386 81.2031C386 78.7656 386.484 76.5469 387.453 74.5469C388.422 72.5469 389.688 71.0469 391.25 70.0469C392.812 69.0469 394.57 68.5469 396.523 68.5469C399.805 68.5469 402.383 69.8359 404.258 72.4141C406.133 74.9766 407.07 77.9766 407.07 81.4141C407.07 83.9766 406.578 86.2891 405.594 88.3516C404.625 90.4141 403.344 91.9688 401.75 93.0156C400.172 94.0469 398.438 94.5625 396.547 94.5625C393.516 94.5625 391 93.4062 389 91.0938C387 88.7812 386 85.4844 386 81.2031ZM391.531 81.5547C391.531 84.0703 392.023 85.9766 393.008 87.2734C393.992 88.5547 395.18 89.1953 396.57 89.1953C397.93 89.1953 399.094 88.5469 400.062 87.25C401.031 85.9531 401.516 84.0391 401.516 81.5078C401.516 79.0391 401.023 77.1562 400.039 75.8594C399.055 74.5625 397.875 73.9141 396.5 73.9141C395.141 73.9141 393.969 74.5625 392.984 75.8594C392.016 77.1562 391.531 79.0547 391.531 81.5547ZM408.898 74.3125V69.1328H427.391V74.3125H420.852V94H415.438V74.3125H408.898ZM430.391 94V69.1328H435.805V79.2578C436.539 79.1797 437.102 78.9375 437.492 78.5312C437.883 78.125 438.367 76.9297 438.945 74.9453C439.523 72.9453 440.156 71.4453 440.844 70.4453C441.547 69.4453 442.781 68.9453 444.547 68.9453C445.047 68.9453 445.75 69.0078 446.656 69.1328V73.3984H446.07C445.211 73.3984 444.555 73.5234 444.102 73.7734C443.648 74.0234 443.227 74.8516 442.836 76.2578C442.445 77.6641 442.07 78.7344 441.711 79.4688C441.352 80.2031 440.758 80.7891 439.93 81.2266C440.617 81.4766 441.305 81.9688 441.992 82.7031C442.695 83.4375 443.531 84.9141 444.5 87.1328L447.477 94H441.711L438.969 86.8047C438.422 85.3516 437.953 84.4219 437.562 84.0156C437.172 83.5938 436.586 83.3828 435.805 83.3828V94H430.391ZM464.469 94V74.3125H457.18V85.6562C457.18 87.4844 457.055 88.9844 456.805 90.1562C456.555 91.3125 456.125 92.2422 455.516 92.9453C454.922 93.6328 454.328 94.0469 453.734 94.1875C453.156 94.3438 452.352 94.4219 451.32 94.4219C450.695 94.4219 449.57 94.2812 447.945 94V89.1484C448.383 89.1797 449.125 89.1953 450.172 89.1953C450.812 89.1953 451.234 88.9766 451.438 88.5391C451.641 88.0859 451.742 87.0781 451.742 85.5156V69.1328H469.883V94H464.469ZM475.203 94V69.1328H480.383V84.7422L488.68 69.1328H494.023V94H488.82V78.0625L480.383 94H475.203ZM499.297 94V69.1328H504.711V79.2578C505.445 79.1797 506.008 78.9375 506.398 78.5312C506.789 78.125 507.273 76.9297 507.852 74.9453C508.43 72.9453 509.062 71.4453 509.75 70.4453C510.453 69.4453 511.688 68.9453 513.453 68.9453C513.953 68.9453 514.656 69.0078 515.562 69.1328V73.3984H514.977C514.117 73.3984 513.461 73.5234 513.008 73.7734C512.555 74.0234 512.133 74.8516 511.742 76.2578C511.352 77.6641 510.977 78.7344 510.617 79.4688C510.258 80.2031 509.664 80.7891 508.836 81.2266C509.523 81.4766 510.211 81.9688 510.898 82.7031C511.602 83.4375 512.438 84.9141 513.406 87.1328L516.383 94H510.617L507.875 86.8047C507.328 85.3516 506.859 84.4219 506.469 84.0156C506.078 83.5938 505.492 83.3828 504.711 83.3828V94H499.297ZM521.305 85.1406L519.898 67.7031V59.6406H525.734V67.7031L524.352 85.1406H521.305ZM520.133 94V87.4141H525.523V94H520.133Z" fill="white"/>
<path d="M169.281 130.938L171.766 131.359C170.974 134.047 169.812 136.057 168.281 137.391C166.76 138.724 165.094 139.391 163.281 139.391C161.062 139.391 159.266 138.562 157.891 136.906C156.526 135.25 155.844 132.802 155.844 129.562C155.844 125.781 156.703 122.583 158.422 119.969C160.286 117.125 162.698 115.703 165.656 115.703C167.552 115.703 169.135 116.333 170.406 117.594C171.688 118.854 172.427 120.625 172.625 122.906L170.281 123.172C169.792 119.88 168.281 118.234 165.75 118.234C163.542 118.234 161.755 119.365 160.391 121.625C159.026 123.875 158.344 126.542 158.344 129.625C158.344 132.021 158.828 133.828 159.797 135.047C160.766 136.255 161.99 136.859 163.469 136.859C164.74 136.859 165.854 136.401 166.812 135.484C167.99 134.359 168.812 132.844 169.281 130.938ZM181.812 130.297C183.521 131.026 184.375 132.318 184.375 134.172C184.375 135.609 183.87 136.844 182.859 137.875C181.849 138.906 180.521 139.422 178.875 139.422C176.969 139.422 175.542 138.755 174.594 137.422C173.646 136.089 173.172 134.526 173.172 132.734C173.172 129.672 173.88 127.125 175.297 125.094C176.714 123.062 178.568 122.047 180.859 122.047C182.193 122.047 183.25 122.432 184.031 123.203C184.812 123.964 185.203 124.953 185.203 126.172C185.203 128.214 184.073 129.589 181.812 130.297ZM175.953 129.141C176.828 129.203 177.375 129.234 177.594 129.234C181.115 129.234 182.875 128.286 182.875 126.391C182.875 125.776 182.677 125.26 182.281 124.844C181.885 124.427 181.391 124.219 180.797 124.219C179.755 124.219 178.786 124.651 177.891 125.516C176.995 126.38 176.349 127.589 175.953 129.141ZM176.828 131.312H175.609C175.547 131.74 175.516 132.188 175.516 132.656C175.516 134.052 175.839 135.146 176.484 135.938C177.13 136.719 178 137.109 179.094 137.109C179.969 137.109 180.677 136.833 181.219 136.281C181.76 135.719 182.031 135.016 182.031 134.172C182.031 133.255 181.74 132.552 181.156 132.062C180.573 131.562 179.13 131.312 176.828 131.312ZM193.969 122.422H199.922L196.969 139H194.672L195.891 132.125H195.109C194.224 132.125 193.609 132.161 193.266 132.234C192.922 132.297 192.536 132.505 192.109 132.859C191.693 133.203 191.255 133.766 190.797 134.547L188.203 139H185.391L187.984 134.781C188.839 133.385 189.776 132.411 190.797 131.859C188.859 131.234 187.891 129.828 187.891 127.641C187.891 126.63 188.135 125.682 188.625 124.797C189.125 123.901 189.755 123.281 190.516 122.938C191.276 122.594 192.427 122.422 193.969 122.422ZM196.297 129.844L197.234 124.703H194.031C192.469 124.703 191.443 124.938 190.953 125.406C190.464 125.865 190.219 126.547 190.219 127.453C190.219 128.505 190.464 129.167 190.953 129.438C191.453 129.708 192.193 129.844 193.172 129.844H196.297ZM211.797 122.422L210.562 129.5H210.75C211.573 129.5 212.411 128.656 213.266 126.969C214.12 125.281 214.828 124.104 215.391 123.438C215.964 122.76 216.74 122.422 217.719 122.422C218.198 122.422 218.667 122.51 219.125 122.688L218.625 124.375C218.312 124.25 218.057 124.188 217.859 124.188C217.516 124.188 217.219 124.302 216.969 124.531C216.729 124.75 216.359 125.385 215.859 126.438C215.359 127.49 214.891 128.328 214.453 128.953C214.016 129.568 213.391 130.068 212.578 130.453C213.182 130.755 213.635 131.141 213.938 131.609C214.24 132.078 214.542 132.781 214.844 133.719L216.578 139H214.172L212.828 134.781C212.464 133.604 212.109 132.75 211.766 132.219C211.422 131.688 210.911 131.354 210.234 131.219L208.859 139H206.594L207.969 131.219C207.469 131.24 207 131.448 206.562 131.844C206.135 132.229 205.474 133.13 204.578 134.547L201.75 139H198.938L202.562 133.469C203.615 131.854 204.734 130.849 205.922 130.453C205.411 130.047 205.021 129.562 204.75 129C204.479 128.438 204.271 127.604 204.125 126.5C203.979 125.385 203.823 124.719 203.656 124.5C203.49 124.271 203.281 124.156 203.031 124.156C202.906 124.156 202.568 124.229 202.016 124.375L202.172 122.578C202.536 122.474 202.943 122.422 203.391 122.422C204.307 122.422 204.927 122.75 205.25 123.406C205.573 124.052 205.922 125.359 206.297 127.328C206.484 128.339 206.755 128.953 207.109 129.172C207.474 129.391 207.865 129.5 208.281 129.5L209.562 122.422H211.797ZM229.078 133.359L231.344 133.641C230.969 135.255 230.099 136.661 228.734 137.859C227.599 138.87 226.333 139.375 224.938 139.375C223.948 139.375 223.047 139.109 222.234 138.578C221.422 138.036 220.776 137.234 220.297 136.172C219.818 135.099 219.578 133.823 219.578 132.344C219.578 130.396 219.943 128.578 220.672 126.891C221.411 125.203 222.312 123.974 223.375 123.203C224.438 122.422 225.589 122.031 226.828 122.031C228.401 122.031 229.682 122.63 230.672 123.828C231.672 125.026 232.172 126.719 232.172 128.906C232.172 129.719 232.115 130.552 232 131.406H221.969C221.938 131.74 221.922 132.036 221.922 132.297C221.922 133.859 222.219 135.047 222.812 135.859C223.406 136.661 224.12 137.062 224.953 137.062C225.745 137.062 226.521 136.745 227.281 136.109C228.052 135.474 228.651 134.557 229.078 133.359ZM222.344 129.25H229.984V128.672C229.984 127.193 229.693 126.083 229.109 125.344C228.526 124.604 227.781 124.234 226.875 124.234C225.896 124.234 224.995 124.651 224.172 125.484C223.359 126.318 222.75 127.573 222.344 129.25ZM233.172 139L236.109 122.422H239.531L240.812 135.641L247.109 122.422H250.516L247.594 139H245.328L247.688 125.625L241.297 139H239.25L237.906 125.109L235.469 139H233.172ZM261.062 132.953L263.391 133.25C262.807 135.323 261.974 136.865 260.891 137.875C259.807 138.875 258.599 139.375 257.266 139.375C255.828 139.375 254.635 138.807 253.688 137.672C252.75 136.536 252.281 134.891 252.281 132.734C252.281 130.62 252.625 128.698 253.312 126.969C254.01 125.24 254.885 123.984 255.938 123.203C257 122.422 258.177 122.031 259.469 122.031C260.865 122.031 262.005 122.521 262.891 123.5C263.776 124.479 264.214 125.823 264.203 127.531L261.922 127.719C261.922 126.635 261.667 125.807 261.156 125.234C260.656 124.651 260.036 124.359 259.297 124.359C258.474 124.359 257.729 124.635 257.062 125.188C256.406 125.729 255.833 126.74 255.344 128.219C254.865 129.688 254.625 131.318 254.625 133.109C254.625 134.443 254.885 135.458 255.406 136.156C255.938 136.844 256.568 137.188 257.297 137.188C258.047 137.188 258.766 136.839 259.453 136.141C260.141 135.443 260.677 134.38 261.062 132.953ZM271.781 122.422H277.734L274.781 139H272.484L273.703 132.125H272.922C272.036 132.125 271.422 132.161 271.078 132.234C270.734 132.297 270.349 132.505 269.922 132.859C269.505 133.203 269.068 133.766 268.609 134.547L266.016 139H263.203L265.797 134.781C266.651 133.385 267.589 132.411 268.609 131.859C266.672 131.234 265.703 129.828 265.703 127.641C265.703 126.63 265.948 125.682 266.438 124.797C266.938 123.901 267.568 123.281 268.328 122.938C269.089 122.594 270.24 122.422 271.781 122.422ZM274.109 129.844L275.047 124.703H271.844C270.281 124.703 269.255 124.938 268.766 125.406C268.276 125.865 268.031 126.547 268.031 127.453C268.031 128.505 268.276 129.167 268.766 129.438C269.266 129.708 270.005 129.844 270.984 129.844H274.109ZM295.531 132.953L297.859 133.25C297.276 135.323 296.443 136.865 295.359 137.875C294.276 138.875 293.068 139.375 291.734 139.375C290.297 139.375 289.104 138.807 288.156 137.672C287.219 136.536 286.75 134.891 286.75 132.734C286.75 130.62 287.094 128.698 287.781 126.969C288.479 125.24 289.354 123.984 290.406 123.203C291.469 122.422 292.646 122.031 293.938 122.031C295.333 122.031 296.474 122.521 297.359 123.5C298.245 124.479 298.682 125.823 298.672 127.531L296.391 127.719C296.391 126.635 296.135 125.807 295.625 125.234C295.125 124.651 294.505 124.359 293.766 124.359C292.943 124.359 292.198 124.635 291.531 125.188C290.875 125.729 290.302 126.74 289.812 128.219C289.333 129.688 289.094 131.318 289.094 133.109C289.094 134.443 289.354 135.458 289.875 136.156C290.406 136.844 291.036 137.188 291.766 137.188C292.516 137.188 293.234 136.839 293.922 136.141C294.609 135.443 295.146 134.38 295.531 132.953ZM315.125 130.297C316.833 131.026 317.688 132.318 317.688 134.172C317.688 135.609 317.182 136.844 316.172 137.875C315.161 138.906 313.833 139.422 312.188 139.422C310.281 139.422 308.854 138.755 307.906 137.422C306.958 136.089 306.484 134.526 306.484 132.734C306.484 129.672 307.193 127.125 308.609 125.094C310.026 123.062 311.88 122.047 314.172 122.047C315.505 122.047 316.562 122.432 317.344 123.203C318.125 123.964 318.516 124.953 318.516 126.172C318.516 128.214 317.385 129.589 315.125 130.297ZM309.266 129.141C310.141 129.203 310.688 129.234 310.906 129.234C314.427 129.234 316.188 128.286 316.188 126.391C316.188 125.776 315.99 125.26 315.594 124.844C315.198 124.427 314.703 124.219 314.109 124.219C313.068 124.219 312.099 124.651 311.203 125.516C310.307 126.38 309.661 127.589 309.266 129.141ZM310.141 131.312H308.922C308.859 131.74 308.828 132.188 308.828 132.656C308.828 134.052 309.151 135.146 309.797 135.938C310.443 136.719 311.312 137.109 312.406 137.109C313.281 137.109 313.99 136.833 314.531 136.281C315.073 135.719 315.344 135.016 315.344 134.172C315.344 133.255 315.052 132.552 314.469 132.062C313.885 131.562 312.443 131.312 310.141 131.312ZM329.484 136.938C328.63 137.833 327.828 138.464 327.078 138.828C326.328 139.193 325.568 139.375 324.797 139.375C323.589 139.375 322.583 138.943 321.781 138.078C320.99 137.214 320.594 136.036 320.594 134.547C320.594 133.484 320.823 132.557 321.281 131.766C321.74 130.974 322.38 130.37 323.203 129.953C324.036 129.526 325.224 129.276 326.766 129.203C328.068 129.13 328.958 129.052 329.438 128.969C329.927 128.885 330.344 128.76 330.688 128.594C330.875 127.802 330.969 127.156 330.969 126.656C330.969 125.958 330.714 125.401 330.203 124.984C329.703 124.557 328.974 124.344 328.016 124.344C326.089 124.344 324.839 125.354 324.266 127.375L321.922 127.125C322.911 123.729 324.99 122.031 328.156 122.031C329.719 122.031 330.958 122.443 331.875 123.266C332.792 124.078 333.25 125.104 333.25 126.344C333.25 127.219 333.146 128.245 332.938 129.422L332.188 133.547C331.948 134.859 331.828 135.922 331.828 136.734C331.828 137.307 331.917 138.062 332.094 139H329.766C329.63 138.479 329.536 137.792 329.484 136.938ZM330.344 130.594C329.771 130.865 328.802 131.073 327.438 131.219C326.042 131.365 325.083 131.552 324.562 131.781C324.042 132.01 323.635 132.359 323.344 132.828C323.052 133.297 322.906 133.839 322.906 134.453C322.906 135.297 323.141 135.964 323.609 136.453C324.078 136.943 324.703 137.188 325.484 137.188C326.224 137.188 326.938 136.958 327.625 136.5C328.312 136.042 328.87 135.38 329.297 134.516C329.734 133.651 330.083 132.344 330.344 130.594ZM334.391 139L337.328 122.422H340.75L342.031 135.641L348.328 122.422H351.734L348.812 139H346.547L348.906 125.625L342.516 139H340.469L339.125 125.109L336.688 139H334.391ZM362.188 136C360.552 138.25 358.88 139.375 357.172 139.375C356.182 139.375 355.349 139.021 354.672 138.312C354.005 137.604 353.672 136.693 353.672 135.578C353.672 134.87 353.818 133.672 354.109 131.984L355.75 122.406H358.062L356.25 133.016C356.094 133.901 356.016 134.583 356.016 135.062C356.016 135.719 356.177 136.219 356.5 136.562C356.823 136.896 357.276 137.062 357.859 137.062C358.682 137.062 359.5 136.734 360.312 136.078C361.135 135.411 361.734 134.583 362.109 133.594C362.495 132.594 362.828 131.255 363.109 129.578L364.344 122.406H366.656L363.812 139H361.672L362.188 136ZM376.016 124.594L376.406 122.422H378.672L378.188 125.172C377.896 126.901 377.75 128.141 377.75 128.891C377.75 130.339 378.698 131.062 380.594 131.062C381.573 131.062 382.542 130.839 383.5 130.391L384.875 122.422H387.219L384.312 139H381.969L383.094 132.625C381.896 133.125 380.818 133.375 379.859 133.375C378.443 133.375 377.344 133.005 376.562 132.266C375.792 131.516 375.406 130.453 375.406 129.078C375.406 128.391 375.609 126.896 376.016 124.594ZM398.359 133.359L400.625 133.641C400.25 135.255 399.38 136.661 398.016 137.859C396.88 138.87 395.615 139.375 394.219 139.375C393.229 139.375 392.328 139.109 391.516 138.578C390.703 138.036 390.057 137.234 389.578 136.172C389.099 135.099 388.859 133.823 388.859 132.344C388.859 130.396 389.224 128.578 389.953 126.891C390.693 125.203 391.594 123.974 392.656 123.203C393.719 122.422 394.87 122.031 396.109 122.031C397.682 122.031 398.964 122.63 399.953 123.828C400.953 125.026 401.453 126.719 401.453 128.906C401.453 129.719 401.396 130.552 401.281 131.406H391.25C391.219 131.74 391.203 132.036 391.203 132.297C391.203 133.859 391.5 135.047 392.094 135.859C392.688 136.661 393.401 137.062 394.234 137.062C395.026 137.062 395.802 136.745 396.562 136.109C397.333 135.474 397.932 134.557 398.359 133.359ZM391.625 129.25H399.266V128.672C399.266 127.193 398.974 126.083 398.391 125.344C397.807 124.604 397.062 124.234 396.156 124.234C395.177 124.234 394.276 124.651 393.453 125.484C392.641 126.318 392.031 127.573 391.625 129.25ZM401.828 145.359L405.766 122.406H407.906L407.5 124.719C408.323 123.677 409.047 122.969 409.672 122.594C410.297 122.219 410.953 122.031 411.641 122.031C412.901 122.031 413.964 122.599 414.828 123.734C415.703 124.87 416.141 126.531 416.141 128.719C416.141 130.781 415.786 132.661 415.078 134.359C414.38 136.057 413.453 137.37 412.297 138.297C411.401 139.016 410.464 139.375 409.484 139.375C407.849 139.375 406.583 138.365 405.688 136.344L404.141 145.359H401.828ZM406.391 132.766C406.391 134.161 406.672 135.229 407.234 135.969C407.807 136.698 408.521 137.062 409.375 137.062C410.052 137.062 410.646 136.839 411.156 136.391C411.885 135.745 412.516 134.682 413.047 133.203C413.578 131.714 413.844 130.214 413.844 128.703C413.844 127.286 413.557 126.203 412.984 125.453C412.422 124.693 411.734 124.312 410.922 124.312C410.276 124.312 409.62 124.604 408.953 125.188C408.286 125.76 407.693 126.776 407.172 128.234C406.651 129.693 406.391 131.203 406.391 132.766ZM427.547 133.359L429.812 133.641C429.438 135.255 428.568 136.661 427.203 137.859C426.068 138.87 424.802 139.375 423.406 139.375C422.417 139.375 421.516 139.109 420.703 138.578C419.891 138.036 419.245 137.234 418.766 136.172C418.286 135.099 418.047 133.823 418.047 132.344C418.047 130.396 418.411 128.578 419.141 126.891C419.88 125.203 420.781 123.974 421.844 123.203C422.906 122.422 424.057 122.031 425.297 122.031C426.87 122.031 428.151 122.63 429.141 123.828C430.141 125.026 430.641 126.719 430.641 128.906C430.641 129.719 430.583 130.552 430.469 131.406H420.438C420.406 131.74 420.391 132.036 420.391 132.297C420.391 133.859 420.688 135.047 421.281 135.859C421.875 136.661 422.589 137.062 423.422 137.062C424.214 137.062 424.99 136.745 425.75 136.109C426.521 135.474 427.12 134.557 427.547 133.359ZM420.812 129.25H428.453V128.672C428.453 127.193 428.161 126.083 427.578 125.344C426.995 124.604 426.25 124.234 425.344 124.234C424.365 124.234 423.464 124.651 422.641 125.484C421.828 126.318 421.219 127.573 420.812 129.25ZM436.141 129.344L436.719 129.375C439.135 129.375 440.344 128.391 440.344 126.422C440.344 124.953 439.562 124.219 438 124.219C437.323 124.219 436.766 124.385 436.328 124.719C435.901 125.042 435.521 125.708 435.188 126.719L433.047 126.422C433.568 124.849 434.229 123.729 435.031 123.062C435.844 122.385 436.917 122.047 438.25 122.047C439.625 122.047 440.703 122.427 441.484 123.188C442.276 123.948 442.672 124.953 442.672 126.203C442.672 128.109 441.828 129.536 440.141 130.484C441.255 131.318 441.812 132.469 441.812 133.938C441.812 135.51 441.323 136.812 440.344 137.844C439.365 138.875 438.052 139.391 436.406 139.391C433.417 139.391 431.646 137.714 431.094 134.359L433.297 134.141C433.651 136.182 434.729 137.203 436.531 137.203C437.417 137.203 438.125 136.917 438.656 136.344C439.198 135.76 439.469 135.026 439.469 134.141C439.469 133.234 439.219 132.578 438.719 132.172C438.219 131.755 437.391 131.547 436.234 131.547C436.13 131.547 435.974 131.557 435.766 131.578L436.141 129.344ZM451.656 139L454.5 122.406H456.594L456.109 125.297C457.089 124.068 457.979 123.219 458.781 122.75C459.583 122.271 460.359 122.031 461.109 122.031C462.161 122.031 463.01 122.385 463.656 123.094C464.312 123.802 464.641 124.807 464.641 126.109C464.641 126.693 464.526 127.641 464.297 128.953L462.578 139H460.25L462.062 128.484C462.24 127.453 462.328 126.693 462.328 126.203C462.328 125.63 462.161 125.182 461.828 124.859C461.505 124.526 461.062 124.359 460.5 124.359C459.333 124.359 458.281 124.875 457.344 125.906C456.417 126.938 455.734 128.729 455.297 131.281L453.969 139H451.656ZM466.656 132.703C466.656 129.714 467.328 127.188 468.672 125.125C470.016 123.062 471.818 122.031 474.078 122.031C475.661 122.031 476.969 122.641 478 123.859C479.031 125.068 479.547 126.792 479.547 129.031C479.547 131.083 479.193 132.917 478.484 134.531C477.786 136.146 476.875 137.359 475.75 138.172C474.635 138.974 473.464 139.375 472.234 139.375C470.62 139.375 469.286 138.781 468.234 137.594C467.182 136.396 466.656 134.766 466.656 132.703ZM468.984 132.422C468.984 133.995 469.297 135.182 469.922 135.984C470.547 136.786 471.328 137.188 472.266 137.188C473.005 137.188 473.745 136.891 474.484 136.297C475.224 135.693 475.87 134.698 476.422 133.312C476.974 131.927 477.25 130.505 477.25 129.047C477.25 127.464 476.938 126.266 476.312 125.453C475.688 124.63 474.917 124.219 474 124.219C473.198 124.219 472.417 124.516 471.656 125.109C470.906 125.703 470.271 126.688 469.75 128.062C469.24 129.427 468.984 130.88 468.984 132.422ZM482.047 124.594L482.438 122.422H484.703L484.219 125.172C483.927 126.901 483.781 128.141 483.781 128.891C483.781 130.339 484.729 131.062 486.625 131.062C487.604 131.062 488.573 130.839 489.531 130.391L490.906 122.422H493.25L490.344 139H488L489.125 132.625C487.927 133.125 486.849 133.375 485.891 133.375C484.474 133.375 483.375 133.005 482.594 132.266C481.823 131.516 481.438 130.453 481.438 129.078C481.438 128.391 481.641 126.896 482.047 124.594ZM494.375 139L497.219 122.406H499.531L499.062 125.141C499.958 123.911 500.745 123.089 501.422 122.672C502.099 122.245 502.818 122.031 503.578 122.031C504.411 122.031 505.115 122.297 505.688 122.828C506.26 123.359 506.641 124.13 506.828 125.141C507.516 124.099 508.245 123.323 509.016 122.812C509.786 122.292 510.594 122.031 511.438 122.031C512.51 122.031 513.344 122.349 513.938 122.984C514.542 123.62 514.844 124.542 514.844 125.75C514.844 126.281 514.74 127.135 514.531 128.312L512.703 139H510.391L512.266 128.031C512.422 127.135 512.5 126.49 512.5 126.094C512.5 125.531 512.354 125.104 512.062 124.812C511.771 124.51 511.38 124.359 510.891 124.359C510.245 124.359 509.568 124.599 508.859 125.078C508.151 125.547 507.583 126.198 507.156 127.031C506.74 127.854 506.375 129.161 506.062 130.953L504.688 139H502.359L504.281 127.797C504.417 127.036 504.484 126.49 504.484 126.156C504.484 125.604 504.339 125.167 504.047 124.844C503.766 124.521 503.411 124.359 502.984 124.359C501.953 124.359 500.974 124.885 500.047 125.938C499.13 126.979 498.464 128.719 498.047 131.156L496.688 139H494.375ZM515.406 145.406L515.547 142.75C516.026 142.917 516.49 143 516.938 143C517.406 143 517.781 142.875 518.062 142.625C518.458 142.271 518.875 141.62 519.312 140.672L520.047 139.047L517.781 122.406H520.062L521.094 130.797C521.302 132.474 521.479 134.13 521.625 135.766L527.703 122.406H530.125L521.453 141.203C520.589 143.099 519.823 144.328 519.156 144.891C518.5 145.453 517.776 145.734 516.984 145.734C516.443 145.734 515.917 145.625 515.406 145.406Z" fill="white"/>
</svg>
