<svg width="120" height="98" viewBox="0 0 120 98" fill="none" xmlns="http://www.w3.org/2000/svg">
<g clip-path="url(#clip0_740_8447)">
<g filter="url(#filter0_d_740_8447)">
<circle cx="60" cy="46" r="46" fill="white"/>
<circle cx="60" cy="46" r="45.5" stroke="black"/>
</g>
<mask id="path-3-outside-1_740_8447" maskUnits="userSpaceOnUse" x="25" y="13" width="68" height="67" fill="black">
<rect fill="white" x="25" y="13" width="68" height="67"/>
<path d="M54.3946 15.0006C54.5397 15.0031 54.6848 15.0055 54.8344 15.0081C54.9693 15.2118 54.9693 15.2118 55.0729 15.4852C54.9852 15.7522 54.9852 15.7522 54.8218 16.0419C54.7343 16.2018 54.7343 16.2018 54.645 16.365C54.582 16.4756 54.5191 16.5862 54.4542 16.7002C53.8389 17.799 53.3332 18.7355 53.4031 20.0174C53.9699 19.9594 54.2548 19.7227 54.6853 19.3614C56.6132 17.8257 59.1792 16.695 61.6327 16.4393C61.7407 16.403 61.8487 16.3666 61.9599 16.3292C63.4753 15.828 65.0469 15.7864 66.6271 15.8057C66.7264 15.8064 66.8257 15.8072 66.928 15.808C69.8163 15.8302 72.9466 15.9432 75.2293 17.9898C75.2205 18.1995 75.2205 18.1995 75.1101 18.4669C74.8395 18.6435 74.5856 18.7874 74.2975 18.929C74.2176 18.97 74.1376 19.011 74.0552 19.0533C73.8114 19.1777 73.5665 19.2997 73.321 19.421C73.2117 19.4752 73.2117 19.4752 73.1002 19.5305C72.7884 19.685 72.4766 19.839 72.1633 19.9903C71.8768 20.1266 71.8768 20.1266 71.6513 20.3752C71.6895 20.6856 71.6895 20.6856 71.7705 20.9715C71.9952 21.017 71.9952 21.017 72.2243 21.0633C77.3568 22.1132 81.8501 24.778 85.725 28.2469C85.8125 28.3243 85.9 28.4016 85.9901 28.4813C86.531 28.9889 86.9766 29.5663 87.4246 30.1552C87.4852 30.2345 87.5458 30.3138 87.6082 30.3955C88.6081 31.7404 88.6081 31.7404 88.5651 32.4139C88.4682 32.6599 88.4682 32.6599 88.3489 32.7791C88.0772 32.7966 87.8049 32.8063 87.5327 32.8127C87.451 32.8149 87.3694 32.8171 87.2853 32.8193C86.9348 32.8287 86.5842 32.8368 86.2337 32.845C85.9784 32.8512 85.7231 32.858 85.4678 32.8649C85.3143 32.8685 85.1608 32.8721 85.0026 32.8758C84.665 32.8588 84.665 32.8588 84.5323 33.0177C84.4618 33.296 84.4618 33.296 84.5323 33.614C84.7699 33.8359 84.9911 34.0111 85.2554 34.1955C88.0438 36.2729 90.3273 39.3141 90.916 42.8108C90.9515 43.1658 90.9666 43.5144 90.9728 43.8711C90.9751 43.9506 90.9774 44.0301 90.9797 44.1121C90.9868 44.3722 90.9915 44.6322 90.9952 44.8924C90.9968 44.9749 90.9984 45.0573 91 45.1423C91.0006 45.5816 90.9848 45.7615 90.7343 46.1372C90.2851 46.0695 89.9773 45.9475 89.5966 45.7016C89.4979 45.6385 89.3992 45.5754 89.2975 45.5104C89.196 45.4442 89.0945 45.378 88.99 45.3098C88.8876 45.2441 88.7852 45.1784 88.6797 45.1106C88.2891 44.8595 87.9004 44.6058 87.514 44.3482C87.1984 44.3854 87.1984 44.3854 86.9177 44.4675C86.9693 44.8804 87.0537 45.2461 87.2084 45.6304C87.4261 46.1836 87.5286 46.7466 87.6333 47.3299C87.6547 47.4154 87.676 47.5009 87.698 47.589C87.9195 48.9593 87.8365 50.5181 87.514 51.8622C87.4619 52.0849 87.4619 52.0849 87.4087 52.3122C87.2989 52.763 87.1718 53.2072 87.0369 53.6512C87.0056 53.7573 86.9742 53.8634 86.9419 53.9726C86.8431 54.2326 86.8431 54.2326 86.5599 54.6053C86.2426 54.6877 85.9622 54.7097 85.6346 54.7088C85.3426 54.6964 85.3426 54.6964 85.1286 54.9631C85.167 55.3328 85.167 55.3328 85.2479 55.6788C85.3906 55.7107 85.5333 55.7427 85.6803 55.7757C86.7443 56.0482 87.5979 56.6526 88.2073 57.5721C88.8018 58.605 88.9666 59.6917 88.9676 60.8669C88.9691 60.9544 88.9705 61.0419 88.972 61.132C88.9735 61.6689 88.9066 62.0904 88.7067 62.5963C88.6329 62.814 88.6329 62.814 88.5576 63.0361C87.8841 64.7974 86.8835 65.9901 85.1706 66.801C84.881 66.9218 84.5913 67.0292 84.2938 67.1286C84.2144 67.1555 84.1351 67.1824 84.0534 67.2101C83.2963 67.4332 82.4227 67.4988 81.6698 67.2478C81.7796 66.6808 81.8937 66.1155 82.0221 65.5524C82.0426 65.4623 82.063 65.3721 82.0841 65.2791C82.1246 65.1019 82.1655 64.9247 82.2069 64.7477C82.2705 64.4686 82.3288 64.1889 82.3855 63.9083C82.4076 63.8029 82.4298 63.6976 82.4527 63.589C82.6705 62.4054 82.6561 61.2262 82.6485 60.0264C82.6464 59.6671 82.6461 59.3079 82.6461 58.9486C82.7581 57.0891 82.7581 57.0891 82.3855 55.3209C82.3525 55.0729 82.3234 54.8243 82.296 54.5755C82.1591 53.4478 81.8943 52.35 81.63 51.2465C81.575 51.0119 81.5223 50.7768 81.4714 50.5413C81.2564 49.5577 80.9623 48.6165 80.6337 47.6654C80.536 47.3805 80.4386 47.0955 80.3416 46.8105C80.2775 46.6248 80.2775 46.6248 80.2122 46.4353C80.1194 46.1372 80.1194 46.1372 80.1194 45.8987C79.8045 45.8593 79.4896 45.82 79.1652 45.7794C79.1344 46.4613 79.2125 46.964 79.4708 47.5983C80.1872 49.4918 80.7228 51.5384 80.9081 53.5575C80.9391 53.8859 80.9391 53.8859 81.0665 54.1557C82.3083 57.4045 81.8936 62.5987 80.7157 65.8166C80.6538 66.0458 80.5918 66.275 80.5304 66.5043C80.0028 68.394 78.8531 69.8108 77.4954 71.1837C77.4204 71.2673 77.3454 71.351 77.2681 71.4371C75.2919 73.593 72.3149 75.0165 69.5906 75.9593C69.3882 76.0306 69.1867 76.1045 68.9866 76.1822C68.0174 76.5555 67.0251 76.8003 66.0158 77.0353C65.9273 77.0562 65.8389 77.077 65.7477 77.0985C64.3071 77.4366 62.8717 77.6903 61.3972 77.8315C61.1578 77.8565 61.1578 77.8565 60.9404 77.9233C60.6412 77.9904 60.3702 77.9981 60.0634 77.9994C59.9407 78.0001 59.8179 78.0009 59.6915 78.0017C59.4928 78.0019 59.4928 78.0019 59.2902 78.0021C59.1524 78.0025 59.0147 78.0029 58.8727 78.0033C58.5804 78.0039 58.288 78.0041 57.9957 78.0041C57.5544 78.0044 57.1131 78.0065 56.6718 78.0088C55.2028 78.0123 53.7809 77.9804 52.3297 77.7435C52.1259 77.7161 51.922 77.6892 51.718 77.6629C47.5874 77.0822 43.1915 76.0152 39.8065 73.4498C39.7062 73.3757 39.606 73.3016 39.5027 73.2252C36.5312 70.9458 35.0057 67.9934 34.3201 64.3854C34.2984 64.2791 34.2766 64.1729 34.2542 64.0635C34.0428 62.905 34.0453 61.754 34.0505 60.5806C34.0518 60.2352 34.0505 59.8899 34.049 59.5445C34.0475 57.728 34.2274 56.0006 34.5885 54.2177C34.6139 54.0914 34.6393 53.965 34.6656 53.8349C34.9152 52.6363 35.2535 51.475 35.6321 50.3117C35.6724 50.183 35.7126 50.0543 35.7541 49.9217C35.986 49.1973 36.2538 48.487 36.5266 47.7772C36.5606 47.6883 36.5945 47.5994 36.6295 47.5078C36.8341 46.9831 37.0625 46.483 37.3285 45.9864C37.4514 45.7116 37.4582 45.4794 37.4211 45.1831C37.2243 45.1437 37.0275 45.1044 36.8248 45.0638C36.3644 45.799 35.9598 46.527 35.6321 47.3299C35.5769 47.464 35.5217 47.5981 35.4648 47.7362C35.2779 48.1956 35.0928 48.6554 34.9165 49.119C34.8708 49.2381 34.8251 49.3571 34.7781 49.4798C34.377 50.5595 34.0856 51.6429 33.8281 52.7641C33.8076 52.8526 33.787 52.941 33.7658 53.0321C33.4345 54.4618 33.154 55.8866 33.0082 57.3485C32.9928 57.4955 32.9774 57.6425 32.9616 57.7939C32.8773 58.8273 32.8744 59.8644 32.8681 60.9008C32.8671 61.0649 32.8657 61.2291 32.864 61.3932C32.8552 62.3434 32.8955 63.2241 33.1274 64.1468C33.286 64.9023 33.4108 65.6441 33.4852 66.4129C32.1381 66.5684 31.1455 66.1242 30.0693 65.3521C28.7975 64.2901 27.9411 62.8165 27.7603 61.1651C27.6355 59.3398 27.9917 57.8118 29.1692 56.3678C29.9325 55.5444 30.8528 55.1026 31.9347 54.8439C31.9347 54.6471 31.9347 54.4503 31.9347 54.2475C31.8068 54.1959 31.6789 54.1442 31.5471 54.091C31.0286 53.7935 30.9037 53.4064 30.7211 52.8568C30.4507 51.7612 30.3414 50.7008 30.3097 49.5737C30.3051 49.4374 30.3005 49.3011 30.2957 49.1607C30.2846 48.8287 30.2744 48.4968 30.265 48.1648C29.7832 48.1302 29.7832 48.1302 29.3924 48.4048C29.304 48.5101 29.2156 48.6154 29.1245 48.7239C29.0358 48.8277 28.9471 48.9314 28.8557 49.0384C28.6079 49.342 28.362 49.647 28.1181 49.9538C27.9214 49.9145 27.7246 49.8751 27.5218 49.8346C27.2161 48.9808 27.1061 48.2196 27.1193 47.315C27.1203 47.1952 27.1213 47.0753 27.1224 46.9519C27.1424 45.9275 27.2774 44.985 27.5218 43.9904C27.555 43.8428 27.5882 43.6952 27.6224 43.5431C28.284 40.8055 29.7324 38.1559 31.8309 36.2682C32.0838 36.0145 32.0838 36.0145 32.0871 35.6672C32.0762 35.58 32.0653 35.4929 32.054 35.4031C31.1504 35.3334 30.4077 35.5864 29.5568 35.8727C29.4199 35.9172 29.283 35.9617 29.1419 36.0075C28.5269 36.1632 28.5269 36.1632 27.9989 36.4765C27.5814 36.4914 27.5814 36.4914 27.164 36.4765C27.0447 36.3572 27.0447 36.3572 27 36.0218C27.0503 33.7687 29.3048 31.4212 30.8241 29.954C32.268 28.6679 33.9486 27.7021 35.7812 27.099C35.892 27.0624 36.0029 27.0259 36.1171 26.9883C37.357 26.5893 38.5386 26.4375 39.8377 26.368C40.1537 26.3747 40.1537 26.3747 40.2836 26.2194C40.32 25.6646 40.32 25.6646 40.1643 25.1459C40.0121 22.7983 40.436 20.6729 41.9762 18.8275C42.0473 18.7478 42.1185 18.6682 42.1919 18.5861C42.2667 18.5016 42.3416 18.417 42.4188 18.3299C42.9865 17.725 43.6812 17.0599 44.5498 17.0207C44.6375 17.0257 44.7253 17.0306 44.8158 17.0357C44.8341 17.5404 44.8316 17.9722 44.6965 18.4594C44.3299 20.0057 44.6049 21.5083 45.0543 22.9991C45.2511 22.9991 45.4479 22.9991 45.6507 22.9991C45.7392 22.7888 45.7392 22.7888 45.8296 22.5742C46.9805 20.0007 48.5517 17.7999 50.8985 16.2008C50.9815 16.141 51.0645 16.0812 51.1501 16.0195C52.0667 15.3927 53.2788 14.9817 54.3946 15.0006Z"/>
</mask>
<path d="M54.3946 15.0006C54.5397 15.0031 54.6848 15.0055 54.8344 15.0081C54.9693 15.2118 54.9693 15.2118 55.0729 15.4852C54.9852 15.7522 54.9852 15.7522 54.8218 16.0419C54.7343 16.2018 54.7343 16.2018 54.645 16.365C54.582 16.4756 54.5191 16.5862 54.4542 16.7002C53.8389 17.799 53.3332 18.7355 53.4031 20.0174C53.9699 19.9594 54.2548 19.7227 54.6853 19.3614C56.6132 17.8257 59.1792 16.695 61.6327 16.4393C61.7407 16.403 61.8487 16.3666 61.9599 16.3292C63.4753 15.828 65.0469 15.7864 66.6271 15.8057C66.7264 15.8064 66.8257 15.8072 66.928 15.808C69.8163 15.8302 72.9466 15.9432 75.2293 17.9898C75.2205 18.1995 75.2205 18.1995 75.1101 18.4669C74.8395 18.6435 74.5856 18.7874 74.2975 18.929C74.2176 18.97 74.1376 19.011 74.0552 19.0533C73.8114 19.1777 73.5665 19.2997 73.321 19.421C73.2117 19.4752 73.2117 19.4752 73.1002 19.5305C72.7884 19.685 72.4766 19.839 72.1633 19.9903C71.8768 20.1266 71.8768 20.1266 71.6513 20.3752C71.6895 20.6856 71.6895 20.6856 71.7705 20.9715C71.9952 21.017 71.9952 21.017 72.2243 21.0633C77.3568 22.1132 81.8501 24.778 85.725 28.2469C85.8125 28.3243 85.9 28.4016 85.9901 28.4813C86.531 28.9889 86.9766 29.5663 87.4246 30.1552C87.4852 30.2345 87.5458 30.3138 87.6082 30.3955C88.6081 31.7404 88.6081 31.7404 88.5651 32.4139C88.4682 32.6599 88.4682 32.6599 88.3489 32.7791C88.0772 32.7966 87.8049 32.8063 87.5327 32.8127C87.451 32.8149 87.3694 32.8171 87.2853 32.8193C86.9348 32.8287 86.5842 32.8368 86.2337 32.845C85.9784 32.8512 85.7231 32.858 85.4678 32.8649C85.3143 32.8685 85.1608 32.8721 85.0026 32.8758C84.665 32.8588 84.665 32.8588 84.5323 33.0177C84.4618 33.296 84.4618 33.296 84.5323 33.614C84.7699 33.8359 84.9911 34.0111 85.2554 34.1955C88.0438 36.2729 90.3273 39.3141 90.916 42.8108C90.9515 43.1658 90.9666 43.5144 90.9728 43.8711C90.9751 43.9506 90.9774 44.0301 90.9797 44.1121C90.9868 44.3722 90.9915 44.6322 90.9952 44.8924C90.9968 44.9749 90.9984 45.0573 91 45.1423C91.0006 45.5816 90.9848 45.7615 90.7343 46.1372C90.2851 46.0695 89.9773 45.9475 89.5966 45.7016C89.4979 45.6385 89.3992 45.5754 89.2975 45.5104C89.196 45.4442 89.0945 45.378 88.99 45.3098C88.8876 45.2441 88.7852 45.1784 88.6797 45.1106C88.2891 44.8595 87.9004 44.6058 87.514 44.3482C87.1984 44.3854 87.1984 44.3854 86.9177 44.4675C86.9693 44.8804 87.0537 45.2461 87.2084 45.6304C87.4261 46.1836 87.5286 46.7466 87.6333 47.3299C87.6547 47.4154 87.676 47.5009 87.698 47.589C87.9195 48.9593 87.8365 50.5181 87.514 51.8622C87.4619 52.0849 87.4619 52.0849 87.4087 52.3122C87.2989 52.763 87.1718 53.2072 87.0369 53.6512C87.0056 53.7573 86.9742 53.8634 86.9419 53.9726C86.8431 54.2326 86.8431 54.2326 86.5599 54.6053C86.2426 54.6877 85.9622 54.7097 85.6346 54.7088C85.3426 54.6964 85.3426 54.6964 85.1286 54.9631C85.167 55.3328 85.167 55.3328 85.2479 55.6788C85.3906 55.7107 85.5333 55.7427 85.6803 55.7757C86.7443 56.0482 87.5979 56.6526 88.2073 57.5721C88.8018 58.605 88.9666 59.6917 88.9676 60.8669C88.9691 60.9544 88.9705 61.0419 88.972 61.132C88.9735 61.6689 88.9066 62.0904 88.7067 62.5963C88.6329 62.814 88.6329 62.814 88.5576 63.0361C87.8841 64.7974 86.8835 65.9901 85.1706 66.801C84.881 66.9218 84.5913 67.0292 84.2938 67.1286C84.2144 67.1555 84.1351 67.1824 84.0534 67.2101C83.2963 67.4332 82.4227 67.4988 81.6698 67.2478C81.7796 66.6808 81.8937 66.1155 82.0221 65.5524C82.0426 65.4623 82.063 65.3721 82.0841 65.2791C82.1246 65.1019 82.1655 64.9247 82.2069 64.7477C82.2705 64.4686 82.3288 64.1889 82.3855 63.9083C82.4076 63.8029 82.4298 63.6976 82.4527 63.589C82.6705 62.4054 82.6561 61.2262 82.6485 60.0264C82.6464 59.6671 82.6461 59.3079 82.6461 58.9486C82.7581 57.0891 82.7581 57.0891 82.3855 55.3209C82.3525 55.0729 82.3234 54.8243 82.296 54.5755C82.1591 53.4478 81.8943 52.35 81.63 51.2465C81.575 51.0119 81.5223 50.7768 81.4714 50.5413C81.2564 49.5577 80.9623 48.6165 80.6337 47.6654C80.536 47.3805 80.4386 47.0955 80.3416 46.8105C80.2775 46.6248 80.2775 46.6248 80.2122 46.4353C80.1194 46.1372 80.1194 46.1372 80.1194 45.8987C79.8045 45.8593 79.4896 45.82 79.1652 45.7794C79.1344 46.4613 79.2125 46.964 79.4708 47.5983C80.1872 49.4918 80.7228 51.5384 80.9081 53.5575C80.9391 53.8859 80.9391 53.8859 81.0665 54.1557C82.3083 57.4045 81.8936 62.5987 80.7157 65.8166C80.6538 66.0458 80.5918 66.275 80.5304 66.5043C80.0028 68.394 78.8531 69.8108 77.4954 71.1837C77.4204 71.2673 77.3454 71.351 77.2681 71.4371C75.2919 73.593 72.3149 75.0165 69.5906 75.9593C69.3882 76.0306 69.1867 76.1045 68.9866 76.1822C68.0174 76.5555 67.0251 76.8003 66.0158 77.0353C65.9273 77.0562 65.8389 77.077 65.7477 77.0985C64.3071 77.4366 62.8717 77.6903 61.3972 77.8315C61.1578 77.8565 61.1578 77.8565 60.9404 77.9233C60.6412 77.9904 60.3702 77.9981 60.0634 77.9994C59.9407 78.0001 59.8179 78.0009 59.6915 78.0017C59.4928 78.0019 59.4928 78.0019 59.2902 78.0021C59.1524 78.0025 59.0147 78.0029 58.8727 78.0033C58.5804 78.0039 58.288 78.0041 57.9957 78.0041C57.5544 78.0044 57.1131 78.0065 56.6718 78.0088C55.2028 78.0123 53.7809 77.9804 52.3297 77.7435C52.1259 77.7161 51.922 77.6892 51.718 77.6629C47.5874 77.0822 43.1915 76.0152 39.8065 73.4498C39.7062 73.3757 39.606 73.3016 39.5027 73.2252C36.5312 70.9458 35.0057 67.9934 34.3201 64.3854C34.2984 64.2791 34.2766 64.1729 34.2542 64.0635C34.0428 62.905 34.0453 61.754 34.0505 60.5806C34.0518 60.2352 34.0505 59.8899 34.049 59.5445C34.0475 57.728 34.2274 56.0006 34.5885 54.2177C34.6139 54.0914 34.6393 53.965 34.6656 53.8349C34.9152 52.6363 35.2535 51.475 35.6321 50.3117C35.6724 50.183 35.7126 50.0543 35.7541 49.9217C35.986 49.1973 36.2538 48.487 36.5266 47.7772C36.5606 47.6883 36.5945 47.5994 36.6295 47.5078C36.8341 46.9831 37.0625 46.483 37.3285 45.9864C37.4514 45.7116 37.4582 45.4794 37.4211 45.1831C37.2243 45.1437 37.0275 45.1044 36.8248 45.0638C36.3644 45.799 35.9598 46.527 35.6321 47.3299C35.5769 47.464 35.5217 47.5981 35.4648 47.7362C35.2779 48.1956 35.0928 48.6554 34.9165 49.119C34.8708 49.2381 34.8251 49.3571 34.7781 49.4798C34.377 50.5595 34.0856 51.6429 33.8281 52.7641C33.8076 52.8526 33.787 52.941 33.7658 53.0321C33.4345 54.4618 33.154 55.8866 33.0082 57.3485C32.9928 57.4955 32.9774 57.6425 32.9616 57.7939C32.8773 58.8273 32.8744 59.8644 32.8681 60.9008C32.8671 61.0649 32.8657 61.2291 32.864 61.3932C32.8552 62.3434 32.8955 63.2241 33.1274 64.1468C33.286 64.9023 33.4108 65.6441 33.4852 66.4129C32.1381 66.5684 31.1455 66.1242 30.0693 65.3521C28.7975 64.2901 27.9411 62.8165 27.7603 61.1651C27.6355 59.3398 27.9917 57.8118 29.1692 56.3678C29.9325 55.5444 30.8528 55.1026 31.9347 54.8439C31.9347 54.6471 31.9347 54.4503 31.9347 54.2475C31.8068 54.1959 31.6789 54.1442 31.5471 54.091C31.0286 53.7935 30.9037 53.4064 30.7211 52.8568C30.4507 51.7612 30.3414 50.7008 30.3097 49.5737C30.3051 49.4374 30.3005 49.3011 30.2957 49.1607C30.2846 48.8287 30.2744 48.4968 30.265 48.1648C29.7832 48.1302 29.7832 48.1302 29.3924 48.4048C29.304 48.5101 29.2156 48.6154 29.1245 48.7239C29.0358 48.8277 28.9471 48.9314 28.8557 49.0384C28.6079 49.342 28.362 49.647 28.1181 49.9538C27.9214 49.9145 27.7246 49.8751 27.5218 49.8346C27.2161 48.9808 27.1061 48.2196 27.1193 47.315C27.1203 47.1952 27.1213 47.0753 27.1224 46.9519C27.1424 45.9275 27.2774 44.985 27.5218 43.9904C27.555 43.8428 27.5882 43.6952 27.6224 43.5431C28.284 40.8055 29.7324 38.1559 31.8309 36.2682C32.0838 36.0145 32.0838 36.0145 32.0871 35.6672C32.0762 35.58 32.0653 35.4929 32.054 35.4031C31.1504 35.3334 30.4077 35.5864 29.5568 35.8727C29.4199 35.9172 29.283 35.9617 29.1419 36.0075C28.5269 36.1632 28.5269 36.1632 27.9989 36.4765C27.5814 36.4914 27.5814 36.4914 27.164 36.4765C27.0447 36.3572 27.0447 36.3572 27 36.0218C27.0503 33.7687 29.3048 31.4212 30.8241 29.954C32.268 28.6679 33.9486 27.7021 35.7812 27.099C35.892 27.0624 36.0029 27.0259 36.1171 26.9883C37.357 26.5893 38.5386 26.4375 39.8377 26.368C40.1537 26.3747 40.1537 26.3747 40.2836 26.2194C40.32 25.6646 40.32 25.6646 40.1643 25.1459C40.0121 22.7983 40.436 20.6729 41.9762 18.8275C42.0473 18.7478 42.1185 18.6682 42.1919 18.5861C42.2667 18.5016 42.3416 18.417 42.4188 18.3299C42.9865 17.725 43.6812 17.0599 44.5498 17.0207C44.6375 17.0257 44.7253 17.0306 44.8158 17.0357C44.8341 17.5404 44.8316 17.9722 44.6965 18.4594C44.3299 20.0057 44.6049 21.5083 45.0543 22.9991C45.2511 22.9991 45.4479 22.9991 45.6507 22.9991C45.7392 22.7888 45.7392 22.7888 45.8296 22.5742C46.9805 20.0007 48.5517 17.7999 50.8985 16.2008C50.9815 16.141 51.0645 16.0812 51.1501 16.0195C52.0667 15.3927 53.2788 14.9817 54.3946 15.0006Z" fill="#F8F7F7"/>
<path d="M54.3946 15.0006C54.5397 15.0031 54.6848 15.0055 54.8344 15.0081C54.9693 15.2118 54.9693 15.2118 55.0729 15.4852C54.9852 15.7522 54.9852 15.7522 54.8218 16.0419C54.7343 16.2018 54.7343 16.2018 54.645 16.365C54.582 16.4756 54.5191 16.5862 54.4542 16.7002C53.8389 17.799 53.3332 18.7355 53.4031 20.0174C53.9699 19.9594 54.2548 19.7227 54.6853 19.3614C56.6132 17.8257 59.1792 16.695 61.6327 16.4393C61.7407 16.403 61.8487 16.3666 61.9599 16.3292C63.4753 15.828 65.0469 15.7864 66.6271 15.8057C66.7264 15.8064 66.8257 15.8072 66.928 15.808C69.8163 15.8302 72.9466 15.9432 75.2293 17.9898C75.2205 18.1995 75.2205 18.1995 75.1101 18.4669C74.8395 18.6435 74.5856 18.7874 74.2975 18.929C74.2176 18.97 74.1376 19.011 74.0552 19.0533C73.8114 19.1777 73.5665 19.2997 73.321 19.421C73.2117 19.4752 73.2117 19.4752 73.1002 19.5305C72.7884 19.685 72.4766 19.839 72.1633 19.9903C71.8768 20.1266 71.8768 20.1266 71.6513 20.3752C71.6895 20.6856 71.6895 20.6856 71.7705 20.9715C71.9952 21.017 71.9952 21.017 72.2243 21.0633C77.3568 22.1132 81.8501 24.778 85.725 28.2469C85.8125 28.3243 85.9 28.4016 85.9901 28.4813C86.531 28.9889 86.9766 29.5663 87.4246 30.1552C87.4852 30.2345 87.5458 30.3138 87.6082 30.3955C88.6081 31.7404 88.6081 31.7404 88.5651 32.4139C88.4682 32.6599 88.4682 32.6599 88.3489 32.7791C88.0772 32.7966 87.8049 32.8063 87.5327 32.8127C87.451 32.8149 87.3694 32.8171 87.2853 32.8193C86.9348 32.8287 86.5842 32.8368 86.2337 32.845C85.9784 32.8512 85.7231 32.858 85.4678 32.8649C85.3143 32.8685 85.1608 32.8721 85.0026 32.8758C84.665 32.8588 84.665 32.8588 84.5323 33.0177C84.4618 33.296 84.4618 33.296 84.5323 33.614C84.7699 33.8359 84.9911 34.0111 85.2554 34.1955C88.0438 36.2729 90.3273 39.3141 90.916 42.8108C90.9515 43.1658 90.9666 43.5144 90.9728 43.8711C90.9751 43.9506 90.9774 44.0301 90.9797 44.1121C90.9868 44.3722 90.9915 44.6322 90.9952 44.8924C90.9968 44.9749 90.9984 45.0573 91 45.1423C91.0006 45.5816 90.9848 45.7615 90.7343 46.1372C90.2851 46.0695 89.9773 45.9475 89.5966 45.7016C89.4979 45.6385 89.3992 45.5754 89.2975 45.5104C89.196 45.4442 89.0945 45.378 88.99 45.3098C88.8876 45.2441 88.7852 45.1784 88.6797 45.1106C88.2891 44.8595 87.9004 44.6058 87.514 44.3482C87.1984 44.3854 87.1984 44.3854 86.9177 44.4675C86.9693 44.8804 87.0537 45.2461 87.2084 45.6304C87.4261 46.1836 87.5286 46.7466 87.6333 47.3299C87.6547 47.4154 87.676 47.5009 87.698 47.589C87.9195 48.9593 87.8365 50.5181 87.514 51.8622C87.4619 52.0849 87.4619 52.0849 87.4087 52.3122C87.2989 52.763 87.1718 53.2072 87.0369 53.6512C87.0056 53.7573 86.9742 53.8634 86.9419 53.9726C86.8431 54.2326 86.8431 54.2326 86.5599 54.6053C86.2426 54.6877 85.9622 54.7097 85.6346 54.7088C85.3426 54.6964 85.3426 54.6964 85.1286 54.9631C85.167 55.3328 85.167 55.3328 85.2479 55.6788C85.3906 55.7107 85.5333 55.7427 85.6803 55.7757C86.7443 56.0482 87.5979 56.6526 88.2073 57.5721C88.8018 58.605 88.9666 59.6917 88.9676 60.8669C88.9691 60.9544 88.9705 61.0419 88.972 61.132C88.9735 61.6689 88.9066 62.0904 88.7067 62.5963C88.6329 62.814 88.6329 62.814 88.5576 63.0361C87.8841 64.7974 86.8835 65.9901 85.1706 66.801C84.881 66.9218 84.5913 67.0292 84.2938 67.1286C84.2144 67.1555 84.1351 67.1824 84.0534 67.2101C83.2963 67.4332 82.4227 67.4988 81.6698 67.2478C81.7796 66.6808 81.8937 66.1155 82.0221 65.5524C82.0426 65.4623 82.063 65.3721 82.0841 65.2791C82.1246 65.1019 82.1655 64.9247 82.2069 64.7477C82.2705 64.4686 82.3288 64.1889 82.3855 63.9083C82.4076 63.8029 82.4298 63.6976 82.4527 63.589C82.6705 62.4054 82.6561 61.2262 82.6485 60.0264C82.6464 59.6671 82.6461 59.3079 82.6461 58.9486C82.7581 57.0891 82.7581 57.0891 82.3855 55.3209C82.3525 55.0729 82.3234 54.8243 82.296 54.5755C82.1591 53.4478 81.8943 52.35 81.63 51.2465C81.575 51.0119 81.5223 50.7768 81.4714 50.5413C81.2564 49.5577 80.9623 48.6165 80.6337 47.6654C80.536 47.3805 80.4386 47.0955 80.3416 46.8105C80.2775 46.6248 80.2775 46.6248 80.2122 46.4353C80.1194 46.1372 80.1194 46.1372 80.1194 45.8987C79.8045 45.8593 79.4896 45.82 79.1652 45.7794C79.1344 46.4613 79.2125 46.964 79.4708 47.5983C80.1872 49.4918 80.7228 51.5384 80.9081 53.5575C80.9391 53.8859 80.9391 53.8859 81.0665 54.1557C82.3083 57.4045 81.8936 62.5987 80.7157 65.8166C80.6538 66.0458 80.5918 66.275 80.5304 66.5043C80.0028 68.394 78.8531 69.8108 77.4954 71.1837C77.4204 71.2673 77.3454 71.351 77.2681 71.4371C75.2919 73.593 72.3149 75.0165 69.5906 75.9593C69.3882 76.0306 69.1867 76.1045 68.9866 76.1822C68.0174 76.5555 67.0251 76.8003 66.0158 77.0353C65.9273 77.0562 65.8389 77.077 65.7477 77.0985C64.3071 77.4366 62.8717 77.6903 61.3972 77.8315C61.1578 77.8565 61.1578 77.8565 60.9404 77.9233C60.6412 77.9904 60.3702 77.9981 60.0634 77.9994C59.9407 78.0001 59.8179 78.0009 59.6915 78.0017C59.4928 78.0019 59.4928 78.0019 59.2902 78.0021C59.1524 78.0025 59.0147 78.0029 58.8727 78.0033C58.5804 78.0039 58.288 78.0041 57.9957 78.0041C57.5544 78.0044 57.1131 78.0065 56.6718 78.0088C55.2028 78.0123 53.7809 77.9804 52.3297 77.7435C52.1259 77.7161 51.922 77.6892 51.718 77.6629C47.5874 77.0822 43.1915 76.0152 39.8065 73.4498C39.7062 73.3757 39.606 73.3016 39.5027 73.2252C36.5312 70.9458 35.0057 67.9934 34.3201 64.3854C34.2984 64.2791 34.2766 64.1729 34.2542 64.0635C34.0428 62.905 34.0453 61.754 34.0505 60.5806C34.0518 60.2352 34.0505 59.8899 34.049 59.5445C34.0475 57.728 34.2274 56.0006 34.5885 54.2177C34.6139 54.0914 34.6393 53.965 34.6656 53.8349C34.9152 52.6363 35.2535 51.475 35.6321 50.3117C35.6724 50.183 35.7126 50.0543 35.7541 49.9217C35.986 49.1973 36.2538 48.487 36.5266 47.7772C36.5606 47.6883 36.5945 47.5994 36.6295 47.5078C36.8341 46.9831 37.0625 46.483 37.3285 45.9864C37.4514 45.7116 37.4582 45.4794 37.4211 45.1831C37.2243 45.1437 37.0275 45.1044 36.8248 45.0638C36.3644 45.799 35.9598 46.527 35.6321 47.3299C35.5769 47.464 35.5217 47.5981 35.4648 47.7362C35.2779 48.1956 35.0928 48.6554 34.9165 49.119C34.8708 49.2381 34.8251 49.3571 34.7781 49.4798C34.377 50.5595 34.0856 51.6429 33.8281 52.7641C33.8076 52.8526 33.787 52.941 33.7658 53.0321C33.4345 54.4618 33.154 55.8866 33.0082 57.3485C32.9928 57.4955 32.9774 57.6425 32.9616 57.7939C32.8773 58.8273 32.8744 59.8644 32.8681 60.9008C32.8671 61.0649 32.8657 61.2291 32.864 61.3932C32.8552 62.3434 32.8955 63.2241 33.1274 64.1468C33.286 64.9023 33.4108 65.6441 33.4852 66.4129C32.1381 66.5684 31.1455 66.1242 30.0693 65.3521C28.7975 64.2901 27.9411 62.8165 27.7603 61.1651C27.6355 59.3398 27.9917 57.8118 29.1692 56.3678C29.9325 55.5444 30.8528 55.1026 31.9347 54.8439C31.9347 54.6471 31.9347 54.4503 31.9347 54.2475C31.8068 54.1959 31.6789 54.1442 31.5471 54.091C31.0286 53.7935 30.9037 53.4064 30.7211 52.8568C30.4507 51.7612 30.3414 50.7008 30.3097 49.5737C30.3051 49.4374 30.3005 49.3011 30.2957 49.1607C30.2846 48.8287 30.2744 48.4968 30.265 48.1648C29.7832 48.1302 29.7832 48.1302 29.3924 48.4048C29.304 48.5101 29.2156 48.6154 29.1245 48.7239C29.0358 48.8277 28.9471 48.9314 28.8557 49.0384C28.6079 49.342 28.362 49.647 28.1181 49.9538C27.9214 49.9145 27.7246 49.8751 27.5218 49.8346C27.2161 48.9808 27.1061 48.2196 27.1193 47.315C27.1203 47.1952 27.1213 47.0753 27.1224 46.9519C27.1424 45.9275 27.2774 44.985 27.5218 43.9904C27.555 43.8428 27.5882 43.6952 27.6224 43.5431C28.284 40.8055 29.7324 38.1559 31.8309 36.2682C32.0838 36.0145 32.0838 36.0145 32.0871 35.6672C32.0762 35.58 32.0653 35.4929 32.054 35.4031C31.1504 35.3334 30.4077 35.5864 29.5568 35.8727C29.4199 35.9172 29.283 35.9617 29.1419 36.0075C28.5269 36.1632 28.5269 36.1632 27.9989 36.4765C27.5814 36.4914 27.5814 36.4914 27.164 36.4765C27.0447 36.3572 27.0447 36.3572 27 36.0218C27.0503 33.7687 29.3048 31.4212 30.8241 29.954C32.268 28.6679 33.9486 27.7021 35.7812 27.099C35.892 27.0624 36.0029 27.0259 36.1171 26.9883C37.357 26.5893 38.5386 26.4375 39.8377 26.368C40.1537 26.3747 40.1537 26.3747 40.2836 26.2194C40.32 25.6646 40.32 25.6646 40.1643 25.1459C40.0121 22.7983 40.436 20.6729 41.9762 18.8275C42.0473 18.7478 42.1185 18.6682 42.1919 18.5861C42.2667 18.5016 42.3416 18.417 42.4188 18.3299C42.9865 17.725 43.6812 17.0599 44.5498 17.0207C44.6375 17.0257 44.7253 17.0306 44.8158 17.0357C44.8341 17.5404 44.8316 17.9722 44.6965 18.4594C44.3299 20.0057 44.6049 21.5083 45.0543 22.9991C45.2511 22.9991 45.4479 22.9991 45.6507 22.9991C45.7392 22.7888 45.7392 22.7888 45.8296 22.5742C46.9805 20.0007 48.5517 17.7999 50.8985 16.2008C50.9815 16.141 51.0645 16.0812 51.1501 16.0195C52.0667 15.3927 53.2788 14.9817 54.3946 15.0006Z" stroke="black" stroke-width="2.4" mask="url(#path-3-outside-1_740_8447)"/>
<path d="M73.2081 41.7907C74.9253 43.0132 76.0915 44.629 76.7787 46.6137C76.8039 46.686 76.8291 46.7583 76.855 46.8327C78.17 50.6928 78.2139 55.2998 76.4209 59.0176C75.512 60.6936 74.2219 62.1064 72.3976 62.7629C71.8826 62.8987 71.3675 62.8974 70.8376 62.8939C70.7213 62.8933 70.605 62.8927 70.4851 62.892C69.6028 62.8707 68.9371 62.7289 68.1914 62.2379C68.0516 62.1581 68.0516 62.1581 67.909 62.0767C66.4969 61.2256 65.3381 59.6005 64.8667 58.0187C64.8474 57.9366 64.828 57.8545 64.808 57.77C64.7387 57.4918 64.6539 57.2277 64.5616 56.9565C63.5112 53.8251 63.4312 49.8709 64.494 46.7329C64.5214 46.649 64.5489 46.565 64.5771 46.4785C65.3215 44.2581 66.573 42.4327 68.6782 41.3584C70.178 40.6788 71.8475 40.9295 73.2081 41.7907Z" fill="#F7F6F6"/>
<path d="M47.1974 41.4786C49.2943 42.5451 50.3492 44.1837 51.0671 46.3813C51.5641 47.9884 51.6434 49.5702 51.6452 51.241C51.6454 51.3275 51.6456 51.414 51.6457 51.5032C51.645 53.248 51.5634 54.9698 50.9831 56.6299C50.8863 56.9079 50.8067 57.1891 50.7284 57.4728C50.1282 59.4692 48.7909 61.4363 46.9639 62.4746C45.5389 63.1975 44.2926 63.4267 42.7075 63.0113C41.0628 62.4391 40.0264 61.2567 39.2413 59.7463C38.8831 59.0055 38.588 58.2609 38.3766 57.4653C38.3409 57.3342 38.3053 57.203 38.2685 57.0679C37.7062 54.5403 37.7511 51.4748 38.4959 48.9972C38.5253 48.8987 38.5547 48.8002 38.585 48.6987C39.1976 46.7096 40.0096 44.8726 41.3583 43.2723C41.4313 43.1844 41.5044 43.0964 41.5796 43.0058C42.9537 41.4941 45.2329 40.6655 47.1974 41.4786Z" fill="#F7F6F6"/>
<path d="M65.0138 65.5535C65.6493 65.9711 65.9467 66.4524 65.9978 67.0727C66.0006 67.2051 66.0007 67.3375 65.9983 67.4699C65.9971 67.5403 65.996 67.6108 65.9948 67.6834C65.9354 69.1922 64.9811 70.3821 63.4862 71.4028C61.1162 72.8152 58.4873 73.0943 55.4852 72.9754C53.6439 72.8155 51.8474 71.9498 50.6658 70.9387C49.4666 69.7446 48.8811 68.5976 49.0201 67.1198C49.1291 66.6555 49.4243 66.3266 49.9433 66.0459C50.803 65.6568 51.7883 65.6397 52.7733 65.6396C52.904 65.6385 53.0347 65.6374 53.1693 65.6362C53.5837 65.6328 53.9981 65.6309 54.4126 65.6294C54.8262 65.6273 55.2397 65.6249 55.6533 65.6216C55.9095 65.6195 56.1657 65.6183 56.4219 65.6179C57.2664 65.6117 58.065 65.5362 58.894 65.4225C63.691 64.839 63.691 64.839 65.0138 65.5535Z" fill="#020202"/>
<path d="M73.2081 41.7907C74.9253 43.0132 76.0915 44.629 76.7787 46.6137C76.8039 46.686 76.8291 46.7583 76.855 46.8327C78.17 50.6928 78.2139 55.2998 76.4209 59.0176C75.512 60.6936 74.2219 62.1064 72.3976 62.7629C71.8826 62.8987 71.3675 62.8974 70.8376 62.8939C70.7213 62.8933 70.605 62.8927 70.4851 62.892C69.6028 62.8707 68.9371 62.7289 68.1914 62.2379C68.0516 62.1581 68.0516 62.1581 67.909 62.0767C66.4969 61.2256 65.3381 59.6005 64.8667 58.0187C64.8474 57.9366 64.828 57.8545 64.808 57.77C64.7387 57.4918 64.6539 57.2277 64.5616 56.9565C63.5112 53.8251 63.4312 49.8709 64.494 46.7329C64.5214 46.649 64.5489 46.565 64.5771 46.4785C65.3215 44.2581 66.573 42.4327 68.6782 41.3584C70.178 40.6788 71.8475 40.9295 73.2081 41.7907ZM68.5492 42.7971C68.4692 42.8463 68.3893 42.8955 68.3069 42.9461C67.1891 43.7028 66.5331 44.7845 66.0445 46.0173C66.0062 46.108 65.968 46.1987 65.9285 46.2922C65.764 46.7238 65.6316 47.1624 65.5004 47.6051C65.474 47.6911 65.4476 47.7771 65.4205 47.8657C65.395 47.9515 65.3696 48.0372 65.3433 48.1255C65.3205 48.2016 65.2977 48.2778 65.2741 48.3562C64.5608 51.5083 64.89 55.892 66.4023 58.7791C66.481 58.7791 66.5598 58.7791 66.6409 58.7791C66.6812 58.9338 66.6812 58.9338 66.7224 59.0917C66.9011 59.5505 67.1508 59.8647 67.4832 60.2178C67.5413 60.2803 67.5994 60.3429 67.6593 60.4073C68.4787 61.2592 69.3192 61.6488 70.4928 61.6764C71.414 61.6843 72.1648 61.6805 72.9621 61.1645C73.0826 61.0956 73.2032 61.0267 73.3274 60.9557C75.5067 59.2865 76.1914 56.739 76.5402 54.1276C76.8332 50.916 76.272 46.9974 74.2587 44.3746C73.5531 43.5573 72.5435 42.4591 71.4203 42.2842C71.1653 42.2677 70.9143 42.2642 70.6587 42.2678C70.5238 42.2692 70.5238 42.2692 70.3862 42.2705C69.6848 42.2913 69.1431 42.4076 68.5492 42.7971Z" fill="#101010"/>
<path d="M47.1974 41.4786C49.2943 42.5451 50.3492 44.1837 51.0671 46.3813C51.5641 47.9884 51.6434 49.5702 51.6452 51.241C51.6454 51.3275 51.6456 51.414 51.6457 51.5032C51.645 53.248 51.5634 54.9698 50.9831 56.6299C50.8863 56.9079 50.8067 57.1891 50.7284 57.4728C50.1282 59.4692 48.7909 61.4363 46.9639 62.4746C45.5389 63.1975 44.2926 63.4267 42.7075 63.0113C41.0628 62.4391 40.0264 61.2567 39.2413 59.7463C38.8831 59.0055 38.588 58.2609 38.3766 57.4653C38.3409 57.3342 38.3053 57.203 38.2685 57.0679C37.7062 54.5403 37.7511 51.4748 38.4959 48.9972C38.5253 48.8987 38.5547 48.8002 38.585 48.6987C39.1976 46.7096 40.0096 44.8726 41.3583 43.2723C41.4313 43.1844 41.5044 43.0964 41.5796 43.0058C42.9537 41.4941 45.2329 40.6655 47.1974 41.4786ZM41.8354 44.465C40.7385 45.9639 39.9631 47.7829 39.5693 49.5936C39.5362 49.7244 39.5032 49.8552 39.4691 49.99C38.7869 53.0994 38.9092 56.923 40.5234 59.7314C41.2339 60.7931 42.1053 61.6322 43.3635 61.9677C43.489 61.9775 43.6144 61.9874 43.7437 61.9975C43.8365 62.0064 43.9294 62.0154 44.0251 62.0245C45.2549 62.0921 46.3179 61.6995 47.2472 60.8943C48.5644 59.5983 49.329 58.1359 49.8637 56.3844C49.8926 56.2902 49.9215 56.196 49.9513 56.0989C50.369 54.6536 50.4617 53.2324 50.4538 51.738C50.4526 51.4505 50.4538 51.163 50.4554 50.8755C50.4579 48.3416 50.0941 45.5325 48.3132 43.5779C47.3382 42.6982 46.3327 42.3068 45.0165 42.3699C43.6678 42.5779 42.6656 43.4166 41.8354 44.465Z" fill="#0F0E0E"/>
<path d="M68.9804 46.6065C70.0054 47.5677 70.3671 48.9156 70.434 50.2843C70.4764 52.1401 70.1655 53.9387 68.8686 55.3481C68.4818 55.6682 68.1232 55.7756 67.6312 55.8499C67.0035 55.7648 66.6571 55.5472 66.2372 55.0746C65.0766 53.1493 64.7061 51.0221 65.2383 48.8279C65.5301 47.7247 65.9907 46.7778 66.9528 46.1295C67.6767 45.8025 68.4083 46.144 68.9804 46.6065Z" fill="#060505"/>
<path d="M48.2306 46.044C48.9126 46.29 49.3476 46.7352 49.673 47.3732C50.1309 48.3594 50.1607 49.2224 50.1613 50.3004C50.1627 50.4356 50.1642 50.5709 50.1657 50.7102C50.1687 52.4549 49.8328 54.0534 48.5884 55.347C48.0249 55.7512 47.4727 55.7935 46.7994 55.7048C46.1218 55.443 45.7668 54.8506 45.4674 54.2177C44.9649 53.0132 44.9854 51.8581 45.0103 50.5762C45.0123 50.4368 45.0143 50.2973 45.0164 50.1537C45.0841 48.5655 45.6295 47.3626 46.7994 46.2825C47.2838 45.9596 47.6618 45.9673 48.2306 46.044Z" fill="#050404"/>
<path d="M51.1354 31.467C51.2541 31.8134 51.3674 32.1574 51.4596 32.512C51.9189 34.232 52.8057 35.872 53.9978 37.1919C54.114 37.3353 54.114 37.3353 54.2326 37.4817C55.7608 39.312 57.9847 40.5524 60.3191 41.0085C60.5973 41.0154 60.8758 41.0173 61.1539 41.0085C60.8551 39.8398 60.4948 38.6865 60.0675 37.5581C59.9355 37.103 59.9029 36.6719 59.8793 36.2005C59.8736 36.1137 59.868 36.0269 59.8623 35.9375C59.8499 35.7197 59.8453 35.5016 59.842 35.2836C59.9613 35.1643 59.9613 35.1643 60.2147 35.1047C60.8388 35.2132 61.1969 35.7615 61.5854 36.2335C62.9128 37.8373 65.0406 38.9645 67.0382 39.4915C67.8459 39.7095 67.8459 39.7095 68.0715 39.9351C68.0939 40.2258 68.0939 40.2258 68.0715 40.5314C67.833 40.7699 67.833 40.7699 67.3932 40.8221C65.2517 40.7606 63.1243 39.3202 61.5118 38.0268C61.5407 38.1133 61.5696 38.1999 61.5993 38.2891C61.7303 38.6834 61.8596 39.0781 61.9888 39.4729C62.0571 39.6772 62.0571 39.6772 62.1267 39.8857C62.1698 40.0179 62.2128 40.1501 62.2572 40.2863C62.3171 40.4681 62.3171 40.4681 62.3783 40.6535C62.471 41.0291 62.4982 41.3388 62.4659 41.7241C62.2187 42.0195 62.0264 42.172 61.6421 42.2435C61.3756 42.2614 61.1153 42.2611 60.8483 42.2533C60.7531 42.2518 60.6578 42.2502 60.5597 42.2486C57.6544 42.1608 55.1403 40.3544 53.1862 38.3361C52.6681 37.7752 52.2582 37.1472 51.8538 36.5019C51.6337 36.1349 51.6337 36.1349 51.4237 35.8874C51.1703 35.5188 51.0389 35.1142 50.8894 34.6947C50.8284 34.5271 50.7674 34.3595 50.7063 34.192C50.6778 34.1122 50.6493 34.0323 50.62 33.9501C50.5541 33.7734 50.4778 33.6006 50.3988 33.4293C50.2657 33.0332 50.2778 32.6811 50.2856 32.2646C50.2877 32.115 50.2899 31.9654 50.2921 31.8113C50.2962 31.6408 50.2962 31.6408 50.3005 31.467C50.6185 31.3079 50.7974 31.3869 51.1354 31.467Z" fill="#0D0D0C"/>
<path d="M86.2646 61.0388C86.6224 61.2177 86.6224 61.2177 86.8609 61.5159C86.9516 62.1304 86.9037 62.5527 86.5595 63.0906C86.1954 63.5347 85.7554 63.8987 85.3104 64.259C85.1981 64.36 85.1981 64.36 85.0835 64.4631C84.7479 64.6694 84.5016 64.6645 84.1103 64.6616C83.9237 64.663 83.9237 64.663 83.7334 64.6644C83.4021 64.6168 83.4021 64.6168 83.1817 64.4631C82.941 64.1056 82.9906 63.7142 83.0443 63.3049C83.3244 62.3659 83.9492 61.7857 84.7662 61.2848C85.3029 61.0087 85.6663 60.949 86.2646 61.0388Z" fill="#0A0A09"/>
<path d="M58.3795 59.4339C58.5601 59.7908 58.5601 59.7908 58.574 60.1724C58.2805 60.7199 57.9903 61.0305 57.3934 61.2572C56.8363 61.3969 56.2661 61.4268 55.694 61.451C55.5436 61.4652 55.5436 61.4652 55.3902 61.4796C54.9977 61.4452 54.8029 61.2945 54.4904 61.0589C54.3397 60.9488 54.3397 60.9488 54.1861 60.8365C53.9484 60.6009 53.9484 60.6009 53.8631 60.3461C53.8828 59.9156 54.156 59.6308 54.4431 59.3342C55.2276 58.7471 56.0751 58.6537 57.0298 58.7384C57.6252 58.8366 57.9525 59.0053 58.3795 59.4339Z" fill="#0A0A09"/>
<path d="M71.0248 35.832C73.1179 35.8758 74.6342 36.8722 76.0576 38.3183C76.5982 38.8923 77.2072 39.5558 77.2883 40.3684C77.2566 40.6475 77.2566 40.6475 77.0181 40.886C76.7292 40.9336 76.7292 40.9336 76.4217 40.886C76.2186 40.6671 76.2186 40.6671 76.0341 40.3642C75.0438 38.8553 73.7836 37.6832 72.0088 37.1887C71.5683 37.1151 71.1297 37.0562 70.6857 37.0089C70.339 36.9502 70.339 36.9502 70.1005 36.7116C70.0707 36.4135 70.0707 36.4135 70.1005 36.1153C70.4185 35.7973 70.5803 35.8375 71.0248 35.832Z" fill="#111010"/>
<path d="M45.6505 36.1173C45.6952 36.4081 45.6952 36.4081 45.6505 36.7137C45.447 36.9908 45.3249 37.0641 44.9866 37.1418C44.8687 37.1555 44.7508 37.1692 44.6293 37.1833C42.7879 37.4599 41.4166 38.4767 40.2834 39.9339C40.1735 40.116 40.0663 40.2997 39.9629 40.4856C39.8292 40.7171 39.8292 40.7171 39.6871 40.8881C39.2994 40.9552 39.2994 40.9552 38.9714 40.8881C38.8522 40.7688 38.8522 40.7688 38.8242 40.4418C38.9094 39.258 40.0921 38.2265 40.9354 37.4668C41.9722 36.578 44.3235 35.2327 45.6505 36.1173Z" fill="#101010"/>
<path d="M37.8216 62.5586C38.1384 62.5935 38.1384 62.5935 38.3583 62.7813C38.4235 62.8645 38.4887 62.9476 38.5558 63.0333C38.6273 63.1207 38.6988 63.208 38.7725 63.298C38.8387 63.3804 38.905 63.4628 38.9733 63.5477C39.7259 64.3775 40.5418 64.7772 41.5972 65.0982C41.7968 65.1756 41.9961 65.2539 42.1935 65.3367C42.2084 65.62 42.2084 65.62 42.1935 65.9331C41.955 66.1716 41.955 66.1716 41.545 66.2163C40.3249 66.1767 39.2619 65.5414 38.3769 64.7404C37.4452 63.7011 37.4452 63.7011 37.3906 63.038C37.4332 62.6071 37.4332 62.6071 37.8216 62.5586Z" fill="#100F0F"/>
<path d="M77.7132 62.1797C77.9741 62.2393 77.9741 62.2393 78.0934 62.3586C78.121 63.0075 77.9156 63.3119 77.4896 63.7973C76.4587 64.8654 75.2652 65.7167 73.7177 65.7503C73.2423 65.7371 73.2423 65.7371 72.9648 65.4596C73.0086 65.1096 73.0679 64.9987 73.3227 64.744C73.5476 64.6877 73.7726 64.6319 73.9982 64.5781C75.252 64.251 76.248 63.6175 77.0573 62.5971C77.3378 62.2464 77.3378 62.2464 77.7132 62.1797Z" fill="#100F0F"/>
<path d="M67.5932 41.9609C67.6719 42.0003 67.7506 42.0397 67.8317 42.0802C67.6784 42.2399 67.5242 42.3988 67.3696 42.5573C67.2838 42.6458 67.198 42.7344 67.1096 42.8256C66.8776 43.0344 66.8776 43.0344 66.6391 43.0344C66.5997 43.1524 66.5603 43.2705 66.5198 43.3922C66.4411 43.3528 66.3624 43.3134 66.2812 43.2729C66.4099 43.1208 66.5392 42.9694 66.6689 42.8182C66.7408 42.7338 66.8128 42.6494 66.8869 42.5624C67.107 42.3284 67.3308 42.145 67.5932 41.9609Z" fill="#2F2E2E"/>
<path d="M61.5156 38.0273C61.9927 38.2659 61.9927 38.2659 62.1045 38.497C62.107 38.5781 62.1094 38.6593 62.112 38.743C61.9939 38.861 61.8758 38.9791 61.7542 39.1008C61.6754 38.7465 61.5967 38.3923 61.5156 38.0273Z" fill="#DFDEDF"/>
<path d="M29.788 30.9883C29.8274 31.067 29.8667 31.1457 29.9073 31.2268C29.6711 31.5417 29.435 31.8566 29.1917 32.181C29.1129 32.1416 29.0342 32.1023 28.9531 32.0617C29.2286 31.7075 29.5041 31.3532 29.788 30.9883Z" fill="#CCCACB"/>
<path d="M30.7411 30.0352C30.8198 30.0745 30.8986 30.1139 30.9797 30.1544C30.4046 30.9052 30.4046 30.9052 29.9062 30.9893C30.023 30.8526 30.1398 30.7159 30.2566 30.5793C30.3216 30.5032 30.3867 30.4271 30.4537 30.3487C30.5465 30.2415 30.6409 30.1354 30.7411 30.0352Z" fill="#C5C3C3"/>
</g>
<defs>
<filter id="filter0_d_740_8447" x="10" y="0" width="100" height="100" filterUnits="userSpaceOnUse" color-interpolation-filters="sRGB">
<feFlood flood-opacity="0" result="BackgroundImageFix"/>
<feColorMatrix in="SourceAlpha" type="matrix" values="0 0 0 0 0 0 0 0 0 0 0 0 0 0 0 0 0 0 127 0" result="hardAlpha"/>
<feOffset dy="4"/>
<feGaussianBlur stdDeviation="2"/>
<feComposite in2="hardAlpha" operator="out"/>
<feColorMatrix type="matrix" values="0 0 0 0 0 0 0 0 0 0 0 0 0 0 0 0 0 0 0.25 0"/>
<feBlend mode="normal" in2="BackgroundImageFix" result="effect1_dropShadow_740_8447"/>
<feBlend mode="normal" in="SourceGraphic" in2="effect1_dropShadow_740_8447" result="shape"/>
</filter>
<clipPath id="clip0_740_8447">
<rect width="120" height="98" fill="white"/>
</clipPath>
</defs>
</svg>
