<svg width="120" height="98" viewBox="0 0 120 98" fill="none" xmlns="http://www.w3.org/2000/svg">
<g clip-path="url(#clip0_740_8408)">
<g filter="url(#filter0_d_740_8408)">
<circle cx="60" cy="46" r="46" fill="white"/>
<circle cx="60" cy="46" r="45.5" stroke="black"/>
</g>
<mask id="path-3-outside-1_740_8408" maskUnits="userSpaceOnUse" x="26" y="8" width="74" height="71" fill="black">
<rect fill="white" x="26" y="8" width="74" height="71"/>
<path d="M72.7302 10.0036C72.8465 10.0038 72.9629 10.0039 73.0828 10.0041C74.1395 10.0168 75.0436 10.1965 75.9998 10.6441C75.9604 10.7621 75.9211 10.8801 75.8806 11.0016C75.6789 11.0925 75.4767 11.1825 75.2713 11.2646C73.8629 11.8565 72.9369 13.2112 72.328 14.5542C72.1001 15.1659 72.0485 15.7117 72.045 16.364C72.0433 16.5066 72.0416 16.6491 72.0399 16.796C72.0663 17.1835 72.1391 17.4463 72.3057 17.794C72.5876 17.8282 72.5876 17.8282 72.9015 17.794C73.1117 17.6254 73.1117 17.6254 73.2813 17.3844C74.9606 15.3419 77.1706 14.3368 79.6939 13.7424C79.8211 13.7103 79.8211 13.7103 79.9509 13.6776C80.8641 13.4674 81.7763 13.4463 82.7102 13.4445C82.7941 13.4442 82.878 13.444 82.9645 13.4437C85.993 13.4496 88.7263 14.5494 90.9624 16.6023C92.4882 18.1938 93.3549 20.3014 93.7553 22.4414C93.7772 22.5584 93.7992 22.6755 93.8219 22.7961C94.1553 25.0804 93.5916 27.4839 92.2965 29.3883C92.0404 29.7091 91.774 30.009 91.4912 30.3063C91.3734 30.4399 91.3734 30.4399 91.2533 30.5762C90.8328 31.0331 90.4582 31.3173 89.8899 31.5724C89.4183 31.7735 89.4183 31.7735 89.1972 32.2352C89.1924 32.5867 89.1924 32.5867 89.4654 32.8087C91.4049 33.3781 93.3946 32.7528 95.0926 31.8293C95.4088 31.6266 95.6383 31.4065 95.9002 31.1404C95.9789 31.1404 96.0575 31.1404 96.1386 31.1404C96.1656 31.0765 96.1926 31.0126 96.2205 30.9468C96.4286 30.5702 96.6915 30.2744 96.9727 29.9488C97.0907 29.9881 97.2087 30.0274 97.3302 30.0679C97.4652 30.3714 97.4652 30.3714 97.5834 30.7531C97.6231 30.8779 97.6627 31.0026 97.7035 31.1311C98.0939 32.5165 98.1471 34.2136 97.5686 35.5495C97.5266 35.6538 97.4847 35.7581 97.4415 35.8656C96.5087 38.0604 95.092 39.4961 92.8955 40.4352C91.3444 40.9922 89.1408 41.0473 87.5587 40.5544C87.0937 40.2444 87.0517 39.9105 86.9033 39.4C86.0463 36.6651 84.5921 34.1893 82.7921 31.9746C82.7145 31.8776 82.7145 31.8776 82.6353 31.7787C80.8789 29.591 78.728 27.8953 76.2381 26.6122C76.1135 26.5467 75.9889 26.4813 75.8606 26.4139C75.1966 26.086 74.7145 25.9465 73.974 26.0163C73.9648 26.3008 73.9648 26.3008 74.0931 26.6122C74.3887 26.7955 74.6565 26.9353 74.972 27.0739C75.1477 27.1566 75.3232 27.2397 75.4984 27.3234C75.5845 27.3643 75.6706 27.4051 75.7593 27.4472C77.459 28.2829 78.9311 29.6008 80.2897 30.9021C80.3498 30.9589 80.4099 31.0158 80.4718 31.0743C83.2638 33.7255 85.2033 37.3061 86.1511 41.0236C86.1809 41.14 86.2107 41.2563 86.2415 41.3762C86.6093 42.8756 86.7686 44.344 86.7618 45.887C86.7613 46.0432 86.7608 46.1993 86.7603 46.3602C86.7464 47.5557 86.6456 48.6873 86.3671 49.8492C86.3486 49.9285 86.3301 50.0078 86.311 50.0894C86.079 51.0658 85.7791 52.0128 85.4138 52.9475C85.3405 52.9534 85.2672 52.9592 85.1917 52.9652C85.0473 52.9786 85.0473 52.9786 84.8999 52.9922C84.8045 53.0005 84.7091 53.0088 84.6108 53.0173C84.3088 53.0543 84.3088 53.0543 83.9838 53.305C83.9441 53.6079 83.9441 53.6079 83.9838 53.9008C84.1908 54.1078 84.4914 54.0844 84.7733 54.1243C86.1636 54.3508 87.2697 55.0259 88.1792 56.097C89.2447 57.6245 89.3383 59.6106 89.0264 61.3984C88.5117 63.186 87.3186 64.678 85.7713 65.6981C85.3691 65.8992 85.3691 65.8992 84.9371 66.0556C84.8446 66.0974 84.7522 66.1392 84.6569 66.1822C83.7005 66.5885 82.8622 66.582 81.8388 66.5323C81.7064 66.1349 81.7349 65.9817 81.8123 65.5776C82.3836 62.3281 82.5326 58.8124 81.8388 55.5691C81.8165 55.4603 81.7941 55.3514 81.7711 55.2392C81.5014 53.9383 81.19 52.6583 80.7663 51.3984C80.7373 51.3098 80.7083 51.2211 80.6784 51.1298C80.6228 50.9612 80.5665 50.7928 80.5094 50.6247C80.4283 50.3838 80.3494 50.1423 80.2711 49.9005C80.0345 49.1724 79.792 48.4583 79.4672 47.7639C79.2878 47.3553 79.134 46.9384 78.9789 46.5201C78.9174 46.3548 78.856 46.1896 78.7945 46.0243C78.7651 45.9452 78.7357 45.8661 78.7054 45.7846C78.59 45.4753 78.4729 45.1668 78.3533 44.8592C78.3182 44.7686 78.2832 44.678 78.2471 44.5846C78.149 44.3451 78.149 44.3451 77.9064 44.1293C77.7491 44.1293 77.5918 44.1293 77.4297 44.1293C77.364 45.0095 77.6 45.7028 77.8915 46.5275C77.9904 46.816 78.0892 47.1044 78.188 47.3929C78.2402 47.5436 78.2924 47.6943 78.3447 47.845C80.7041 54.6512 80.7041 54.6512 81.0047 57.8333C81.0157 57.9393 81.0266 58.0452 81.0379 58.1544C81.4671 62.4728 80.9112 67.0874 78.1284 70.555C76.5634 72.4383 74.6994 73.9206 72.4248 74.8738C72.3069 74.8738 72.1889 74.8738 72.0673 74.8738C72.0673 74.9525 72.0673 75.0311 72.0673 75.1121C70.3381 75.7128 68.6152 76.2769 66.8241 76.6613C66.6755 76.6935 66.6755 76.6935 66.5239 76.7263C58.9936 78.3082 49.2768 78.1387 42.3954 74.3971C42.2706 74.3311 42.1459 74.265 42.0174 74.197C39.8076 72.9752 37.8616 71.16 36.6755 68.9156C36.6755 68.8369 36.6755 68.7583 36.6755 68.6772C36.5968 68.6772 36.5182 68.6772 36.4371 68.6772C36.3585 68.3626 36.2798 68.0481 36.1988 67.7239C36.1202 67.7239 36.0415 67.7239 35.9605 67.7239C35.0383 64.938 34.4854 62.3166 34.4994 59.3747C34.5007 59.0534 34.4994 58.7322 34.4979 58.4109C34.4971 57.4403 34.5167 56.5092 34.7056 55.5537C34.8591 54.7233 34.911 53.8733 34.9899 53.0332C35.0114 52.8193 35.0114 52.8193 35.0332 52.6012C35.0454 52.473 35.0577 52.3448 35.0702 52.2128C35.1238 51.8906 35.2078 51.6808 35.3647 51.3984C35.4056 51.201 35.4398 51.0021 35.4689 50.8026C35.5751 50.1713 35.757 49.5908 35.9684 48.9876C36.0593 48.7181 36.1311 48.4583 36.1914 48.1809C36.3848 47.3516 36.7638 46.5527 37.1521 45.7977C37.2308 45.7977 37.3094 45.7977 37.3905 45.7977C37.4121 45.9184 37.4338 46.0391 37.4561 46.1635C37.4863 46.3246 37.5165 46.4857 37.5469 46.6467C37.5679 46.7656 37.5679 46.7656 37.5894 46.8869C37.689 47.4079 37.8267 47.8473 38.1054 48.3001C38.2234 48.3394 38.3414 48.3788 38.4629 48.4193C38.6745 47.7715 38.8036 47.1835 38.6421 46.501C37.9816 42.6963 39.645 38.6483 41.7739 35.5732C41.9571 35.2915 41.9571 35.2915 41.9187 34.8345C41.4609 34.8738 41.209 35.0002 40.8988 35.3396C39.0959 37.5431 37.9067 40.1289 37.5351 42.9588C37.4499 43.533 37.2877 43.8153 36.9138 44.2485C36.7 44.603 36.5091 44.9688 36.318 45.3359C36.2651 45.4369 36.2123 45.538 36.1578 45.6421C35.792 46.3522 35.4818 47.0594 35.2455 47.8234C35.1887 47.9948 35.1316 48.1661 35.0742 48.3373C35.0462 48.4235 35.0183 48.5097 34.9895 48.5985C34.9115 48.827 34.8279 49.0535 34.7418 49.279C34.4325 50.0977 34.2204 50.8621 34.1088 51.7298C34.0521 52.1257 33.9686 52.5066 33.8751 52.8954C32.9612 56.7677 32.9133 61.604 33.9347 65.4598C33.9821 65.7375 34.0189 66.0143 34.0538 66.294C32.68 66.4525 31.6631 65.9882 30.5878 65.1852C29.8298 64.5351 29.2905 63.8293 28.8106 62.9573C28.7618 62.8712 28.7129 62.785 28.6626 62.6962C27.8795 61.2358 27.8455 59.28 28.2744 57.6992C28.7747 56.347 29.7385 55.263 31.0063 54.5791C31.4928 54.3559 31.9931 54.1774 32.5047 54.02C32.5646 53.7424 32.5646 53.7424 32.5047 53.4242C32.399 53.3627 32.2933 53.3013 32.1845 53.238C31.2651 52.6929 31.0735 51.1519 30.8238 50.1988C30.7876 50.0427 30.7521 49.8865 30.7172 49.7301C30.6957 49.6381 30.6741 49.546 30.6519 49.4512C30.4609 48.5456 30.4424 47.6529 30.4478 46.7319C30.4491 46.477 30.4478 46.2222 30.4463 45.9673C30.4447 44.5108 30.5938 43.1033 31.0077 41.7014C31.032 41.6146 31.0564 41.5278 31.0815 41.4384C31.9904 38.2614 33.7136 35.4323 35.8413 32.9279C35.9581 32.7815 36.0747 32.635 36.1914 32.4885C36.2725 32.3975 36.3536 32.3066 36.4371 32.2129C36.5158 32.2129 36.5944 32.2129 36.6755 32.2129C36.701 32.1478 36.7265 32.0826 36.7527 32.0155C36.97 31.6388 37.2656 31.3705 37.5841 31.0808C37.6516 31.019 37.719 30.9571 37.7885 30.8934C38.5323 30.2245 39.3312 29.6332 40.1389 29.0446C40.9954 28.4236 40.9954 28.4236 41.7921 27.7293C42.9823 26.6628 44.3344 25.804 45.7171 25.0109C45.8175 24.9532 45.9179 24.8956 46.0214 24.8362C47.0095 24.281 48.0257 23.8061 49.0984 23.4394C49.511 23.2977 49.9126 23.1521 50.3128 22.9781C50.7527 22.7922 51.1954 22.6425 51.653 22.5084C51.7389 22.4832 51.8248 22.458 51.9134 22.432C53.6433 21.9402 55.4231 21.5896 57.2244 21.5872C57.3299 21.5868 57.4354 21.5864 57.5441 21.586C57.7665 21.5854 57.9889 21.5851 58.2113 21.5852C58.5458 21.5849 58.8801 21.5827 59.2146 21.5805C61.0413 21.5745 62.7296 21.7774 64.5078 22.218C64.7734 22.2836 65.0392 22.3484 65.3052 22.4125C65.4199 22.441 65.5346 22.4694 65.6527 22.4987C66.0104 22.5643 66.3421 22.5712 66.7049 22.5606C66.6919 21.9608 66.5588 21.6581 66.191 21.1827C65.2181 19.8494 65.0931 18.2015 65.275 16.6023C65.6622 14.3577 67.0469 12.544 68.8639 11.2325C69.2846 10.9497 69.6972 10.7262 70.1607 10.5249C70.2456 10.4846 70.3305 10.4442 70.418 10.4026C71.2057 10.0504 71.8738 9.98203 72.7302 10.0036Z"/>
</mask>
<path d="M72.7302 10.0036C72.8465 10.0038 72.9629 10.0039 73.0828 10.0041C74.1395 10.0168 75.0436 10.1965 75.9998 10.6441C75.9604 10.7621 75.9211 10.8801 75.8806 11.0016C75.6789 11.0925 75.4767 11.1825 75.2713 11.2646C73.8629 11.8565 72.9369 13.2112 72.328 14.5542C72.1001 15.1659 72.0485 15.7117 72.045 16.364C72.0433 16.5066 72.0416 16.6491 72.0399 16.796C72.0663 17.1835 72.1391 17.4463 72.3057 17.794C72.5876 17.8282 72.5876 17.8282 72.9015 17.794C73.1117 17.6254 73.1117 17.6254 73.2813 17.3844C74.9606 15.3419 77.1706 14.3368 79.6939 13.7424C79.8211 13.7103 79.8211 13.7103 79.9509 13.6776C80.8641 13.4674 81.7763 13.4463 82.7102 13.4445C82.7941 13.4442 82.878 13.444 82.9645 13.4437C85.993 13.4496 88.7263 14.5494 90.9624 16.6023C92.4882 18.1938 93.3549 20.3014 93.7553 22.4414C93.7772 22.5584 93.7992 22.6755 93.8219 22.7961C94.1553 25.0804 93.5916 27.4839 92.2965 29.3883C92.0404 29.7091 91.774 30.009 91.4912 30.3063C91.3734 30.4399 91.3734 30.4399 91.2533 30.5762C90.8328 31.0331 90.4582 31.3173 89.8899 31.5724C89.4183 31.7735 89.4183 31.7735 89.1972 32.2352C89.1924 32.5867 89.1924 32.5867 89.4654 32.8087C91.4049 33.3781 93.3946 32.7528 95.0926 31.8293C95.4088 31.6266 95.6383 31.4065 95.9002 31.1404C95.9789 31.1404 96.0575 31.1404 96.1386 31.1404C96.1656 31.0765 96.1926 31.0126 96.2205 30.9468C96.4286 30.5702 96.6915 30.2744 96.9727 29.9488C97.0907 29.9881 97.2087 30.0274 97.3302 30.0679C97.4652 30.3714 97.4652 30.3714 97.5834 30.7531C97.6231 30.8779 97.6627 31.0026 97.7035 31.1311C98.0939 32.5165 98.1471 34.2136 97.5686 35.5495C97.5266 35.6538 97.4847 35.7581 97.4415 35.8656C96.5087 38.0604 95.092 39.4961 92.8955 40.4352C91.3444 40.9922 89.1408 41.0473 87.5587 40.5544C87.0937 40.2444 87.0517 39.9105 86.9033 39.4C86.0463 36.6651 84.5921 34.1893 82.7921 31.9746C82.7145 31.8776 82.7145 31.8776 82.6353 31.7787C80.8789 29.591 78.728 27.8953 76.2381 26.6122C76.1135 26.5467 75.9889 26.4813 75.8606 26.4139C75.1966 26.086 74.7145 25.9465 73.974 26.0163C73.9648 26.3008 73.9648 26.3008 74.0931 26.6122C74.3887 26.7955 74.6565 26.9353 74.972 27.0739C75.1477 27.1566 75.3232 27.2397 75.4984 27.3234C75.5845 27.3643 75.6706 27.4051 75.7593 27.4472C77.459 28.2829 78.9311 29.6008 80.2897 30.9021C80.3498 30.9589 80.4099 31.0158 80.4718 31.0743C83.2638 33.7255 85.2033 37.3061 86.1511 41.0236C86.1809 41.14 86.2107 41.2563 86.2415 41.3762C86.6093 42.8756 86.7686 44.344 86.7618 45.887C86.7613 46.0432 86.7608 46.1993 86.7603 46.3602C86.7464 47.5557 86.6456 48.6873 86.3671 49.8492C86.3486 49.9285 86.3301 50.0078 86.311 50.0894C86.079 51.0658 85.7791 52.0128 85.4138 52.9475C85.3405 52.9534 85.2672 52.9592 85.1917 52.9652C85.0473 52.9786 85.0473 52.9786 84.8999 52.9922C84.8045 53.0005 84.7091 53.0088 84.6108 53.0173C84.3088 53.0543 84.3088 53.0543 83.9838 53.305C83.9441 53.6079 83.9441 53.6079 83.9838 53.9008C84.1908 54.1078 84.4914 54.0844 84.7733 54.1243C86.1636 54.3508 87.2697 55.0259 88.1792 56.097C89.2447 57.6245 89.3383 59.6106 89.0264 61.3984C88.5117 63.186 87.3186 64.678 85.7713 65.6981C85.3691 65.8992 85.3691 65.8992 84.9371 66.0556C84.8446 66.0974 84.7522 66.1392 84.6569 66.1822C83.7005 66.5885 82.8622 66.582 81.8388 66.5323C81.7064 66.1349 81.7349 65.9817 81.8123 65.5776C82.3836 62.3281 82.5326 58.8124 81.8388 55.5691C81.8165 55.4603 81.7941 55.3514 81.7711 55.2392C81.5014 53.9383 81.19 52.6583 80.7663 51.3984C80.7373 51.3098 80.7083 51.2211 80.6784 51.1298C80.6228 50.9612 80.5665 50.7928 80.5094 50.6247C80.4283 50.3838 80.3494 50.1423 80.2711 49.9005C80.0345 49.1724 79.792 48.4583 79.4672 47.7639C79.2878 47.3553 79.134 46.9384 78.9789 46.5201C78.9174 46.3548 78.856 46.1896 78.7945 46.0243C78.7651 45.9452 78.7357 45.8661 78.7054 45.7846C78.59 45.4753 78.4729 45.1668 78.3533 44.8592C78.3182 44.7686 78.2832 44.678 78.2471 44.5846C78.149 44.3451 78.149 44.3451 77.9064 44.1293C77.7491 44.1293 77.5918 44.1293 77.4297 44.1293C77.364 45.0095 77.6 45.7028 77.8915 46.5275C77.9904 46.816 78.0892 47.1044 78.188 47.3929C78.2402 47.5436 78.2924 47.6943 78.3447 47.845C80.7041 54.6512 80.7041 54.6512 81.0047 57.8333C81.0157 57.9393 81.0266 58.0452 81.0379 58.1544C81.4671 62.4728 80.9112 67.0874 78.1284 70.555C76.5634 72.4383 74.6994 73.9206 72.4248 74.8738C72.3069 74.8738 72.1889 74.8738 72.0673 74.8738C72.0673 74.9525 72.0673 75.0311 72.0673 75.1121C70.3381 75.7128 68.6152 76.2769 66.8241 76.6613C66.6755 76.6935 66.6755 76.6935 66.5239 76.7263C58.9936 78.3082 49.2768 78.1387 42.3954 74.3971C42.2706 74.3311 42.1459 74.265 42.0174 74.197C39.8076 72.9752 37.8616 71.16 36.6755 68.9156C36.6755 68.8369 36.6755 68.7583 36.6755 68.6772C36.5968 68.6772 36.5182 68.6772 36.4371 68.6772C36.3585 68.3626 36.2798 68.0481 36.1988 67.7239C36.1202 67.7239 36.0415 67.7239 35.9605 67.7239C35.0383 64.938 34.4854 62.3166 34.4994 59.3747C34.5007 59.0534 34.4994 58.7322 34.4979 58.4109C34.4971 57.4403 34.5167 56.5092 34.7056 55.5537C34.8591 54.7233 34.911 53.8733 34.9899 53.0332C35.0114 52.8193 35.0114 52.8193 35.0332 52.6012C35.0454 52.473 35.0577 52.3448 35.0702 52.2128C35.1238 51.8906 35.2078 51.6808 35.3647 51.3984C35.4056 51.201 35.4398 51.0021 35.4689 50.8026C35.5751 50.1713 35.757 49.5908 35.9684 48.9876C36.0593 48.7181 36.1311 48.4583 36.1914 48.1809C36.3848 47.3516 36.7638 46.5527 37.1521 45.7977C37.2308 45.7977 37.3094 45.7977 37.3905 45.7977C37.4121 45.9184 37.4338 46.0391 37.4561 46.1635C37.4863 46.3246 37.5165 46.4857 37.5469 46.6467C37.5679 46.7656 37.5679 46.7656 37.5894 46.8869C37.689 47.4079 37.8267 47.8473 38.1054 48.3001C38.2234 48.3394 38.3414 48.3788 38.4629 48.4193C38.6745 47.7715 38.8036 47.1835 38.6421 46.501C37.9816 42.6963 39.645 38.6483 41.7739 35.5732C41.9571 35.2915 41.9571 35.2915 41.9187 34.8345C41.4609 34.8738 41.209 35.0002 40.8988 35.3396C39.0959 37.5431 37.9067 40.1289 37.5351 42.9588C37.4499 43.533 37.2877 43.8153 36.9138 44.2485C36.7 44.603 36.5091 44.9688 36.318 45.3359C36.2651 45.4369 36.2123 45.538 36.1578 45.6421C35.792 46.3522 35.4818 47.0594 35.2455 47.8234C35.1887 47.9948 35.1316 48.1661 35.0742 48.3373C35.0462 48.4235 35.0183 48.5097 34.9895 48.5985C34.9115 48.827 34.8279 49.0535 34.7418 49.279C34.4325 50.0977 34.2204 50.8621 34.1088 51.7298C34.0521 52.1257 33.9686 52.5066 33.8751 52.8954C32.9612 56.7677 32.9133 61.604 33.9347 65.4598C33.9821 65.7375 34.0189 66.0143 34.0538 66.294C32.68 66.4525 31.6631 65.9882 30.5878 65.1852C29.8298 64.5351 29.2905 63.8293 28.8106 62.9573C28.7618 62.8712 28.7129 62.785 28.6626 62.6962C27.8795 61.2358 27.8455 59.28 28.2744 57.6992C28.7747 56.347 29.7385 55.263 31.0063 54.5791C31.4928 54.3559 31.9931 54.1774 32.5047 54.02C32.5646 53.7424 32.5646 53.7424 32.5047 53.4242C32.399 53.3627 32.2933 53.3013 32.1845 53.238C31.2651 52.6929 31.0735 51.1519 30.8238 50.1988C30.7876 50.0427 30.7521 49.8865 30.7172 49.7301C30.6957 49.6381 30.6741 49.546 30.6519 49.4512C30.4609 48.5456 30.4424 47.6529 30.4478 46.7319C30.4491 46.477 30.4478 46.2222 30.4463 45.9673C30.4447 44.5108 30.5938 43.1033 31.0077 41.7014C31.032 41.6146 31.0564 41.5278 31.0815 41.4384C31.9904 38.2614 33.7136 35.4323 35.8413 32.9279C35.9581 32.7815 36.0747 32.635 36.1914 32.4885C36.2725 32.3975 36.3536 32.3066 36.4371 32.2129C36.5158 32.2129 36.5944 32.2129 36.6755 32.2129C36.701 32.1478 36.7265 32.0826 36.7527 32.0155C36.97 31.6388 37.2656 31.3705 37.5841 31.0808C37.6516 31.019 37.719 30.9571 37.7885 30.8934C38.5323 30.2245 39.3312 29.6332 40.1389 29.0446C40.9954 28.4236 40.9954 28.4236 41.7921 27.7293C42.9823 26.6628 44.3344 25.804 45.7171 25.0109C45.8175 24.9532 45.9179 24.8956 46.0214 24.8362C47.0095 24.281 48.0257 23.8061 49.0984 23.4394C49.511 23.2977 49.9126 23.1521 50.3128 22.9781C50.7527 22.7922 51.1954 22.6425 51.653 22.5084C51.7389 22.4832 51.8248 22.458 51.9134 22.432C53.6433 21.9402 55.4231 21.5896 57.2244 21.5872C57.3299 21.5868 57.4354 21.5864 57.5441 21.586C57.7665 21.5854 57.9889 21.5851 58.2113 21.5852C58.5458 21.5849 58.8801 21.5827 59.2146 21.5805C61.0413 21.5745 62.7296 21.7774 64.5078 22.218C64.7734 22.2836 65.0392 22.3484 65.3052 22.4125C65.4199 22.441 65.5346 22.4694 65.6527 22.4987C66.0104 22.5643 66.3421 22.5712 66.7049 22.5606C66.6919 21.9608 66.5588 21.6581 66.191 21.1827C65.2181 19.8494 65.0931 18.2015 65.275 16.6023C65.6622 14.3577 67.0469 12.544 68.8639 11.2325C69.2846 10.9497 69.6972 10.7262 70.1607 10.5249C70.2456 10.4846 70.3305 10.4442 70.418 10.4026C71.2057 10.0504 71.8738 9.98203 72.7302 10.0036Z" fill="#FAF9F9"/>
<path d="M72.7302 10.0036C72.8465 10.0038 72.9629 10.0039 73.0828 10.0041C74.1395 10.0168 75.0436 10.1965 75.9998 10.6441C75.9604 10.7621 75.9211 10.8801 75.8806 11.0016C75.6789 11.0925 75.4767 11.1825 75.2713 11.2646C73.8629 11.8565 72.9369 13.2112 72.328 14.5542C72.1001 15.1659 72.0485 15.7117 72.045 16.364C72.0433 16.5066 72.0416 16.6491 72.0399 16.796C72.0663 17.1835 72.1391 17.4463 72.3057 17.794C72.5876 17.8282 72.5876 17.8282 72.9015 17.794C73.1117 17.6254 73.1117 17.6254 73.2813 17.3844C74.9606 15.3419 77.1706 14.3368 79.6939 13.7424C79.8211 13.7103 79.8211 13.7103 79.9509 13.6776C80.8641 13.4674 81.7763 13.4463 82.7102 13.4445C82.7941 13.4442 82.878 13.444 82.9645 13.4437C85.993 13.4496 88.7263 14.5494 90.9624 16.6023C92.4882 18.1938 93.3549 20.3014 93.7553 22.4414C93.7772 22.5584 93.7992 22.6755 93.8219 22.7961C94.1553 25.0804 93.5916 27.4839 92.2965 29.3883C92.0404 29.7091 91.774 30.009 91.4912 30.3063C91.3734 30.4399 91.3734 30.4399 91.2533 30.5762C90.8328 31.0331 90.4582 31.3173 89.8899 31.5724C89.4183 31.7735 89.4183 31.7735 89.1972 32.2352C89.1924 32.5867 89.1924 32.5867 89.4654 32.8087C91.4049 33.3781 93.3946 32.7528 95.0926 31.8293C95.4088 31.6266 95.6383 31.4065 95.9002 31.1404C95.9789 31.1404 96.0575 31.1404 96.1386 31.1404C96.1656 31.0765 96.1926 31.0126 96.2205 30.9468C96.4286 30.5702 96.6915 30.2744 96.9727 29.9488C97.0907 29.9881 97.2087 30.0274 97.3302 30.0679C97.4652 30.3714 97.4652 30.3714 97.5834 30.7531C97.6231 30.8779 97.6627 31.0026 97.7035 31.1311C98.0939 32.5165 98.1471 34.2136 97.5686 35.5495C97.5266 35.6538 97.4847 35.7581 97.4415 35.8656C96.5087 38.0604 95.092 39.4961 92.8955 40.4352C91.3444 40.9922 89.1408 41.0473 87.5587 40.5544C87.0937 40.2444 87.0517 39.9105 86.9033 39.4C86.0463 36.6651 84.5921 34.1893 82.7921 31.9746C82.7145 31.8776 82.7145 31.8776 82.6353 31.7787C80.8789 29.591 78.728 27.8953 76.2381 26.6122C76.1135 26.5467 75.9889 26.4813 75.8606 26.4139C75.1966 26.086 74.7145 25.9465 73.974 26.0163C73.9648 26.3008 73.9648 26.3008 74.0931 26.6122C74.3887 26.7955 74.6565 26.9353 74.972 27.0739C75.1477 27.1566 75.3232 27.2397 75.4984 27.3234C75.5845 27.3643 75.6706 27.4051 75.7593 27.4472C77.459 28.2829 78.9311 29.6008 80.2897 30.9021C80.3498 30.9589 80.4099 31.0158 80.4718 31.0743C83.2638 33.7255 85.2033 37.3061 86.1511 41.0236C86.1809 41.14 86.2107 41.2563 86.2415 41.3762C86.6093 42.8756 86.7686 44.344 86.7618 45.887C86.7613 46.0432 86.7608 46.1993 86.7603 46.3602C86.7464 47.5557 86.6456 48.6873 86.3671 49.8492C86.3486 49.9285 86.3301 50.0078 86.311 50.0894C86.079 51.0658 85.7791 52.0128 85.4138 52.9475C85.3405 52.9534 85.2672 52.9592 85.1917 52.9652C85.0473 52.9786 85.0473 52.9786 84.8999 52.9922C84.8045 53.0005 84.7091 53.0088 84.6108 53.0173C84.3088 53.0543 84.3088 53.0543 83.9838 53.305C83.9441 53.6079 83.9441 53.6079 83.9838 53.9008C84.1908 54.1078 84.4914 54.0844 84.7733 54.1243C86.1636 54.3508 87.2697 55.0259 88.1792 56.097C89.2447 57.6245 89.3383 59.6106 89.0264 61.3984C88.5117 63.186 87.3186 64.678 85.7713 65.6981C85.3691 65.8992 85.3691 65.8992 84.9371 66.0556C84.8446 66.0974 84.7522 66.1392 84.6569 66.1822C83.7005 66.5885 82.8622 66.582 81.8388 66.5323C81.7064 66.1349 81.7349 65.9817 81.8123 65.5776C82.3836 62.3281 82.5326 58.8124 81.8388 55.5691C81.8165 55.4603 81.7941 55.3514 81.7711 55.2392C81.5014 53.9383 81.19 52.6583 80.7663 51.3984C80.7373 51.3098 80.7083 51.2211 80.6784 51.1298C80.6228 50.9612 80.5665 50.7928 80.5094 50.6247C80.4283 50.3838 80.3494 50.1423 80.2711 49.9005C80.0345 49.1724 79.792 48.4583 79.4672 47.7639C79.2878 47.3553 79.134 46.9384 78.9789 46.5201C78.9174 46.3548 78.856 46.1896 78.7945 46.0243C78.7651 45.9452 78.7357 45.8661 78.7054 45.7846C78.59 45.4753 78.4729 45.1668 78.3533 44.8592C78.3182 44.7686 78.2832 44.678 78.2471 44.5846C78.149 44.3451 78.149 44.3451 77.9064 44.1293C77.7491 44.1293 77.5918 44.1293 77.4297 44.1293C77.364 45.0095 77.6 45.7028 77.8915 46.5275C77.9904 46.816 78.0892 47.1044 78.188 47.3929C78.2402 47.5436 78.2924 47.6943 78.3447 47.845C80.7041 54.6512 80.7041 54.6512 81.0047 57.8333C81.0157 57.9393 81.0266 58.0452 81.0379 58.1544C81.4671 62.4728 80.9112 67.0874 78.1284 70.555C76.5634 72.4383 74.6994 73.9206 72.4248 74.8738C72.3069 74.8738 72.1889 74.8738 72.0673 74.8738C72.0673 74.9525 72.0673 75.0311 72.0673 75.1121C70.3381 75.7128 68.6152 76.2769 66.8241 76.6613C66.6755 76.6935 66.6755 76.6935 66.5239 76.7263C58.9936 78.3082 49.2768 78.1387 42.3954 74.3971C42.2706 74.3311 42.1459 74.265 42.0174 74.197C39.8076 72.9752 37.8616 71.16 36.6755 68.9156C36.6755 68.8369 36.6755 68.7583 36.6755 68.6772C36.5968 68.6772 36.5182 68.6772 36.4371 68.6772C36.3585 68.3626 36.2798 68.0481 36.1988 67.7239C36.1202 67.7239 36.0415 67.7239 35.9605 67.7239C35.0383 64.938 34.4854 62.3166 34.4994 59.3747C34.5007 59.0534 34.4994 58.7322 34.4979 58.4109C34.4971 57.4403 34.5167 56.5092 34.7056 55.5537C34.8591 54.7233 34.911 53.8733 34.9899 53.0332C35.0114 52.8193 35.0114 52.8193 35.0332 52.6012C35.0454 52.473 35.0577 52.3448 35.0702 52.2128C35.1238 51.8906 35.2078 51.6808 35.3647 51.3984C35.4056 51.201 35.4398 51.0021 35.4689 50.8026C35.5751 50.1713 35.757 49.5908 35.9684 48.9876C36.0593 48.7181 36.1311 48.4583 36.1914 48.1809C36.3848 47.3516 36.7638 46.5527 37.1521 45.7977C37.2308 45.7977 37.3094 45.7977 37.3905 45.7977C37.4121 45.9184 37.4338 46.0391 37.4561 46.1635C37.4863 46.3246 37.5165 46.4857 37.5469 46.6467C37.5679 46.7656 37.5679 46.7656 37.5894 46.8869C37.689 47.4079 37.8267 47.8473 38.1054 48.3001C38.2234 48.3394 38.3414 48.3788 38.4629 48.4193C38.6745 47.7715 38.8036 47.1835 38.6421 46.501C37.9816 42.6963 39.645 38.6483 41.7739 35.5732C41.9571 35.2915 41.9571 35.2915 41.9187 34.8345C41.4609 34.8738 41.209 35.0002 40.8988 35.3396C39.0959 37.5431 37.9067 40.1289 37.5351 42.9588C37.4499 43.533 37.2877 43.8153 36.9138 44.2485C36.7 44.603 36.5091 44.9688 36.318 45.3359C36.2651 45.4369 36.2123 45.538 36.1578 45.6421C35.792 46.3522 35.4818 47.0594 35.2455 47.8234C35.1887 47.9948 35.1316 48.1661 35.0742 48.3373C35.0462 48.4235 35.0183 48.5097 34.9895 48.5985C34.9115 48.827 34.8279 49.0535 34.7418 49.279C34.4325 50.0977 34.2204 50.8621 34.1088 51.7298C34.0521 52.1257 33.9686 52.5066 33.8751 52.8954C32.9612 56.7677 32.9133 61.604 33.9347 65.4598C33.9821 65.7375 34.0189 66.0143 34.0538 66.294C32.68 66.4525 31.6631 65.9882 30.5878 65.1852C29.8298 64.5351 29.2905 63.8293 28.8106 62.9573C28.7618 62.8712 28.7129 62.785 28.6626 62.6962C27.8795 61.2358 27.8455 59.28 28.2744 57.6992C28.7747 56.347 29.7385 55.263 31.0063 54.5791C31.4928 54.3559 31.9931 54.1774 32.5047 54.02C32.5646 53.7424 32.5646 53.7424 32.5047 53.4242C32.399 53.3627 32.2933 53.3013 32.1845 53.238C31.2651 52.6929 31.0735 51.1519 30.8238 50.1988C30.7876 50.0427 30.7521 49.8865 30.7172 49.7301C30.6957 49.6381 30.6741 49.546 30.6519 49.4512C30.4609 48.5456 30.4424 47.6529 30.4478 46.7319C30.4491 46.477 30.4478 46.2222 30.4463 45.9673C30.4447 44.5108 30.5938 43.1033 31.0077 41.7014C31.032 41.6146 31.0564 41.5278 31.0815 41.4384C31.9904 38.2614 33.7136 35.4323 35.8413 32.9279C35.9581 32.7815 36.0747 32.635 36.1914 32.4885C36.2725 32.3975 36.3536 32.3066 36.4371 32.2129C36.5158 32.2129 36.5944 32.2129 36.6755 32.2129C36.701 32.1478 36.7265 32.0826 36.7527 32.0155C36.97 31.6388 37.2656 31.3705 37.5841 31.0808C37.6516 31.019 37.719 30.9571 37.7885 30.8934C38.5323 30.2245 39.3312 29.6332 40.1389 29.0446C40.9954 28.4236 40.9954 28.4236 41.7921 27.7293C42.9823 26.6628 44.3344 25.804 45.7171 25.0109C45.8175 24.9532 45.9179 24.8956 46.0214 24.8362C47.0095 24.281 48.0257 23.8061 49.0984 23.4394C49.511 23.2977 49.9126 23.1521 50.3128 22.9781C50.7527 22.7922 51.1954 22.6425 51.653 22.5084C51.7389 22.4832 51.8248 22.458 51.9134 22.432C53.6433 21.9402 55.4231 21.5896 57.2244 21.5872C57.3299 21.5868 57.4354 21.5864 57.5441 21.586C57.7665 21.5854 57.9889 21.5851 58.2113 21.5852C58.5458 21.5849 58.8801 21.5827 59.2146 21.5805C61.0413 21.5745 62.7296 21.7774 64.5078 22.218C64.7734 22.2836 65.0392 22.3484 65.3052 22.4125C65.4199 22.441 65.5346 22.4694 65.6527 22.4987C66.0104 22.5643 66.3421 22.5712 66.7049 22.5606C66.6919 21.9608 66.5588 21.6581 66.191 21.1827C65.2181 19.8494 65.0931 18.2015 65.275 16.6023C65.6622 14.3577 67.0469 12.544 68.8639 11.2325C69.2846 10.9497 69.6972 10.7262 70.1607 10.5249C70.2456 10.4846 70.3305 10.4442 70.418 10.4026C71.2057 10.0504 71.8738 9.98203 72.7302 10.0036Z" stroke="black" stroke-width="2.19739" mask="url(#path-3-outside-1_740_8408)"/>
<path d="M69.1041 42.4025C69.2526 42.4037 69.2526 42.4037 69.4041 42.4048C70.89 42.4485 72.0088 43.0721 73.1333 44.0112C73.2177 44.0807 73.302 44.1501 73.3889 44.2216C75.1667 45.8347 76.1207 48.5279 76.4071 50.8409C76.455 51.176 76.5183 51.4881 76.5947 51.8165C76.7604 52.6264 76.7384 53.436 76.7306 54.2594C76.7305 54.4184 76.7304 54.5775 76.7304 54.7365C76.7251 55.8942 76.7251 55.8942 76.5891 56.166C76.5566 56.4065 76.5274 56.6474 76.4997 56.8885C76.2032 58.9919 75.4757 61.0814 74.0867 62.7201C73.9982 62.8405 73.9097 62.9609 73.8185 63.085C73.0065 64.0307 71.718 64.7568 70.4789 64.8953C68.5938 65.0163 67.217 64.6701 65.7265 63.4658C64.9832 62.7785 64.4694 61.9164 63.9577 61.0518C63.8828 60.9299 63.8828 60.9299 63.8064 60.8056C63.4044 60.1258 63.1765 59.4539 62.982 58.6908C62.9516 58.5752 62.9213 58.4595 62.89 58.3404C62.6842 57.5418 62.5025 56.7479 62.4085 55.9277C62.3955 55.8195 62.3824 55.7114 62.369 55.6C61.9686 51.6712 62.5509 47.3992 65.1023 44.2519C66.1643 43.1092 67.5445 42.3898 69.1041 42.4025Z" fill="#F7F7F7"/>
<path d="M48.0407 42.8719C48.5441 43.1705 48.9872 43.4999 49.4232 43.89C49.5126 43.9655 49.602 44.0411 49.6941 44.119C50.8395 45.1588 51.4065 46.498 51.8512 47.949C51.8796 48.0417 51.9081 48.1343 51.9374 48.2298C52.3886 49.8111 52.4549 51.4107 52.4544 53.0433C52.4546 53.196 52.4546 53.196 52.4548 53.3517C52.4517 55.1027 52.2769 56.7355 51.8065 58.428C51.7816 58.5259 51.7568 58.6238 51.7311 58.7247C51.1943 60.8181 49.9672 62.9039 48.1049 64.066C46.6894 64.865 45.1185 65.162 43.5166 64.7549C41.7321 64.0438 40.431 62.6095 39.6382 60.8793C39.5148 60.5811 39.4025 60.2812 39.2942 59.9772C39.2524 59.8613 39.2106 59.7455 39.1676 59.6262C38.5533 57.8601 38.4292 56.1316 38.4228 54.2722C38.4225 54.1853 38.4222 54.0985 38.4219 54.009C38.4214 52.6647 38.5191 51.3916 38.8716 50.0894C38.9332 49.8612 38.9873 49.631 39.041 49.4008C39.3226 48.2755 39.8098 47.2834 40.3667 46.2732C40.4642 46.0942 40.4642 46.0942 40.5636 45.9116C42.0744 43.3443 45.1021 41.4269 48.0407 42.8719Z" fill="#F8F7F7"/>
<path d="M69.1041 42.4025C69.2526 42.4037 69.2526 42.4037 69.4041 42.4048C70.89 42.4485 72.0088 43.0721 73.1333 44.0112C73.2177 44.0807 73.302 44.1501 73.3889 44.2216C75.1667 45.8347 76.1207 48.5279 76.4071 50.8409C76.455 51.176 76.5183 51.4881 76.5947 51.8165C76.7604 52.6264 76.7384 53.436 76.7306 54.2594C76.7305 54.4184 76.7304 54.5775 76.7304 54.7365C76.7251 55.8942 76.7251 55.8942 76.5891 56.166C76.5566 56.4065 76.5274 56.6474 76.4997 56.8885C76.2032 58.9919 75.4757 61.0814 74.0867 62.7201C73.9982 62.8405 73.9097 62.9609 73.8185 63.085C73.0065 64.0307 71.718 64.7568 70.4789 64.8953C68.5938 65.0163 67.217 64.6701 65.7265 63.4658C64.9832 62.7785 64.4694 61.9164 63.9577 61.0518C63.8828 60.9299 63.8828 60.9299 63.8064 60.8056C63.4044 60.1258 63.1765 59.4539 62.982 58.6908C62.9516 58.5752 62.9213 58.4595 62.89 58.3404C62.6842 57.5418 62.5025 56.7479 62.4085 55.9277C62.3955 55.8195 62.3824 55.7114 62.369 55.6C61.9686 51.6712 62.5509 47.3992 65.1023 44.2519C66.1643 43.1092 67.5445 42.3898 69.1041 42.4025ZM65.7451 45.322C64.2517 47.257 63.5238 49.9272 63.481 52.3528C63.4788 52.4345 63.4765 52.5162 63.4742 52.6004C63.3864 55.9893 63.9486 59.625 66.2218 62.2806C67.1441 63.2131 68.1592 63.7839 69.4839 63.8298C70.7649 63.8018 71.9102 63.2323 72.8429 62.37C74.405 60.7289 75.248 58.3346 75.3723 56.106C75.3975 55.8085 75.3975 55.8085 75.5166 55.451C75.7632 52.1601 75.1854 48.3984 73.1259 45.7242C72.1641 44.6096 71.0137 43.7539 69.5128 43.617C67.9212 43.5621 66.8213 44.1479 65.7451 45.322Z" fill="#0D0D0D"/>
<path d="M48.0407 42.8719C48.5441 43.1705 48.9872 43.4999 49.4232 43.89C49.5126 43.9655 49.602 44.0411 49.6941 44.119C50.8395 45.1588 51.4065 46.498 51.8512 47.949C51.8796 48.0417 51.9081 48.1343 51.9374 48.2298C52.3886 49.8111 52.4549 51.4107 52.4544 53.0433C52.4546 53.196 52.4546 53.196 52.4548 53.3517C52.4517 55.1027 52.2769 56.7355 51.8065 58.428C51.7816 58.5259 51.7568 58.6238 51.7311 58.7247C51.1943 60.8181 49.9672 62.9039 48.1049 64.066C46.6894 64.865 45.1185 65.162 43.5166 64.7549C41.7321 64.0438 40.431 62.6095 39.6382 60.8793C39.5148 60.5811 39.4025 60.2812 39.2942 59.9772C39.2524 59.8613 39.2106 59.7455 39.1676 59.6262C38.5533 57.8601 38.4292 56.1316 38.4228 54.2722C38.4225 54.1853 38.4222 54.0985 38.4219 54.009C38.4214 52.6647 38.5191 51.3916 38.8716 50.0894C38.9332 49.8612 38.9873 49.631 39.041 49.4008C39.3226 48.2755 39.8098 47.2834 40.3667 46.2732C40.4642 46.0942 40.4642 46.0942 40.5636 45.9116C42.0744 43.3443 45.1021 41.4269 48.0407 42.8719ZM41.9605 45.8711C40.3137 48.3679 39.6246 51.1975 39.6145 54.1604C39.6141 54.2508 39.6138 54.3412 39.6134 54.4343C39.6109 57.3053 40.169 60.4784 42.264 62.609C43.0635 63.3454 44.0711 63.8161 45.1705 63.8277C45.6017 63.8091 46.0211 63.7603 46.4441 63.6713C46.4441 63.5926 46.4441 63.514 46.4441 63.4329C46.5879 63.4293 46.5879 63.4293 46.7346 63.4255C47.8562 63.1303 48.7837 62.04 49.3864 61.0892C50.0708 59.8731 50.5286 58.5918 50.8532 57.2364C50.8715 57.1603 50.8898 57.0841 50.9087 57.0057C51.4747 54.5122 51.5379 51.3678 50.8532 48.8949C50.8295 48.8072 50.8058 48.7196 50.7814 48.6292C50.4359 47.3821 50 46.3392 49.1849 45.3199C49.123 45.2397 49.0611 45.1596 48.9973 45.0769C48.2936 44.2723 47.2719 43.7517 46.2272 43.5744C44.4103 43.496 43.014 44.4462 41.9605 45.8711Z" fill="#0E0D0D"/>
<path d="M67.6293 46.7117C68.7399 47.6279 69.1698 48.8287 69.3684 50.2266C69.5067 52.0993 69.2525 53.8823 68.1767 55.4624C67.7067 55.947 67.3677 56.0904 66.6946 56.1178C65.9871 56.0941 65.6467 55.9044 65.1362 55.4163C63.9378 54.0696 63.8964 52.0803 63.9877 50.3829C64.0807 48.9801 64.4046 47.7849 65.4741 46.8118C66.134 46.2839 66.9132 46.2641 67.6293 46.7117Z" fill="#050505"/>
<path d="M48.5087 47.0609C48.9018 47.2797 49.1732 47.5529 49.462 47.895C49.5208 47.9626 49.5796 48.0302 49.6403 48.0999C50.5306 49.3046 50.5749 51.27 50.3785 52.6895C50.157 54.0363 49.8566 55.4484 48.7172 56.3185C48.1381 56.6554 47.6147 56.7195 46.9595 56.5941C46.2234 56.2826 45.846 55.6339 45.5295 54.9257C45.1772 53.9452 45.1204 53.0265 45.1348 51.9913C45.1344 51.8528 45.134 51.7142 45.1337 51.5715C45.1435 49.9869 45.4636 48.5853 46.602 47.4184C47.1442 46.94 47.8231 46.9282 48.5087 47.0609Z" fill="#050505"/>
<path d="M53.08 32.9667C53.171 32.9938 53.2619 33.0208 53.3556 33.0486C53.398 33.6569 53.2483 34.1188 53.0205 34.6723C52.3135 36.4749 52.1231 38.1559 52.1595 40.0808C52.1633 40.2812 52.1648 40.4817 52.1658 40.6822C52.2412 42.5809 53.022 44.8758 54.2158 46.3681C54.4281 46.6334 54.4281 46.6334 54.4728 46.9537C54.4281 47.2292 54.4281 47.2292 54.1898 47.4676C53.9091 47.5127 53.9091 47.5127 53.5939 47.4676C52.2408 46.4351 51.4769 44.5404 51.0915 42.9393C51.056 42.7924 51.0205 42.6456 50.984 42.4943C50.3661 39.7233 50.6745 36.4005 52.0448 33.8828C52.1235 33.8828 52.2021 33.8828 52.2831 33.8828C52.2954 33.7919 52.3077 33.7009 52.3204 33.6072C52.4428 33.1285 52.5616 32.9064 53.08 32.9667Z" fill="#111010"/>
<path d="M47.3589 31.8674C47.4137 31.9035 47.4684 31.9396 47.5248 31.9767C47.4311 32.3858 47.2398 32.6599 46.9784 32.9786C46.1503 34.0237 45.6882 35.0924 45.3273 36.3673C45.2897 36.5001 45.2506 36.6324 45.2112 36.7646C44.8813 38.0301 44.9386 39.6981 45.4297 40.9206C45.517 41.138 45.517 41.138 45.4825 41.3579C45.3978 41.5304 45.3978 41.5304 45.1925 41.6394C44.9979 41.6128 44.9979 41.6128 44.7985 41.5198C44.1101 40.568 43.9839 39.167 44.0492 38.0352C44.0551 37.9313 44.061 37.8275 44.0671 37.7205C44.2127 35.7716 45.0813 33.6455 46.4911 32.2627C46.5431 32.2785 46.5951 32.2943 46.6487 32.3106C46.675 32.2532 46.7013 32.1958 46.7284 32.1366C46.9052 31.846 47.0281 31.7236 47.3589 31.8674Z" fill="#111010"/>
<path d="M63.9518 33.3984C64.3398 33.5983 64.4186 33.9651 64.5551 34.3592C64.7039 34.8775 64.8347 35.3999 64.9647 35.9232C65.4645 37.9498 65.4645 37.9498 66.1787 39.9078C66.2269 40.021 66.2751 40.1342 66.3248 40.2509C66.4103 40.4412 66.5001 40.6298 66.5962 40.815C66.7346 41.1049 66.7417 41.3114 66.7 41.6282C66.3154 41.8847 66.1895 41.8905 65.7467 41.8666C64.5022 39.6104 63.0697 36.2892 63.4826 33.6442C63.7209 33.4059 63.7209 33.4059 63.9518 33.3984Z" fill="#131312"/>
<path d="M37.1934 62.6016C37.6616 62.7593 37.8008 63.014 38.0848 63.4086C38.9396 64.5748 40.0566 65.2177 41.436 65.576C41.7212 65.6739 41.8558 65.7456 42.0323 65.9896C42.0061 66.2151 41.9844 66.3545 41.8236 66.517C40.4957 66.6512 39.2832 65.9729 38.276 65.1459C36.8481 63.7854 36.8481 63.7854 36.7891 63.0102C36.8242 62.6193 36.8242 62.6193 37.1934 62.6016Z" fill="#141313"/>
<path d="M77.0545 63.0781C77.1357 63.0937 77.217 63.1093 77.3008 63.1254C77.3507 63.7376 77.1234 64.0089 76.7638 64.4785C75.9543 65.4379 74.714 66.341 73.4539 66.5271C73.2879 66.5332 73.1216 66.5352 72.9555 66.533C72.8727 66.5322 72.7898 66.5313 72.7044 66.5304C72.6422 66.5293 72.5799 66.5282 72.5157 66.5271C72.4847 66.3712 72.4538 66.2153 72.4219 66.0546C72.707 65.8537 72.9686 65.745 73.3015 65.659C74.562 65.2933 75.7336 64.5455 76.4798 63.4502C76.6994 63.1311 76.6994 63.1311 77.0545 63.0781Z" fill="#111111"/>
<path d="M60.1082 69.4873C60.1781 69.5545 60.248 69.6216 60.32 69.6907C59.9783 70.3248 59.5819 70.4466 58.9291 70.6794C57.5219 71.1071 55.7274 71.2049 54.3711 70.585C54.2041 70.4851 54.0396 70.3812 53.8778 70.2731C53.797 70.2195 53.7162 70.1659 53.6329 70.1106C53.5724 70.0698 53.512 70.0291 53.4497 69.987C53.5188 69.814 53.5879 69.6409 53.659 69.4626C54.0673 69.4466 54.3936 69.5065 54.7754 69.634C56.2468 70.0776 57.8746 70.0888 59.3064 69.487C59.7257 69.3132 59.7257 69.3132 60.1082 69.4873Z" fill="#111111"/>
<path d="M59.1995 58.9509C59.3652 59.3681 59.3652 59.3681 59.3177 59.789C58.9254 60.3788 58.5119 60.5939 57.8461 60.7673C56.7278 60.9556 55.6684 60.8317 54.7244 60.1777C54.4657 59.9775 54.4657 59.9775 54.2913 59.7586C54.3238 59.1918 54.4472 58.9185 54.7976 58.4763C55.3967 57.9508 56.2036 57.9633 56.963 57.9609C57.9256 58.0792 58.4822 58.2964 59.1995 58.9509Z" fill="#0C0C0C"/>
<path d="M50.6154 38.8867C50.6547 38.8867 50.6941 38.8867 50.7346 38.8867C50.7346 39.4766 50.7346 40.0664 50.7346 40.6742C50.3771 40.3167 50.3771 40.3167 50.3398 39.8475C50.3529 39.4739 50.4038 39.2041 50.6154 38.8867Z" fill="#F1EEED"/>
<path d="M43.4651 44.3672C43.5438 44.4065 43.6224 44.4458 43.7035 44.4864C43.2316 44.9582 42.7597 45.4301 42.2735 45.9163C42.1948 45.877 42.1162 45.8377 42.0352 45.7972C42.4789 45.2703 42.9045 44.7749 43.4651 44.3672Z" fill="#D4D2D4"/>
<path d="M68.1348 97.1562C68.1741 97.1562 68.2134 97.1562 68.254 97.1562C68.2598 97.2312 68.2656 97.3062 68.2716 97.3834C68.3161 97.8923 68.3696 98.3764 68.5072 98.8692C68.6061 99.2791 68.6107 99.3992 68.4923 99.7779C68.4679 99.6946 68.4434 99.6114 68.4183 99.5256C68.3862 99.4171 68.3541 99.3087 68.321 99.1969C68.2892 99.0891 68.2574 98.9813 68.2246 98.8702C68.1436 98.5883 68.1436 98.5883 68.0156 98.3479C68.026 98.1438 68.0443 97.9401 68.0678 97.7372C68.0799 97.6287 68.092 97.5203 68.1045 97.4085C68.1145 97.3253 68.1245 97.242 68.1348 97.1562Z" fill="#ADADAC"/>
<path d="M46.086 97.0391C46.2826 97.0391 46.4792 97.0391 46.6818 97.0391C46.6818 97.3537 46.6818 97.6683 46.6818 97.9924C46.6425 97.9924 46.6032 97.9924 46.5626 97.9924C46.5233 97.7564 46.484 97.5205 46.4435 97.2774C46.2469 97.356 46.0502 97.4347 45.8477 97.5157C45.9263 97.3584 46.005 97.2011 46.086 97.0391Z" fill="#302E2F"/>
<path d="M29.6427 55.5703C29.7213 55.649 29.8 55.7276 29.881 55.8086C29.6058 56.0839 29.3305 56.3592 29.0469 56.6428C29.0469 56.1197 29.3005 55.9553 29.6427 55.5703Z" fill="#D1D0D1"/>
<path d="M77.4248 44.0117C77.6705 44.0639 77.6705 44.0639 77.9014 44.1309C77.8228 44.2095 77.7441 44.2882 77.6631 44.3692C77.578 44.6056 77.4979 44.8439 77.4248 45.0842C77.3854 45.0842 77.3461 45.0842 77.3056 45.0842C77.294 44.3511 77.294 44.3511 77.3056 44.1309C77.3449 44.0916 77.3843 44.0522 77.4248 44.0117Z" fill="#373737"/>
</g>
<defs>
<filter id="filter0_d_740_8408" x="10" y="0" width="100" height="100" filterUnits="userSpaceOnUse" color-interpolation-filters="sRGB">
<feFlood flood-opacity="0" result="BackgroundImageFix"/>
<feColorMatrix in="SourceAlpha" type="matrix" values="0 0 0 0 0 0 0 0 0 0 0 0 0 0 0 0 0 0 127 0" result="hardAlpha"/>
<feOffset dy="4"/>
<feGaussianBlur stdDeviation="2"/>
<feComposite in2="hardAlpha" operator="out"/>
<feColorMatrix type="matrix" values="0 0 0 0 0 0 0 0 0 0 0 0 0 0 0 0 0 0 0.25 0"/>
<feBlend mode="normal" in2="BackgroundImageFix" result="effect1_dropShadow_740_8408"/>
<feBlend mode="normal" in="SourceGraphic" in2="effect1_dropShadow_740_8408" result="shape"/>
</filter>
<clipPath id="clip0_740_8408">
<rect width="120" height="98" fill="white"/>
</clipPath>
</defs>
</svg>
