<svg width="257" height="427" viewBox="0 0 257 427" fill="none" xmlns="http://www.w3.org/2000/svg">
<path d="M111.133 19.8298C111.522 19.8328 111.911 19.8358 112.312 19.8389C113.592 19.852 114.872 19.8726 116.152 19.895C116.817 19.9051 116.817 19.9051 117.496 19.9154C133.854 20.1917 149.763 22.8491 164.93 29.1943C174.369 33.6448 174.369 33.6448 184.289 33.1705C184.564 33.0445 184.839 32.9186 185.122 32.7889C189.272 31.053 194.558 30.5526 198.837 32.0692C200.792 32.9599 202.082 33.9414 203.062 35.8864C203.701 38.9974 202.704 41.6724 201.06 44.3036C199.548 46.4799 197.619 48.6691 195.414 50.1396C195.885 51.7402 196.547 53.0398 197.413 54.4633C199.922 58.7244 201.779 63.5449 202.671 68.4123C202.936 69.715 203.441 70.7577 204.061 71.9322C207.559 78.6805 207.801 86.8443 208.505 94.2696C208.609 95.321 208.609 95.321 208.806 96.3033C209.027 97.7923 209.039 99.2596 209.057 100.763C209.068 101.428 209.079 102.093 209.09 102.757C209.096 103.103 209.101 103.448 209.106 103.804C209.194 109.22 209.327 114.596 209.904 119.986C210.122 122.099 210.304 124.216 210.488 126.333C210.554 127.08 210.622 127.827 210.691 128.574C211.363 136.05 211.463 143.55 211.56 151.052C211.592 153.513 211.629 155.974 211.667 158.436C211.671 158.675 211.674 158.915 211.678 159.162C211.86 171.09 212.077 182.985 214.186 194.757C214.235 195.032 214.284 195.307 214.334 195.59C214.781 198.048 215.326 200.463 216.013 202.866C216.377 204.173 216.682 205.494 216.988 206.816C217.371 208.166 217.852 209.467 218.339 210.783C218.681 211.724 219.002 212.669 219.315 213.621C220.836 218.212 222.681 222.559 224.747 226.929C225.838 229.254 226.898 231.594 227.961 233.932C228.074 234.178 228.186 234.425 228.301 234.679C229.787 237.943 231.238 241.22 232.636 244.524C233.347 246.203 234.089 247.863 234.871 249.51C236.271 252.475 237.563 255.484 238.832 258.507C239.187 259.349 239.549 260.188 239.911 261.027C243.545 269.602 245.929 278.842 247.994 287.903C248.646 290.744 249.312 293.58 250.036 296.403C250.098 296.643 250.159 296.883 250.223 297.13C250.284 297.369 250.345 297.607 250.408 297.853C252.786 307.133 253.534 315.869 253.534 325.435C253.534 326.775 253.541 328.115 253.547 329.455C253.548 330.319 253.549 331.183 253.549 332.047C253.552 332.442 253.554 332.836 253.557 333.243C253.55 335.819 253.251 338.237 252.774 340.765C252.516 342.501 252.318 344.242 252.148 345.988C252.087 346.592 252.013 347.195 251.937 347.797C251.706 350.86 253.027 352.907 254.521 355.46C255.546 357.279 256.448 359.156 256.25 361.276C256.021 361.506 255.791 361.735 255.555 361.971C254.708 361.95 254.708 361.95 253.817 361.624C252.935 360.336 252.311 358.935 251.666 357.517C251.482 357.113 251.298 356.71 251.108 356.294C250.969 355.988 250.831 355.682 250.688 355.366C250.31 356.118 249.937 356.872 249.569 357.629C249.422 357.929 249.275 358.229 249.124 358.538C248.977 358.84 248.83 359.142 248.678 359.454C248.255 360.233 248.255 360.233 247.559 360.928C247.714 363.466 248.421 365.89 249.075 368.337C249.534 370.157 249.773 371.579 249.298 373.443C249.068 373.788 248.839 374.132 248.602 374.486C247.711 374.573 247.711 374.573 246.864 374.486C246.244 373.866 246.265 372.94 246.115 372.1C246.039 371.684 245.963 371.268 245.885 370.84C245.807 370.401 245.728 369.963 245.647 369.511C245.492 368.65 245.336 367.79 245.18 366.929C245.077 366.354 245.077 366.354 244.972 365.766C244.817 364.955 244.643 364.16 244.431 363.362C244.086 363.477 243.742 363.591 243.388 363.71C240.672 363.955 238.76 363.766 236.435 362.319C236.32 362.204 236.206 362.09 236.087 361.971C236.07 362.236 236.052 362.5 236.035 362.772C235.953 363.99 235.868 365.208 235.783 366.425C235.742 367.049 235.742 367.049 235.7 367.685C235.205 374.673 235.205 374.673 234.002 375.877C233.111 375.942 233.111 375.942 232.263 375.877C231.916 375.529 231.916 375.529 231.869 374.805C231.871 374.336 231.871 374.336 231.872 373.856C231.871 373.553 231.87 373.249 231.869 372.937C231.909 371.875 231.984 370.828 232.075 369.77C232.138 369.025 232.201 368.279 232.263 367.534C232.295 367.166 232.326 366.798 232.359 366.419C232.797 360.61 232.321 357.105 228.621 352.575C227.815 351.531 227.211 350.411 226.614 349.239C226.454 348.929 226.454 348.929 226.29 348.613C225.959 347.969 225.634 347.322 225.311 346.675C225.048 346.155 224.785 345.635 224.523 345.115C223.853 343.784 223.19 342.449 222.529 341.113C222.432 341.373 222.334 341.634 222.234 341.902C219.474 349.212 216.467 356.003 211.869 362.369C211.422 362.99 210.985 363.617 210.549 364.246C208.82 366.732 206.971 369.095 205.045 371.432C203.491 373.323 202.034 375.263 200.628 377.267C201.007 377.412 201.007 377.412 201.393 377.559C203.064 378.252 204.611 379.171 206.19 380.049C206.637 380.29 207.083 380.53 207.529 380.771C210.533 382.404 213.247 384.168 215.924 386.306C216.224 386.539 216.523 386.771 216.831 387.011C217.699 387.691 218.552 388.384 219.401 389.087C219.699 389.334 219.997 389.58 220.304 389.834C221.778 391.102 222.975 392.279 224.007 393.932C225.188 395.752 226.693 396.813 228.479 397.987C229.607 398.732 230.539 399.373 231.22 400.559C231.134 401.313 231.067 401.756 230.525 402.297C229.786 402.449 229.786 402.449 228.787 402.297C228.117 401.82 227.527 401.298 226.927 400.736C226.307 400.142 226.307 400.142 225.311 399.516C224.729 399.619 224.15 399.738 223.572 399.864C222.529 399.897 221.487 399.884 220.444 399.864C220.591 400.028 220.738 400.193 220.89 400.362C222.025 401.642 223.135 402.938 224.202 404.275C224.398 404.52 224.594 404.765 224.796 405.017C225.311 405.774 225.311 405.774 225.579 406.604C226.212 407.95 227.239 408.708 228.374 409.641C228.589 409.824 228.803 410.006 229.024 410.194C229.954 410.975 230.837 411.663 231.889 412.277C232.127 412.425 232.365 412.574 232.611 412.727C232.763 413.617 232.763 413.617 232.611 414.465C232.382 414.694 232.152 414.924 231.916 415.16C229.847 415.157 228.755 414.067 227.309 412.748C226.984 412.461 226.984 412.461 226.652 412.168C225.837 411.445 225.038 410.716 224.268 409.945C223.582 409.941 223.582 409.941 222.79 410.032C218.978 410.109 215.312 407.622 212.1 405.774C211.986 405.889 211.871 406.003 211.753 406.121C212.031 406.407 212.031 406.407 212.315 406.699C219.137 413.957 219.137 413.957 219.075 417.593C219.271 419.999 221.071 421.705 222.529 423.503C223.01 424.464 222.943 425.223 222.877 426.284C222.648 426.514 222.418 426.743 222.182 426.98C221.518 426.95 221.518 426.95 220.791 426.632C220.184 425.923 220.184 425.923 219.596 425.024C219.384 424.711 219.171 424.397 218.953 424.074C218.603 423.534 218.261 422.989 217.937 422.433C216.934 420.798 215.958 420.394 214.178 419.769C211.914 418.812 209.93 417.266 207.929 415.855C207.674 415.677 207.418 415.499 207.156 415.315C204.294 413.308 201.511 411.26 198.88 408.959C197.338 407.628 195.707 406.45 194.045 405.274C191.421 403.414 188.983 401.417 186.572 399.292C185.735 398.568 184.87 397.882 184.007 397.191C182.257 395.769 180.544 394.28 179.075 392.564C179.075 392.334 179.075 392.105 179.075 391.868C178.782 391.915 178.489 391.962 178.187 392.01C174.683 392.526 171.213 392.716 167.676 392.834C160.675 393.071 153.689 393.477 146.701 393.954C146.273 393.983 145.846 394.012 145.406 394.042C144.149 394.128 142.892 394.215 141.636 394.302C141.021 394.344 141.021 394.344 140.394 394.387C138.294 394.533 136.195 394.684 134.096 394.845C128.713 395.251 123.375 395.447 117.977 395.41C117.236 395.407 116.496 395.405 115.755 395.402C102.075 395.341 102.075 395.341 99.4654 394.649C98.308 394.388 98.308 394.388 97.0319 394.649C96.2575 395.261 95.6217 395.933 94.9569 396.662C94.2994 397.378 93.6233 397.999 92.882 398.625C91.8773 399.486 90.9522 400.388 90.0357 401.341C88.1845 403.215 86.139 404.806 84.0399 406.389C83.5552 406.755 83.0755 407.128 82.5968 407.502C79.0818 410.136 74.2051 412.783 69.7423 412.77C68.2275 412.89 67.5333 413.144 66.5266 414.291C66.1383 414.804 65.7621 415.326 65.3968 415.855C64.9813 416.438 64.5613 417.017 64.1366 417.593C63.9529 417.859 63.7691 418.124 63.5798 418.397C62.9633 418.984 62.9633 418.984 62.0643 419.114C61.2251 418.984 61.2251 418.984 60.5299 418.289C60.5646 416.522 61.657 415.397 62.7243 414.095C62.8935 413.883 63.0627 413.67 63.237 413.451C63.9511 412.562 64.6505 411.732 65.481 410.948C66.2061 410.171 66.4192 409.546 66.7222 408.533C67.4573 406.343 68.6118 404.539 69.9161 402.645C69.6509 402.766 69.6509 402.766 69.3803 402.889C68.5675 403.259 67.7535 403.625 66.9394 403.992C66.6614 404.119 66.3833 404.246 66.0968 404.376C62.0495 406.194 62.0495 406.194 59.7259 406.121C57.3721 406.361 56.0574 408.229 54.62 409.945C53.8448 410.95 53.0782 411.96 52.3557 413.003C51.6817 413.939 51.2914 414.419 50.1727 414.768C49.9195 414.782 49.6663 414.797 49.4054 414.812C48.9043 413.81 48.9431 413.146 49.0578 412.031C49.5383 411.226 49.9891 410.573 50.5787 409.859C50.7335 409.663 50.8884 409.468 51.0479 409.267C52.3526 407.655 53.781 406.215 55.3044 404.807C56.0573 403.985 56.3181 403.331 56.7058 402.297C57.1072 401.726 57.5279 401.168 57.966 400.624C58.1856 400.35 58.4052 400.075 58.6314 399.792C58.799 399.586 58.9666 399.381 59.1393 399.169C58.0846 399.169 57.6772 399.305 56.7479 399.74C56.4866 399.861 56.2254 399.981 55.9561 400.105C55.6801 400.233 55.4041 400.362 55.1197 400.494C47.7501 403.831 47.7501 403.831 44.1908 402.645C43.5522 403.034 43.5522 403.034 42.9306 403.645C42.5656 403.978 42.5656 403.978 42.1933 404.318C41.1077 405.372 40.0658 406.465 39.0374 407.574C38.1804 408.291 37.654 408.5 36.5428 408.555C35.8475 407.86 35.8475 407.86 35.6832 407.076C35.9228 405.684 36.7869 404.982 37.7813 404.057C38.0665 403.783 38.0665 403.783 38.3575 403.504C38.9064 402.98 39.4611 402.464 40.0192 401.95C40.2813 401.707 40.5435 401.465 40.8136 401.215C42.3324 399.864 42.3324 399.864 43.1479 399.864C43.2263 399.562 43.3048 399.26 43.3856 398.949C43.9045 397.621 44.6303 396.744 45.6031 395.736C45.7761 395.554 45.949 395.371 46.1272 395.184C46.6361 394.653 47.1507 394.129 47.6672 393.606C47.9074 393.358 48.1476 393.109 48.3951 392.853C53.5683 387.875 61.1259 384.492 67.8303 382.134C66.8895 381.016 65.9468 379.913 64.9378 378.855C61.8937 375.652 59.3094 372.141 56.7058 368.576C56.3863 368.144 56.0668 367.712 55.7471 367.28C51.5291 361.529 47.9545 355.36 44.5385 349.109C44.3516 348.767 44.1646 348.426 43.972 348.074C41.3568 343.263 39.0534 338.363 36.938 333.316C36.8009 332.991 36.8009 332.991 36.661 332.659C36.413 332.069 36.1674 331.478 35.9219 330.887C35.5472 329.957 35.5472 329.957 34.8046 329.293C34.6401 329.568 34.4757 329.843 34.3062 330.126C33.683 331.166 33.0582 332.204 32.4324 333.242C32.1641 333.688 31.8965 334.134 31.6295 334.58C31.2411 335.229 30.8505 335.877 30.4591 336.524C30.3301 336.739 30.2011 336.954 30.0682 337.176C29.2425 338.529 28.331 339.743 27.3277 340.975C25.7882 343.042 25.7441 344.879 25.8094 347.392C25.813 348.164 25.814 348.936 25.8122 349.708C25.8223 350.212 25.8223 350.212 25.8327 350.726C25.766 351.542 25.766 351.542 25.0707 352.237C24.2016 352.346 24.2016 352.346 23.3325 352.237C22.4665 350.938 22.5655 350.24 22.5938 348.696C22.6001 348.254 22.6063 347.811 22.6128 347.356C22.6209 347.016 22.6289 346.677 22.6372 346.328C22.4177 346.453 22.1981 346.579 21.9718 346.708C19.2479 348.121 16.9816 348.265 13.9463 348.066C13.2828 350.199 12.9399 352.319 12.6365 354.529C12.2407 357.134 12.2407 357.134 11.1652 358.147C10.2743 358.278 10.2743 358.278 9.42698 358.147C8.7317 357.452 8.7317 357.452 8.63665 356.423C8.68818 354.677 9.1367 353.012 9.55734 351.325C9.63442 351.002 9.7115 350.68 9.79091 350.347C10.1569 348.845 10.5264 347.395 11.1652 345.98C10.9357 345.915 10.7063 345.851 10.4699 345.784C8.41701 344.801 6.8422 343.065 5.25532 341.461C4.38692 345.177 3.71164 348.719 3.64613 352.542C3.51712 353.628 3.51712 353.628 3.04184 354.295C2.23767 354.828 1.67901 354.792 0.736016 354.671C0.0407389 353.976 0.0407389 353.976 0 352.771C0.0224718 352.253 0.050977 351.734 0.0841937 351.216C0.101083 350.94 0.117971 350.664 0.135372 350.379C0.41469 346.61 1.00614 342.661 2.58285 339.201C3.71958 336.628 2.98956 334.042 2.05755 331.507C1.15887 328.852 0.979392 326.208 0.991313 323.426C0.990648 323.074 0.989983 322.723 0.989297 322.361C0.988827 321.621 0.99009 320.881 0.993011 320.141C0.996707 319.028 0.99305 317.915 0.988597 316.802C0.985703 312.686 1.15908 308.681 1.77893 304.611C1.82414 304.305 1.86934 303.999 1.91592 303.684C2.03548 302.939 2.17217 302.2 2.32212 301.461C2.4048 301.05 2.4048 301.05 2.48915 300.631C3.11581 297.682 3.9229 294.781 4.73386 291.879C4.80035 291.639 4.86685 291.4 4.93536 291.153C5.6331 288.653 6.37551 286.201 7.37985 283.805C7.83212 282.711 8.19266 281.598 8.55788 280.472C9.04664 278.977 9.54848 277.491 10.1005 276.018C10.6901 274.418 11.2041 272.8 11.7084 271.173C12.6283 268.22 13.6055 265.288 14.6038 262.361C14.7723 261.867 14.9401 261.372 15.1072 260.877C15.9672 258.331 16.8645 255.892 18.1179 253.508C18.4353 252.709 18.7392 251.905 19.0305 251.096C19.9518 248.577 20.9397 246.088 21.942 243.6C22.9203 241.168 23.8944 238.735 24.81 236.278C24.8909 236.061 24.9718 235.844 25.0552 235.62C25.4649 234.516 25.8687 233.41 26.2698 232.302C27.6276 228.581 29.1987 225 31.024 221.482C31.7936 219.966 32.3748 218.379 32.9713 216.789C33.2432 216.068 33.5222 215.351 33.8133 214.638C34.8946 211.967 35.7575 209.242 36.608 206.49C36.728 206.103 36.848 205.716 36.9717 205.317C37.1432 204.755 37.1432 204.755 37.3182 204.181C37.42 203.848 37.5218 203.514 37.6267 203.171C38.2792 200.802 38.7447 198.419 39.0716 195.985C39.1089 195.709 39.1462 195.433 39.1846 195.148C40.3118 186.595 40.5963 178.192 40.5202 169.574C40.5063 167.759 40.5036 165.944 40.4997 164.128C40.4908 160.707 40.4736 157.287 40.4527 153.866C40.4153 147.736 40.3909 141.606 40.3721 135.476C40.3652 133.336 40.354 131.197 40.3393 129.057C40.2856 120.87 40.3534 112.859 41.7271 104.764C42.1008 102.548 42.2888 100.332 42.4526 98.092C42.6828 94.9711 42.9562 91.8598 43.3 88.7492C43.3575 88.1969 43.3575 88.1969 43.4161 87.6335C43.6763 85.3501 44.1489 83.2546 44.8861 81.0794C45.0824 80.4751 45.0824 80.4751 45.2826 79.8586C46.5295 76.2892 48.0106 72.8315 49.8834 69.5421C51.9033 65.4761 50.3086 60.7233 48.9709 56.7012C47.5493 52.9355 45.5407 49.9854 42.9003 46.994C40.7639 44.5693 39.1567 42.4075 39.2316 39.0437C39.4406 37.4052 40.1755 36.3455 41.3934 35.3079C44.6835 32.9727 47.8716 32.5277 51.8389 32.41C52.1043 32.4005 52.3698 32.3911 52.6433 32.3813C56.2388 32.2673 59.7047 32.4231 63.2675 32.9315C68.2211 33.6283 72.105 34.1393 76.5212 31.3671C77.0793 31.0221 77.6375 30.6772 78.1956 30.3323C79.1374 29.748 80.0786 29.1628 81.0185 28.5755C88.2401 24.0781 94.5956 21.9724 103.017 20.7498C103.881 20.6074 104.712 20.4214 105.56 20.2073C107.414 19.7785 109.238 19.8059 111.133 19.8298Z" fill="#FEFCFC"/>
<path d="M111.133 19.8298C111.522 19.8328 111.911 19.8358 112.312 19.8389C113.592 19.852 114.872 19.8726 116.152 19.895C116.817 19.9051 116.817 19.9051 117.496 19.9154C133.854 20.1917 149.763 22.8491 164.93 29.1943C174.369 33.6448 174.369 33.6448 184.289 33.1705C184.564 33.0445 184.839 32.9186 185.122 32.7889C189.272 31.053 194.558 30.5526 198.837 32.0692C200.792 32.9599 202.082 33.9414 203.062 35.8864C203.701 38.9974 202.704 41.6724 201.06 44.3036C199.548 46.4799 197.619 48.6691 195.414 50.1396C195.885 51.7402 196.547 53.0398 197.413 54.4633C199.922 58.7244 201.779 63.5449 202.671 68.4123C202.936 69.715 203.441 70.7577 204.061 71.9322C207.559 78.6805 207.801 86.8443 208.505 94.2696C208.609 95.321 208.609 95.321 208.806 96.3033C209.027 97.7923 209.039 99.2596 209.057 100.763C209.068 101.428 209.079 102.093 209.09 102.757C209.096 103.103 209.101 103.448 209.106 103.804C209.194 109.22 209.327 114.596 209.904 119.986C210.122 122.099 210.304 124.216 210.488 126.333C210.554 127.08 210.622 127.827 210.691 128.574C211.363 136.05 211.463 143.55 211.56 151.052C211.592 153.513 211.629 155.974 211.667 158.436C211.671 158.675 211.674 158.915 211.678 159.162C211.86 171.09 212.077 182.985 214.186 194.757C214.235 195.032 214.284 195.307 214.334 195.59C214.781 198.048 215.326 200.463 216.013 202.866C216.377 204.173 216.682 205.494 216.988 206.816C217.371 208.166 217.852 209.467 218.339 210.783C218.681 211.724 219.002 212.669 219.315 213.621C220.836 218.212 222.681 222.559 224.747 226.929C225.838 229.254 226.898 231.594 227.961 233.932C228.074 234.178 228.186 234.425 228.301 234.679C229.787 237.943 231.238 241.22 232.636 244.524C233.347 246.203 234.089 247.863 234.871 249.51C236.271 252.475 237.563 255.484 238.832 258.507C239.187 259.349 239.549 260.188 239.911 261.027C243.545 269.602 245.929 278.842 247.994 287.903C248.646 290.744 249.312 293.58 250.036 296.403C250.098 296.643 250.159 296.883 250.223 297.13C250.284 297.369 250.345 297.607 250.408 297.853C252.786 307.133 253.534 315.869 253.534 325.435C253.534 326.775 253.541 328.115 253.547 329.455C253.548 330.319 253.549 331.183 253.549 332.047C253.552 332.442 253.554 332.836 253.557 333.243C253.55 335.819 253.251 338.237 252.774 340.765C252.516 342.501 252.318 344.242 252.148 345.988C252.087 346.592 252.013 347.195 251.937 347.797C251.706 350.86 253.027 352.907 254.521 355.46C255.546 357.279 256.448 359.156 256.25 361.276C256.021 361.506 255.791 361.735 255.555 361.971C254.708 361.95 254.708 361.95 253.817 361.624C252.935 360.336 252.311 358.935 251.666 357.517C251.482 357.113 251.298 356.71 251.108 356.294C250.969 355.988 250.831 355.682 250.688 355.366C250.31 356.118 249.937 356.872 249.569 357.629C249.422 357.929 249.275 358.229 249.124 358.538C248.977 358.84 248.83 359.142 248.678 359.454C248.255 360.233 248.255 360.233 247.559 360.928C247.714 363.466 248.421 365.89 249.075 368.337C249.534 370.157 249.773 371.579 249.298 373.443C249.068 373.788 248.839 374.132 248.602 374.486C247.711 374.573 247.711 374.573 246.864 374.486C246.244 373.866 246.265 372.94 246.115 372.1C246.039 371.684 245.963 371.268 245.885 370.84C245.807 370.401 245.728 369.963 245.647 369.511C245.492 368.65 245.336 367.79 245.18 366.929C245.077 366.354 245.077 366.354 244.972 365.766C244.817 364.955 244.643 364.16 244.431 363.362C244.086 363.477 243.742 363.591 243.388 363.71C240.672 363.955 238.76 363.766 236.435 362.319C236.32 362.204 236.206 362.09 236.087 361.971C236.07 362.236 236.052 362.5 236.035 362.772C235.953 363.99 235.868 365.208 235.783 366.425C235.742 367.049 235.742 367.049 235.7 367.685C235.205 374.673 235.205 374.673 234.002 375.877C233.111 375.942 233.111 375.942 232.263 375.877C231.916 375.529 231.916 375.529 231.869 374.805C231.871 374.336 231.871 374.336 231.872 373.856C231.871 373.553 231.87 373.249 231.869 372.937C231.909 371.875 231.984 370.828 232.075 369.77C232.138 369.025 232.201 368.279 232.263 367.534C232.295 367.166 232.326 366.798 232.359 366.419C232.797 360.61 232.321 357.105 228.621 352.575C227.815 351.531 227.211 350.411 226.614 349.239C226.454 348.929 226.454 348.929 226.29 348.613C225.959 347.969 225.634 347.322 225.311 346.675C225.048 346.155 224.785 345.635 224.523 345.115C223.853 343.784 223.19 342.449 222.529 341.113C222.432 341.373 222.334 341.634 222.234 341.902C219.474 349.212 216.467 356.003 211.869 362.369C211.422 362.99 210.985 363.617 210.549 364.246C208.82 366.732 206.971 369.095 205.045 371.432C203.491 373.323 202.034 375.263 200.628 377.267C201.007 377.412 201.007 377.412 201.393 377.559C203.064 378.252 204.611 379.171 206.19 380.049C206.637 380.29 207.083 380.53 207.529 380.771C210.533 382.404 213.247 384.168 215.924 386.306C216.224 386.539 216.523 386.771 216.831 387.011C217.699 387.691 218.552 388.384 219.401 389.087C219.699 389.334 219.997 389.58 220.304 389.834C221.778 391.102 222.975 392.279 224.007 393.932C225.188 395.752 226.693 396.813 228.479 397.987C229.607 398.732 230.539 399.373 231.22 400.559C231.134 401.313 231.067 401.756 230.525 402.297C229.786 402.449 229.786 402.449 228.787 402.297C228.117 401.82 227.527 401.298 226.927 400.736C226.307 400.142 226.307 400.142 225.311 399.516C224.729 399.619 224.15 399.738 223.572 399.864C222.529 399.897 221.487 399.884 220.444 399.864C220.591 400.028 220.738 400.193 220.89 400.362C222.025 401.642 223.135 402.938 224.202 404.275C224.398 404.52 224.594 404.765 224.796 405.017C225.311 405.774 225.311 405.774 225.579 406.604C226.212 407.95 227.239 408.708 228.374 409.641C228.589 409.824 228.803 410.006 229.024 410.194C229.954 410.975 230.837 411.663 231.889 412.277C232.127 412.425 232.365 412.574 232.611 412.727C232.763 413.617 232.763 413.617 232.611 414.465C232.382 414.694 232.152 414.924 231.916 415.16C229.847 415.157 228.755 414.067 227.309 412.748C226.984 412.461 226.984 412.461 226.652 412.168C225.837 411.445 225.038 410.716 224.268 409.945C223.582 409.941 223.582 409.941 222.79 410.032C218.978 410.109 215.312 407.622 212.1 405.774C211.986 405.889 211.871 406.003 211.753 406.121C212.031 406.407 212.031 406.407 212.315 406.699C219.137 413.957 219.137 413.957 219.075 417.593C219.271 419.999 221.071 421.705 222.529 423.503C223.01 424.464 222.943 425.223 222.877 426.284C222.648 426.514 222.418 426.743 222.182 426.98C221.518 426.95 221.518 426.95 220.791 426.632C220.184 425.923 220.184 425.923 219.596 425.024C219.384 424.711 219.171 424.397 218.953 424.074C218.603 423.534 218.261 422.989 217.937 422.433C216.934 420.798 215.958 420.394 214.178 419.769C211.914 418.812 209.93 417.266 207.929 415.855C207.674 415.677 207.418 415.499 207.156 415.315C204.294 413.308 201.511 411.26 198.88 408.959C197.338 407.628 195.707 406.45 194.045 405.274C191.421 403.414 188.983 401.417 186.572 399.292C185.735 398.568 184.87 397.882 184.007 397.191C182.257 395.769 180.544 394.28 179.075 392.564C179.075 392.334 179.075 392.105 179.075 391.868C178.782 391.915 178.489 391.962 178.187 392.01C174.683 392.526 171.213 392.716 167.676 392.834C160.675 393.071 153.689 393.477 146.701 393.954C146.273 393.983 145.846 394.012 145.406 394.042C144.149 394.128 142.892 394.215 141.636 394.302C141.021 394.344 141.021 394.344 140.394 394.387C138.294 394.533 136.195 394.684 134.096 394.845C128.713 395.251 123.375 395.447 117.977 395.41C117.236 395.407 116.496 395.405 115.755 395.402C102.075 395.341 102.075 395.341 99.4654 394.649C98.308 394.388 98.308 394.388 97.0319 394.649C96.2575 395.261 95.6217 395.933 94.9569 396.662C94.2994 397.378 93.6233 397.999 92.882 398.625C91.8773 399.486 90.9522 400.388 90.0357 401.341C88.1845 403.215 86.139 404.806 84.0399 406.389C83.5552 406.755 83.0755 407.128 82.5968 407.502C79.0818 410.136 74.2051 412.783 69.7423 412.77C68.2275 412.89 67.5333 413.144 66.5266 414.291C66.1383 414.804 65.7621 415.326 65.3968 415.855C64.9813 416.438 64.5613 417.017 64.1366 417.593C63.9529 417.859 63.7691 418.124 63.5798 418.397C62.9633 418.984 62.9633 418.984 62.0643 419.114C61.2251 418.984 61.2251 418.984 60.5299 418.289C60.5646 416.522 61.657 415.397 62.7243 414.095C62.8935 413.883 63.0627 413.67 63.237 413.451C63.9511 412.562 64.6505 411.732 65.481 410.948C66.2061 410.171 66.4192 409.546 66.7222 408.533C67.4573 406.343 68.6118 404.539 69.9161 402.645C69.6509 402.766 69.6509 402.766 69.3803 402.889C68.5675 403.259 67.7535 403.625 66.9394 403.992C66.6614 404.119 66.3833 404.246 66.0968 404.376C62.0495 406.194 62.0495 406.194 59.7259 406.121C57.3721 406.361 56.0574 408.229 54.62 409.945C53.8448 410.95 53.0782 411.96 52.3557 413.003C51.6817 413.939 51.2914 414.419 50.1727 414.768C49.9195 414.782 49.6663 414.797 49.4054 414.812C48.9043 413.81 48.9431 413.146 49.0578 412.031C49.5383 411.226 49.9891 410.573 50.5787 409.859C50.7335 409.663 50.8884 409.468 51.0479 409.267C52.3526 407.655 53.781 406.215 55.3044 404.807C56.0573 403.985 56.3181 403.331 56.7058 402.297C57.1072 401.726 57.5279 401.168 57.966 400.624C58.1856 400.35 58.4052 400.075 58.6314 399.792C58.799 399.586 58.9666 399.381 59.1393 399.169C58.0846 399.169 57.6772 399.305 56.7479 399.74C56.4866 399.861 56.2254 399.981 55.9561 400.105C55.6801 400.233 55.4041 400.362 55.1197 400.494C47.7501 403.831 47.7501 403.831 44.1908 402.645C43.5522 403.034 43.5522 403.034 42.9306 403.645C42.5656 403.978 42.5656 403.978 42.1933 404.318C41.1077 405.372 40.0658 406.465 39.0374 407.574C38.1804 408.291 37.654 408.5 36.5428 408.555C35.8475 407.86 35.8475 407.86 35.6832 407.076C35.9228 405.684 36.7869 404.982 37.7813 404.057C38.0665 403.783 38.0665 403.783 38.3575 403.504C38.9064 402.98 39.4611 402.464 40.0192 401.95C40.2813 401.707 40.5435 401.465 40.8136 401.215C42.3324 399.864 42.3324 399.864 43.1479 399.864C43.2263 399.562 43.3048 399.26 43.3856 398.949C43.9045 397.621 44.6303 396.744 45.6031 395.736C45.7761 395.554 45.949 395.371 46.1272 395.184C46.6361 394.653 47.1507 394.129 47.6672 393.606C47.9074 393.358 48.1476 393.109 48.3951 392.853C53.5683 387.875 61.1259 384.492 67.8303 382.134C66.8895 381.016 65.9468 379.913 64.9378 378.855C61.8937 375.652 59.3094 372.141 56.7058 368.576C56.3863 368.144 56.0668 367.712 55.7471 367.28C51.5291 361.529 47.9545 355.36 44.5385 349.109C44.3516 348.767 44.1646 348.426 43.972 348.074C41.3568 343.263 39.0534 338.363 36.938 333.316C36.8009 332.991 36.8009 332.991 36.661 332.659C36.413 332.069 36.1674 331.478 35.9219 330.887C35.5472 329.957 35.5472 329.957 34.8046 329.293C34.6401 329.568 34.4757 329.843 34.3062 330.126C33.683 331.166 33.0582 332.204 32.4324 333.242C32.1641 333.688 31.8965 334.134 31.6295 334.58C31.2411 335.229 30.8505 335.877 30.4591 336.524C30.3301 336.739 30.2011 336.954 30.0682 337.176C29.2425 338.529 28.331 339.743 27.3277 340.975C25.7882 343.042 25.7441 344.879 25.8094 347.392C25.813 348.164 25.814 348.936 25.8122 349.708C25.8223 350.212 25.8223 350.212 25.8327 350.726C25.766 351.542 25.766 351.542 25.0707 352.237C24.2016 352.346 24.2016 352.346 23.3325 352.237C22.4665 350.938 22.5655 350.24 22.5938 348.696C22.6001 348.254 22.6063 347.811 22.6128 347.356C22.6209 347.016 22.6289 346.677 22.6372 346.328C22.4177 346.453 22.1981 346.579 21.9718 346.708C19.2479 348.121 16.9816 348.265 13.9463 348.066C13.2828 350.199 12.9399 352.319 12.6365 354.529C12.2407 357.134 12.2407 357.134 11.1652 358.147C10.2743 358.278 10.2743 358.278 9.42698 358.147C8.7317 357.452 8.7317 357.452 8.63665 356.423C8.68818 354.677 9.1367 353.012 9.55734 351.325C9.63442 351.002 9.7115 350.68 9.79091 350.347C10.1569 348.845 10.5264 347.395 11.1652 345.98C10.9357 345.915 10.7063 345.851 10.4699 345.784C8.41701 344.801 6.8422 343.065 5.25532 341.461C4.38692 345.177 3.71164 348.719 3.64613 352.542C3.51712 353.628 3.51712 353.628 3.04184 354.295C2.23767 354.828 1.67901 354.792 0.736016 354.671C0.0407389 353.976 0.0407389 353.976 0 352.771C0.0224718 352.253 0.050977 351.734 0.0841937 351.216C0.101083 350.94 0.117971 350.664 0.135372 350.379C0.41469 346.61 1.00614 342.661 2.58285 339.201C3.71958 336.628 2.98956 334.042 2.05755 331.507C1.15887 328.852 0.979392 326.208 0.991313 323.426C0.990648 323.074 0.989983 322.723 0.989297 322.361C0.988827 321.621 0.99009 320.881 0.993011 320.141C0.996707 319.028 0.99305 317.915 0.988597 316.802C0.985703 312.686 1.15908 308.681 1.77893 304.611C1.82414 304.305 1.86934 303.999 1.91592 303.684C2.03548 302.939 2.17217 302.2 2.32212 301.461C2.4048 301.05 2.4048 301.05 2.48915 300.631C3.11581 297.682 3.9229 294.781 4.73386 291.879C4.80035 291.639 4.86685 291.4 4.93536 291.153C5.6331 288.653 6.37551 286.201 7.37985 283.805C7.83212 282.711 8.19266 281.598 8.55788 280.472C9.04664 278.977 9.54848 277.491 10.1005 276.018C10.6901 274.418 11.2041 272.8 11.7084 271.173C12.6283 268.22 13.6055 265.288 14.6038 262.361C14.7723 261.867 14.9401 261.372 15.1072 260.877C15.9672 258.331 16.8645 255.892 18.1179 253.508C18.4353 252.709 18.7392 251.905 19.0305 251.096C19.9518 248.577 20.9397 246.088 21.942 243.6C22.9203 241.168 23.8944 238.735 24.81 236.278C24.8909 236.061 24.9718 235.844 25.0552 235.62C25.4649 234.516 25.8687 233.41 26.2698 232.302C27.6276 228.581 29.1987 225 31.024 221.482C31.7936 219.966 32.3748 218.379 32.9713 216.789C33.2432 216.068 33.5222 215.351 33.8133 214.638C34.8946 211.967 35.7575 209.242 36.608 206.49C36.728 206.103 36.848 205.716 36.9717 205.317C37.1432 204.755 37.1432 204.755 37.3182 204.181C37.42 203.848 37.5218 203.514 37.6267 203.171C38.2792 200.802 38.7447 198.419 39.0716 195.985C39.1089 195.709 39.1462 195.433 39.1846 195.148C40.3118 186.595 40.5963 178.192 40.5202 169.574C40.5063 167.759 40.5036 165.944 40.4997 164.128C40.4908 160.707 40.4736 157.287 40.4527 153.866C40.4153 147.736 40.3909 141.606 40.3721 135.476C40.3652 133.336 40.354 131.197 40.3393 129.057C40.2856 120.87 40.3534 112.859 41.7271 104.764C42.1008 102.548 42.2888 100.332 42.4526 98.092C42.6828 94.9711 42.9562 91.8598 43.3 88.7492C43.3575 88.1969 43.3575 88.1969 43.4161 87.6335C43.6763 85.3501 44.1489 83.2546 44.8861 81.0794C45.0824 80.4751 45.0824 80.4751 45.2826 79.8586C46.5295 76.2892 48.0106 72.8315 49.8834 69.5421C51.9033 65.4761 50.3086 60.7233 48.9709 56.7012C47.5493 52.9355 45.5407 49.9854 42.9003 46.994C40.7639 44.5693 39.1567 42.4075 39.2316 39.0437C39.4406 37.4052 40.1755 36.3455 41.3934 35.3079C44.6835 32.9727 47.8716 32.5277 51.8389 32.41C52.1043 32.4005 52.3698 32.3911 52.6433 32.3813C56.2388 32.2673 59.7047 32.4231 63.2675 32.9315C68.2211 33.6283 72.105 34.1393 76.5212 31.3671C77.0793 31.0221 77.6375 30.6772 78.1956 30.3323C79.1374 29.748 80.0786 29.1628 81.0185 28.5755C88.2401 24.0781 94.5956 21.9724 103.017 20.7498C103.881 20.6074 104.712 20.4214 105.56 20.2073C107.414 19.7785 109.238 19.8059 111.133 19.8298ZM76.7412 50.4071C74.3448 53.4559 72.4918 56.8403 70.6114 60.2211C70.4809 60.452 70.3503 60.683 70.2159 60.9209C68.47 64.0137 67.049 67.1895 65.701 70.4737C65.1568 71.796 64.5729 73.094 63.9628 74.3874C62.2893 77.9734 60.8967 81.6547 59.5738 85.3814C59.4717 85.6665 59.3696 85.9515 59.2643 86.2452C58.6166 88.0978 58.1418 89.9331 57.7487 91.8562C56.771 91.9431 56.771 91.9431 55.6629 91.8562C54.3457 90.5389 54.3521 89.0299 54.142 87.2595C54.0248 86.2886 54.0248 86.2886 53.3985 85.8446C52.6376 84.9705 52.748 84.2762 52.7406 83.1326C52.733 82.7172 52.7253 82.3018 52.7175 81.8738C52.7112 80.9966 52.7048 80.1193 52.6985 79.2421C52.6909 78.8267 52.6832 78.4112 52.6754 77.9832C52.6729 77.6021 52.6705 77.221 52.6679 76.8283C52.5209 75.7691 52.3283 75.4572 51.4912 74.8219C51.1471 74.9366 50.8029 75.0513 50.4483 75.1695C49.9882 76.118 49.5983 77.0315 49.2316 78.0158C49.1237 78.3027 49.0158 78.5896 48.9046 78.8851C48.0119 81.3225 47.3747 83.7286 46.9719 86.294C46.916 86.6448 46.86 86.9956 46.8024 87.3571C46.1213 91.6971 45.5299 95.9869 45.3519 100.377C45.2104 102.757 44.7821 105.115 44.381 107.463C42.8332 117.026 43.0478 126.717 43.0794 136.371C43.0828 137.538 43.0848 138.704 43.0863 139.871C43.0978 148.651 43.1328 157.429 43.3217 166.207C43.3294 166.568 43.3371 166.929 43.345 167.301C43.398 169.764 43.4534 172.226 43.5154 174.688C43.7766 185.109 43.043 196.123 40.0844 206.186C39.9848 206.525 39.8852 206.865 39.7826 207.214C37.6241 214.253 34.6591 221.111 31.5461 227.774C29.2348 232.765 27.3254 237.944 25.4184 243.101C24.3459 245.997 23.1675 248.849 21.9881 251.703C20.0354 256.449 18.2868 261.244 16.6846 266.119C16.2324 267.494 15.7765 268.868 15.3205 270.242C15.1865 270.647 15.1865 270.647 15.0497 271.059C14.3393 273.197 13.607 275.326 12.8599 277.452C8.71794 289.064 8.71794 289.064 5.53777 300.961C5.48383 301.204 5.42989 301.447 5.37431 301.697C4.23503 307.201 4.09218 312.677 4.10266 318.281C4.10377 319.521 4.09554 320.761 4.08679 322.001C4.086 322.801 4.08576 323.602 4.08611 324.402C4.08291 324.767 4.0797 325.131 4.0764 325.507C4.09158 327.957 4.49916 330.093 5.25532 332.422C5.48476 332.422 5.7142 332.422 5.95059 332.422C6.14732 332.05 6.34405 331.677 6.54674 331.294C6.80427 330.808 7.06183 330.322 7.31942 329.837C7.44915 329.591 7.57889 329.345 7.71255 329.092C8.69232 327.247 8.69232 327.247 9.07934 326.86C9.65857 326.846 10.2383 326.845 10.8175 326.86C10.9979 328.753 10.477 329.494 9.42698 331.032C8.94989 331.877 8.52256 332.742 8.10161 333.617C7.9889 333.836 7.8762 334.055 7.76008 334.28C6.98664 335.892 6.86102 336.961 7.34115 338.68C7.91194 339.658 7.91194 339.658 8.66652 340.505C8.90537 340.793 9.14423 341.082 9.39032 341.379C10.0675 342.098 10.6631 342.696 11.5128 343.199C11.857 343.084 12.2011 342.969 12.5557 342.851C12.9189 342.001 12.9189 342.001 13.1655 340.953C13.2687 340.567 13.372 340.18 13.4785 339.782C13.5827 339.375 13.6868 338.968 13.7942 338.549C14.003 337.749 14.2134 336.95 14.4256 336.151C14.5173 335.795 14.609 335.438 14.7034 335.071C14.9892 334.16 14.9892 334.16 15.6845 333.117C16.5753 333.03 16.5753 333.03 17.4227 333.117C17.7703 333.465 17.7703 333.465 17.8572 334.617C17.7703 335.898 17.7703 335.898 17.2896 336.501C16.5116 337.591 16.2814 338.764 15.9887 340.048C15.93 340.293 15.8712 340.537 15.8108 340.789C15.5104 342.051 15.2335 343.316 14.9892 344.589C16.0768 345.133 16.9106 345.034 18.1179 344.937C19.9161 344.31 21.5249 343.373 22.6372 341.808C22.7494 340.687 22.7316 339.793 22.6372 338.68C22.5801 337.914 22.5261 337.149 22.4751 336.384C22.4386 335.847 22.3978 335.31 22.3526 334.774C22.3041 334.107 22.294 333.438 22.2896 332.77C22.519 332.54 22.7485 332.311 22.9849 332.074C23.7019 332.161 23.7019 332.161 24.3754 332.422C24.8678 333.407 24.8435 334.325 24.9186 335.42C24.9478 335.834 24.9769 336.247 25.0069 336.672C25.028 336.991 25.049 337.309 25.0707 337.637C25.4149 337.637 25.759 337.637 26.1136 337.637C26.7395 336.757 27.2883 335.894 27.8301 334.964C27.996 334.685 28.1619 334.406 28.3329 334.119C28.8723 333.208 29.4052 332.294 29.9377 331.379C30.1181 331.073 30.2985 330.766 30.4844 330.45C32.7053 326.675 34.8333 322.903 36.5428 318.864C36.7065 318.478 36.7065 318.478 36.8735 318.085C38.3697 314.521 39.6892 310.919 40.8869 307.245C41.5568 305.193 42.2728 303.168 43.0536 301.155C43.5608 299.839 44.0218 298.516 44.4529 297.172C44.5576 296.853 44.6622 296.533 44.77 296.204C44.9743 295.576 45.1728 294.947 45.3648 294.316C45.623 293.531 45.8685 292.814 46.2767 292.096C47.1987 291.704 47.1987 291.704 48.0149 291.748C48.3625 292.096 48.3625 292.096 48.4711 293.291C48.4472 294.803 48.0083 295.934 47.4119 297.309C46.8814 298.568 46.4241 299.845 45.9725 301.135C45.8842 301.385 45.7959 301.636 45.7049 301.895C45.2404 303.222 44.7881 304.553 44.3497 305.889C44.2612 306.158 44.1726 306.428 44.0814 306.706C43.9155 307.213 43.7512 307.721 43.5888 308.229C42.8693 310.436 41.9706 312.558 41.0621 314.693C40.3836 316.291 39.7108 317.892 39.0414 319.494C38.8669 319.903 38.6924 320.311 38.5125 320.732C38.3478 321.129 38.1831 321.526 38.0135 321.935C37.7897 322.465 37.7897 322.465 37.5615 323.007C36.8975 325.207 37.2571 326.87 38.1289 328.946C38.2226 329.17 38.3163 329.395 38.4129 329.626C40.1461 333.731 42.1084 337.732 44.1301 341.701C44.4161 342.263 44.701 342.826 44.9849 343.389C49.7838 352.885 55.2702 361.994 61.9204 370.315C62.1844 370.646 62.4483 370.977 62.7202 371.318C66.8952 376.513 66.8952 376.513 72.0019 380.744C72.8297 380.765 72.8297 380.765 73.7401 380.635C74.0767 380.598 74.4132 380.561 74.7599 380.522C75.2876 380.46 75.2876 380.46 75.8259 380.396C76.5282 380.321 77.2307 380.248 77.9335 380.179C78.2459 380.146 78.5582 380.113 78.88 380.078C79.65 380.049 79.65 380.049 80.3453 380.396C80.3601 380.975 80.3594 381.555 80.3453 382.134C79.7019 382.778 78.6041 382.652 77.738 382.743C66.1809 384.163 54.3196 390.518 46.6243 399.169C46.6243 399.398 46.6243 399.628 46.6243 399.864C49.5345 399.582 51.9587 398.583 54.62 397.43C54.9156 397.304 55.2112 397.178 55.5157 397.048C60.0884 395.085 64.6934 393.012 68.5934 389.861C69.573 389.195 70.507 389.369 71.6543 389.435C71.2145 391.764 69.5964 393.051 67.9606 394.628C67.5526 395.031 67.5526 395.031 67.1363 395.442C65.6377 396.912 64.1069 398.323 62.4991 399.673C61.6555 400.458 61.11 401.306 60.5299 402.297C60.6446 402.527 60.7593 402.756 60.8775 402.993C64.4704 401.723 68.02 400.431 71.3501 398.56C71.578 398.434 71.8058 398.307 72.0406 398.177C72.9717 397.634 73.6738 397.172 74.32 396.301C74.783 395.692 74.783 395.692 75.4932 395.556C76.1835 395.602 76.8738 395.647 77.5641 395.692C77.1029 397.36 76.3667 398.574 75.3262 399.929C73.8312 401.945 72.5191 404.036 71.2632 406.208C71.0945 406.498 70.9258 406.788 70.752 407.087C69.8887 408.435 69.8887 408.435 69.5685 409.945C77.2299 408.647 83.717 403.298 88.9765 397.853C90.4473 396.353 92.0583 395.018 93.6859 393.693C94.6459 392.942 94.6459 392.942 95.2937 391.868C96.0338 391.678 96.0338 391.678 96.8798 391.608C97.1599 391.581 97.44 391.554 97.7285 391.526C97.9575 391.524 98.1865 391.522 98.4225 391.521C98.5372 391.635 98.6519 391.75 98.7701 391.868C101.786 392.343 104.873 392.278 107.917 392.286C108.432 392.289 108.947 392.291 109.461 392.294C111.112 392.301 112.763 392.302 114.414 392.303C114.696 392.303 114.978 392.303 115.269 392.303C123.435 392.308 131.532 392.142 139.671 391.419C143.756 391.06 147.849 390.802 151.941 390.526C154.097 390.381 156.253 390.233 158.409 390.084C158.779 390.059 159.15 390.033 159.531 390.007C161.389 389.879 163.245 389.743 165.102 389.595C166.696 389.471 168.279 389.383 169.877 389.349C170.314 389.338 170.751 389.326 171.202 389.315C172.105 389.293 173.009 389.273 173.912 389.255C174.561 389.237 174.561 389.237 175.222 389.219C175.807 389.206 175.807 389.206 176.404 389.192C177.389 389.179 177.389 389.179 178.032 388.392C179.057 388.456 179.605 388.591 180.374 389.284C180.555 389.513 180.735 389.742 180.921 389.978C183.175 392.702 185.681 394.91 188.461 397.083C188.857 397.401 189.252 397.72 189.646 398.039C192.103 400.025 194.593 401.954 197.131 403.835C198.822 405.095 200.458 406.41 202.084 407.751C206.228 411.154 210.719 414.009 215.229 416.898C215.344 416.669 215.458 416.439 215.577 416.203C212.783 411.956 209.63 408.131 206.06 404.514C205.895 404.345 205.73 404.177 205.559 404.003C203.713 402.073 203.713 402.073 201.323 401.254C201.323 400.451 201.323 399.648 201.323 398.821C203.101 398.683 204.314 399.136 205.865 399.929C207.502 400.732 209.126 401.472 210.84 402.102C214.062 403.303 217.173 404.804 220.228 406.379C221.075 406.867 221.075 406.867 221.834 406.817C221.083 405.165 219.924 403.969 218.705 402.645C218.523 402.443 218.34 402.242 218.151 402.034C214.688 398.384 210.322 395.805 205.843 393.606C205.495 393.259 205.495 393.259 205.452 392.39C205.495 391.521 205.495 391.521 205.843 391.173C207.744 391.254 209.039 391.869 210.706 392.75C212.617 393.679 214.627 394.372 216.625 395.091C217.105 395.267 217.581 395.45 218.056 395.639C219.29 396.126 220.142 396.388 221.487 396.388C220.612 393.183 216.996 391.037 214.534 389.087C214.239 388.844 213.945 388.601 213.642 388.351C210.462 385.824 206.916 383.942 203.367 381.991C202.431 381.475 201.499 380.952 200.568 380.426C200.023 380.119 199.478 379.812 198.933 379.505C198.692 379.369 198.451 379.232 198.203 379.091C196.744 378.277 195.263 377.574 193.731 376.908C192.639 376.419 191.598 375.862 190.547 375.29C190.159 375.081 189.772 374.872 189.373 374.656C188.461 374.139 188.461 374.139 188.113 373.791C188.099 373.212 188.098 372.632 188.113 372.053C190.183 371.82 191.462 372.603 193.197 373.596C193.715 373.886 194.234 374.175 194.754 374.463C194.981 374.593 195.208 374.722 195.442 374.855C196.15 375.202 196.713 375.444 197.499 375.529C199.765 373.634 201.49 371.178 203.281 368.845C203.708 368.292 204.143 367.747 204.58 367.202C210.388 359.888 214.954 352.052 218.553 343.46C218.692 343.13 218.692 343.13 218.834 342.794C219.099 342.161 219.359 341.525 219.619 340.89C219.77 340.523 219.921 340.155 220.076 339.776C220.749 337.767 220.995 336.305 220.126 334.342C219.977 333.997 219.828 333.651 219.674 333.296C219.512 332.936 219.35 332.576 219.183 332.205C218.857 331.453 218.53 330.7 218.204 329.948C217.97 329.412 217.97 329.412 217.73 328.866C217.259 327.773 216.834 326.674 216.424 325.556C215.111 322.07 213.497 318.698 211.933 315.319C211.043 313.39 210.227 311.44 209.448 309.464C208.986 308.292 208.515 307.125 208.024 305.965C206.73 302.902 205.596 299.822 204.577 296.657C204.258 295.666 203.906 294.695 203.53 293.724C203.076 292.482 202.906 291.664 203.062 290.358C203.757 289.663 203.757 289.663 204.669 289.619C204.942 289.633 205.214 289.648 205.495 289.663C205.679 290.556 205.848 291.442 205.971 292.346C206.22 293.639 206.64 294.821 207.115 296.044C207.208 296.285 207.3 296.527 207.395 296.776C207.694 297.556 207.996 298.335 208.298 299.114C208.505 299.651 208.711 300.187 208.918 300.724C210.278 304.247 211.691 307.743 213.194 311.208C213.531 312.007 213.846 312.813 214.162 313.62C214.846 315.341 215.646 316.988 216.467 318.647C218.143 322.084 219.549 325.607 220.907 329.178C221.058 329.575 221.21 329.971 221.366 330.38C221.498 330.732 221.631 331.084 221.768 331.447C222.179 332.416 222.679 333.262 223.225 334.16C223.461 334.701 223.684 335.248 223.894 335.799C225.5 339.917 227.352 343.942 229.417 347.849C229.542 348.086 229.668 348.323 229.797 348.568C230.547 349.962 231.343 351.295 232.263 352.585C232.378 352.585 232.493 352.585 232.611 352.585C232.611 350.52 232.611 348.455 232.611 346.328C233.185 346.328 233.758 346.328 234.349 346.328C234.784 348.043 235.089 349.657 235.179 351.425C235.197 351.765 235.215 352.105 235.234 352.455C235.267 353.152 235.293 353.851 235.313 354.549C235.423 356.377 235.595 357.528 236.898 358.872C238.258 360.077 239.384 360.678 241.215 360.624C241.632 360.615 241.632 360.615 242.057 360.605C242.267 360.597 242.476 360.589 242.692 360.581C243.352 358.769 242.6 357.459 241.867 355.801C241.752 355.53 241.637 355.259 241.519 354.979C241.034 353.69 241.034 353.69 240.259 352.585C240.245 351.89 240.244 351.194 240.259 350.499C240.833 350.385 241.406 350.27 241.997 350.152C242.382 350.97 242.765 351.788 243.149 352.607C243.256 352.835 243.363 353.063 243.474 353.299C244.171 354.787 244.834 356.286 245.474 357.8C245.703 357.8 245.932 357.8 246.169 357.8C246.531 356.868 246.884 355.934 247.233 354.997C247.387 354.605 247.387 354.605 247.544 354.204C248.175 352.489 248.422 351.271 247.907 349.456C247.264 348.292 247.264 348.292 246.43 347.197C246.289 347 246.148 346.804 246.003 346.602C245.41 345.779 244.803 344.969 244.185 344.166C243.481 343.241 243.056 342.656 242.931 341.482C242.985 341.127 242.985 341.127 243.04 340.765C243.614 340.651 244.187 340.536 244.778 340.418C244.963 340.678 245.148 340.938 245.338 341.205C245.706 341.719 245.706 341.719 246.082 342.243C246.324 342.582 246.566 342.92 246.815 343.269C247.479 344.137 248.171 344.871 248.95 345.632C250.132 339.179 250.565 332.907 250.522 326.361C250.514 325.146 250.519 323.93 250.527 322.715C250.571 314.798 249.741 307.274 247.603 299.635C247.356 298.724 247.113 297.811 246.871 296.898C246.811 296.672 246.751 296.446 246.689 296.213C246.065 293.837 245.558 291.438 245.061 289.032C244.351 285.625 243.562 282.272 242.567 278.937C242.334 278.154 242.108 277.368 241.883 276.583C239.661 268.907 236.967 261.475 233.654 254.203C233.508 253.882 233.362 253.561 233.212 253.23C232.917 252.582 232.622 251.934 232.327 251.285C231.854 250.243 231.385 249.2 230.916 248.156C229.614 245.254 228.304 242.357 226.988 239.461C226.544 238.485 226.102 237.509 225.661 236.531C224.519 234.008 223.358 231.496 222.159 229C216.929 218.058 213.213 206.695 211.057 194.757C210.973 194.313 210.889 193.869 210.803 193.411C208.585 181.404 208.671 169.123 208.556 156.952C208.551 156.421 208.546 155.89 208.541 155.36C208.538 155.096 208.535 154.832 208.533 154.56C208.522 153.489 208.512 152.417 208.501 151.346C208.496 150.81 208.491 150.275 208.486 149.739C208.399 140.58 207.951 131.51 207.123 122.383C206.908 120.005 206.748 117.628 206.624 115.244C206.559 114.125 206.559 114.125 206.359 113.111C206.138 111.679 206.13 110.274 206.117 108.827C206.108 108.193 206.099 107.559 206.089 106.926C206.085 106.597 206.08 106.268 206.075 105.929C205.994 100.48 205.784 95.1821 204.905 89.7963C204.761 88.8119 204.713 87.8306 204.669 86.8372C204.338 81.8693 203.268 76.4889 200.976 72.0408C200.746 72.0408 200.517 72.0408 200.281 72.0408C200.281 73.5322 200.281 75.0235 200.281 76.5601C199.885 76.7241 199.489 76.8881 199.081 77.0571C198.271 77.5203 197.914 77.7416 197.625 78.6408C197.554 79.4754 197.544 80.2855 197.565 81.1229C197.565 82.1553 197.543 83.1757 197.499 84.2081C196.804 84.9034 196.804 84.9034 196 84.9469C193.929 84.0797 192.991 81.1572 192.028 79.235C190.248 75.6938 188.241 72.4801 185.877 69.3048C185.306 68.5289 184.751 67.7432 184.198 66.9539C181.98 63.7985 179.682 60.8987 176.989 58.1353C176.741 57.8623 176.494 57.5894 176.239 57.3083C172.162 52.9341 166.482 49.5541 160.411 49.2922C153.694 49.3532 147.942 53.2903 143.268 57.7876C142.247 58.8897 141.35 60.0359 140.487 61.264C140.285 61.5436 140.083 61.8233 139.876 62.1114C136.944 66.4231 134.998 71.4227 133.738 76.4635C133.594 77.0232 133.433 77.5786 133.26 78.1301C132.217 81.8221 132.334 85.5578 132.355 89.3659C132.361 90.5451 132.355 91.7239 132.348 92.9032C132.342 99.1054 133.178 104.57 134.881 110.542C134.994 110.965 135.108 111.388 135.225 111.824C135.838 113.993 136.265 115.479 138.053 116.886C139.484 118.593 140.096 120.112 139.952 122.359C139.677 123.705 139.19 124.117 138.053 124.882C135.764 126.035 133.654 126.775 131.1 126.968C130.433 127.635 130.486 128.856 130.34 129.749C129.799 132.716 128.595 135.082 126.234 137.049C125.075 137.822 124.134 137.91 122.757 137.744C121.09 136.878 120.169 135.917 119.281 134.268C118.673 132.316 118.417 130.391 118.238 128.358C117.734 128.307 117.734 128.307 117.219 128.255C110.632 127.498 110.632 127.498 108.287 125.186C107.324 123.912 107.197 122.778 107.305 121.207C107.564 119.806 107.964 119.067 108.852 117.929C109.26 117.735 109.669 117.542 110.09 117.342C110.965 116.895 111.237 116.648 111.637 115.735C111.924 114.617 112.134 113.504 112.328 112.367C112.416 111.92 112.505 111.472 112.596 111.012C113.73 105.165 114.175 99.3404 114.146 93.3921C114.146 92.7963 114.146 92.2005 114.146 91.6047C114.145 90.367 114.142 89.1293 114.138 87.8915C114.132 86.3291 114.131 84.7667 114.131 83.2043C114.131 76.927 114.117 70.66 113.719 64.3927C113.695 63.9865 113.672 63.5803 113.647 63.1618C113.165 55.4267 112.05 46.9702 106.148 41.3413C104.855 40.3577 103.437 39.8462 101.899 39.3628C101.555 39.2481 101.211 39.1333 100.856 39.0151C91.5067 37.9551 82.5328 43.6311 76.7412 50.4071Z" fill="black"/>
<path d="M169.929 56.8793C170.195 57.0643 170.461 57.2494 170.735 57.4401C171.069 57.6646 171.402 57.8891 171.746 58.1204C175.685 60.9883 177.995 65.151 180.469 69.2598C180.624 69.5147 180.78 69.7696 180.941 70.0322C182.556 72.6843 183.893 75.3902 184.988 78.2984C185.134 78.6807 185.28 79.0629 185.431 79.4568C190.204 92.3444 190.414 105.22 187.486 118.564C187.339 119.235 187.198 119.907 187.057 120.579C185.998 125.158 183.459 128.697 179.491 131.226C177.8 132.194 176.097 132.765 174.211 133.225C173.997 133.29 173.783 133.354 173.562 133.421C170.877 133.972 167.746 133.809 165.172 132.878C164.775 132.741 164.378 132.605 163.968 132.465C161.05 131.415 158.776 130.145 156.482 128.011C156.27 127.83 156.058 127.65 155.839 127.463C149.35 121.595 146.288 111.522 144.314 103.328C144.175 102.778 144.036 102.227 143.896 101.677C143.599 100.49 143.326 99.2988 143.07 98.1018C142.972 97.6442 142.871 97.1874 142.766 96.7312C140.182 85.3487 141.765 71.4877 147.461 61.2709C150.085 57.2052 153.442 55.6639 157.987 54.5775C162.071 53.7251 166.377 54.6615 169.929 56.8793Z" fill="#FDFAFA"/>
<path d="M95.4685 57.0826C95.7548 57.3152 96.0412 57.5478 96.3362 57.7874C96.5141 57.9254 96.6919 58.0633 96.8752 58.2055C103.114 63.0534 106.493 68.8536 107.624 76.7093C107.91 79.1999 107.899 81.7042 107.895 84.2079C107.895 84.4437 107.895 84.6795 107.894 84.9224C107.881 88.9292 107.881 88.9292 107.461 89.7701C107.35 90.4284 107.252 91.0889 107.161 91.7501C105.844 100.588 103.855 110.138 99.4691 117.993C99.115 118.628 98.7735 119.269 98.4329 119.911C96.2194 124.017 93.7464 127.302 89.7311 129.749C89.3359 130.017 89.3359 130.017 88.9326 130.292C85.6575 132.033 81.8461 131.617 78.259 131.487C77.6991 131.469 77.6991 131.469 77.1278 131.451C73.4443 131.067 70.2359 128.226 67.8733 125.533C62.9464 119.007 62.4304 112.221 62.2926 104.275C62.2683 103.013 62.2286 101.753 62.1875 100.493C62.0029 93.1246 63.1199 86.2374 65.744 79.341C65.8767 78.9475 66.0093 78.5541 66.146 78.1487C69.256 69.4823 75.2897 61.0295 83.6366 56.7974C87.2105 55.1704 92.1581 54.71 95.4685 57.0826Z" fill="#FDFAFA"/>
<path d="M169.929 56.8793C170.195 57.0643 170.461 57.2494 170.735 57.4401C171.069 57.6646 171.402 57.8891 171.746 58.1204C175.685 60.9883 177.995 65.151 180.469 69.2598C180.624 69.5147 180.78 69.7696 180.941 70.0322C182.556 72.6843 183.893 75.3902 184.988 78.2984C185.134 78.6807 185.28 79.0629 185.431 79.4568C190.204 92.3444 190.414 105.22 187.486 118.564C187.339 119.235 187.198 119.907 187.057 120.579C185.998 125.158 183.459 128.697 179.491 131.226C177.8 132.194 176.097 132.765 174.211 133.225C173.997 133.29 173.783 133.354 173.562 133.421C170.877 133.972 167.746 133.809 165.172 132.878C164.775 132.741 164.378 132.605 163.968 132.465C161.05 131.415 158.776 130.145 156.482 128.011C156.27 127.83 156.058 127.65 155.839 127.463C149.35 121.595 146.288 111.522 144.314 103.328C144.175 102.778 144.036 102.227 143.896 101.677C143.599 100.49 143.326 99.2988 143.07 98.1018C142.972 97.6442 142.871 97.1874 142.766 96.7312C140.182 85.3487 141.765 71.4877 147.461 61.2709C150.085 57.2052 153.442 55.6639 157.987 54.5775C162.071 53.7251 166.377 54.6615 169.929 56.8793ZM151.475 60.8934C145.014 69.2497 143.995 82.0514 145.009 92.204C145.617 96.4318 146.723 100.589 147.791 104.719C147.914 105.213 148.036 105.708 148.159 106.203C149.212 110.377 150.989 114.151 153.005 117.929C153.123 118.152 153.241 118.375 153.363 118.604C156.387 124.258 160.002 127.882 166.128 130.031C169.915 131.073 173.835 130.708 177.287 128.876C181.248 126.504 183.115 123.734 184.293 119.32C184.541 118.28 184.767 117.237 184.988 116.191C185.053 115.89 185.117 115.588 185.184 115.278C187.458 104.369 186.774 93.0519 183.25 82.4701C183.174 82.2372 183.098 82.0043 183.019 81.7643C180.391 73.856 175.466 63.5214 167.997 59.31C167.067 58.864 166.143 58.4841 165.172 58.1354C164.764 57.9848 164.355 57.8342 163.934 57.6791C159.795 56.8514 154.537 57.777 151.475 60.8934Z" fill="black"/>
<path d="M95.4685 57.0826C95.7548 57.3152 96.0412 57.5478 96.3362 57.7874C96.5141 57.9254 96.6919 58.0633 96.8752 58.2055C103.114 63.0534 106.493 68.8536 107.624 76.7093C107.91 79.1999 107.899 81.7042 107.895 84.2079C107.895 84.4437 107.895 84.6795 107.894 84.9224C107.881 88.9292 107.881 88.9292 107.461 89.7701C107.35 90.4284 107.252 91.0889 107.161 91.7501C105.844 100.588 103.855 110.138 99.4691 117.993C99.115 118.628 98.7735 119.269 98.4329 119.911C96.2194 124.017 93.7464 127.302 89.7311 129.749C89.3359 130.017 89.3359 130.017 88.9326 130.292C85.6575 132.033 81.8461 131.617 78.259 131.487C77.6991 131.469 77.6991 131.469 77.1278 131.451C73.4443 131.067 70.2359 128.226 67.8733 125.533C62.9464 119.007 62.4304 112.221 62.2926 104.275C62.2683 103.013 62.2286 101.753 62.1875 100.493C62.0029 93.1246 63.1199 86.2374 65.744 79.341C65.8767 78.9475 66.0093 78.5541 66.146 78.1487C69.256 69.4823 75.2897 61.0295 83.6366 56.7974C87.2105 55.1704 92.1581 54.71 95.4685 57.0826ZM75.8256 66.826C74.8242 68.2921 73.9318 69.8084 73.0444 71.3453C72.6896 71.903 72.3347 72.4606 71.9798 73.0183C68.5927 78.737 66.5546 85.2834 65.744 91.856C65.6853 92.108 65.6266 92.3601 65.5661 92.6197C65.3564 93.8238 65.3513 94.9709 65.3502 96.1933C65.3497 96.4432 65.3492 96.6931 65.3487 96.9506C65.3479 97.7583 65.3501 98.5659 65.3529 99.3737C65.3536 99.6483 65.3543 99.9229 65.3549 100.206C65.2386 113.58 65.2386 113.58 71.6471 124.939C75.2267 128.193 78.4484 128.471 83.202 128.41C86.6023 128.228 89.3306 126.831 91.6648 124.36C96.5609 118.575 99.5483 111.376 101.29 104.073C101.583 102.847 101.888 101.625 102.193 100.403C103.593 94.7463 104.814 89.4535 104.788 83.5996C104.788 83.3706 104.787 83.1417 104.787 82.9058C104.772 79.3888 104.576 76.1303 103.637 72.7359C103.544 72.3652 103.451 71.9946 103.356 71.6128C102.184 67.5051 99.4662 64.4197 96.3362 61.6114C95.908 61.2094 95.908 61.2094 95.4712 60.7994C93.2466 58.9208 91.4879 58.453 88.585 58.6293C83.5109 59.4215 79.0534 62.9466 75.8256 66.826Z" fill="black"/>
<path d="M82.0868 77.2551C83.9104 78.2721 84.6852 79.568 85.3228 81.5395C86.758 89.1694 84.9527 97.5666 80.6962 104.023C79.3554 105.605 78.368 106.698 76.2639 106.978C75.3391 106.968 74.9155 106.904 74.1767 106.335C71.6856 103.5 70.8004 100.293 70.8755 96.583C71.3032 90.4276 72.5502 83.5375 76.9306 78.8887C78.6445 77.4167 79.8403 76.8132 82.0868 77.2551Z" fill="black"/>
<path d="M171.774 75.5177C175.158 77.8171 176.728 80.4087 177.496 84.3445C178.26 89.8443 178.791 97.7265 175.356 102.462C174.469 103.477 173.803 103.954 172.445 104.103C171.198 104.082 170.348 103.912 169.342 103.152C167.747 101.458 166.886 99.6226 166.212 97.419C166.082 97.013 165.953 96.607 165.819 96.1887C164.338 91.0958 163.667 84.4221 165.77 79.4287C166.669 77.8359 167.58 76.6156 169.188 75.7133C170.131 75.4958 170.809 75.413 171.774 75.5177Z" fill="black"/>
<path d="M190.548 184.327C191.79 185.34 192.235 186.015 192.438 187.607C192.375 191.113 189.385 194.45 187.071 196.842C185.741 197.984 184.356 198.995 182.9 199.97C182.627 200.162 182.354 200.353 182.073 200.55C180.373 201.636 178.851 202.023 176.827 201.92C175.544 201.612 174.94 201.061 174.197 199.991C173.51 198.527 173.61 197.308 174.069 195.822C174.876 193.956 176.204 192.558 177.582 191.089C178.291 190.332 178.956 189.556 179.619 188.759C182.525 185.437 186.043 183.579 190.548 184.327Z" fill="black"/>
<path d="M198.893 125.576C199.237 125.748 199.237 125.748 199.588 125.924C199.46 127.931 198.894 129.056 197.568 130.508C197.397 130.702 197.226 130.895 197.05 131.094C196.512 131.695 195.967 132.287 195.417 132.877C195.248 133.059 195.08 133.24 194.906 133.428C188.297 140.488 180.082 145.476 170.198 146.174C168.21 146.212 168.21 146.212 167.258 146.087C167.028 145.857 166.799 145.628 166.562 145.392C166.756 143.808 166.756 143.808 167.258 143.306C167.778 143.258 168.3 143.225 168.822 143.197C179.473 142.263 187.217 136.779 194.243 129.053C194.506 128.766 194.768 128.479 195.039 128.184C195.786 127.334 195.786 127.334 196.337 126.358C197.09 125.106 197.591 125.169 198.893 125.576Z" fill="black"/>
<path d="M53.5769 126.621C54.4297 126.655 54.4297 126.655 55.3151 126.969C55.8311 127.641 55.8311 127.641 56.2711 128.511C57.4329 130.593 58.8832 132.21 60.5296 133.922C60.82 134.234 61.1104 134.546 61.4096 134.868C67.0464 140.762 74.773 145.326 83.0881 145.646C83.8214 145.741 83.8214 145.741 84.5167 146.436C84.6253 147.306 84.6253 147.306 84.5167 148.175C82.74 149.359 80.7513 148.986 78.7141 148.597C76.8719 148.213 75.1736 147.606 73.4357 146.893C73.1328 146.769 72.8299 146.646 72.5178 146.519C65.0304 143.399 56.2541 136.731 52.8816 129.055C52.7947 128.142 52.7947 128.142 52.8816 127.316C53.111 127.087 53.3405 126.857 53.5769 126.621Z" fill="black"/>
<path d="M163.084 4.94727C164.23 5.06189 164.691 5.16373 165.518 5.99018C166.758 10.2939 166.597 14.8683 166.626 19.3091C166.63 19.7303 166.635 20.1515 166.639 20.5854C166.64 20.9803 166.64 21.3751 166.641 21.7819C166.642 22.1383 166.644 22.4947 166.645 22.8619C166.561 23.7198 166.561 23.7198 165.865 24.415C164.779 24.4585 164.779 24.4585 163.779 24.415C163.51 23.7349 163.242 23.0539 162.976 22.3727C162.826 21.9935 162.677 21.6144 162.523 21.2238C162.147 20.2335 161.853 19.2363 161.569 18.2159C161.02 16.3541 160.205 14.7099 159.282 13.0081C159.132 12.7234 158.983 12.4386 158.829 12.1452C158.188 10.9434 157.568 9.87106 156.713 8.80524C156.131 8.07601 156.131 8.07601 156.197 7.12001C156.479 6.33782 156.479 6.33782 156.827 5.99018C157.643 5.87611 157.643 5.87611 158.565 5.99018C160.645 8.02079 161.866 11.0412 163.084 13.6382C163.035 12.9066 162.984 12.1752 162.932 11.4438C162.904 11.0364 162.876 10.6291 162.847 10.2094C162.776 9.10992 162.776 9.10992 162.389 8.07601C162.324 6.83755 162.324 6.83755 162.389 5.64254C162.618 5.4131 162.848 5.18366 163.084 4.94727Z" fill="black"/>
<path d="M58.1845 146.24C59.7593 146.476 60.1759 146.851 61.1028 148.091C62.8291 150.942 63.415 153.903 62.9645 157.213C62.4557 158.538 61.7166 159.203 60.5311 159.994C59.2173 160.165 58.6318 160.115 57.5109 159.385C54.8488 156.795 54.8895 154.033 54.8086 150.463C55.0665 148.457 56.1103 146.599 58.1845 146.24Z" fill="black"/>
<path d="M95.2309 0.0149376C95.5558 0.0100082 95.8807 0.00507878 96.2154 0C97.0343 0.0801198 97.0343 0.0801198 97.7296 0.775397C97.8165 1.64449 97.8165 1.64449 97.7296 2.51359C96.8419 3.4012 96.2058 3.31612 94.9957 3.39304C88.8142 3.79121 81.781 5.92156 76.7789 9.71623C75.9705 10.3134 75.4181 10.2676 74.4378 10.1616C74.0901 9.814 74.0901 9.814 73.9883 8.82133C74.0901 7.72817 74.0901 7.72817 74.5939 7.10215C80.351 3.21389 88.2263 0.0639207 95.2309 0.0149376Z" fill="black"/>
<path d="M134.056 154.389C134.477 154.387 134.898 154.386 135.332 154.384C135.921 154.385 135.921 154.385 136.522 154.386C137.053 154.387 137.053 154.387 137.594 154.387C138.402 154.432 138.402 154.432 138.749 154.78C138.814 155.627 138.814 155.627 138.749 156.518C137.818 157.449 137.267 157.347 135.964 157.433C135.324 157.477 135.324 157.477 134.672 157.522C134.218 157.549 133.763 157.577 133.296 157.605C132.838 157.634 132.381 157.663 131.909 157.692C124.762 158.125 124.762 158.125 122.758 157.909C122.528 157.679 122.299 157.45 122.062 157.213C122.177 156.067 122.279 155.606 123.105 154.78C126.704 154.277 130.431 154.399 134.056 154.389Z" fill="black"/>
</svg>
