<svg width="840" height="541" viewBox="0 0 840 541" fill="none" xmlns="http://www.w3.org/2000/svg">
<g filter="url(#filter0_d_722_8017)">
<ellipse cx="419.609" cy="267.103" rx="416" ry="193.111" fill="white"/>
<path d="M419.609 74.4434C534.434 74.4434 638.367 96.0491 713.576 130.962C788.823 165.892 835.158 214.057 835.158 267.103C835.158 320.148 788.823 368.313 713.576 403.243C638.367 438.156 534.434 459.763 419.609 459.763C304.785 459.763 200.852 438.156 125.643 403.243C50.3961 368.313 4.06055 320.148 4.06055 267.103C4.06071 214.057 50.3961 165.892 125.643 130.962C200.852 96.0491 304.785 74.4434 419.609 74.4434Z" stroke="black" stroke-width="0.902386"/>
</g>
<path d="M59.0215 105.625H81.2202V174.94C88.3681 174.94 93.3515 173.279 96.1704 169.956C99.09 166.533 103.318 156.869 108.855 140.962C113.184 128.176 116.708 119.77 119.426 115.743C122.245 111.616 125.366 108.897 128.789 107.589C132.313 106.28 138.403 105.625 147.061 105.625H150.384V128.126L143.739 127.975C139.007 127.975 135.635 128.831 133.621 130.542C131.608 132.254 129.896 135.475 128.487 140.207C123.453 156.416 119.477 166.836 116.557 171.467C113.637 176.098 109.006 180.175 102.664 183.699C112.228 186.819 121.641 197.692 130.903 216.317L155.367 266H130.903L107.043 216.317C102.211 206.25 97.9322 199.655 94.2072 196.535C90.583 193.414 86.2539 191.853 81.2202 191.853V266H59.0215V105.625ZM145.273 105.625H167.472V227.945L229.387 105.625H253.398V266H231.199V144.435L169.284 266H145.273V105.625ZM262.03 327.462V105.625H282.416V126.465C287.45 117.807 293.038 111.565 299.179 107.74C305.32 103.914 312.367 102.001 320.32 102.001C330.69 102.001 340.053 105.072 348.409 111.213C356.765 117.354 363.459 126.717 368.493 139.301C373.628 151.785 376.195 166.836 376.195 184.454C376.195 211.736 370.456 232.777 358.979 247.577C347.603 262.275 334.213 269.624 318.81 269.624C311.964 269.624 305.572 267.862 299.632 264.339C293.692 260.815 288.558 255.832 284.229 249.389V327.462H262.03ZM282.114 186.719C282.114 207.458 285.588 222.76 292.534 232.626C299.481 242.392 307.887 247.275 317.753 247.275C327.217 247.275 335.522 242.19 342.67 232.022C349.818 221.854 353.392 206.149 353.392 184.907C353.392 163.966 349.919 148.462 342.972 138.395C336.026 128.327 327.569 123.294 317.602 123.294C308.642 123.294 300.487 128.73 293.138 139.603C285.789 150.375 282.114 166.08 282.114 186.719ZM561.456 327.764L559.04 302.243C563.973 303.854 568.201 304.659 571.725 304.659C576.457 304.659 580.333 303.703 583.353 301.79C586.474 299.877 589.041 296.907 591.055 292.88C591.759 291.471 594.679 282.611 599.813 266.302L549.828 105.625H573.839L601.323 198.498C604.746 210.075 607.918 222.458 610.837 235.647C613.354 223.163 616.374 210.981 619.898 199.102L647.986 105.625H670.336L620.351 268.718C613.807 289.86 608.622 303.954 604.797 311.002C601.072 318.149 596.793 323.284 591.961 326.405C587.229 329.526 581.843 331.086 575.802 331.086C571.574 331.086 566.792 329.979 561.456 327.764ZM682.29 105.625H773.803V243.65H787.998V311.455H769.726V266H666.283V311.455H647.859V243.65H659.638C675.041 218.079 682.592 172.071 682.29 105.625ZM700.713 128.126C699.103 180.276 692.508 218.784 680.931 243.65H751.604V128.126H700.713Z" fill="#FD229E"/>
<path d="M452.235 127.219C452.624 127.222 453.013 127.224 453.414 127.228C454.694 127.241 455.974 127.261 457.254 127.284C457.919 127.294 457.919 127.294 458.597 127.304C474.956 127.58 490.864 130.238 506.032 136.583C515.47 141.033 515.47 141.033 525.391 140.559C525.665 140.433 525.94 140.307 526.223 140.178C530.373 138.442 535.66 137.941 539.939 139.458C541.894 140.349 543.184 141.33 544.163 143.275C544.803 146.386 543.805 149.061 542.162 151.692C540.649 153.869 538.721 156.058 536.515 157.528C536.987 159.129 537.649 160.428 538.514 161.852C541.024 166.113 542.881 170.934 543.772 175.801C544.037 177.104 544.543 178.146 545.163 179.321C548.66 186.069 548.903 194.233 549.607 201.658C549.711 202.71 549.711 202.71 549.908 203.692C550.128 205.181 550.141 206.648 550.159 208.152C550.17 208.817 550.181 209.481 550.192 210.146C550.197 210.491 550.202 210.837 550.208 211.192C550.295 216.609 550.428 221.985 551.005 227.374C551.223 229.488 551.406 231.605 551.59 233.722C551.656 234.469 551.724 235.216 551.793 235.962C552.464 243.439 552.564 250.939 552.661 258.44C552.693 260.902 552.731 263.363 552.769 265.824C552.772 266.064 552.776 266.304 552.78 266.551C552.962 278.479 553.178 290.374 555.288 302.146C555.337 302.421 555.386 302.695 555.436 302.978C555.882 305.437 556.427 307.852 557.114 310.254C557.479 311.562 557.784 312.882 558.089 314.205C558.473 315.555 558.953 316.856 559.44 318.172C559.783 319.113 560.104 320.058 560.417 321.009C561.938 325.601 563.783 329.948 565.848 334.318C566.939 336.643 568 338.982 569.063 341.32C569.175 341.567 569.287 341.813 569.403 342.067C570.889 345.332 572.34 348.609 573.737 351.913C574.449 353.592 575.19 355.251 575.972 356.899C577.372 359.864 578.664 362.872 579.933 365.895C580.289 366.738 580.65 367.577 581.013 368.416C584.647 376.991 587.03 386.231 589.096 395.291C589.748 398.132 590.414 400.968 591.138 403.792C591.199 404.032 591.261 404.272 591.324 404.519C591.385 404.757 591.447 404.996 591.51 405.242C593.888 414.522 594.636 423.257 594.635 432.824C594.636 434.164 594.642 435.504 594.649 436.844C594.65 437.708 594.651 438.572 594.651 439.436C594.653 439.83 594.656 440.225 594.658 440.631C594.651 443.208 594.353 445.626 593.876 448.154C593.617 449.89 593.42 451.63 593.25 453.376C593.189 453.981 593.115 454.583 593.039 455.186C592.808 458.248 594.129 460.296 595.623 462.849C596.647 464.668 597.549 466.545 597.352 468.665C597.122 468.894 596.893 469.124 596.657 469.36C595.809 469.338 595.809 469.338 594.918 469.012C594.036 467.724 593.412 466.324 592.767 464.906C592.583 464.502 592.399 464.098 592.209 463.682C592.071 463.376 591.932 463.07 591.79 462.755C591.412 463.507 591.039 464.26 590.671 465.017C590.524 465.318 590.377 465.618 590.225 465.927C590.078 466.229 589.931 466.531 589.78 466.842C589.356 467.622 589.356 467.622 588.661 468.317C588.815 470.854 589.523 473.278 590.176 475.725C590.636 477.546 590.874 478.967 590.399 480.832C590.17 481.176 589.94 481.52 589.704 481.875C588.813 481.962 588.813 481.962 587.966 481.875C587.346 481.255 587.367 480.328 587.216 479.489C587.14 479.073 587.065 478.657 586.987 478.228C586.908 477.79 586.83 477.351 586.749 476.899C586.594 476.039 586.438 475.178 586.282 474.318C586.179 473.742 586.179 473.742 586.073 473.155C585.918 472.343 585.744 471.549 585.532 470.751C585.188 470.865 584.844 470.98 584.489 471.098C581.774 471.344 579.861 471.155 577.537 469.708C577.422 469.593 577.307 469.478 577.189 469.36C577.171 469.624 577.154 469.889 577.136 470.161C577.055 471.379 576.97 472.596 576.885 473.814C576.844 474.438 576.844 474.438 576.802 475.074C576.307 482.062 576.307 482.062 575.103 483.266C574.212 483.331 574.212 483.331 573.365 483.266C573.017 482.918 573.017 482.918 572.971 482.194C572.972 481.724 572.972 481.724 572.974 481.245C572.973 480.942 572.972 480.638 572.971 480.326C573.011 479.264 573.085 478.217 573.176 477.159C573.239 476.413 573.302 475.668 573.365 474.922C573.396 474.554 573.428 474.186 573.461 473.807C573.899 467.999 573.422 464.494 569.722 459.964C568.917 458.92 568.313 457.8 567.716 456.628C567.555 456.318 567.555 456.318 567.391 456.001C567.061 455.358 566.736 454.711 566.412 454.064C566.15 453.544 565.887 453.024 565.624 452.504C564.955 451.172 564.291 449.838 563.631 448.502C563.533 448.762 563.436 449.022 563.335 449.29C560.575 456.601 557.569 463.392 552.971 469.757C552.524 470.379 552.086 471.005 551.651 471.635C549.921 474.121 548.072 476.483 546.146 478.821C544.593 480.712 543.135 482.652 541.73 484.656C542.108 484.801 542.108 484.801 542.494 484.948C544.166 485.64 545.712 486.559 547.292 487.437C547.738 487.678 548.184 487.919 548.631 488.16C551.634 489.793 554.349 491.557 557.026 493.695C557.325 493.927 557.625 494.16 557.933 494.399C558.8 495.08 559.654 495.773 560.502 496.476C560.8 496.722 561.098 496.969 561.405 497.223C562.88 498.49 564.076 499.668 565.108 501.321C566.29 503.141 567.795 504.201 569.581 505.376C570.709 506.12 571.64 506.762 572.322 507.948C572.236 508.702 572.168 509.145 571.627 509.686C570.888 509.838 570.888 509.838 569.888 509.686C569.218 509.209 568.628 508.687 568.028 508.124C567.409 507.531 567.409 507.531 566.412 506.905C565.83 507.008 565.251 507.127 564.674 507.253C563.63 507.286 562.589 507.273 561.545 507.253C561.693 507.417 561.84 507.582 561.992 507.751C563.127 509.031 564.236 510.327 565.304 511.663C565.5 511.908 565.696 512.154 565.897 512.406C566.412 513.162 566.412 513.162 566.681 513.992C567.313 515.339 568.341 516.096 569.476 517.03C569.69 517.212 569.905 517.395 570.125 517.583C571.056 518.363 571.939 519.051 572.99 519.666C573.228 519.814 573.467 519.962 573.713 520.115C573.865 521.006 573.865 521.006 573.713 521.853C573.483 522.083 573.254 522.312 573.017 522.549C570.948 522.546 569.857 521.456 568.411 520.137C568.086 519.85 568.086 519.85 567.754 519.556C566.938 518.833 566.14 518.105 565.369 517.334C564.684 517.33 564.684 517.33 563.892 517.421C560.08 517.498 556.413 515.011 553.202 513.162C553.087 513.277 552.972 513.392 552.854 513.51C553.132 513.796 553.132 513.796 553.416 514.087C560.238 521.346 560.238 521.346 560.176 524.982C560.372 527.388 562.172 529.094 563.631 530.892C564.111 531.852 564.045 532.612 563.979 533.673C563.749 533.903 563.52 534.132 563.283 534.368C562.619 534.339 562.619 534.339 561.893 534.021C561.286 533.312 561.286 533.312 560.698 532.413C560.485 532.099 560.273 531.786 560.054 531.462C559.704 530.923 559.362 530.378 559.038 529.822C558.036 528.187 557.059 527.782 555.28 527.158C553.016 526.201 551.032 524.654 549.03 523.244C548.775 523.066 548.52 522.887 548.257 522.704C545.395 520.697 542.613 518.649 539.981 516.348C538.44 515.017 536.808 513.838 535.146 512.663C532.522 510.803 530.084 508.805 527.673 506.681C526.837 505.957 525.972 505.27 525.108 504.58C523.359 503.158 521.646 501.668 520.176 499.952C520.176 499.723 520.176 499.493 520.176 499.257C519.883 499.304 519.59 499.35 519.288 499.398C515.784 499.915 512.315 500.105 508.777 500.222C501.776 500.459 494.791 500.866 487.802 501.343C487.375 501.372 486.948 501.401 486.507 501.431C485.251 501.517 483.994 501.604 482.737 501.69C482.122 501.733 482.122 501.733 481.495 501.776C479.395 501.921 477.296 502.073 475.198 502.234C469.815 502.64 464.476 502.835 459.079 502.798C458.338 502.796 457.597 502.793 456.857 502.791C443.177 502.73 443.177 502.73 440.567 502.038C439.41 501.777 439.41 501.777 438.133 502.038C437.359 502.649 436.723 503.322 436.058 504.051C435.401 504.766 434.725 505.388 433.984 506.014C432.979 506.875 432.054 507.776 431.137 508.73C429.286 510.604 427.241 512.194 425.141 513.777C424.657 514.144 424.177 514.517 423.698 514.891C420.183 517.524 415.307 520.172 410.844 520.159C409.329 520.279 408.635 520.532 407.628 521.68C407.24 522.192 406.864 522.715 406.498 523.244C406.083 523.827 405.663 524.406 405.238 524.982C405.054 525.247 404.871 525.513 404.681 525.786C404.065 526.373 404.065 526.373 403.166 526.503C402.327 526.373 402.327 526.373 401.631 525.677C401.666 523.911 402.759 522.786 403.826 521.484C403.995 521.271 404.164 521.059 404.339 520.84C405.053 519.951 405.752 519.12 406.583 518.336C407.308 517.56 407.521 516.935 407.824 515.922C408.559 513.731 409.713 511.928 411.018 510.034C410.752 510.155 410.752 510.155 410.482 510.278C409.669 510.647 408.855 511.014 408.041 511.381C407.763 511.508 407.485 511.634 407.198 511.765C403.151 513.582 403.151 513.582 400.827 513.51C398.474 513.749 397.159 515.618 395.722 517.334C394.946 518.338 394.18 519.349 393.457 520.392C392.783 521.328 392.393 521.807 391.274 522.156C391.021 522.171 390.768 522.186 390.507 522.201C390.006 521.199 390.045 520.535 390.159 519.42C390.64 518.614 391.091 517.962 391.68 517.247C391.835 517.052 391.99 516.857 392.149 516.656C393.454 515.044 394.883 513.603 396.406 512.196C397.159 511.373 397.42 510.72 397.807 509.686C398.209 509.115 398.629 508.557 399.068 508.013C399.287 507.738 399.507 507.464 399.733 507.181C399.901 506.975 400.068 506.769 400.241 506.557C399.186 506.557 398.779 506.694 397.849 507.129C397.588 507.249 397.327 507.37 397.058 507.494C396.782 507.622 396.506 507.75 396.221 507.883C388.852 511.22 388.852 511.22 385.292 510.034C384.654 510.423 384.654 510.423 384.032 511.033C383.667 511.367 383.667 511.367 383.295 511.707C382.209 512.76 381.167 513.854 380.139 514.963C379.282 515.68 378.756 515.888 377.644 515.944C376.949 515.248 376.949 515.248 376.785 514.465C377.024 513.073 377.888 512.371 378.883 511.446C379.168 511.172 379.168 511.172 379.459 510.892C380.008 510.369 380.563 509.852 381.121 509.338C381.383 509.096 381.645 508.854 381.915 508.604C383.434 507.253 383.434 507.253 384.249 507.253C384.328 506.951 384.406 506.649 384.487 506.337C385.006 505.01 385.732 504.133 386.705 503.124C386.878 502.942 387.051 502.76 387.229 502.572C387.738 502.042 388.252 501.518 388.769 500.995C389.009 500.746 389.249 500.498 389.497 500.241C394.67 495.263 402.227 491.88 408.932 489.523C407.991 488.404 407.048 487.302 406.039 486.244C402.995 483.04 400.411 479.53 397.807 475.965C397.488 475.533 397.168 475.101 396.849 474.668C392.631 468.917 389.056 462.749 385.64 456.497C385.453 456.156 385.266 455.815 385.074 455.463C382.458 450.651 380.155 445.752 378.04 440.705C377.902 440.38 377.902 440.38 377.763 440.048C377.515 439.458 377.269 438.867 377.024 438.276C376.649 437.346 376.649 437.346 375.906 436.682C375.742 436.957 375.577 437.232 375.408 437.515C374.785 438.554 374.16 439.593 373.534 440.631C373.266 441.076 372.998 441.522 372.731 441.969C372.343 442.618 371.952 443.266 371.561 443.913C371.432 444.128 371.303 444.343 371.17 444.565C370.344 445.918 369.433 447.132 368.429 448.363C366.89 450.43 366.846 452.268 366.911 454.781C366.915 455.553 366.916 456.324 366.914 457.096C366.924 457.6 366.924 457.6 366.934 458.115C366.868 458.931 366.868 458.931 366.172 459.626C365.303 459.735 365.303 459.735 364.434 459.626C363.568 458.327 363.667 457.629 363.695 456.085C363.702 455.642 363.708 455.2 363.714 454.744C363.722 454.405 363.73 454.066 363.739 453.716C363.519 453.842 363.3 453.967 363.073 454.097C360.349 455.51 358.083 455.654 355.048 455.454C354.384 457.587 354.041 459.708 353.738 461.918C353.342 464.522 353.342 464.522 352.267 465.536C351.376 465.666 351.376 465.666 350.529 465.536C349.833 464.841 349.833 464.841 349.738 463.811C349.79 462.065 350.238 460.401 350.659 458.714C350.736 458.391 350.813 458.068 350.892 457.736C351.258 456.233 351.628 454.784 352.267 453.369C352.037 453.304 351.808 453.24 351.571 453.173C349.519 452.189 347.944 450.454 346.357 448.849C345.488 452.565 344.813 456.107 344.748 459.93C344.619 461.017 344.619 461.017 344.143 461.683C343.339 462.216 342.781 462.181 341.838 462.06C341.142 461.364 341.142 461.364 341.102 460.16C341.124 459.641 341.153 459.123 341.186 458.605C341.203 458.329 341.22 458.052 341.237 457.768C341.516 453.998 342.108 450.05 343.684 446.59C344.821 444.016 344.091 441.431 343.159 438.896C342.26 436.241 342.081 433.597 342.093 430.814C342.092 430.463 342.092 430.111 342.091 429.749C342.09 429.009 342.092 428.269 342.095 427.529C342.098 426.416 342.095 425.304 342.09 424.191C342.087 420.075 342.261 416.07 342.88 412C342.926 411.694 342.971 411.388 343.017 411.073C343.137 410.327 343.274 409.589 343.424 408.849C343.506 408.439 343.506 408.439 343.591 408.02C344.217 405.071 345.024 402.169 345.835 399.267C345.902 399.028 345.968 398.789 346.037 398.542C346.735 396.042 347.477 393.59 348.481 391.194C348.934 390.099 349.294 388.987 349.659 387.861C350.148 386.366 350.65 384.879 351.202 383.406C351.792 381.807 352.306 380.189 352.81 378.561C353.73 375.609 354.707 372.677 355.705 369.75C355.874 369.255 356.042 368.76 356.209 368.265C357.069 365.72 357.966 363.28 359.22 360.897C359.537 360.098 359.841 359.294 360.132 358.485C361.053 355.966 362.041 353.477 363.044 350.989C364.022 348.557 364.996 346.124 365.912 343.667C365.992 343.45 366.073 343.233 366.157 343.009C366.566 341.905 366.97 340.798 367.371 339.691C368.729 335.969 370.3 332.389 372.126 328.871C372.895 327.354 373.476 325.768 374.073 324.177C374.345 323.457 374.624 322.739 374.915 322.026C375.996 319.356 376.859 316.63 377.71 313.879C377.83 313.492 377.95 313.105 378.073 312.706C378.245 312.144 378.245 312.144 378.42 311.57C378.522 311.237 378.623 310.903 378.728 310.559C379.381 308.191 379.846 305.808 380.173 303.374C380.21 303.098 380.248 302.821 380.286 302.537C381.413 293.984 381.698 285.581 381.622 276.963C381.608 275.148 381.605 273.332 381.601 271.517C381.592 268.096 381.575 264.675 381.554 261.254C381.517 255.124 381.492 248.994 381.474 242.864C381.467 240.725 381.456 238.585 381.441 236.446C381.387 228.258 381.455 220.248 382.829 212.152C383.202 209.937 383.39 207.721 383.554 205.481C383.784 202.36 384.058 199.248 384.402 196.138C384.459 195.586 384.459 195.586 384.518 195.022C384.778 192.739 385.25 190.643 385.988 188.468C386.184 187.864 386.184 187.864 386.384 187.247C387.631 183.678 389.112 180.22 390.985 176.931C393.005 172.865 391.41 168.112 390.072 164.09C388.651 160.324 386.642 157.374 384.002 154.383C381.865 151.958 380.258 149.796 380.333 146.432C380.542 144.794 381.277 143.734 382.495 142.697C385.785 140.361 388.973 139.916 392.94 139.799C393.206 139.789 393.471 139.78 393.745 139.77C397.34 139.656 400.806 139.812 404.369 140.32C409.323 141.017 413.207 141.528 417.623 138.756C418.181 138.411 418.739 138.066 419.297 137.721C420.239 137.137 421.18 136.551 422.12 135.964C429.342 131.467 435.697 129.361 444.119 128.138C444.982 127.996 445.813 127.81 446.661 127.596C448.516 127.167 450.34 127.195 452.235 127.219Z" fill="#FEFCFC"/>
<path d="M452.235 127.219C452.624 127.222 453.013 127.224 453.414 127.228C454.694 127.241 455.974 127.261 457.254 127.284C457.919 127.294 457.919 127.294 458.597 127.304C474.956 127.58 490.864 130.238 506.032 136.583C515.47 141.033 515.47 141.033 525.391 140.559C525.665 140.433 525.94 140.307 526.223 140.178C530.373 138.442 535.66 137.941 539.939 139.458C541.894 140.349 543.184 141.33 544.163 143.275C544.803 146.386 543.805 149.061 542.162 151.692C540.649 153.869 538.721 156.058 536.515 157.528C536.987 159.129 537.649 160.428 538.514 161.852C541.024 166.113 542.881 170.934 543.772 175.801C544.037 177.104 544.543 178.146 545.163 179.321C548.66 186.069 548.903 194.233 549.607 201.658C549.711 202.71 549.711 202.71 549.908 203.692C550.128 205.181 550.141 206.648 550.159 208.152C550.17 208.817 550.181 209.481 550.192 210.146C550.197 210.491 550.202 210.837 550.208 211.192C550.295 216.609 550.428 221.985 551.005 227.374C551.223 229.488 551.406 231.605 551.59 233.722C551.656 234.469 551.724 235.216 551.793 235.962C552.464 243.439 552.564 250.939 552.661 258.44C552.693 260.902 552.731 263.363 552.769 265.824C552.772 266.064 552.776 266.304 552.78 266.551C552.962 278.479 553.178 290.374 555.288 302.146C555.337 302.421 555.386 302.695 555.436 302.978C555.882 305.437 556.427 307.852 557.114 310.254C557.479 311.562 557.784 312.882 558.089 314.205C558.473 315.555 558.953 316.856 559.44 318.172C559.783 319.113 560.104 320.058 560.417 321.009C561.938 325.601 563.783 329.948 565.848 334.318C566.939 336.643 568 338.982 569.063 341.32C569.175 341.567 569.287 341.813 569.403 342.067C570.889 345.332 572.34 348.609 573.737 351.913C574.449 353.592 575.19 355.251 575.972 356.899C577.372 359.864 578.664 362.872 579.933 365.895C580.289 366.738 580.65 367.577 581.013 368.416C584.647 376.991 587.03 386.231 589.096 395.291C589.748 398.132 590.414 400.968 591.138 403.792C591.199 404.032 591.261 404.272 591.324 404.519C591.385 404.757 591.447 404.996 591.51 405.242C593.888 414.522 594.636 423.257 594.635 432.824C594.636 434.164 594.642 435.504 594.649 436.844C594.65 437.708 594.651 438.572 594.651 439.436C594.653 439.83 594.656 440.225 594.658 440.631C594.651 443.208 594.353 445.626 593.876 448.154C593.617 449.89 593.42 451.63 593.25 453.376C593.189 453.981 593.115 454.583 593.039 455.186C592.808 458.248 594.129 460.296 595.623 462.849C596.647 464.668 597.549 466.545 597.352 468.665C597.122 468.894 596.893 469.124 596.657 469.36C595.809 469.338 595.809 469.338 594.918 469.012C594.036 467.724 593.412 466.324 592.767 464.906C592.583 464.502 592.399 464.098 592.209 463.682C592.071 463.376 591.932 463.07 591.79 462.755C591.412 463.507 591.039 464.26 590.671 465.017C590.524 465.318 590.377 465.618 590.225 465.927C590.078 466.229 589.931 466.531 589.78 466.842C589.356 467.622 589.356 467.622 588.661 468.317C588.815 470.854 589.523 473.278 590.176 475.725C590.636 477.546 590.874 478.967 590.399 480.832C590.17 481.176 589.94 481.52 589.704 481.875C588.813 481.962 588.813 481.962 587.966 481.875C587.346 481.255 587.367 480.328 587.216 479.489C587.14 479.073 587.065 478.657 586.987 478.228C586.908 477.79 586.83 477.351 586.749 476.899C586.594 476.039 586.438 475.178 586.282 474.318C586.179 473.742 586.179 473.742 586.073 473.155C585.918 472.343 585.744 471.549 585.532 470.751C585.188 470.865 584.844 470.98 584.489 471.098C581.774 471.344 579.861 471.155 577.537 469.708C577.422 469.593 577.307 469.478 577.189 469.36C577.171 469.624 577.154 469.889 577.136 470.161C577.055 471.379 576.97 472.596 576.885 473.814C576.844 474.438 576.844 474.438 576.802 475.074C576.307 482.062 576.307 482.062 575.103 483.266C574.212 483.331 574.212 483.331 573.365 483.266C573.017 482.918 573.017 482.918 572.971 482.194C572.972 481.724 572.972 481.724 572.974 481.245C572.973 480.942 572.972 480.638 572.971 480.326C573.011 479.264 573.085 478.217 573.176 477.159C573.239 476.413 573.302 475.668 573.365 474.922C573.396 474.554 573.428 474.186 573.461 473.807C573.899 467.999 573.422 464.494 569.722 459.964C568.917 458.92 568.313 457.8 567.716 456.628C567.555 456.318 567.555 456.318 567.391 456.001C567.061 455.358 566.736 454.711 566.412 454.064C566.15 453.544 565.887 453.024 565.624 452.504C564.955 451.172 564.291 449.838 563.631 448.502C563.533 448.762 563.436 449.022 563.335 449.29C560.575 456.601 557.569 463.392 552.971 469.757C552.524 470.379 552.086 471.005 551.651 471.635C549.921 474.121 548.072 476.483 546.146 478.821C544.593 480.712 543.135 482.652 541.73 484.656C542.108 484.801 542.108 484.801 542.494 484.948C544.166 485.64 545.712 486.559 547.292 487.437C547.738 487.678 548.184 487.919 548.631 488.16C551.634 489.793 554.349 491.557 557.026 493.695C557.325 493.927 557.625 494.16 557.933 494.399C558.8 495.08 559.654 495.773 560.502 496.476C560.8 496.722 561.098 496.969 561.405 497.223C562.88 498.49 564.076 499.668 565.108 501.321C566.29 503.141 567.795 504.201 569.581 505.376C570.709 506.12 571.64 506.762 572.322 507.948C572.236 508.702 572.168 509.145 571.627 509.686C570.888 509.838 570.888 509.838 569.888 509.686C569.218 509.209 568.628 508.687 568.028 508.124C567.409 507.531 567.409 507.531 566.412 506.905C565.83 507.008 565.251 507.127 564.674 507.253C563.63 507.286 562.589 507.273 561.545 507.253C561.693 507.417 561.84 507.582 561.992 507.751C563.127 509.031 564.236 510.327 565.304 511.663C565.5 511.908 565.696 512.154 565.897 512.406C566.412 513.162 566.412 513.162 566.681 513.992C567.313 515.339 568.341 516.096 569.476 517.03C569.69 517.212 569.905 517.395 570.125 517.583C571.056 518.363 571.939 519.051 572.99 519.666C573.228 519.814 573.467 519.962 573.713 520.115C573.865 521.006 573.865 521.006 573.713 521.853C573.483 522.083 573.254 522.312 573.017 522.549C570.948 522.546 569.857 521.456 568.411 520.137C568.086 519.85 568.086 519.85 567.754 519.556C566.938 518.833 566.14 518.105 565.369 517.334C564.684 517.33 564.684 517.33 563.892 517.421C560.08 517.498 556.413 515.011 553.202 513.162C553.087 513.277 552.972 513.392 552.854 513.51C553.132 513.796 553.132 513.796 553.416 514.087C560.238 521.346 560.238 521.346 560.176 524.982C560.372 527.388 562.172 529.094 563.631 530.892C564.111 531.852 564.045 532.612 563.979 533.673C563.749 533.903 563.52 534.132 563.283 534.368C562.619 534.339 562.619 534.339 561.893 534.021C561.286 533.312 561.286 533.312 560.698 532.413C560.485 532.099 560.273 531.786 560.054 531.462C559.704 530.923 559.362 530.378 559.038 529.822C558.036 528.187 557.059 527.782 555.28 527.158C553.016 526.201 551.032 524.654 549.03 523.244C548.775 523.066 548.52 522.887 548.257 522.704C545.395 520.697 542.613 518.649 539.981 516.348C538.44 515.017 536.808 513.838 535.146 512.663C532.522 510.803 530.084 508.805 527.673 506.681C526.837 505.957 525.972 505.27 525.108 504.58C523.359 503.158 521.646 501.668 520.176 499.952C520.176 499.723 520.176 499.493 520.176 499.257C519.883 499.304 519.59 499.35 519.288 499.398C515.784 499.915 512.315 500.105 508.777 500.222C501.776 500.459 494.791 500.866 487.802 501.343C487.375 501.372 486.948 501.401 486.507 501.431C485.251 501.517 483.994 501.604 482.737 501.69C482.122 501.733 482.122 501.733 481.495 501.776C479.395 501.921 477.296 502.073 475.198 502.234C469.815 502.64 464.476 502.835 459.079 502.798C458.338 502.796 457.597 502.793 456.857 502.791C443.177 502.73 443.177 502.73 440.567 502.038C439.41 501.777 439.41 501.777 438.133 502.038C437.359 502.649 436.723 503.322 436.058 504.051C435.401 504.766 434.725 505.388 433.984 506.014C432.979 506.875 432.054 507.776 431.137 508.73C429.286 510.604 427.241 512.194 425.141 513.777C424.657 514.144 424.177 514.517 423.698 514.891C420.183 517.524 415.307 520.172 410.844 520.159C409.329 520.279 408.635 520.532 407.628 521.68C407.24 522.192 406.864 522.715 406.498 523.244C406.083 523.827 405.663 524.406 405.238 524.982C405.054 525.247 404.871 525.513 404.681 525.786C404.065 526.373 404.065 526.373 403.166 526.503C402.327 526.373 402.327 526.373 401.631 525.677C401.666 523.911 402.759 522.786 403.826 521.484C403.995 521.271 404.164 521.059 404.339 520.84C405.053 519.951 405.752 519.12 406.583 518.336C407.308 517.56 407.521 516.935 407.824 515.922C408.559 513.731 409.713 511.928 411.018 510.034C410.752 510.155 410.752 510.155 410.482 510.278C409.669 510.647 408.855 511.014 408.041 511.381C407.763 511.508 407.485 511.634 407.198 511.765C403.151 513.582 403.151 513.582 400.827 513.51C398.474 513.749 397.159 515.618 395.722 517.334C394.946 518.338 394.18 519.349 393.457 520.392C392.783 521.328 392.393 521.807 391.274 522.156C391.021 522.171 390.768 522.186 390.507 522.201C390.006 521.199 390.045 520.535 390.159 519.42C390.64 518.614 391.091 517.962 391.68 517.247C391.835 517.052 391.99 516.857 392.149 516.656C393.454 515.044 394.883 513.603 396.406 512.196C397.159 511.373 397.42 510.72 397.807 509.686C398.209 509.115 398.629 508.557 399.068 508.013C399.287 507.738 399.507 507.464 399.733 507.181C399.901 506.975 400.068 506.769 400.241 506.557C399.186 506.557 398.779 506.694 397.849 507.129C397.588 507.249 397.327 507.37 397.058 507.494C396.782 507.622 396.506 507.75 396.221 507.883C388.852 511.22 388.852 511.22 385.292 510.034C384.654 510.423 384.654 510.423 384.032 511.033C383.667 511.367 383.667 511.367 383.295 511.707C382.209 512.76 381.167 513.854 380.139 514.963C379.282 515.68 378.756 515.888 377.644 515.944C376.949 515.248 376.949 515.248 376.785 514.465C377.024 513.073 377.888 512.371 378.883 511.446C379.168 511.172 379.168 511.172 379.459 510.892C380.008 510.369 380.563 509.852 381.121 509.338C381.383 509.096 381.645 508.854 381.915 508.604C383.434 507.253 383.434 507.253 384.249 507.253C384.328 506.951 384.406 506.649 384.487 506.337C385.006 505.01 385.732 504.133 386.705 503.124C386.878 502.942 387.051 502.76 387.229 502.572C387.738 502.042 388.252 501.518 388.769 500.995C389.009 500.746 389.249 500.498 389.497 500.241C394.67 495.263 402.227 491.88 408.932 489.523C407.991 488.404 407.048 487.302 406.039 486.244C402.995 483.04 400.411 479.53 397.807 475.965C397.488 475.533 397.168 475.101 396.849 474.668C392.631 468.917 389.056 462.749 385.64 456.497C385.453 456.156 385.266 455.815 385.074 455.463C382.458 450.651 380.155 445.752 378.04 440.705C377.902 440.38 377.902 440.38 377.763 440.048C377.515 439.458 377.269 438.867 377.024 438.276C376.649 437.346 376.649 437.346 375.906 436.682C375.742 436.957 375.577 437.232 375.408 437.515C374.785 438.554 374.16 439.593 373.534 440.631C373.266 441.076 372.998 441.522 372.731 441.969C372.343 442.618 371.952 443.266 371.561 443.913C371.432 444.128 371.303 444.343 371.17 444.565C370.344 445.918 369.433 447.132 368.429 448.363C366.89 450.43 366.846 452.268 366.911 454.781C366.915 455.553 366.916 456.324 366.914 457.096C366.924 457.6 366.924 457.6 366.934 458.115C366.868 458.931 366.868 458.931 366.172 459.626C365.303 459.735 365.303 459.735 364.434 459.626C363.568 458.327 363.667 457.629 363.695 456.085C363.702 455.642 363.708 455.2 363.714 454.744C363.722 454.405 363.73 454.066 363.739 453.716C363.519 453.842 363.3 453.967 363.073 454.097C360.349 455.51 358.083 455.654 355.048 455.454C354.384 457.587 354.041 459.708 353.738 461.918C353.342 464.522 353.342 464.522 352.267 465.536C351.376 465.666 351.376 465.666 350.529 465.536C349.833 464.841 349.833 464.841 349.738 463.811C349.79 462.065 350.238 460.401 350.659 458.714C350.736 458.391 350.813 458.068 350.892 457.736C351.258 456.233 351.628 454.784 352.267 453.369C352.037 453.304 351.808 453.24 351.571 453.173C349.519 452.189 347.944 450.454 346.357 448.849C345.488 452.565 344.813 456.107 344.748 459.93C344.619 461.017 344.619 461.017 344.143 461.683C343.339 462.216 342.781 462.181 341.838 462.06C341.142 461.364 341.142 461.364 341.102 460.16C341.124 459.641 341.153 459.123 341.186 458.605C341.203 458.329 341.22 458.052 341.237 457.768C341.516 453.998 342.108 450.05 343.684 446.59C344.821 444.016 344.091 441.431 343.159 438.896C342.26 436.241 342.081 433.597 342.093 430.814C342.092 430.463 342.092 430.111 342.091 429.749C342.09 429.009 342.092 428.269 342.095 427.529C342.098 426.416 342.095 425.304 342.09 424.191C342.087 420.075 342.261 416.07 342.88 412C342.926 411.694 342.971 411.388 343.017 411.073C343.137 410.327 343.274 409.589 343.424 408.849C343.506 408.439 343.506 408.439 343.591 408.02C344.217 405.071 345.024 402.169 345.835 399.267C345.902 399.028 345.968 398.789 346.037 398.542C346.735 396.042 347.477 393.59 348.481 391.194C348.934 390.099 349.294 388.987 349.659 387.861C350.148 386.366 350.65 384.879 351.202 383.406C351.792 381.807 352.306 380.189 352.81 378.561C353.73 375.609 354.707 372.677 355.705 369.75C355.874 369.255 356.042 368.76 356.209 368.265C357.069 365.72 357.966 363.28 359.22 360.897C359.537 360.098 359.841 359.294 360.132 358.485C361.053 355.966 362.041 353.477 363.044 350.989C364.022 348.557 364.996 346.124 365.912 343.667C365.992 343.45 366.073 343.233 366.157 343.009C366.566 341.905 366.97 340.798 367.371 339.691C368.729 335.969 370.3 332.389 372.126 328.871C372.895 327.354 373.476 325.768 374.073 324.177C374.345 323.457 374.624 322.739 374.915 322.026C375.996 319.356 376.859 316.63 377.71 313.879C377.83 313.492 377.95 313.105 378.073 312.706C378.245 312.144 378.245 312.144 378.42 311.57C378.522 311.237 378.623 310.903 378.728 310.559C379.381 308.191 379.846 305.808 380.173 303.374C380.21 303.098 380.248 302.821 380.286 302.537C381.413 293.984 381.698 285.581 381.622 276.963C381.608 275.148 381.605 273.332 381.601 271.517C381.592 268.096 381.575 264.675 381.554 261.254C381.517 255.124 381.492 248.994 381.474 242.864C381.467 240.725 381.456 238.585 381.441 236.446C381.387 228.258 381.455 220.248 382.829 212.152C383.202 209.937 383.39 207.721 383.554 205.481C383.784 202.36 384.058 199.248 384.402 196.138C384.459 195.586 384.459 195.586 384.518 195.022C384.778 192.739 385.25 190.643 385.988 188.468C386.184 187.864 386.184 187.864 386.384 187.247C387.631 183.678 389.112 180.22 390.985 176.931C393.005 172.865 391.41 168.112 390.072 164.09C388.651 160.324 386.642 157.374 384.002 154.383C381.865 151.958 380.258 149.796 380.333 146.432C380.542 144.794 381.277 143.734 382.495 142.697C385.785 140.361 388.973 139.916 392.94 139.799C393.206 139.789 393.471 139.78 393.745 139.77C397.34 139.656 400.806 139.812 404.369 140.32C409.323 141.017 413.207 141.528 417.623 138.756C418.181 138.411 418.739 138.066 419.297 137.721C420.239 137.137 421.18 136.551 422.12 135.964C429.342 131.467 435.697 129.361 444.119 128.138C444.982 127.996 445.813 127.81 446.661 127.596C448.516 127.167 450.34 127.195 452.235 127.219ZM417.843 157.796C415.446 160.845 413.593 164.229 411.713 167.61C411.582 167.841 411.452 168.072 411.317 168.31C409.572 171.402 408.151 174.578 406.803 177.862C406.258 179.185 405.674 180.483 405.064 181.776C403.391 185.362 401.998 189.043 400.675 192.77C400.573 193.055 400.471 193.34 400.366 193.634C399.718 195.486 399.243 197.322 398.85 199.245C397.873 199.332 397.873 199.332 396.764 199.245C395.447 197.928 395.454 196.419 395.244 194.648C395.126 193.677 395.126 193.677 394.5 193.233C393.739 192.359 393.85 191.665 393.842 190.521C393.835 190.106 393.827 189.69 393.819 189.262C393.813 188.385 393.806 187.508 393.8 186.631C393.792 186.215 393.785 185.8 393.777 185.372C393.774 184.991 393.772 184.61 393.769 184.217C393.622 183.158 393.43 182.846 392.593 182.211C392.249 182.325 391.904 182.44 391.55 182.558C391.09 183.507 390.7 184.42 390.333 185.405C390.225 185.691 390.117 185.978 390.006 186.274C389.113 188.711 388.476 191.117 388.074 193.683C388.018 194.033 387.962 194.384 387.904 194.746C387.223 199.086 386.632 203.376 386.453 207.766C386.312 210.146 385.884 212.504 385.483 214.851C383.935 224.415 384.149 234.106 384.181 243.76C384.184 244.926 384.186 246.093 384.188 247.26C384.199 256.04 384.234 264.818 384.423 273.596C384.431 273.957 384.439 274.318 384.447 274.69C384.5 277.153 384.555 279.615 384.617 282.077C384.878 292.498 384.145 303.512 381.186 313.574C381.086 313.914 380.987 314.253 380.884 314.603C378.726 321.642 375.761 328.5 372.648 335.163C370.336 340.154 368.427 345.333 366.52 350.489C365.447 353.386 364.269 356.238 363.09 359.092C361.137 363.838 359.388 368.633 357.786 373.508C357.334 374.883 356.878 376.257 356.422 377.631C356.288 378.035 356.288 378.035 356.151 378.448C355.441 380.586 354.709 382.715 353.961 384.84C349.819 396.453 349.819 396.453 346.639 408.349C346.585 408.592 346.531 408.835 346.476 409.086C345.337 414.59 345.194 420.065 345.204 425.67C345.205 426.91 345.197 428.15 345.188 429.39C345.188 430.19 345.187 430.99 345.188 431.791C345.184 432.155 345.181 432.52 345.178 432.896C345.193 435.346 345.601 437.482 346.357 439.811C346.586 439.811 346.816 439.811 347.052 439.811C347.249 439.438 347.446 439.066 347.648 438.682C347.906 438.197 348.163 437.711 348.421 437.225C348.551 436.979 348.68 436.734 348.814 436.48C349.794 434.636 349.794 434.636 350.181 434.249C350.76 434.234 351.34 434.234 351.919 434.249C352.099 436.142 351.579 436.883 350.529 438.42C350.051 439.266 349.624 440.131 349.203 441.006C349.09 441.225 348.978 441.444 348.862 441.669C348.088 443.281 347.963 444.35 348.443 446.068C349.013 447.047 349.013 447.047 349.768 447.893C350.007 448.182 350.246 448.471 350.492 448.768C351.169 449.487 351.765 450.084 352.614 450.588C352.959 450.473 353.303 450.358 353.657 450.24C354.02 449.39 354.02 449.39 354.267 448.341C354.37 447.955 354.474 447.569 354.58 447.171C354.684 446.764 354.788 446.357 354.896 445.938C355.105 445.138 355.315 444.339 355.527 443.54C355.619 443.183 355.711 442.827 355.805 442.46C356.091 441.549 356.091 441.549 356.786 440.506C357.677 440.419 357.677 440.419 358.524 440.506C358.872 440.854 358.872 440.854 358.959 442.005C358.872 443.287 358.872 443.287 358.391 443.89C357.613 444.98 357.383 446.153 357.09 447.437C357.032 447.682 356.973 447.926 356.912 448.178C356.612 449.44 356.335 450.704 356.091 451.978C357.178 452.522 358.012 452.423 359.22 452.326C361.018 451.699 362.626 450.761 363.739 449.197C363.851 448.075 363.833 447.182 363.739 446.068C363.682 445.303 363.628 444.538 363.577 443.772C363.54 443.235 363.499 442.699 363.454 442.162C363.406 441.496 363.396 440.827 363.391 440.158C363.621 439.929 363.85 439.7 364.086 439.463C364.803 439.55 364.803 439.55 365.477 439.811C365.969 440.796 365.945 441.714 366.02 442.809C366.049 443.222 366.078 443.635 366.108 444.061C366.13 444.379 366.151 444.698 366.172 445.025C366.516 445.025 366.861 445.025 367.215 445.025C367.841 444.146 368.39 443.283 368.932 442.353C369.098 442.074 369.263 441.795 369.434 441.508C369.974 440.597 370.507 439.683 371.039 438.768C371.22 438.461 371.4 438.155 371.586 437.839C373.807 434.064 375.935 430.292 377.644 426.253C377.808 425.867 377.808 425.867 377.975 425.473C379.471 421.91 380.791 418.308 381.988 414.634C382.658 412.582 383.374 410.556 384.155 408.544C384.662 407.227 385.123 405.904 385.554 404.561C385.659 404.241 385.764 403.922 385.872 403.593C386.076 402.965 386.274 402.336 386.466 401.704C386.725 400.92 386.97 400.203 387.378 399.485C388.3 399.092 388.3 399.092 389.116 399.137C389.464 399.485 389.464 399.485 389.573 400.68C389.549 402.192 389.11 403.322 388.513 404.698C387.983 405.957 387.526 407.234 387.074 408.523C386.986 408.774 386.897 409.025 386.806 409.283C386.342 410.611 385.89 411.941 385.451 413.278C385.363 413.547 385.274 413.817 385.183 414.094C385.017 414.602 384.853 415.11 384.69 415.618C383.971 417.825 383.072 419.947 382.164 422.081C381.485 423.68 380.812 425.281 380.143 426.883C379.968 427.291 379.794 427.7 379.614 428.121C379.449 428.518 379.285 428.914 379.115 429.323C378.891 429.854 378.891 429.854 378.663 430.396C377.999 432.596 378.359 434.259 379.23 436.334C379.324 436.559 379.418 436.783 379.514 437.015C381.248 441.119 383.21 445.121 385.232 449.09C385.518 449.652 385.803 450.214 386.086 450.777C390.885 460.274 396.372 469.382 403.022 477.703C403.286 478.035 403.55 478.366 403.822 478.707C407.997 483.901 407.997 483.901 413.103 488.132C413.931 488.153 413.931 488.153 414.842 488.024C415.178 487.987 415.515 487.949 415.862 487.911C416.389 487.849 416.389 487.849 416.928 487.785C417.63 487.71 418.332 487.637 419.035 487.568C419.347 487.534 419.66 487.501 419.982 487.467C420.752 487.437 420.752 487.437 421.447 487.785C421.462 488.364 421.461 488.944 421.447 489.523C420.804 490.166 419.706 490.04 418.84 490.131C407.282 491.552 395.421 497.906 387.726 506.557C387.726 506.787 387.726 507.016 387.726 507.253C390.636 506.97 393.06 505.972 395.722 504.819C396.017 504.693 396.313 504.567 396.617 504.437C401.19 502.474 405.795 500.4 409.695 497.25C410.675 496.584 411.609 496.757 412.756 496.823C412.316 499.153 410.698 500.439 409.062 502.016C408.654 502.419 408.654 502.419 408.238 502.83C406.739 504.3 405.208 505.712 403.601 507.062C402.757 507.847 402.212 508.695 401.631 509.686C401.746 509.916 401.861 510.145 401.979 510.381C405.572 509.112 409.122 507.819 412.452 505.949C412.68 505.822 412.907 505.696 413.142 505.565C414.073 505.023 414.775 504.561 415.422 503.689C415.885 503.081 415.885 503.081 416.595 502.945C417.285 502.99 417.975 503.036 418.666 503.081C418.204 504.749 417.468 505.962 416.428 507.318C414.933 509.334 413.621 511.425 412.365 513.597C412.196 513.887 412.027 514.177 411.854 514.476C410.99 515.824 410.99 515.824 410.67 517.334C418.331 516.036 424.819 510.686 430.078 505.241C431.549 503.742 433.16 502.407 434.787 501.082C435.747 500.331 435.747 500.331 436.395 499.257C437.135 499.067 437.135 499.067 437.981 498.996C438.261 498.969 438.542 498.942 438.83 498.915C439.059 498.913 439.288 498.911 439.524 498.909C439.639 499.024 439.753 499.139 439.872 499.257C442.888 499.731 445.975 499.666 449.019 499.675C449.534 499.678 450.048 499.68 450.563 499.683C452.214 499.689 453.865 499.691 455.515 499.691C455.798 499.692 456.08 499.692 456.37 499.692C464.537 499.696 472.633 499.53 480.772 498.808C484.858 498.448 488.951 498.19 493.043 497.915C495.199 497.77 497.355 497.621 499.511 497.473C499.881 497.447 500.251 497.422 500.632 497.396C502.49 497.268 504.347 497.131 506.203 496.984C507.797 496.86 509.38 496.772 510.979 496.738C511.416 496.726 511.853 496.715 512.303 496.703C513.207 496.682 514.11 496.662 515.014 496.644C515.662 496.626 515.662 496.626 516.324 496.608C516.909 496.594 516.909 496.594 517.505 496.581C518.49 496.568 518.49 496.568 519.133 495.781C520.159 495.845 520.707 495.98 521.476 496.673C521.656 496.902 521.837 497.131 522.023 497.367C524.276 500.091 526.782 502.299 529.562 504.471C529.958 504.789 530.353 505.108 530.748 505.428C533.205 507.414 535.694 509.342 538.233 511.223C539.923 512.483 541.559 513.798 543.185 515.14C547.33 518.543 551.821 521.397 556.331 524.287C556.445 524.057 556.56 523.828 556.678 523.592C553.885 519.345 550.732 515.519 547.162 511.902C546.996 511.734 546.831 511.565 546.661 511.392C544.815 509.461 544.815 509.461 542.425 508.643C542.425 507.84 542.425 507.037 542.425 506.21C544.202 506.071 545.416 506.525 546.966 507.318C548.604 508.12 550.227 508.861 551.942 509.491C555.163 510.692 558.274 512.193 561.329 513.768C562.176 514.256 562.176 514.256 562.936 514.205C562.185 512.554 561.026 511.357 559.807 510.034C559.624 509.832 559.441 509.63 559.253 509.423C555.789 505.772 551.424 503.194 546.944 500.995C546.597 500.647 546.597 500.647 546.553 499.778C546.597 498.909 546.597 498.909 546.944 498.562C548.846 498.643 550.141 499.258 551.807 500.138C553.719 501.068 555.728 501.761 557.727 502.48C558.206 502.656 558.683 502.839 559.158 503.028C560.392 503.515 561.244 503.776 562.588 503.776C561.714 500.571 558.097 498.425 555.635 496.476C555.341 496.233 555.046 495.99 554.743 495.74C551.564 493.213 548.018 491.331 544.468 489.379C543.532 488.863 542.6 488.341 541.67 487.815C541.125 487.508 540.58 487.201 540.035 486.894C539.794 486.757 539.553 486.621 539.304 486.48C537.845 485.665 536.365 484.963 534.832 484.297C533.74 483.808 532.7 483.251 531.648 482.679C531.261 482.47 530.874 482.26 530.475 482.045C529.562 481.527 529.562 481.527 529.215 481.18C529.201 480.601 529.2 480.021 529.215 479.442C531.285 479.208 532.563 479.991 534.299 480.984C534.817 481.275 535.336 481.564 535.855 481.852C536.082 481.981 536.309 482.11 536.543 482.244C537.251 482.59 537.815 482.833 538.601 482.918C540.866 481.023 542.591 478.567 544.382 476.233C544.809 475.681 545.245 475.136 545.681 474.591C551.49 467.277 556.055 459.441 559.655 450.848C559.794 450.519 559.794 450.519 559.936 450.182C560.201 449.549 560.461 448.914 560.721 448.279C560.872 447.911 561.023 447.544 561.178 447.165C561.851 445.156 562.097 443.694 561.227 441.731C561.078 441.386 560.929 441.04 560.776 440.684C560.614 440.324 560.452 439.964 560.285 439.593C559.958 438.841 559.632 438.089 559.306 437.337C559.071 436.801 559.071 436.801 558.832 436.255C558.36 435.161 557.936 434.062 557.526 432.945C556.212 429.459 554.599 426.086 553.035 422.707C552.144 420.779 551.328 418.828 550.549 416.853C550.087 415.681 549.616 414.514 549.125 413.354C547.832 410.291 546.697 407.211 545.679 404.046C545.36 403.055 545.008 402.084 544.632 401.113C544.177 399.87 544.008 399.053 544.163 397.746C544.859 397.051 544.859 397.051 545.771 397.008C546.044 397.022 546.316 397.036 546.597 397.051C546.781 397.945 546.95 398.83 547.073 399.735C547.321 401.028 547.741 402.21 548.217 403.432C548.309 403.674 548.401 403.916 548.497 404.165C548.795 404.945 549.097 405.724 549.4 406.503C549.606 407.039 549.813 407.576 550.019 408.112C551.38 411.636 552.793 415.132 554.296 418.597C554.633 419.396 554.948 420.201 555.263 421.008C555.947 422.73 556.747 424.377 557.569 426.036C559.245 429.473 560.651 432.996 562.008 436.567C562.16 436.964 562.311 437.36 562.467 437.768C562.6 438.121 562.732 438.473 562.869 438.836C563.281 439.804 563.781 440.651 564.326 441.549C564.562 442.09 564.786 442.637 564.996 443.188C566.602 447.306 568.453 451.33 570.519 455.237C570.644 455.475 570.769 455.712 570.898 455.956C571.649 457.351 572.444 458.684 573.365 459.974C573.48 459.974 573.594 459.974 573.713 459.974C573.713 457.909 573.713 455.844 573.713 453.716C574.286 453.716 574.86 453.716 575.451 453.716C575.886 455.432 576.19 457.045 576.28 458.814C576.299 459.154 576.317 459.493 576.335 459.843C576.369 460.541 576.395 461.239 576.414 461.937C576.524 463.766 576.697 464.917 578 466.261C579.359 467.465 580.486 468.067 582.317 468.013C582.733 468.004 582.733 468.004 583.159 467.994C583.368 467.986 583.578 467.978 583.794 467.969C584.453 466.158 583.701 464.848 582.968 463.189C582.854 462.918 582.739 462.647 582.621 462.368C582.136 461.079 582.136 461.079 581.361 459.974C581.346 459.279 581.346 458.583 581.361 457.888C581.934 457.773 582.508 457.659 583.099 457.54C583.483 458.358 583.867 459.177 584.25 459.996C584.358 460.224 584.465 460.452 584.576 460.687C585.272 462.176 585.935 463.674 586.575 465.188C586.805 465.188 587.034 465.188 587.27 465.188C587.632 464.256 587.986 463.322 588.335 462.386C588.489 461.993 588.489 461.993 588.645 461.593C589.277 459.878 589.523 458.66 589.009 456.845C588.366 455.681 588.366 455.681 587.531 454.585C587.39 454.389 587.249 454.193 587.104 453.991C586.512 453.168 585.905 452.358 585.286 451.554C584.583 450.63 584.158 450.044 584.033 448.871C584.087 448.516 584.087 448.516 584.142 448.154C584.715 448.039 585.289 447.925 585.88 447.806C586.064 448.066 586.249 448.326 586.439 448.594C586.808 449.108 586.808 449.108 587.184 449.632C587.425 449.97 587.667 450.309 587.917 450.658C588.58 451.525 589.273 452.26 590.052 453.021C591.234 446.568 591.667 440.296 591.623 433.75C591.615 432.534 591.62 431.319 591.628 430.103C591.672 422.186 590.842 414.662 588.704 407.024C588.457 406.112 588.214 405.2 587.972 404.286C587.912 404.061 587.852 403.835 587.791 403.602C587.167 401.226 586.66 398.827 586.162 396.421C585.453 393.014 584.663 389.661 583.668 386.326C583.435 385.542 583.21 384.757 582.985 383.971C580.762 376.296 578.069 368.863 574.755 361.592C574.61 361.271 574.464 360.95 574.313 360.619C574.019 359.971 573.724 359.322 573.429 358.674C572.955 357.632 572.486 356.588 572.018 355.544C570.716 352.643 569.405 349.745 568.09 346.85C567.646 345.874 567.204 344.897 566.762 343.92C565.62 341.397 564.46 338.885 563.26 336.388C558.03 325.446 554.314 314.084 552.159 302.146C552.075 301.702 551.991 301.257 551.904 300.8C549.686 288.793 549.773 276.512 549.658 264.34C549.652 263.81 549.647 263.279 549.642 262.748C549.64 262.484 549.637 262.221 549.634 261.949C549.624 260.877 549.614 259.806 549.603 258.735C549.598 258.199 549.593 257.664 549.588 257.128C549.5 247.968 549.053 238.899 548.224 229.772C548.009 227.394 547.85 225.017 547.725 222.633C547.661 221.513 547.661 221.513 547.461 220.5C547.239 219.067 547.231 217.663 547.219 216.215C547.21 215.582 547.2 214.948 547.191 214.314C547.186 213.985 547.182 213.657 547.177 213.318C547.095 207.869 546.886 202.571 546.007 197.185C545.863 196.201 545.815 195.219 545.771 194.226C545.44 189.258 544.37 183.878 542.077 179.429C541.848 179.429 541.619 179.429 541.382 179.429C541.382 180.921 541.382 182.412 541.382 183.949C540.986 184.113 540.591 184.277 540.183 184.446C539.373 184.909 539.016 185.13 538.726 186.03C538.656 186.864 538.646 187.674 538.666 188.512C538.667 189.544 538.644 190.564 538.601 191.597C537.906 192.292 537.906 192.292 537.102 192.336C535.03 191.468 534.093 188.546 533.129 186.624C531.35 183.083 529.343 179.869 526.979 176.694C526.407 175.918 525.852 175.132 525.3 174.343C523.082 171.187 520.783 168.287 518.09 165.524C517.843 165.251 517.596 164.978 517.341 164.697C513.263 160.323 507.584 156.943 501.512 156.681C494.796 156.742 489.043 160.679 484.369 165.176C483.349 166.278 482.452 167.425 481.588 168.653C481.387 168.932 481.185 169.212 480.977 169.5C478.046 173.812 476.1 178.811 474.839 183.852C474.695 184.412 474.534 184.967 474.361 185.519C473.318 189.211 473.435 192.947 473.457 196.755C473.462 197.934 473.457 199.113 473.45 200.292C473.443 206.494 474.279 211.959 475.983 217.93C476.096 218.353 476.209 218.776 476.326 219.212C476.94 221.381 477.366 222.868 479.155 224.275C480.586 225.982 481.198 227.501 481.053 229.747C480.778 231.094 480.291 231.505 479.155 232.271C476.866 233.423 474.755 234.164 472.202 234.356C471.535 235.023 471.588 236.245 471.442 237.137C470.901 240.105 469.696 242.47 467.335 244.438C466.177 245.21 465.236 245.298 463.859 245.133C462.192 244.266 461.27 243.305 460.382 241.657C459.774 239.705 459.518 237.779 459.339 235.747C458.835 235.696 458.835 235.696 458.321 235.644C451.733 234.887 451.733 234.887 449.388 232.575C448.426 231.3 448.299 230.166 448.406 228.596C448.665 227.195 449.066 226.455 449.953 225.318C450.362 225.124 450.771 224.931 451.192 224.731C452.067 224.283 452.339 224.037 452.738 223.123C453.025 222.006 453.235 220.893 453.43 219.756C453.518 219.308 453.606 218.861 453.697 218.4C454.832 212.554 455.276 206.729 455.248 200.781C455.247 200.185 455.247 199.589 455.247 198.993C455.247 197.756 455.244 196.518 455.239 195.28C455.233 193.718 455.232 192.155 455.232 190.593C455.232 184.316 455.218 178.049 454.82 171.781C454.797 171.375 454.773 170.969 454.749 170.551C454.266 162.815 453.151 154.359 447.249 148.73C445.957 147.746 444.538 147.235 443 146.751C442.656 146.637 442.312 146.522 441.957 146.404C432.608 145.344 423.634 151.02 417.843 157.796Z" fill="black"/>
<path d="M511.031 164.266C511.297 164.451 511.562 164.636 511.836 164.827C512.17 165.051 512.504 165.276 512.848 165.507C516.786 168.375 519.097 172.538 521.57 176.647C521.726 176.901 521.882 177.156 522.042 177.419C523.658 180.071 524.995 182.777 526.089 185.685C526.236 186.067 526.382 186.45 526.532 186.843C531.305 199.731 531.516 212.607 528.587 225.95C528.44 226.621 528.3 227.294 528.159 227.966C527.1 232.545 524.56 236.084 520.592 238.613C518.902 239.581 517.198 240.152 515.313 240.612C515.098 240.677 514.884 240.741 514.664 240.808C511.978 241.358 508.848 241.195 506.274 240.264C505.877 240.128 505.479 239.992 505.07 239.852C502.151 238.802 499.877 237.532 497.583 235.397C497.371 235.217 497.159 235.036 496.941 234.85C490.451 228.982 487.389 218.909 485.416 210.715C485.277 210.165 485.137 209.614 484.997 209.064C484.701 207.876 484.427 206.686 484.172 205.488C484.074 205.031 483.972 204.574 483.868 204.118C481.283 192.735 482.867 178.874 488.562 168.658C491.187 164.592 494.543 163.051 499.089 161.964C503.173 161.112 507.479 162.048 511.031 164.266Z" fill="#FDFAFA"/>
<path d="M436.57 164.471C436.856 164.704 437.143 164.936 437.438 165.176C437.616 165.314 437.793 165.452 437.977 165.594C444.216 170.442 447.595 176.242 448.725 184.098C449.011 186.589 449 189.093 448.997 191.597C448.997 191.832 448.996 192.068 448.996 192.311C448.983 196.318 448.983 196.318 448.562 197.159C448.452 197.817 448.354 198.478 448.262 199.139C446.945 207.977 444.956 217.527 440.571 225.382C440.217 226.017 439.875 226.658 439.534 227.3C437.321 231.406 434.848 234.691 430.833 237.137C430.437 237.406 430.437 237.406 430.034 237.68C426.759 239.422 422.948 239.005 419.361 238.875C418.801 238.858 418.801 238.858 418.229 238.84C414.546 238.456 411.337 235.615 408.975 232.922C404.048 226.396 403.532 219.609 403.394 211.663C403.37 210.402 403.33 209.142 403.289 207.881C403.105 200.513 404.221 193.626 406.846 186.73C406.978 186.336 407.111 185.943 407.248 185.537C410.358 176.871 416.391 168.418 424.738 164.186C428.312 162.559 433.26 162.099 436.57 164.471Z" fill="#FDFAFA"/>
<path d="M511.031 164.266C511.297 164.451 511.562 164.636 511.836 164.827C512.17 165.051 512.504 165.276 512.848 165.507C516.786 168.375 519.097 172.538 521.57 176.647C521.726 176.901 521.882 177.156 522.042 177.419C523.658 180.071 524.995 182.777 526.089 185.685C526.236 186.067 526.382 186.45 526.532 186.843C531.305 199.731 531.516 212.607 528.587 225.95C528.44 226.621 528.3 227.294 528.159 227.966C527.1 232.545 524.56 236.084 520.592 238.613C518.902 239.581 517.198 240.152 515.313 240.612C515.098 240.677 514.884 240.741 514.664 240.808C511.978 241.358 508.848 241.195 506.274 240.264C505.877 240.128 505.479 239.992 505.07 239.852C502.151 238.802 499.877 237.532 497.583 235.397C497.371 235.217 497.159 235.036 496.941 234.85C490.451 228.982 487.389 218.909 485.416 210.715C485.277 210.165 485.137 209.614 484.997 209.064C484.701 207.876 484.427 206.686 484.172 205.488C484.074 205.031 483.972 204.574 483.868 204.118C481.283 192.735 482.867 178.874 488.562 168.658C491.187 164.592 494.543 163.051 499.089 161.964C503.173 161.112 507.479 162.048 511.031 164.266ZM492.576 168.28C486.116 176.636 485.096 189.438 486.111 199.591C486.718 203.819 487.825 207.975 488.892 212.106C489.015 212.6 489.138 213.095 489.26 213.589C490.313 217.764 492.09 221.538 494.107 225.316C494.225 225.539 494.343 225.761 494.465 225.991C497.489 231.645 501.104 235.269 507.23 237.418C511.016 238.46 514.937 238.095 518.388 236.262C522.349 233.89 524.216 231.121 525.394 226.706C525.643 225.667 525.869 224.624 526.089 223.578C526.154 223.276 526.219 222.975 526.286 222.665C528.56 211.756 527.875 200.439 524.351 189.857C524.275 189.624 524.199 189.391 524.121 189.151C521.492 181.243 516.567 170.908 509.099 166.697C508.169 166.251 507.244 165.871 506.274 165.522C505.865 165.372 505.457 165.221 505.036 165.066C500.897 164.238 495.639 165.164 492.576 168.28Z" fill="black"/>
<path d="M436.57 164.471C436.856 164.704 437.143 164.936 437.438 165.176C437.616 165.314 437.793 165.452 437.977 165.594C444.216 170.442 447.595 176.242 448.725 184.098C449.011 186.589 449 189.093 448.997 191.597C448.997 191.832 448.996 192.068 448.996 192.311C448.983 196.318 448.983 196.318 448.562 197.159C448.452 197.817 448.354 198.478 448.262 199.139C446.945 207.977 444.956 217.527 440.571 225.382C440.217 226.017 439.875 226.658 439.534 227.3C437.321 231.406 434.848 234.691 430.833 237.137C430.437 237.406 430.437 237.406 430.034 237.68C426.759 239.422 422.948 239.005 419.361 238.875C418.801 238.858 418.801 238.858 418.229 238.84C414.546 238.456 411.337 235.615 408.975 232.922C404.048 226.396 403.532 219.609 403.394 211.663C403.37 210.402 403.33 209.142 403.289 207.881C403.105 200.513 404.221 193.626 406.846 186.73C406.978 186.336 407.111 185.943 407.248 185.537C410.358 176.871 416.391 168.418 424.738 164.186C428.312 162.559 433.26 162.099 436.57 164.471ZM416.927 174.215C415.926 175.681 415.033 177.197 414.146 178.734C413.791 179.292 413.436 179.849 413.081 180.407C409.694 186.126 407.656 192.672 406.846 199.245C406.787 199.497 406.728 199.749 406.668 200.008C406.458 201.212 406.453 202.36 406.452 203.582C406.451 203.832 406.451 204.082 406.45 204.339C406.449 205.147 406.452 205.955 406.455 206.762C406.455 207.037 406.456 207.312 406.456 207.594C406.34 220.968 406.34 220.968 412.749 232.327C416.328 235.582 419.55 235.86 424.304 235.798C427.704 235.617 430.432 234.219 432.766 231.749C437.662 225.963 440.65 218.765 442.391 211.461C442.684 210.236 442.989 209.014 443.295 207.792C444.694 202.135 445.915 196.842 445.89 190.988C445.889 190.759 445.889 190.53 445.888 190.295C445.874 186.778 445.677 183.519 444.738 180.125C444.645 179.754 444.553 179.383 444.457 179.001C443.286 174.894 440.568 171.808 437.438 169C437.01 168.598 437.01 168.598 436.573 168.188C434.348 166.309 432.59 165.842 429.687 166.018C424.612 166.81 420.155 170.335 416.927 174.215Z" fill="black"/>
<path d="M423.188 184.642C425.012 185.659 425.787 186.955 426.424 188.926C427.86 196.556 426.054 204.953 421.798 211.41C420.457 212.992 419.47 214.084 417.365 214.365C416.441 214.355 416.017 214.291 415.278 213.721C412.787 210.887 411.902 207.679 411.977 203.97C412.405 197.814 413.652 190.924 418.032 186.275C419.746 184.803 420.942 184.2 423.188 184.642Z" fill="black"/>
<path d="M512.875 182.904C516.259 185.204 517.829 187.795 518.598 191.731C519.362 197.231 519.893 205.113 516.458 209.849C515.57 210.864 514.905 211.341 513.546 211.49C512.3 211.468 511.449 211.299 510.443 210.539C508.849 208.845 507.987 207.009 507.313 204.806C507.184 204.4 507.054 203.994 506.921 203.575C505.44 198.483 504.769 191.809 506.872 186.815C507.771 185.223 508.681 184.002 510.29 183.1C511.232 182.883 511.91 182.8 512.875 182.904Z" fill="black"/>
<path d="M531.649 291.715C532.891 292.728 533.337 293.404 533.54 294.996C533.476 298.501 530.487 301.839 528.173 304.23C526.843 305.373 525.458 306.384 524.001 307.359C523.728 307.55 523.456 307.742 523.174 307.939C521.474 309.025 519.952 309.411 517.929 309.309C516.646 309 516.041 308.45 515.298 307.379C514.612 305.915 514.711 304.696 515.171 303.21C515.978 301.345 517.305 299.946 518.684 298.478C519.392 297.721 520.058 296.944 520.72 296.148C523.626 292.826 527.144 290.967 531.649 291.715Z" fill="black"/>
<path d="M539.994 232.965C540.339 233.137 540.339 233.137 540.69 233.313C540.561 235.319 539.996 236.444 538.669 237.897C538.498 238.09 538.327 238.284 538.151 238.483C537.614 239.084 537.068 239.676 536.518 240.265C536.35 240.447 536.181 240.629 536.007 240.816C529.399 247.876 521.183 252.865 511.299 253.562C509.312 253.6 509.312 253.6 508.359 253.476C508.13 253.246 507.9 253.017 507.664 252.78C507.857 251.197 507.857 251.197 508.359 250.694C508.88 250.646 509.402 250.613 509.924 250.586C520.574 249.651 528.319 244.168 535.345 236.441C535.607 236.154 535.87 235.868 536.141 235.572C536.888 234.722 536.888 234.722 537.439 233.747C538.191 232.494 538.692 232.558 539.994 232.965Z" fill="black"/>
<path d="M394.678 234.008C395.531 234.042 395.531 234.042 396.417 234.355C396.933 235.028 396.933 235.028 397.373 235.898C398.534 237.979 399.985 239.597 401.631 241.308C401.922 241.621 402.212 241.933 402.511 242.255C408.148 248.149 415.875 252.713 424.19 253.033C424.923 253.128 424.923 253.128 425.618 253.823C425.727 254.692 425.727 254.692 425.618 255.561C423.842 256.746 421.853 256.373 419.816 255.984C417.974 255.6 416.275 254.993 414.537 254.279C414.234 254.156 413.931 254.033 413.619 253.905C406.132 250.786 397.356 244.118 393.983 236.441C393.896 235.529 393.896 235.529 393.983 234.703C394.213 234.474 394.442 234.244 394.678 234.008Z" fill="black"/>
<path d="M504.186 112.336C505.332 112.451 505.793 112.552 506.619 113.379C507.859 117.683 507.699 122.257 507.727 126.698C507.732 127.119 507.736 127.54 507.741 127.974C507.741 128.369 507.742 128.764 507.742 129.171C507.744 129.527 507.745 129.883 507.747 130.251C507.662 131.108 507.662 131.108 506.967 131.804C505.88 131.847 505.88 131.847 504.881 131.804C504.611 131.124 504.344 130.443 504.077 129.761C503.928 129.382 503.779 129.003 503.625 128.612C503.249 127.622 502.954 126.625 502.67 125.605C502.122 123.743 501.306 122.099 500.383 120.397C500.234 120.112 500.085 119.827 499.931 119.534C499.289 118.332 498.669 117.26 497.814 116.194C497.233 115.465 497.233 115.465 497.298 114.509C497.581 113.726 497.581 113.726 497.928 113.379C498.744 113.265 498.744 113.265 499.666 113.379C501.746 115.409 502.968 118.43 504.186 121.027C504.137 120.295 504.086 119.564 504.034 118.832C504.005 118.425 503.977 118.018 503.948 117.598C503.877 116.499 503.877 116.499 503.49 115.465C503.425 114.226 503.425 114.226 503.49 113.031C503.72 112.802 503.949 112.572 504.186 112.336Z" fill="black"/>
<path d="M399.286 253.625C400.861 253.861 401.277 254.236 402.204 255.476C403.931 258.327 404.517 261.288 404.066 264.597C403.557 265.923 402.818 266.588 401.633 267.378C400.319 267.55 399.733 267.5 398.613 266.77C395.95 264.18 395.991 261.417 395.91 257.848C396.168 255.842 397.212 253.984 399.286 253.625Z" fill="black"/>
<path d="M436.332 107.402C436.657 107.397 436.982 107.392 437.317 107.387C438.136 107.467 438.136 107.467 438.831 108.162C438.918 109.031 438.918 109.031 438.831 109.9C437.944 110.788 437.307 110.703 436.097 110.78C429.916 111.178 422.883 113.308 417.88 117.103C417.072 117.7 416.52 117.654 415.539 117.548C415.192 117.201 415.192 117.201 415.09 116.208C415.192 115.115 415.192 115.115 415.695 114.489C421.453 110.601 429.328 107.451 436.332 107.402Z" fill="black"/>
<path d="M475.158 261.776C475.579 261.774 476 261.772 476.434 261.771C477.023 261.772 477.023 261.772 477.624 261.773C478.154 261.773 478.154 261.773 478.696 261.774C479.503 261.819 479.503 261.819 479.851 262.167C479.916 263.014 479.916 263.014 479.851 263.905C478.92 264.836 478.369 264.734 477.066 264.82C476.426 264.864 476.426 264.864 475.773 264.909C475.319 264.936 474.865 264.963 474.397 264.991C473.94 265.02 473.482 265.049 473.011 265.079C465.864 265.512 465.864 265.512 463.859 265.295C463.63 265.066 463.4 264.837 463.164 264.6C463.279 263.454 463.381 262.993 464.207 262.167C467.805 261.664 471.533 261.786 475.158 261.776Z" fill="black"/>
<path d="M384.842 323.396L437.746 300.919C449.779 295.807 459.445 293.047 466.742 292.641C474.143 292.191 481.854 294.486 489.874 299.529C497.954 304.423 504.22 312.109 508.671 322.586C515.37 338.354 514.978 352.419 507.495 364.783C525.15 365.119 538.208 375.246 546.67 395.163C552.091 407.923 552.933 420.423 549.194 432.666C545.456 444.908 534.458 454.907 516.201 462.664L455.05 488.645L384.842 323.396ZM437.266 383.232L461.851 372.787C471.602 368.644 478.028 365.179 481.13 362.391C484.336 359.56 486.598 355.66 487.916 350.692C489.189 345.619 488.658 340.334 486.323 334.836C482.62 326.123 477.471 321.208 470.874 320.092C464.38 318.932 455.065 320.93 442.928 326.087L417.565 336.863L437.266 383.232ZM468.139 455.898L498.481 443.007C511.448 437.497 519.584 431.714 522.888 425.657C526.149 419.496 525.994 412.214 522.424 403.811C518.634 394.89 513.278 389.634 506.357 388.044C499.495 386.306 489.063 388.412 475.058 394.361L447.05 406.261L468.139 455.898Z" fill="#FD229E"/>
<defs>
<filter id="filter0_d_722_8017" x="-0.000169516" y="73.9922" width="839.219" height="393.442" filterUnits="userSpaceOnUse" color-interpolation-filters="sRGB">
<feFlood flood-opacity="0" result="BackgroundImageFix"/>
<feColorMatrix in="SourceAlpha" type="matrix" values="0 0 0 0 0 0 0 0 0 0 0 0 0 0 0 0 0 0 127 0" result="hardAlpha"/>
<feOffset dy="3.60954"/>
<feGaussianBlur stdDeviation="1.80477"/>
<feComposite in2="hardAlpha" operator="out"/>
<feColorMatrix type="matrix" values="0 0 0 0 0 0 0 0 0 0 0 0 0 0 0 0 0 0 0.25 0"/>
<feBlend mode="normal" in2="BackgroundImageFix" result="effect1_dropShadow_722_8017"/>
<feBlend mode="normal" in="SourceGraphic" in2="effect1_dropShadow_722_8017" result="shape"/>
</filter>
</defs>
</svg>
