<svg width="101" height="35" viewBox="0 0 101 35" fill="none" xmlns="http://www.w3.org/2000/svg">
<path d="M-5.70752e-05 0.553614H3.39167V11.1441C4.48379 11.1441 5.2452 10.8903 5.6759 10.3827C6.12198 9.85972 6.76802 8.38305 7.61403 5.95269C8.27546 3.99918 8.81382 2.71478 9.22914 2.0995C9.65983 1.46884 10.1367 1.05353 10.6597 0.853563C11.198 0.653597 12.1286 0.553614 13.4515 0.553614H13.9591V3.99149L12.9439 3.96842C12.2209 3.96842 11.7056 4.09916 11.398 4.36066C11.0904 4.62215 10.8289 5.11437 10.6135 5.83733C9.84442 8.31383 9.23683 9.90587 8.79075 10.6134C8.34467 11.321 7.6371 11.944 6.66804 12.4823C8.12933 12.9592 9.56754 14.6204 10.9827 17.4661L14.7205 25.0571H10.9827L7.33715 17.4661C6.59882 15.9279 5.94508 14.9204 5.37595 14.4436C4.8222 13.9667 4.16077 13.7283 3.39167 13.7283V25.0571H-5.70752e-05V0.553614ZM13.1783 0.553614H16.57V19.2427L26.03 0.553614H29.6986V25.0571H26.3068V6.48337L16.8469 25.0571H13.1783V0.553614ZM31.0174 34.4478V0.553614H34.1323V3.73769C34.9014 2.41484 35.7551 1.46115 36.6934 0.876636C37.6317 0.29212 38.7084 -0.000137862 39.9236 -0.000137862C41.5079 -0.000137862 42.9385 0.469013 44.2152 1.40731C45.4919 2.34562 46.5148 3.77614 47.2839 5.69889C48.0684 7.60626 48.4606 9.90587 48.4606 12.5977C48.4606 16.7662 47.5838 19.9811 45.8303 22.2422C44.0921 24.488 42.0463 25.6109 39.6929 25.6109C38.6469 25.6109 37.6701 25.3417 36.7626 24.8033C35.8551 24.265 35.0706 23.5035 34.4092 22.5191V34.4478H31.0174ZM34.0861 12.9438C34.0861 16.1125 34.6168 18.4506 35.6782 19.958C36.7395 21.4501 38.0239 22.1961 39.5314 22.1961C40.9773 22.1961 42.2463 21.4193 43.3384 19.8657C44.4305 18.3121 44.9766 15.9125 44.9766 12.6669C44.9766 9.46748 44.4459 7.09865 43.3845 5.56045C42.3232 4.02225 41.0311 3.25315 39.5083 3.25315C38.1393 3.25315 36.8933 4.08378 35.7705 5.74504C34.6476 7.39091 34.0861 9.7905 34.0861 12.9438ZM48.8565 0.553614H56.7014C58.4857 0.553614 59.847 0.722816 60.7853 1.06122C61.739 1.39962 62.585 2.0995 63.3233 3.16086C64.077 4.20684 64.4539 5.50662 64.4539 7.0602C64.4539 9.39826 63.654 11.1441 62.0543 12.2978C64.2539 13.2822 65.3537 15.2511 65.3537 18.2045C65.3537 20.0964 64.7923 21.7115 63.6694 23.0498C62.5465 24.388 60.6315 25.0571 57.9242 25.0571H48.8565V0.553614ZM52.2483 10.8672H55.8938C57.3397 10.8672 58.3318 10.7749 58.8702 10.5904C59.424 10.4058 59.9162 10.0366 60.3469 9.48286C60.7776 8.91373 60.9929 8.22154 60.9929 7.40629C60.9929 6.1142 60.6084 5.22205 59.8393 4.72983C59.0856 4.2376 57.8089 3.99149 56.0092 3.99149H52.2483V10.8672ZM52.2483 21.6423H56.7475C58.6702 21.6423 60.0008 21.3501 60.7391 20.7656C61.4775 20.1657 61.8466 19.2427 61.8466 17.9968C61.8466 16.6739 61.4544 15.728 60.6699 15.1588C59.9008 14.5743 58.478 14.282 56.4014 14.282H52.2483V21.6423ZM65.4959 34.494L65.1267 30.5946C65.8804 30.8408 66.5264 30.9638 67.0648 30.9638C67.7878 30.9638 68.38 30.8177 68.8414 30.5254C69.3183 30.2332 69.7105 29.7794 70.0182 29.1641C70.1258 28.9488 70.5719 27.5952 71.3564 25.1033L63.7192 0.553614H67.3878L71.5871 14.7435C72.1101 16.5124 72.5946 18.4044 73.0407 20.4195C73.4253 18.5121 73.8867 16.6509 74.4251 14.8358L78.7167 0.553614H82.1315L74.4943 25.4724C73.4945 28.7027 72.7023 30.8561 72.1178 31.9329C71.5487 33.025 70.8949 33.8095 70.1566 34.2863C69.4336 34.7632 68.6107 35.0016 67.6878 35.0016C67.0417 35.0016 66.3111 34.8324 65.4959 34.494ZM83.9579 0.553614H97.9402V21.6423H100.109V32.0021H97.3172V25.0571H81.5122V32.0021H78.6973V21.6423H80.497C82.8504 17.7353 84.0041 10.7057 83.9579 0.553614ZM86.7728 3.99149C86.5267 11.9594 85.5192 17.843 83.7503 21.6423H94.5484V3.99149H86.7728Z" fill="black"/>
</svg>
