<svg width="152" height="53" viewBox="0 0 152 53" fill="none" xmlns="http://www.w3.org/2000/svg">
<path d="M-0.000584111 0.837244H5.11962V16.8248C6.76831 16.8248 7.91774 16.4417 8.56792 15.6754C9.24133 14.8859 10.2166 12.6567 11.4938 8.98778C12.4923 6.03872 13.305 4.09978 13.932 3.17094C14.5821 2.21889 15.302 1.59192 16.0915 1.29005C16.9042 0.98818 18.3091 0.837244 20.3061 0.837244H21.0724V6.02711L19.5398 5.99228C18.4484 5.99228 17.6705 6.18966 17.2061 6.58442C16.7417 6.97917 16.3469 7.72224 16.0218 8.81362C14.8608 12.5522 13.9436 14.9555 13.2702 16.0237C12.5967 17.0919 11.5286 18.0323 10.0657 18.845C12.2717 19.5649 14.4428 22.0727 16.5791 26.3686L22.2218 37.8281H16.5791L11.0758 26.3686C9.96118 24.0465 8.97429 22.5256 8.11512 21.8057C7.27917 21.0859 6.28067 20.7259 5.11962 20.7259V37.8281H-0.000584111V0.837244ZM19.8937 0.837244H25.0139V29.0506L39.2947 0.837244H44.8329V37.8281H39.7127V9.7889L25.4319 37.8281H19.8937V0.837244ZM46.8239 52.0045V0.837244H51.5261V5.64397C52.6872 3.64697 53.9759 2.20728 55.3924 1.32488C56.8089 0.442489 58.4343 0.00129233 60.2688 0.00129233C62.6605 0.00129233 64.8201 0.70953 66.7474 2.126C68.6747 3.54248 70.2189 5.70202 71.38 8.60463C72.5642 11.484 73.1564 14.9555 73.1564 19.0192C73.1564 25.3121 71.8328 30.1652 69.1856 33.5787C66.5616 36.969 63.4733 38.6641 59.9205 38.6641C58.3414 38.6641 56.8669 38.2577 55.4969 37.445C54.1269 36.6322 52.9426 35.4828 51.9441 33.9967V52.0045H46.8239ZM51.4564 19.5417C51.4564 24.3252 52.2576 27.8548 53.8598 30.1304C55.4621 32.3828 57.401 33.509 59.6766 33.509C61.8594 33.509 63.7751 32.3364 65.4238 29.9911C67.0725 27.6458 67.8968 24.0233 67.8968 19.1237C67.8968 14.2938 67.0957 10.7177 65.4935 8.39564C63.8912 6.07356 61.9407 4.91251 59.6418 4.91251C57.5752 4.91251 55.6943 6.16644 53.9991 8.6743C52.304 11.1589 51.4564 14.7814 51.4564 19.5417ZM73.7541 0.837244H85.5967C88.2904 0.837244 90.3454 1.09267 91.7619 1.60353C93.2016 2.11439 94.4787 3.17094 95.5933 4.77319C96.7312 6.35221 97.3001 8.31437 97.3001 10.6597C97.3001 14.1893 96.0926 16.8248 93.6776 18.5664C96.9982 20.0525 98.6585 23.0248 98.6585 27.4832C98.6585 30.3394 97.8109 32.7776 96.1158 34.7978C94.4207 36.818 91.5297 37.8281 87.4428 37.8281H73.7541V0.837244ZM78.8743 16.4069H84.3776C86.5604 16.4069 88.0581 16.2675 88.8709 15.9889C89.7068 15.7102 90.4499 15.1529 91.1001 14.317C91.7503 13.4578 92.0754 12.4129 92.0754 11.1822C92.0754 9.2316 91.4948 7.88479 90.3338 7.14172C89.196 6.39865 87.2686 6.02711 84.5518 6.02711H78.8743V16.4069ZM78.8743 32.6731H85.6664C88.569 32.6731 90.5776 32.2319 91.6922 31.3495C92.8068 30.4439 93.3641 29.0506 93.3641 27.1697C93.3641 25.1727 92.772 23.7447 91.5877 22.8855C90.4267 22.0031 88.2787 21.5619 85.1439 21.5619H78.8743V32.6731ZM98.873 52.0741L98.3157 46.1876C99.4536 46.5592 100.429 46.7449 101.242 46.7449C102.333 46.7449 103.227 46.5243 103.924 46.0832C104.643 45.642 105.236 44.9569 105.7 44.0281C105.863 43.703 106.536 41.6596 107.72 37.8978L96.191 0.837244H101.729L108.069 22.2585C108.858 24.9289 109.589 27.7851 110.263 30.827C110.843 27.9476 111.54 25.1379 112.353 22.3978L118.831 0.837244H123.986L112.457 38.4551C110.948 43.3315 109.752 46.5824 108.87 48.2079C108.01 49.8565 107.024 51.0408 105.909 51.7607C104.818 52.4805 103.575 52.8404 102.182 52.8404C101.207 52.8404 100.104 52.585 98.873 52.0741ZM126.744 0.837244H147.851V32.6731H151.126V48.3124H146.911V37.8281H123.052V48.3124H118.802V32.6731H121.519C125.072 26.775 126.813 16.163 126.744 0.837244ZM130.993 6.02711C130.622 18.0555 129.101 26.9375 126.43 32.6731H142.731V6.02711H130.993Z" fill="white"/>
</svg>
