<svg width="615" height="288" viewBox="0 0 615 288" fill="none" xmlns="http://www.w3.org/2000/svg">
<g filter="url(#filter0_d_770_29340)">
<ellipse cx="307.141" cy="141.351" rx="304.5" ry="141.351" fill="white"/>
<path d="M307.141 0.330078C391.189 0.330078 467.264 16.1451 522.315 41.7002C577.394 67.2681 611.311 102.524 611.311 141.352C611.31 180.179 577.394 215.434 522.315 241.002C467.264 266.557 391.189 282.373 307.141 282.373C223.092 282.373 147.017 266.557 91.9658 241.002C36.8875 215.434 2.97079 180.179 2.9707 141.352C2.9707 102.524 36.8874 67.2681 91.9658 41.7002C147.017 16.1451 223.092 0.330078 307.141 0.330078Z" stroke="black" stroke-width="0.660521"/>
</g>
<path d="M55.9521 82.1973H93.4717C102.006 82.1973 108.516 83.0065 113.004 84.625C117.565 86.2435 121.611 89.5908 125.143 94.667C128.747 99.6696 130.55 105.886 130.55 113.316C130.55 124.499 126.724 132.849 119.073 138.366C129.593 143.075 134.854 152.491 134.854 166.616C134.854 175.665 132.168 183.39 126.798 189.79C121.427 196.19 112.268 199.391 99.3203 199.391H55.9521V82.1973ZM72.1738 131.524H89.6094C96.5247 131.524 101.27 131.083 103.845 130.2C106.493 129.317 108.847 127.552 110.907 124.903C112.967 122.181 113.997 118.871 113.997 114.972C113.997 108.792 112.158 104.525 108.479 102.171C104.875 99.8167 98.7686 98.6396 90.1611 98.6396H72.1738V131.524ZM72.1738 183.059H93.6924C102.888 183.059 109.252 181.661 112.783 178.865C116.314 175.996 118.08 171.582 118.08 165.623C118.08 159.296 116.204 154.772 112.452 152.05C108.774 149.254 101.969 147.856 92.0371 147.856H72.1738V183.059ZM169.87 82.1973H186.092V130.973H231.336V82.1973H247.558V199.391H231.336V147.415H186.092V199.391H169.87V82.1973ZM247.796 140.794C247.796 120.563 252.026 105.298 260.487 94.998C269.02 84.6986 279.798 79.5488 292.82 79.5488C305.62 79.5488 316.324 84.6986 324.932 94.998C333.539 105.298 337.843 120.158 337.843 139.58C337.843 160.62 333.613 176.29 325.153 186.59C316.692 196.889 305.915 202.039 292.82 202.039C279.945 202.039 269.204 196.889 260.597 186.59C252.063 176.217 247.796 160.951 247.796 140.794ZM264.459 140.794C264.459 155.949 267.218 167.242 272.736 174.672C278.253 182.029 285.095 185.707 293.261 185.707C300.912 185.707 307.46 181.992 312.904 174.562C318.421 167.058 321.18 155.802 321.18 140.794C321.18 125.713 318.421 114.493 312.904 107.137C307.386 99.7064 300.544 95.9912 292.378 95.9912C284.654 95.9912 278.069 99.7064 272.625 107.137C267.181 114.567 264.459 125.786 264.459 140.794ZM338.854 244.304V82.1973H353.751V97.4258C357.43 91.099 361.513 86.5378 366 83.7422C370.488 80.9466 375.638 79.5488 381.45 79.5488C389.027 79.5488 395.869 81.7926 401.975 86.2803C408.081 90.7679 412.973 97.6097 416.652 106.806C420.404 115.928 422.28 126.926 422.28 139.801C422.28 159.738 418.086 175.113 409.7 185.928C401.386 196.669 391.602 202.039 380.346 202.039C375.343 202.039 370.672 200.752 366.331 198.177C361.991 195.602 358.239 191.96 355.076 187.252V244.304H338.854ZM353.531 141.456C353.531 156.611 356.069 167.793 361.145 175.003C366.221 182.139 372.364 185.707 379.574 185.707C386.489 185.707 392.558 181.992 397.782 174.562C403.005 167.131 405.617 155.655 405.617 140.132C405.617 124.83 403.078 113.5 398.002 106.144C392.926 98.7868 386.746 95.1084 379.463 95.1084C372.916 95.1084 366.957 99.0811 361.586 107.026C356.216 114.898 353.531 126.375 353.531 141.456ZM424.063 82.1973H440.285V132.849C445.508 132.849 449.149 131.635 451.209 129.207C453.343 126.706 456.433 119.643 460.479 108.02C463.642 98.6764 466.217 92.5335 468.204 89.5908C470.263 86.5745 472.544 84.5882 475.045 83.6318C477.62 82.6755 482.071 82.1973 488.398 82.1973H490.826V98.6396L485.97 98.5293C482.512 98.5293 480.048 99.1546 478.577 100.405C477.105 101.656 475.855 104.01 474.825 107.468C471.146 119.312 468.24 126.926 466.107 130.311C463.973 133.695 460.589 136.674 455.954 139.249C462.943 141.53 469.822 149.475 476.59 163.085L494.467 199.391H476.59L459.155 163.085C455.623 155.728 452.497 150.91 449.775 148.629C447.126 146.348 443.963 145.208 440.285 145.208V199.391H424.063V82.1973ZM552.53 161.65L569.303 164.188C566.508 176.695 561.431 186.148 554.075 192.549C546.791 198.876 537.743 202.039 526.928 202.039C513.318 202.039 502.283 196.889 493.823 186.59C485.436 176.217 481.243 161.283 481.243 141.787C481.243 121.556 485.473 106.144 493.933 95.5498C502.467 84.8825 513.245 79.5488 526.266 79.5488C538.699 79.5488 549.072 84.7721 557.385 95.2188C565.698 105.665 569.855 120.784 569.855 140.573L569.745 145.87H498.016C498.678 159.039 501.731 168.97 507.175 175.665C512.619 182.36 519.24 185.707 527.039 185.707C539.251 185.707 547.748 177.688 552.53 161.65ZM499.009 129.538H552.64C551.904 119.386 549.734 111.808 546.129 106.806C540.906 99.5225 534.248 95.8809 526.156 95.8809C518.873 95.8809 512.656 98.9339 507.506 105.04C502.357 111.073 499.524 119.239 499.009 129.538Z" fill="#FD229E"/>
<defs>
<filter id="filter0_d_770_29340" x="-0.00145745" y="0" width="614.284" height="287.987" filterUnits="userSpaceOnUse" color-interpolation-filters="sRGB">
<feFlood flood-opacity="0" result="BackgroundImageFix"/>
<feColorMatrix in="SourceAlpha" type="matrix" values="0 0 0 0 0 0 0 0 0 0 0 0 0 0 0 0 0 0 127 0" result="hardAlpha"/>
<feOffset dy="2.64208"/>
<feGaussianBlur stdDeviation="1.32104"/>
<feComposite in2="hardAlpha" operator="out"/>
<feColorMatrix type="matrix" values="0 0 0 0 0 0 0 0 0 0 0 0 0 0 0 0 0 0 0.25 0"/>
<feBlend mode="normal" in2="BackgroundImageFix" result="effect1_dropShadow_770_29340"/>
<feBlend mode="normal" in="SourceGraphic" in2="effect1_dropShadow_770_29340" result="shape"/>
</filter>
</defs>
</svg>
