<svg width="575" height="294" viewBox="0 0 575 294" fill="none" xmlns="http://www.w3.org/2000/svg">
<g filter="url(#filter0_d_741_15843)">
<ellipse cx="197.141" cy="141.5" rx="194.5" ry="141.5" fill="white"/>
<path d="M197.141 0.330078C250.788 0.330078 299.343 16.1508 334.479 41.7119C369.614 67.2733 391.311 102.558 391.311 141.5C391.311 180.442 369.614 215.727 334.479 241.288C299.343 266.849 250.788 282.67 197.141 282.67C143.493 282.67 94.938 266.849 59.8027 241.288C24.6672 215.727 2.9707 180.442 2.9707 141.5C2.9707 102.558 24.6672 67.2733 59.8027 41.7119C94.938 16.1508 143.493 0.330078 197.141 0.330078Z" stroke="black" stroke-width="0.660521"/>
</g>
<path d="M119.23 216V177.267H61.7373V159.059L122.32 54.2246H135.562V159.059H153.55V177.267H135.562V216H119.23ZM119.23 159.059V86.1162L77.7383 159.059H119.23ZM152.023 136.216C152.023 109.069 155.664 88.5072 162.947 74.5293C170.304 60.5514 181.119 53.5625 195.391 53.5625C208.044 53.5625 218.013 59.2272 225.296 70.5566C234.124 84.2402 238.538 106.127 238.538 136.216C238.538 163.215 234.897 183.741 227.613 197.792C220.33 211.77 209.516 218.759 195.17 218.759C182.516 218.759 172.143 212.579 164.051 200.22C156.032 187.86 152.023 166.526 152.023 136.216ZM168.686 136.216C168.686 162.479 171.187 180.099 176.19 189.074C181.266 197.976 187.74 202.427 195.611 202.427C203.042 202.427 209.258 197.902 214.261 188.854C219.263 179.805 221.765 162.259 221.765 136.216C221.765 109.879 219.227 92.2591 214.15 83.3574C209.148 74.4557 202.637 70.0049 194.618 70.0049C187.261 70.0049 181.082 74.5293 176.079 83.5781C171.15 92.627 168.686 110.173 168.686 136.216ZM289.207 216V177.267H231.714V159.059L292.297 54.2246H305.539V159.059H323.527V177.267H305.539V216H289.207ZM289.207 159.059V86.1162L247.715 159.059H289.207Z" fill="#FD229E"/>
<defs>
<filter id="filter0_d_741_15843" x="-0.00145745" y="0" width="394.284" height="288.284" filterUnits="userSpaceOnUse" color-interpolation-filters="sRGB">
<feFlood flood-opacity="0" result="BackgroundImageFix"/>
<feColorMatrix in="SourceAlpha" type="matrix" values="0 0 0 0 0 0 0 0 0 0 0 0 0 0 0 0 0 0 127 0" result="hardAlpha"/>
<feOffset dy="2.64208"/>
<feGaussianBlur stdDeviation="1.32104"/>
<feComposite in2="hardAlpha" operator="out"/>
<feColorMatrix type="matrix" values="0 0 0 0 0 0 0 0 0 0 0 0 0 0 0 0 0 0 0.25 0"/>
<feBlend mode="normal" in2="BackgroundImageFix" result="effect1_dropShadow_741_15843"/>
<feBlend mode="normal" in="SourceGraphic" in2="effect1_dropShadow_741_15843" result="shape"/>
</filter>
</defs>
</svg>
