<svg width="85" height="47" viewBox="0 0 85 47" fill="none" xmlns="http://www.w3.org/2000/svg">
<g filter="url(#filter0_d_742_15844)">
<ellipse cx="42.1562" cy="21" rx="40" ry="21" fill="#FFC4E5"/>
<path d="M42.1562 0.269531C53.1673 0.269531 63.1227 2.61349 70.3154 6.38965C77.5206 10.1724 81.8867 15.3513 81.8867 21C81.8867 26.6487 77.5206 31.8276 70.3154 35.6104C63.1227 39.3865 53.1673 41.7305 42.1562 41.7305C31.1452 41.7305 21.1898 39.3865 13.9971 35.6104C6.79192 31.8276 2.42578 26.6487 2.42578 21C2.42578 15.3513 6.79192 10.1724 13.9971 6.38965C21.1898 2.61349 31.1452 0.269531 42.1562 0.269531Z" stroke="black" stroke-width="0.538982"/>
</g>
<path d="M42.2254 35.1636C47.3723 32.217 57.231 24.294 55.4903 16.1749C53.7496 8.05572 48.6068 8.25137 46.0203 9.3682C43.0156 10.6656 40.8176 14.4648 41.0495 17.2251C41.0614 14.5354 39.6753 8.00418 33.2427 9.40016C27.9945 10.5391 26.0945 16.8792 27.9172 21.2459C30.3762 27.137 34.9254 33.0686 42.2254 35.1636Z" stroke="#1E1E1E" stroke-width="1.3"/>
<defs>
<filter id="filter0_d_742_15844" x="0.000323057" y="0" width="84.3119" height="46.3119" filterUnits="userSpaceOnUse" color-interpolation-filters="sRGB">
<feFlood flood-opacity="0" result="BackgroundImageFix"/>
<feColorMatrix in="SourceAlpha" type="matrix" values="0 0 0 0 0 0 0 0 0 0 0 0 0 0 0 0 0 0 127 0" result="hardAlpha"/>
<feOffset dy="2.15593"/>
<feGaussianBlur stdDeviation="1.07796"/>
<feComposite in2="hardAlpha" operator="out"/>
<feColorMatrix type="matrix" values="0 0 0 0 0 0 0 0 0 0 0 0 0 0 0 0 0 0 0.25 0"/>
<feBlend mode="normal" in2="BackgroundImageFix" result="effect1_dropShadow_742_15844"/>
<feBlend mode="normal" in="SourceGraphic" in2="effect1_dropShadow_742_15844" result="shape"/>
</filter>
</defs>
</svg>
