<svg width="571" height="342" viewBox="0 0 571 342" fill="none" xmlns="http://www.w3.org/2000/svg">
<g filter="url(#filter0_d_740_9106)">
<ellipse cx="285.457" cy="168.5" rx="283" ry="168.5" fill="white"/>
<path d="M285.457 0.306641C363.56 0.306641 434.253 19.1566 485.411 49.6162C536.575 80.0797 568.15 122.121 568.15 168.5C568.15 214.879 536.575 256.92 485.411 287.384C434.253 317.843 363.56 336.693 285.457 336.693C207.354 336.693 136.661 317.843 85.5029 287.384C34.3387 256.92 2.76367 214.879 2.76367 168.5C2.76367 122.121 34.3387 80.0797 85.5029 49.6162C136.661 19.1566 207.354 0.306641 285.457 0.306641Z" stroke="black" stroke-width="0.613883"/>
</g>
<path d="M163.218 33.8887H230.091V134.75H240.464V184.298H227.111V151.082H151.52V184.298H138.058V134.75H146.665C157.921 116.064 163.438 82.4434 163.218 33.8887ZM176.681 50.3311C175.504 88.4391 170.685 116.579 162.225 134.75H213.869V50.3311H176.681ZM248.206 33.8887H323.907V151.082H307.686V50.3311H264.538V108.707C264.538 122.023 264.17 130.961 263.435 135.522C262.772 140.084 260.749 143.946 257.365 147.109C254.055 150.273 249.31 151.854 243.13 151.854C239.304 151.854 235.001 151.597 230.219 151.082V134.419C237.87 134.345 242.394 134.088 243.792 133.646C245.19 133.205 246.257 132.102 246.992 130.336C247.801 128.497 248.206 122.096 248.206 111.135V33.8887ZM406.137 33.8887V151.082H389.915V105.396H380.425C374.907 105.396 370.714 106.279 367.845 108.045C364.976 109.811 360.819 115.622 355.375 125.48L341.25 151.082H321.056L338.602 119.521C343.972 109.884 349.306 104.44 354.603 103.189C345.333 101.571 338.455 97.488 333.967 90.9404C329.479 84.3193 327.235 76.7051 327.235 68.0977C327.235 57.3568 330.252 48.9701 336.284 42.9375C342.39 36.9049 350.814 33.8887 361.555 33.8887H406.137ZM389.915 50.3311H366.741C357.03 50.3311 350.777 52.207 347.982 55.959C345.186 59.6374 343.788 63.9043 343.788 68.7598C343.788 75.8223 345.848 80.972 349.968 84.209C354.161 87.446 361.481 89.0645 371.928 89.0645H389.915V50.3311ZM88.492 171.889H155.365V272.75H165.738V322.298H152.386V289.082H76.7948V322.298H63.3319V272.75H71.9393C83.1952 254.064 88.7127 220.443 88.492 171.889ZM101.955 188.331C100.778 226.439 95.9592 254.579 87.4989 272.75H139.143V188.331H101.955ZM231.084 251.342L247.857 253.88C245.062 266.386 239.986 275.84 232.629 282.24C225.346 288.567 216.297 291.73 205.482 291.73C191.872 291.73 180.837 286.581 172.377 276.281C163.99 265.908 159.797 250.974 159.797 231.479C159.797 211.247 164.027 195.835 172.487 185.241C181.021 174.574 191.799 169.24 204.82 169.24C217.253 169.24 227.626 174.464 235.939 184.91C244.253 195.357 248.409 210.475 248.409 230.265L248.299 235.562H176.57C177.232 248.73 180.285 258.662 185.729 265.356C191.173 272.051 197.795 275.398 205.593 275.398C217.805 275.398 226.302 267.38 231.084 251.342ZM177.563 219.229H231.194C230.459 209.077 228.288 201.5 224.684 196.497C219.46 189.214 212.802 185.572 204.71 185.572C197.427 185.572 191.21 188.625 186.06 194.731C180.911 200.764 178.078 208.93 177.563 219.229ZM241.806 171.889H319.935V188.331H289.036V289.082H272.704V188.331H241.806V171.889ZM382.963 251.342L399.736 253.88C396.941 266.386 391.865 275.84 384.508 282.24C377.225 288.567 368.176 291.73 357.361 291.73C343.751 291.73 332.716 286.581 324.256 276.281C315.869 265.908 311.676 250.974 311.676 231.479C311.676 211.247 315.906 195.835 324.366 185.241C332.9 174.574 343.678 169.24 356.699 169.24C369.132 169.24 379.505 174.464 387.818 184.91C396.132 195.357 400.288 210.475 400.288 230.265L400.178 235.562H328.449C329.111 248.73 332.164 258.662 337.608 265.356C343.052 272.051 349.674 275.398 357.472 275.398C369.684 275.398 378.181 267.38 382.963 251.342ZM329.442 219.229H383.073C382.338 209.077 380.167 201.5 376.563 196.497C371.339 189.214 364.681 185.572 356.589 185.572C349.306 185.572 343.089 188.625 337.94 194.731C332.79 200.764 329.957 208.93 329.442 219.229ZM402.513 171.889H418.735V261.273L463.979 171.889H481.525V289.082H465.303V200.249L420.059 289.082H402.513V171.889ZM457.027 127.527H468.172C467.216 137.018 464.347 144.154 459.565 148.936C454.783 153.717 448.713 156.108 441.357 156.108C434 156.108 427.93 153.717 423.149 148.936C418.44 144.154 415.608 137.018 414.652 127.527H425.797C427.489 137.459 432.528 142.425 440.915 142.425C445.624 142.425 449.265 141.248 451.84 138.894C454.415 136.539 456.144 132.751 457.027 127.527Z" fill="#FD229E"/>
<defs>
<filter id="filter0_d_740_9106" x="0.00149965" y="0" width="570.911" height="341.911" filterUnits="userSpaceOnUse" color-interpolation-filters="sRGB">
<feFlood flood-opacity="0" result="BackgroundImageFix"/>
<feColorMatrix in="SourceAlpha" type="matrix" values="0 0 0 0 0 0 0 0 0 0 0 0 0 0 0 0 0 0 127 0" result="hardAlpha"/>
<feOffset dy="2.45553"/>
<feGaussianBlur stdDeviation="1.22777"/>
<feComposite in2="hardAlpha" operator="out"/>
<feColorMatrix type="matrix" values="0 0 0 0 0 0 0 0 0 0 0 0 0 0 0 0 0 0 0.25 0"/>
<feBlend mode="normal" in2="BackgroundImageFix" result="effect1_dropShadow_740_9106"/>
<feBlend mode="normal" in="SourceGraphic" in2="effect1_dropShadow_740_9106" result="shape"/>
</filter>
</defs>
</svg>
