<svg width="226" height="147" viewBox="0 0 226 147" fill="none" xmlns="http://www.w3.org/2000/svg">
<g filter="url(#filter0_d_722_6285)">
<ellipse cx="112.973" cy="73.3351" rx="112" ry="51.9913" fill="white"/>
<path d="M112.973 21.4648C143.887 21.4648 171.869 27.2821 192.117 36.6816C212.376 46.0859 224.851 59.0536 224.852 73.335C224.852 87.6164 212.376 100.584 192.117 109.988C171.869 119.388 143.887 125.205 112.973 125.205C82.0584 125.205 54.0768 119.388 33.8281 109.988C13.5694 100.584 1.09375 87.6164 1.09375 73.335C1.09382 59.0536 13.5694 46.0859 33.8281 36.6816C54.0768 27.2821 82.0584 21.4648 112.973 21.4648Z" stroke="black" stroke-width="0.24295"/>
</g>
<path d="M42.4568 89.6349C40.4511 91.7219 38.364 93.294 36.1956 94.3511C34.0273 95.4082 31.7776 95.9367 29.4466 95.9367C25.7603 95.9367 22.8195 94.8254 20.624 92.6028C18.4285 90.3802 17.3308 87.3852 17.3308 83.6176C17.3308 81.124 17.8458 78.915 18.8757 76.9905C19.9057 75.0661 21.3152 73.5618 23.1041 72.4776C24.893 71.3934 27.6034 70.5938 31.2355 70.0788C36.1143 69.3741 39.6921 68.5339 41.9689 67.5581L42.0096 65.6879C42.0096 62.7334 41.4811 60.6599 40.424 59.4673C38.9332 57.7326 36.6429 56.8653 33.5529 56.8653C30.7611 56.8653 28.6741 57.448 27.2917 58.6135C25.9094 59.7519 24.893 61.9068 24.2425 65.078L18.3472 64.1022C19.1874 59.4673 20.8815 56.0928 23.4293 53.9786C26.0043 51.8645 29.677 50.8074 34.4474 50.8074C38.1607 50.8074 41.0745 51.5121 43.1886 52.9215C45.3028 54.3039 46.6309 56.025 47.173 58.085C47.7422 60.1449 48.0268 63.1536 48.0268 67.1109V76.8685C48.0268 83.6989 48.1488 88.0086 48.3928 89.7975C48.6638 91.5593 49.1788 93.2804 49.9377 94.9609H43.6765C43.0531 93.4702 42.6466 91.6948 42.4568 89.6349ZM41.9689 73.2907C39.7735 74.3749 36.5073 75.2965 32.1706 76.0554C29.6499 76.4891 27.888 76.9905 26.8852 77.5597C25.8823 78.1018 25.0963 78.8879 24.5271 79.9178C23.985 80.9207 23.7139 82.0862 23.7139 83.4143C23.7139 85.4743 24.3509 87.1277 25.6248 88.3745C26.8987 89.5942 28.6605 90.2041 30.9102 90.2041C33.0515 90.2041 34.9895 89.6484 36.7242 88.5371C38.486 87.4258 39.8006 85.9486 40.6679 84.1055C41.5353 82.2353 41.9689 79.5248 41.9689 75.9741V73.2907ZM71.4111 35.3577H77.4284V55.9708C79.8949 52.5285 82.8629 50.8074 86.3323 50.8074C90.3709 50.8074 93.6506 52.8809 96.1713 57.0279C98.7191 61.1749 99.9931 66.5959 99.9931 73.2907C99.9931 80.0669 98.6649 85.5421 96.0087 89.7162C93.3524 93.8632 90.0592 95.9367 86.129 95.9367C82.9035 95.9367 80.0033 94.3646 77.4284 91.2205V111.508H71.4111V91.2205C68.9988 94.3646 66.0986 95.9367 62.7105 95.9367C58.6448 95.9367 55.311 93.7954 52.7089 89.5129C50.1069 85.2303 48.8058 79.701 48.8058 72.9248C48.8058 68.1273 49.4834 64.0345 50.8387 60.6464C52.221 57.2312 53.9151 54.7376 55.9208 53.1655C57.9266 51.5934 60.1898 50.8074 62.7105 50.8074C66.2342 50.8074 69.1344 52.5285 71.4111 55.9708V35.3577ZM77.3877 74.0632C77.3877 84.6883 79.9762 90.0008 85.1532 90.0008C87.6469 90.0008 89.7339 88.5778 91.4144 85.7318C93.0949 82.8858 93.9352 78.6575 93.9352 73.0468C93.9352 67.5716 93.1356 63.4924 91.5364 60.809C89.9372 58.1256 87.8908 56.784 85.3972 56.784C80.0575 56.784 77.3877 62.5437 77.3877 74.0632ZM54.9044 73.3314C54.9044 79.2402 55.7717 83.4821 57.5064 86.057C59.2682 88.632 61.3282 89.9195 63.6863 89.9195C68.8633 89.9195 71.4518 84.5798 71.4518 73.9006C71.4518 62.5166 68.7142 56.8246 63.2391 56.8246C60.9081 56.8246 58.9294 58.1799 57.3032 60.8903C55.704 63.5737 54.9044 67.7207 54.9044 73.3314ZM100.325 51.7831H106.301V84.7154L122.971 51.7831H129.435V94.9609H123.459V62.232L106.789 94.9609H100.325V51.7831ZM132.084 51.7831H138.061V88.903H151.762V51.7831H157.78V88.903H171.441V51.7831H177.417V94.9609H132.084V51.7831ZM202.997 89.6349C200.991 91.7219 198.904 93.294 196.736 94.3511C194.567 95.4082 192.318 95.9367 189.987 95.9367C186.3 95.9367 183.36 94.8254 181.164 92.6028C178.969 90.3802 177.871 87.3852 177.871 83.6176C177.871 81.124 178.386 78.915 179.416 76.9905C180.446 75.0661 181.855 73.5618 183.644 72.4776C185.433 71.3934 188.144 70.5938 191.776 70.0788C196.654 69.3741 200.232 68.5339 202.509 67.5581L202.55 65.6879C202.55 62.7334 202.021 60.6599 200.964 59.4673C199.473 57.7326 197.183 56.8653 194.093 56.8653C191.301 56.8653 189.214 57.448 187.832 58.6135C186.449 59.7519 185.433 61.9068 184.783 65.078L178.887 64.1022C179.728 59.4673 181.422 56.0928 183.969 53.9786C186.544 51.8645 190.217 50.8074 194.987 50.8074C198.701 50.8074 201.615 51.5121 203.729 52.9215C205.843 54.3039 207.171 56.025 207.713 58.085C208.282 60.1449 208.567 63.1536 208.567 67.1109V76.8685C208.567 83.6989 208.689 88.0086 208.933 89.7975C209.204 91.5593 209.719 93.2804 210.478 94.9609H204.217C203.593 93.4702 203.187 91.6948 202.997 89.6349ZM202.509 73.2907C200.314 74.3749 197.047 75.2965 192.711 76.0554C190.19 76.4891 188.428 76.9905 187.425 77.5597C186.422 78.1018 185.636 78.8879 185.067 79.9178C184.525 80.9207 184.254 82.0862 184.254 83.4143C184.254 85.4743 184.891 87.1277 186.165 88.3745C187.439 89.5942 189.201 90.2041 191.45 90.2041C193.592 90.2041 195.53 89.6484 197.264 88.5371C199.026 87.4258 200.341 85.9486 201.208 84.1055C202.075 82.2353 202.509 79.5248 202.509 75.9741V73.2907Z" fill="#FD229E"/>
<defs>
<filter id="filter0_d_722_6285" x="0.000855803" y="21.3438" width="225.944" height="105.928" filterUnits="userSpaceOnUse" color-interpolation-filters="sRGB">
<feFlood flood-opacity="0" result="BackgroundImageFix"/>
<feColorMatrix in="SourceAlpha" type="matrix" values="0 0 0 0 0 0 0 0 0 0 0 0 0 0 0 0 0 0 127 0" result="hardAlpha"/>
<feOffset dy="0.9718"/>
<feGaussianBlur stdDeviation="0.4859"/>
<feComposite in2="hardAlpha" operator="out"/>
<feColorMatrix type="matrix" values="0 0 0 0 0 0 0 0 0 0 0 0 0 0 0 0 0 0 0.25 0"/>
<feBlend mode="normal" in2="BackgroundImageFix" result="effect1_dropShadow_722_6285"/>
<feBlend mode="normal" in="SourceGraphic" in2="effect1_dropShadow_722_6285" result="shape"/>
</filter>
</defs>
</svg>
