<svg width="628" height="198" viewBox="0 0 628 198" fill="none" xmlns="http://www.w3.org/2000/svg">
<g filter="url(#filter0_d_740_8398)">
<path d="M624 95C624 147.467 577.246 190 314 190C58.8852 190 4 147.467 4 95C4 42.5329 80.2295 0 314 0C556.918 0 624 42.5329 624 95Z" fill="white"/>
<path d="M314 0.5C435.445 0.5 512.873 11.1343 559.923 28.2949C583.444 36.8738 599.338 47.0711 609.349 58.3535C619.349 69.6247 623.5 82.0015 623.5 95C623.5 108.038 620.597 120.42 612.181 131.679C603.759 142.945 589.779 153.134 567.537 161.709C523.035 178.865 445.616 189.5 314 189.5C186.453 189.5 109.03 178.865 63.5088 161.707C40.7547 153.131 26.0094 142.938 16.9521 131.665C7.90282 120.402 4.5 108.022 4.5 95C4.5 69.084 23.3015 45.4604 71.5039 28.2959C119.701 11.1334 197.132 0.5 314 0.5Z" stroke="black"/>
</g>
<defs>
<filter id="filter0_d_740_8398" x="0" y="0" width="628" height="198" filterUnits="userSpaceOnUse" color-interpolation-filters="sRGB">
<feFlood flood-opacity="0" result="BackgroundImageFix"/>
<feColorMatrix in="SourceAlpha" type="matrix" values="0 0 0 0 0 0 0 0 0 0 0 0 0 0 0 0 0 0 127 0" result="hardAlpha"/>
<feOffset dy="4"/>
<feGaussianBlur stdDeviation="2"/>
<feComposite in2="hardAlpha" operator="out"/>
<feColorMatrix type="matrix" values="0 0 0 0 0 0 0 0 0 0 0 0 0 0 0 0 0 0 0.25 0"/>
<feBlend mode="normal" in2="BackgroundImageFix" result="effect1_dropShadow_740_8398"/>
<feBlend mode="normal" in="SourceGraphic" in2="effect1_dropShadow_740_8398" result="shape"/>
</filter>
</defs>
</svg>
