<svg width="628" height="177" viewBox="0 0 628 177" fill="none" xmlns="http://www.w3.org/2000/svg">
<g filter="url(#filter0_d_740_8399)">
<path d="M624 84.5C624 131.168 577.246 169 314 169C58.8852 169 4 131.168 4 84.5C4 37.8319 80.2295 0 314 0C556.918 0 624 37.8319 624 84.5Z" fill="white"/>
<path d="M314 0.5C435.447 0.5 512.883 9.95827 559.94 25.2246C583.468 32.8572 599.362 41.9298 609.369 51.9619C619.363 61.9803 623.5 72.9692 623.5 84.5C623.5 96.0749 620.604 107.068 612.198 117.069C603.782 127.084 589.804 136.148 567.555 143.777C523.045 159.04 445.617 168.5 314 168.5C186.451 168.5 109.02 159.04 63.4912 143.776C40.7305 136.146 25.9853 127.078 16.9326 117.056C7.893 107.048 4.5 96.0567 4.5 84.5C4.5 61.5175 23.2519 40.5044 71.4873 25.2266C119.692 9.95866 197.13 0.5 314 0.5Z" stroke="black"/>
</g>
<defs>
<filter id="filter0_d_740_8399" x="0" y="0" width="628" height="177" filterUnits="userSpaceOnUse" color-interpolation-filters="sRGB">
<feFlood flood-opacity="0" result="BackgroundImageFix"/>
<feColorMatrix in="SourceAlpha" type="matrix" values="0 0 0 0 0 0 0 0 0 0 0 0 0 0 0 0 0 0 127 0" result="hardAlpha"/>
<feOffset dy="4"/>
<feGaussianBlur stdDeviation="2"/>
<feComposite in2="hardAlpha" operator="out"/>
<feColorMatrix type="matrix" values="0 0 0 0 0 0 0 0 0 0 0 0 0 0 0 0 0 0 0.25 0"/>
<feBlend mode="normal" in2="BackgroundImageFix" result="effect1_dropShadow_740_8399"/>
<feBlend mode="normal" in="SourceGraphic" in2="effect1_dropShadow_740_8399" result="shape"/>
</filter>
</defs>
</svg>
