<svg width="85" height="47" viewBox="0 0 85 47" fill="none" xmlns="http://www.w3.org/2000/svg">
<g filter="url(#filter0_d_740_9256)">
<ellipse cx="42.1562" cy="21" rx="40" ry="21" fill="#FFC4E5"/>
<path d="M42.1562 0.269531C53.1673 0.269531 63.1227 2.61349 70.3154 6.38965C77.5206 10.1724 81.8867 15.3513 81.8867 21C81.8867 26.6487 77.5206 31.8276 70.3154 35.6104C63.1227 39.3865 53.1673 41.7305 42.1562 41.7305C31.1452 41.7305 21.1898 39.3865 13.9971 35.6104C6.79192 31.8276 2.42578 26.6487 2.42578 21C2.42578 15.3513 6.79192 10.1724 13.9971 6.38965C21.1898 2.61349 31.1452 0.269531 42.1562 0.269531Z" stroke="black" stroke-width="0.538982"/>
</g>
<path d="M41.8408 7.23926C50.765 7.23926 57.787 13.3718 57.7871 20.6934C57.7871 28.015 50.7651 34.1475 41.8408 34.1475C32.9168 34.1473 25.8955 28.0149 25.8955 20.6934C25.8956 13.3719 32.9169 7.23946 41.8408 7.23926Z" stroke="#1E1E1E" stroke-width="1.49488"/>
<path d="M48.2733 14.9772C48.1589 9.71935 44.9789 9.36202 43.5823 14.2837" stroke="#1E1E1E" stroke-width="1.24573"/>
<path d="M40.3114 14.2952C38.7694 9.26725 35.6123 9.78948 35.6089 14.9055" stroke="#1E1E1E" stroke-width="1.24573"/>
<path d="M51.5547 16.4609C49.2825 18.0438 45.8741 20.4473 41.8767 20.4473C36.4025 20.4473 34.6393 18.0438 32.6196 16.4609" stroke="#1E1E1E" stroke-width="1.24573"/>
<path d="M56.7447 31.3213C55.6964 34.3633 50.8394 35.0176 48.542 34.9646C46.5397 32.8078 46.2183 29.9292 46.5821 27.4825C46.8518 25.6689 48.7516 23.9461 50.7207 24.6191C52.9836 25.3925 52.3794 27.5894 51.848 28.5941C52.4106 27.7144 53.7904 27.0068 54.966 27.167C56.0477 27.3144 57.7929 28.2793 56.7447 31.3213Z" fill="#FFC4E5"/>
<path d="M48.542 34.9646C50.8394 35.0176 55.6964 34.3633 56.7447 31.3213C57.7929 28.2793 56.0477 27.3144 54.966 27.167C53.7094 26.9958 52.2195 27.816 51.7437 28.7781C52.2863 27.8882 53.1342 25.444 50.7207 24.6191C48.7516 23.9461 46.8518 25.6689 46.5821 27.4825C46.2183 29.9292 46.5397 32.8078 48.542 34.9646Z" stroke="#1E1E1E" stroke-width="1.24573"/>
<path d="M50.7592 12.3838C51.8075 15.4258 56.6645 16.0801 58.962 16.0271C60.9642 13.8703 61.2856 10.9917 60.9218 8.545C60.6521 6.7314 58.7523 5.00856 56.7832 5.68159C54.5203 6.45502 55.1245 8.65195 55.6559 9.65662C55.0934 8.77691 53.7135 8.06931 52.5379 8.2295C51.4563 8.37689 49.711 9.34177 50.7592 12.3838Z" fill="#FFC4E5"/>
<path d="M58.962 16.0271C56.6645 16.0801 51.8075 15.4258 50.7592 12.3838C49.711 9.34177 51.4563 8.37689 52.5379 8.2295C53.7945 8.05828 55.2844 8.87851 55.7602 9.84063C55.2177 8.95073 54.3697 6.5065 56.7832 5.68159C58.7523 5.00856 60.6521 6.7314 60.9218 8.545C61.2856 10.9917 60.9642 13.8703 58.962 16.0271Z" stroke="#1E1E1E" stroke-width="1.24573"/>
<path d="M22.8569 27.833C23.9052 30.875 28.7622 31.5294 31.0596 31.4763C33.0619 29.3196 33.3833 26.4409 33.0195 23.9942C32.7498 22.1806 30.85 20.4578 28.8809 21.1308C26.618 21.9042 27.2222 24.1012 27.7535 25.1058C27.191 24.2261 25.8112 23.5185 24.6356 23.6787C23.5539 23.8261 21.8086 24.791 22.8569 27.833Z" fill="#FFC4E5"/>
<path d="M31.0596 31.4763C28.7622 31.5294 23.9052 30.875 22.8569 27.833C21.8086 24.791 23.5539 23.8261 24.6356 23.6787C25.8921 23.5075 27.3821 24.3277 27.8578 25.2899C27.3153 24.3999 26.4674 21.9557 28.8809 21.1308C30.85 20.4578 32.7498 22.1806 33.0195 23.9942C33.3833 26.4409 33.0619 29.3196 31.0596 31.4763Z" stroke="#1E1E1E" stroke-width="1.24573"/>
<defs>
<filter id="filter0_d_740_9256" x="0.000323057" y="0" width="84.3119" height="46.3119" filterUnits="userSpaceOnUse" color-interpolation-filters="sRGB">
<feFlood flood-opacity="0" result="BackgroundImageFix"/>
<feColorMatrix in="SourceAlpha" type="matrix" values="0 0 0 0 0 0 0 0 0 0 0 0 0 0 0 0 0 0 127 0" result="hardAlpha"/>
<feOffset dy="2.15593"/>
<feGaussianBlur stdDeviation="1.07796"/>
<feComposite in2="hardAlpha" operator="out"/>
<feColorMatrix type="matrix" values="0 0 0 0 0 0 0 0 0 0 0 0 0 0 0 0 0 0 0.25 0"/>
<feBlend mode="normal" in2="BackgroundImageFix" result="effect1_dropShadow_740_9256"/>
<feBlend mode="normal" in="SourceGraphic" in2="effect1_dropShadow_740_9256" result="shape"/>
</filter>
</defs>
</svg>
