<svg width="85" height="47" viewBox="0 0 85 47" fill="none" xmlns="http://www.w3.org/2000/svg">
<g filter="url(#filter0_d_740_9275)">
<ellipse cx="42.1562" cy="21" rx="40" ry="21" fill="#FFC4E5"/>
<path d="M42.1562 0.269531C53.1673 0.269531 63.1227 2.61349 70.3154 6.38965C77.5206 10.1724 81.8867 15.3513 81.8867 21C81.8867 26.6487 77.5206 31.8276 70.3154 35.6104C63.1227 39.3865 53.1673 41.7305 42.1562 41.7305C31.1452 41.7305 21.1898 39.3865 13.9971 35.6104C6.79192 31.8276 2.42578 26.6487 2.42578 21C2.42578 15.3513 6.79192 10.1724 13.9971 6.38965C21.1898 2.61349 31.1452 0.269531 42.1562 0.269531Z" stroke="black" stroke-width="0.538982"/>
</g>
<path d="M41.8486 7.65039C50.8113 7.65039 57.8915 13.8116 57.8916 21.2012C57.8916 28.5908 50.8113 34.7529 41.8486 34.7529C32.8861 34.7527 25.8066 28.5907 25.8066 21.2012C25.8068 13.8117 32.8862 7.65059 41.8486 7.65039Z" stroke="#1E1E1E" stroke-width="1.3"/>
<path d="M52.0625 18.4609C49.6707 20.0438 46.083 22.4473 41.8752 22.4473C36.1129 22.4473 34.2568 20.0438 32.1308 18.4609" stroke="#1E1E1E" stroke-width="1.3"/>
<path d="M40.6016 14.9727C39.7644 14.3791 38.5087 13.4778 37.036 13.4778C35.0192 13.4778 34.3696 14.3791 33.6255 14.9727" stroke="#1E1E1E" stroke-width="1.3"/>
<path d="M43.0938 14.9727C43.9309 14.3791 45.1866 13.4778 46.6593 13.4778C48.6761 13.4778 49.3257 14.3791 50.0699 14.9727" stroke="#1E1E1E" stroke-width="1.3"/>
<defs>
<filter id="filter0_d_740_9275" x="0.000323057" y="0" width="84.3119" height="46.3119" filterUnits="userSpaceOnUse" color-interpolation-filters="sRGB">
<feFlood flood-opacity="0" result="BackgroundImageFix"/>
<feColorMatrix in="SourceAlpha" type="matrix" values="0 0 0 0 0 0 0 0 0 0 0 0 0 0 0 0 0 0 127 0" result="hardAlpha"/>
<feOffset dy="2.15593"/>
<feGaussianBlur stdDeviation="1.07796"/>
<feComposite in2="hardAlpha" operator="out"/>
<feColorMatrix type="matrix" values="0 0 0 0 0 0 0 0 0 0 0 0 0 0 0 0 0 0 0.25 0"/>
<feBlend mode="normal" in2="BackgroundImageFix" result="effect1_dropShadow_740_9275"/>
<feBlend mode="normal" in="SourceGraphic" in2="effect1_dropShadow_740_9275" result="shape"/>
</filter>
</defs>
</svg>
