<svg width="85" height="47" viewBox="0 0 85 47" fill="none" xmlns="http://www.w3.org/2000/svg">
<g filter="url(#filter0_d_740_9266)">
<ellipse cx="42.1562" cy="21" rx="40" ry="21" fill="#FFC4E5"/>
<path d="M42.1562 0.269531C53.1673 0.269531 63.1227 2.61349 70.3154 6.38965C77.5206 10.1724 81.8867 15.3513 81.8867 21C81.8867 26.6487 77.5206 31.8276 70.3154 35.6104C63.1227 39.3865 53.1673 41.7305 42.1562 41.7305C31.1452 41.7305 21.1898 39.3865 13.9971 35.6104C6.79192 31.8276 2.42578 26.6487 2.42578 21C2.42578 15.3513 6.79192 10.1724 13.9971 6.38965C21.1898 2.61349 31.1452 0.269531 42.1562 0.269531Z" stroke="black" stroke-width="0.538982"/>
</g>
<path d="M42.8408 7.23926C51.765 7.23926 58.787 13.3718 58.7871 20.6934C58.7871 28.015 51.7651 34.1475 42.8408 34.1475C33.9168 34.1473 26.8955 28.0149 26.8955 20.6934C26.8956 13.3719 33.9169 7.23946 42.8408 7.23926Z" stroke="#1E1E1E" stroke-width="1.49488"/>
<path d="M48.771 16.1288C49.4748 10.917 46.3889 10.07 44.2447 14.715" stroke="#1E1E1E" stroke-width="1.24573"/>
<path d="M41.3261 14.4547C40.5838 9.24823 37.3839 9.27369 36.5859 14.3271" stroke="#1E1E1E" stroke-width="1.24573"/>
<path d="M51.4531 18.75C48.9626 19.9606 45.2223 21.8055 41.2734 21.1846C35.8657 20.3342 34.4972 17.6859 32.7478 15.8086" stroke="#1E1E1E" stroke-width="1.24573"/>
<path d="M48.1463 23.2547C48.961 21.9901 51.4078 23.2297 49.9315 27.0669L52.6429 23.2547C54.0058 21.4882 56.1898 22.4725 53.2841 26.5975C54.6559 25.0682 56.3619 23.6688 57.0485 24.6982C57.9747 26.0866 55.2211 28.3032 53.6422 29.5369L56.6733 27.1716C59.841 25.4082 60.3348 28.5718 56.4367 30.6281C58.9159 29.8531 59.4787 31.1582 58.8601 32.1641C57.9738 33.3571 53.9134 34.7659 52.1326 34.9048C50.9143 34.9999 49.2279 35.4239 46.9006 33.1608C45.4062 31.7076 45.6859 29.6625 46.5247 28.3529C47.7549 26.4324 46.9005 25.1881 48.1463 23.2547Z" fill="#FFC4E5"/>
<path d="M49.9315 27.0669C51.4078 23.2297 48.961 21.9901 48.1463 23.2547C46.9005 25.1881 47.7549 26.4324 46.5247 28.3529C45.6859 29.6625 45.4062 31.7076 46.9006 33.1608C49.2279 35.4239 50.9143 34.9999 52.1326 34.9048C53.9134 34.7659 57.9738 33.3571 58.8601 32.1641C59.5994 30.9619 58.6512 29.3323 54.7609 31.3372C60.4165 29.442 60.2379 25.1873 56.6733 27.1716L53.4141 29.7149C54.9355 28.5277 58.0212 26.1562 57.0485 24.6982C56.0759 23.2402 53.0583 26.6549 51.8416 28.4099C56.7849 22.7828 54.187 21.2533 52.6429 23.2547L49.9315 27.0669Z" stroke="#1E1E1E" stroke-width="1.24573"/>
<path d="M34.6428 21.7586C33.828 20.494 31.3813 21.7336 32.8575 25.5708L30.1462 21.7586C28.7833 19.9921 26.5993 20.9764 29.505 25.1014C28.1331 23.5721 26.4272 22.1727 25.7405 23.2021C24.8143 24.5905 27.568 26.8071 29.1468 28.0408L26.1157 25.6755C22.9481 23.9121 22.4543 27.0757 26.3523 29.132C23.8732 28.357 23.3104 29.6621 23.9289 30.668C24.8153 31.861 28.8757 33.2698 30.6565 33.4087C31.8747 33.5038 33.5611 33.9278 35.8884 31.6647C37.3828 30.2115 37.1032 28.1665 36.2643 26.8568C35.0342 24.9363 35.8885 23.692 34.6428 21.7586Z" fill="#FFC4E5"/>
<path d="M32.8575 25.5708C31.3813 21.7336 33.828 20.494 34.6428 21.7586C35.8885 23.692 35.0342 24.9363 36.2643 26.8568C37.1032 28.1665 37.3828 30.2115 35.8884 31.6647C33.5611 33.9278 31.8747 33.5038 30.6565 33.4087C28.8757 33.2698 24.8153 31.861 23.9289 30.668C23.1897 29.4658 24.1378 27.8362 28.0281 29.8411C22.3725 27.9459 22.5511 23.6912 26.1157 25.6755L29.375 28.2188C27.8535 27.0316 24.7679 24.6601 25.7405 23.2021C26.7132 21.7441 29.7308 25.1588 30.9474 26.9138C26.0042 21.2867 28.6021 19.7573 30.1462 21.7586L32.8575 25.5708Z" stroke="#1E1E1E" stroke-width="1.24573"/>
<defs>
<filter id="filter0_d_740_9266" x="0.000323057" y="0" width="84.3119" height="46.3119" filterUnits="userSpaceOnUse" color-interpolation-filters="sRGB">
<feFlood flood-opacity="0" result="BackgroundImageFix"/>
<feColorMatrix in="SourceAlpha" type="matrix" values="0 0 0 0 0 0 0 0 0 0 0 0 0 0 0 0 0 0 127 0" result="hardAlpha"/>
<feOffset dy="2.15593"/>
<feGaussianBlur stdDeviation="1.07796"/>
<feComposite in2="hardAlpha" operator="out"/>
<feColorMatrix type="matrix" values="0 0 0 0 0 0 0 0 0 0 0 0 0 0 0 0 0 0 0.25 0"/>
<feBlend mode="normal" in2="BackgroundImageFix" result="effect1_dropShadow_740_9266"/>
<feBlend mode="normal" in="SourceGraphic" in2="effect1_dropShadow_740_9266" result="shape"/>
</filter>
</defs>
</svg>
