<svg width="556" height="289" viewBox="0 0 556 289" fill="none" xmlns="http://www.w3.org/2000/svg">
<g filter="url(#filter0_d_770_32366)">
<ellipse cx="213.641" cy="141.5" rx="211" ry="141.5" fill="white"/>
<path d="M213.641 0.330078C271.85 0.330078 324.534 16.1535 362.656 41.7188C400.78 67.2854 424.311 102.57 424.311 141.5C424.311 180.43 400.78 215.715 362.656 241.281C324.534 266.847 271.85 282.67 213.641 282.67C155.431 282.67 102.747 266.847 64.625 241.281C26.5008 215.715 2.9707 180.43 2.9707 141.5C2.9707 102.57 26.5008 67.2854 64.625 41.7188C102.747 16.1535 155.431 0.330078 213.641 0.330078Z" stroke="black" stroke-width="0.660521"/>
</g>
<path d="M105.632 160.487L121.633 163.025C119.794 177.003 115.159 187.671 107.729 195.027C100.372 202.384 91.5068 206.062 81.1338 206.062C68.5537 206.062 58.1807 200.913 50.0146 190.613C41.9222 180.24 37.876 164.938 37.876 144.707C37.876 124.329 41.959 109.063 50.125 98.9111C58.3646 88.6852 68.9215 83.5723 81.7959 83.5723C91.7275 83.5723 100.077 86.6621 106.846 92.8418C113.688 99.0215 118.065 108.291 119.978 120.65L104.197 123.63C102.652 115.685 99.9671 109.762 96.1416 105.863C92.3161 101.891 87.7181 99.9043 82.3477 99.9043C74.3288 99.9043 67.6709 103.472 62.374 110.608C57.1507 117.671 54.5391 128.927 54.5391 144.376C54.5391 160.34 57.0404 171.89 62.043 179.026C67.1191 186.162 73.5931 189.73 81.4648 189.73C87.6445 189.73 92.9046 187.376 97.2451 182.668C101.659 177.886 104.455 170.493 105.632 160.487ZM125.402 86.2207H201.104V203.414H184.882V102.663H141.734V161.039C141.734 174.355 141.367 183.293 140.631 187.854C139.969 192.416 137.946 196.278 134.562 199.441C131.251 202.605 126.506 204.187 120.326 204.187C116.501 204.187 112.197 203.929 107.415 203.414V186.751C115.066 186.677 119.591 186.42 120.988 185.979C122.386 185.537 123.453 184.434 124.189 182.668C124.998 180.829 125.402 174.428 125.402 163.467V86.2207ZM232.571 135.217H266.449C265.567 125.285 262.808 116.935 258.173 110.167C253.612 103.399 247.616 100.015 240.186 100.015C227.532 100.015 219.918 107.997 217.343 123.961L201.452 120.871C202.629 110.13 206.602 101.229 213.37 94.166C220.212 87.1035 229.003 83.5723 239.744 83.5723C253.207 83.5723 263.801 89.0531 271.526 100.015C279.324 110.903 283.223 125.874 283.223 144.928C283.223 163.54 279.397 178.401 271.746 189.51C264.169 200.545 254.016 206.062 241.289 206.062C229.371 206.062 219.881 202.053 212.819 194.034C205.756 186.015 201.416 175.716 199.797 163.136L215.798 160.598C218.226 180.02 226.355 189.73 240.186 189.73C255.708 189.73 264.463 177.003 266.449 151.549H232.571V135.217ZM284.234 86.2207H300.455V175.605L345.699 86.2207H363.245V203.414H347.024V114.581L301.78 203.414H284.234V86.2207ZM338.747 41.8594H349.893C348.936 51.3496 346.067 58.4857 341.285 63.2676C336.503 68.0495 330.434 70.4404 323.077 70.4404C315.721 70.4404 309.651 68.0495 304.869 63.2676C300.161 58.4857 297.329 51.3496 296.372 41.8594H307.518C309.21 51.791 314.249 56.7568 322.636 56.7568C327.344 56.7568 330.986 55.5798 333.561 53.2256C336.136 50.8714 337.864 47.0827 338.747 41.8594Z" fill="#FD229E"/>
<defs>
<filter id="filter0_d_770_32366" x="-0.00145745" y="0" width="427.284" height="288.284" filterUnits="userSpaceOnUse" color-interpolation-filters="sRGB">
<feFlood flood-opacity="0" result="BackgroundImageFix"/>
<feColorMatrix in="SourceAlpha" type="matrix" values="0 0 0 0 0 0 0 0 0 0 0 0 0 0 0 0 0 0 127 0" result="hardAlpha"/>
<feOffset dy="2.64208"/>
<feGaussianBlur stdDeviation="1.32104"/>
<feComposite in2="hardAlpha" operator="out"/>
<feColorMatrix type="matrix" values="0 0 0 0 0 0 0 0 0 0 0 0 0 0 0 0 0 0 0.25 0"/>
<feBlend mode="normal" in2="BackgroundImageFix" result="effect1_dropShadow_770_32366"/>
<feBlend mode="normal" in="SourceGraphic" in2="effect1_dropShadow_770_32366" result="shape"/>
</filter>
</defs>
</svg>
