<svg width="62" height="68" viewBox="0 0 62 68" fill="none" xmlns="http://www.w3.org/2000/svg">
<g filter="url(#filter0_d_807_55164)">
<path d="M4 32C4 47.464 8.07213 60 31 60C53.2197 60 58 47.464 58 32C58 16.536 51.3607 4 31 4C9.84262 4 4 16.536 4 32Z" fill="white"/>
<path d="M31 4.5C20.5229 4.5 13.9373 7.59931 9.9541 12.5156C5.95391 17.4529 4.5 24.3162 4.5 32C4.5 39.7114 5.52098 46.5666 9.29883 51.4951C13.0535 56.3933 19.624 59.5 31 59.5C42.0164 59.5 48.5925 56.3958 52.4385 51.4902C56.3051 46.5584 57.5 39.7002 57.5 32C57.5 24.328 55.8509 17.4622 51.75 12.5205C47.6636 7.59636 41.0727 4.5 31 4.5Z" stroke="black"/>
</g>
<path d="M21.459 47.1074L45.5996 34.3047V27.2148L21.459 14.4707V22.8203L38.2754 30.6719L21.459 38.8164V47.1074Z" fill="#F64293"/>
<defs>
<filter id="filter0_d_807_55164" x="0" y="4" width="62" height="64" filterUnits="userSpaceOnUse" color-interpolation-filters="sRGB">
<feFlood flood-opacity="0" result="BackgroundImageFix"/>
<feColorMatrix in="SourceAlpha" type="matrix" values="0 0 0 0 0 0 0 0 0 0 0 0 0 0 0 0 0 0 127 0" result="hardAlpha"/>
<feOffset dy="4"/>
<feGaussianBlur stdDeviation="2"/>
<feComposite in2="hardAlpha" operator="out"/>
<feColorMatrix type="matrix" values="0 0 0 0 0 0 0 0 0 0 0 0 0 0 0 0 0 0 0.25 0"/>
<feBlend mode="normal" in2="BackgroundImageFix" result="effect1_dropShadow_807_55164"/>
<feBlend mode="normal" in="SourceGraphic" in2="effect1_dropShadow_807_55164" result="shape"/>
</filter>
</defs>
</svg>
